%TF.GenerationSoftware,Altium Limited,Altium Designer,25.0.2 (28)*%
G04 Layer_Color=65535*
%FSLAX45Y45*%
%MOMM*%
%TF.SameCoordinates,98363745-2E75-4EC5-B677-F8BA2FE6C772*%
%TF.FilePolarity,Positive*%
%TF.FileFunction,Legend,Top*%
%TF.Part,Single*%
G01*
G75*
%TA.AperFunction,NonConductor*%
%ADD88C,0.25000*%
%ADD89C,0.50000*%
%ADD90C,0.12700*%
%ADD91C,0.20000*%
%ADD92C,0.25400*%
%ADD93C,0.50800*%
%ADD94C,0.60000*%
%ADD95C,0.20320*%
%ADD96C,0.10000*%
%ADD97C,0.15240*%
%ADD98C,0.20002*%
D88*
X996800Y2519952D02*
G03*
X996800Y2519952I-12500J0D01*
G01*
X1100000Y6717500D02*
G03*
X1100000Y6717500I-12500J0D01*
G01*
X4868400Y888786D02*
G03*
X4868400Y888786I-12500J0D01*
G01*
X6715000Y3495000D02*
G03*
X6715000Y3495000I-12500J0D01*
G01*
X1532801Y5763800D02*
G03*
X1532801Y5763800I-12500J0D01*
G01*
X3437500Y6285000D02*
G03*
X3437500Y6285000I-12500J0D01*
G01*
D89*
X1179300Y2737500D02*
G03*
X1179300Y2737500I-25000J0D01*
G01*
X3430000Y5964767D02*
G03*
X3430000Y5964767I-25000J0D01*
G01*
D90*
X2421893Y3244846D02*
G03*
X2421893Y3270241I0J12697D01*
G01*
D02*
G03*
X2421893Y3244846I0J-12697D01*
G01*
X5221200Y3638600D02*
G03*
X5221200Y3718600I0J40000D01*
G01*
D02*
G03*
X5221200Y3638600I0J-40000D01*
G01*
X5700000Y6050000D02*
G03*
X5780000Y6050000I40000J0D01*
G01*
D02*
G03*
X5700000Y6050000I-40000J0D01*
G01*
X7122500Y5815000D02*
G03*
X7042500Y5815000I-40000J0D01*
G01*
D02*
G03*
X7122500Y5815000I40000J0D01*
G01*
X1712500Y5587500D02*
X1821000D01*
X1712500Y5237500D02*
Y5587500D01*
Y5237500D02*
X1731000D01*
X2174000D02*
X2192500D01*
Y5587500D01*
X2084000D02*
X2192500D01*
X6365000Y4776100D02*
X6468660D01*
X6365000Y4953900D02*
X6468660D01*
X6120680D02*
X6225000D01*
X6120680Y4776100D02*
X6225000D01*
X6468660D02*
Y4953900D01*
X6120680Y4776100D02*
Y4953900D01*
X7218600Y1421340D02*
Y1525000D01*
X7396400Y1421340D02*
Y1525000D01*
Y1665000D02*
Y1769320D01*
X7218600Y1665000D02*
Y1769320D01*
Y1421340D02*
X7396400D01*
X7218600Y1769320D02*
X7396400D01*
X4430920Y1883040D02*
Y2134500D01*
X4644280Y1906560D02*
Y2106560D01*
X4667140Y1906560D02*
Y2106560D01*
X3441560Y2014320D02*
X3619360D01*
X3441560Y1666340D02*
X3619360D01*
X3441560Y1910000D02*
Y2014320D01*
X3619360Y1910000D02*
Y2014320D01*
Y1666340D02*
Y1770000D01*
X3441560Y1666340D02*
Y1770000D01*
X7860000Y5881000D02*
Y5949000D01*
X7910000Y5769000D02*
X7990000D01*
X7910000Y6061000D02*
X7990000D01*
Y5769000D02*
Y5853000D01*
Y5977000D02*
Y6061000D01*
X6137500Y6295000D02*
Y6465000D01*
X6487500Y6295000D02*
Y6465000D01*
X6137500Y6295000D02*
X6242500D01*
X6137500Y6465000D02*
X6242500D01*
X6372500D02*
X6487500D01*
X6372500Y6295000D02*
X6487500D01*
X8206000Y4338000D02*
X8406000D01*
X8656000Y4588000D02*
Y4788000D01*
X8206000Y5038000D02*
X8406000D01*
X7956000Y4588000D02*
Y4788000D01*
X8206000Y366000D02*
X8406000D01*
X8656000Y616000D02*
Y816000D01*
X8206000Y1066000D02*
X8406000D01*
X7956000Y616000D02*
Y816000D01*
X8206000Y2352000D02*
X8406000D01*
X8656000Y2602000D02*
Y2802000D01*
X8206000Y3052000D02*
X8406000D01*
X7956000Y2602000D02*
Y2802000D01*
X8206000Y6324000D02*
X8406000D01*
X8656000Y6574000D02*
Y6774000D01*
X8206000Y7024000D02*
X8406000D01*
X7956000Y6574000D02*
Y6774000D01*
X6044320Y4778600D02*
Y4956400D01*
X5696340Y4778600D02*
Y4956400D01*
X5940000D02*
X6044320D01*
X5940000Y4778600D02*
X6044320D01*
X5696340D02*
X5800000D01*
X5696340Y4956400D02*
X5800000D01*
X2654320Y1148600D02*
Y1326400D01*
X2306340Y1148600D02*
Y1326400D01*
X2550000D02*
X2654320D01*
X2550000Y1148600D02*
X2654320D01*
X2306340D02*
X2410000D01*
X2306340Y1326400D02*
X2410000D01*
X7863600Y1761820D02*
X8041400D01*
X7863600Y1413840D02*
X8041400D01*
X7863600Y1657500D02*
Y1761820D01*
X8041400Y1657500D02*
Y1761820D01*
Y1413840D02*
Y1517500D01*
X7863600Y1413840D02*
Y1517500D01*
X8523600Y1756820D02*
X8701400D01*
X8523600Y1408840D02*
X8701400D01*
X8523600Y1652500D02*
Y1756820D01*
X8701400Y1652500D02*
Y1756820D01*
Y1408840D02*
Y1512500D01*
X8523600Y1408840D02*
Y1512500D01*
X6046820Y4556100D02*
Y4733900D01*
X5698840Y4556100D02*
Y4733900D01*
X5942500D02*
X6046820D01*
X5942500Y4556100D02*
X6046820D01*
X5698840D02*
X5802500D01*
X5698840Y4733900D02*
X5802500D01*
X2656820Y921100D02*
Y1098900D01*
X2308840Y921100D02*
Y1098900D01*
X2552500D02*
X2656820D01*
X2552500Y921100D02*
X2656820D01*
X2308840D02*
X2412500D01*
X2308840Y1098900D02*
X2412500D01*
X7531100Y1764320D02*
X7708900D01*
X7531100Y1416340D02*
X7708900D01*
X7531100Y1660000D02*
Y1764320D01*
X7708900Y1660000D02*
Y1764320D01*
Y1416340D02*
Y1520000D01*
X7531100Y1416340D02*
Y1520000D01*
X8208600Y1759320D02*
X8386400D01*
X8208600Y1411340D02*
X8386400D01*
X8208600Y1655000D02*
Y1759320D01*
X8386400Y1655000D02*
Y1759320D01*
Y1411340D02*
Y1515000D01*
X8208600Y1411340D02*
Y1515000D01*
X5155000Y5876000D02*
Y5944000D01*
X5025000Y6056000D02*
X5105000D01*
X5025000Y5764000D02*
X5105000D01*
X5025000Y5972000D02*
Y6056000D01*
Y5764000D02*
Y5848000D01*
D91*
X1812500Y5102500D02*
G03*
X1812500Y5102500I-10000J0D01*
G01*
X490000Y1202500D02*
G03*
X490000Y1202500I-10000J0D01*
G01*
X3530000Y6007000D02*
G03*
X3530000Y6007000I-10000J0D01*
G01*
X2380000Y6027000D02*
G03*
X2380000Y6027000I-10000J0D01*
G01*
X1069300Y2652500D02*
Y3202500D01*
X1619300D01*
Y2652500D02*
Y3202500D01*
X1069300Y2652500D02*
X1619300D01*
X2360100Y3186600D02*
Y3416800D01*
X2667500Y3255000D02*
Y3352500D01*
X890000Y6745000D02*
Y7055000D01*
X990000Y6745000D02*
Y7055000D01*
X890000D02*
X990000D01*
X890000Y6745000D02*
X990000D01*
X745000Y1792500D02*
X995000D01*
X745000Y1252500D02*
X995000D01*
X500000Y1432500D02*
Y1612500D01*
X1240000Y1432500D02*
Y1612500D01*
X4841200Y3558600D02*
X5376200D01*
X4916200Y4083600D02*
X5286200D01*
X5645000Y98490D02*
X7145000D01*
X5645000Y928490D02*
X7145000D01*
X5645000Y98490D02*
Y928490D01*
X7205000Y160990D02*
Y225990D01*
X7145000Y213490D02*
X7205000Y225990D01*
X7145000Y173490D02*
X7205000Y160990D01*
X7145000Y98490D02*
Y173490D01*
X7205000Y800990D02*
Y865990D01*
X7145000Y853490D02*
X7205000Y865990D01*
X7145000Y813490D02*
X7205000Y800990D01*
X7145000Y853490D02*
Y928490D01*
Y213490D02*
Y813490D01*
X4662495Y85990D02*
Y845990D01*
X4762500D01*
X4662495Y85990D02*
X5252498D01*
X5252523Y86014D02*
Y846015D01*
X5152499Y845990D02*
X5252498D01*
X2637500Y5185000D02*
X2702500D01*
X2637500D02*
Y5475000D01*
X2702500D01*
Y5185000D02*
Y5475000D01*
X2737500Y5170000D02*
X2852500D01*
X7230000Y3605000D02*
Y3975000D01*
X6720000Y3605000D02*
Y3975000D01*
X7230000D01*
X6720000Y3605000D02*
X7230000D01*
X3040000Y3702500D02*
X3085000D01*
X2915000D02*
X2935000D01*
X2915000Y3877500D02*
X2935000D01*
X3065000D02*
X3085000D01*
X1375301Y5778800D02*
Y6098800D01*
X1240301Y5778800D02*
Y6098800D01*
Y5778800D02*
X1375301D01*
X1240301Y6098800D02*
X1375301D01*
X2980000Y6039767D02*
X3480000D01*
X2980000Y5720233D02*
Y6039767D01*
Y5720233D02*
X3480000D01*
Y6039767D01*
X5335000Y5745000D02*
Y6115000D01*
X5860000Y5670000D02*
Y6205000D01*
X7487500Y5750000D02*
Y6120000D01*
X6962500Y5660000D02*
Y6195000D01*
D92*
X6564500Y4395000D02*
G03*
X6564500Y4395000I-127000J0D01*
G01*
X3819500Y7000000D02*
G03*
X3819500Y7000000I-127000J0D01*
G01*
X2652000Y6827500D02*
G03*
X2652000Y6827500I-127000J0D01*
G01*
X5312000Y2035000D02*
G03*
X5312000Y2035000I-127000J0D01*
G01*
X3467000Y5170000D02*
G03*
X3467000Y5170000I-127000J0D01*
G01*
X2367000Y1905000D02*
G03*
X2367000Y1905000I-127000J0D01*
G01*
X4324500Y2947500D02*
G03*
X4324500Y2947500I-127000J0D01*
G01*
X3417000Y4170000D02*
G03*
X3417000Y4170000I-127000J0D01*
G01*
X4477000Y4420000D02*
G03*
X4477000Y4420000I-127000J0D01*
G01*
X3167000Y3290000D02*
G03*
X3167000Y3290000I-127000J0D01*
G01*
X6584500Y3157500D02*
G03*
X6584500Y3157500I-127000J0D01*
G01*
X7539500Y2022500D02*
G03*
X7539500Y2022500I-127000J0D01*
G01*
X5754500Y2952500D02*
G03*
X5754500Y2952500I-127000J0D01*
G01*
X964500Y5135000D02*
G03*
X964500Y5135000I-127000J0D01*
G01*
X2442000Y4982500D02*
G03*
X2442000Y4982500I-127000J0D01*
G01*
X5257000Y6280000D02*
G03*
X5257000Y6280000I-127000J0D01*
G01*
X4707000Y6440000D02*
G03*
X4707000Y6440000I-127000J0D01*
G01*
X2697000Y6270000D02*
G03*
X2697000Y6270000I-127000J0D01*
G01*
X1054500Y6387500D02*
G03*
X1054500Y6387500I-127000J0D01*
G01*
X5267000Y5400000D02*
G03*
X5267000Y5400000I-127000J0D01*
G01*
X2094500Y3955000D02*
G03*
X2094500Y3955000I-127000J0D01*
G01*
X4510900Y2943100D02*
X4714100D01*
X4510900Y2231900D02*
X4714100D01*
Y2943100D01*
X4510900Y2231900D02*
Y2943100D01*
X800400Y3769200D02*
Y3870800D01*
Y3921600D01*
Y3718400D02*
Y3769200D01*
Y3921600D02*
X1511600D01*
X800400Y3718400D02*
X1511600D01*
Y3921600D01*
X2720400Y7228400D02*
Y7431600D01*
X3431600Y7228400D02*
Y7431600D01*
X2720400D02*
X3431600D01*
X2720400Y7228400D02*
X3431600D01*
X4588400Y5305600D02*
X4791600D01*
X4588400Y4594400D02*
X4791600D01*
Y5305600D01*
X4588400Y4594400D02*
Y5305600D01*
X4641600Y7218400D02*
Y7421600D01*
X3930400Y7218400D02*
Y7421600D01*
Y7218400D02*
X4641600D01*
X3930400Y7421600D02*
X4641600D01*
X6729600Y7228400D02*
Y7431600D01*
X6018400Y7228400D02*
Y7431600D01*
Y7228400D02*
X6729600D01*
X6018400Y7431600D02*
X6729600D01*
X7925600Y7228400D02*
Y7431600D01*
X7214400Y7228400D02*
Y7431600D01*
Y7228400D02*
X7925600D01*
X7214400Y7431600D02*
X7925600D01*
X5795600Y7218400D02*
Y7421600D01*
X5084400Y7218400D02*
Y7421600D01*
Y7218400D02*
X5795600D01*
X5084400Y7421600D02*
X5795600D01*
X4765400Y2838684D02*
X4816183D01*
X4790792Y2864075D02*
Y2813292D01*
X4841575Y2864075D02*
X4854271Y2876771D01*
X4879663D01*
X4892359Y2864075D01*
Y2851379D01*
X4879663Y2838684D01*
X4866967D01*
X4879663D01*
X4892359Y2825988D01*
Y2813292D01*
X4879663Y2800596D01*
X4854271D01*
X4841575Y2813292D01*
X4917751Y2800596D02*
Y2813292D01*
X4930447D01*
Y2800596D01*
X4917751D01*
X4981230Y2864075D02*
X4993926Y2876771D01*
X5019318D01*
X5032014Y2864075D01*
Y2851379D01*
X5019318Y2838684D01*
X5006622D01*
X5019318D01*
X5032014Y2825988D01*
Y2813292D01*
X5019318Y2800596D01*
X4993926D01*
X4981230Y2813292D01*
X5057405Y2876771D02*
Y2825988D01*
X5082797Y2800596D01*
X5108189Y2825988D01*
Y2876771D01*
X5133581Y2787900D02*
X5184364D01*
X5260540Y2876771D02*
X5209756D01*
Y2800596D01*
X5260540D01*
X5209756Y2838684D02*
X5235148D01*
X5285932Y2876771D02*
X5336715Y2800596D01*
Y2876771D02*
X5285932Y2800596D01*
X5362107Y2876771D02*
X5412890D01*
X5387499D01*
Y2800596D01*
X5332461Y110400D02*
X5315533Y127328D01*
Y161184D01*
X5332461Y178111D01*
X5349389D01*
X5366317Y161184D01*
Y144256D01*
Y161184D01*
X5383245Y178111D01*
X5400172D01*
X5417100Y161184D01*
Y127328D01*
X5400172Y110400D01*
X5417100Y211967D02*
X5400172D01*
Y228895D01*
X5417100D01*
Y211967D01*
X5315533Y296607D02*
Y364318D01*
X5332461D01*
X5400172Y296607D01*
X5417100D01*
X5315533Y398174D02*
X5383245D01*
X5417100Y432030D01*
X5383245Y465885D01*
X5315533D01*
X5417100Y499741D02*
X5349389Y567453D01*
X5417100Y652092D02*
X5315533D01*
X5366317Y601308D01*
Y669020D01*
X5417100Y702876D02*
X5400172D01*
Y719803D01*
X5417100D01*
Y702876D01*
Y855226D02*
Y787515D01*
X5349389Y855226D01*
X5332461D01*
X5315533Y838299D01*
Y804443D01*
X5332461Y787515D01*
X5315533Y889082D02*
X5383245D01*
X5417100Y922938D01*
X5383245Y956794D01*
X5315533D01*
Y1143000D02*
Y1109145D01*
X5332461Y1092217D01*
X5400172D01*
X5417100Y1109145D01*
Y1143000D01*
X5400172Y1159928D01*
X5332461D01*
X5315533Y1143000D01*
X5417100Y1193784D02*
X5315533D01*
X5417100Y1261495D01*
X5315533D01*
Y1295351D02*
X5417100D01*
Y1363063D01*
X5315533Y1396918D02*
X5332461D01*
X5366317Y1430774D01*
X5332461Y1464630D01*
X5315533D01*
X5366317Y1430774D02*
X5417100D01*
X4252460Y263111D02*
X4235533Y246184D01*
Y212328D01*
X4252460Y195400D01*
X4320172D01*
X4337100Y212328D01*
Y246184D01*
X4320172Y263111D01*
X4235533Y296967D02*
X4337100D01*
X4286316D01*
Y364679D01*
X4235533D01*
X4337100D01*
Y398535D02*
X4269388D01*
X4235533Y432390D01*
X4269388Y466246D01*
X4337100D01*
X4286316D01*
Y398535D01*
X4337100Y500102D02*
X4235533D01*
Y550885D01*
X4252460Y567813D01*
X4286316D01*
X4303244Y550885D01*
Y500102D01*
Y533958D02*
X4337100Y567813D01*
X4252460Y669380D02*
X4235533Y652453D01*
Y618597D01*
X4252460Y601669D01*
X4320172D01*
X4337100Y618597D01*
Y652453D01*
X4320172Y669380D01*
X4286316D01*
Y635525D01*
X4235533Y770948D02*
Y703236D01*
X4337100D01*
Y770948D01*
X4286316Y703236D02*
Y737092D01*
X4235533Y957154D02*
Y923299D01*
X4252460Y906371D01*
X4320172D01*
X4337100Y923299D01*
Y957154D01*
X4320172Y974082D01*
X4252460D01*
X4235533Y957154D01*
X4337100Y1007938D02*
X4235533D01*
X4337100Y1075649D01*
X4235533D01*
Y1109505D02*
X4337100D01*
Y1177217D01*
X4235533Y1211073D02*
X4252460D01*
X4286316Y1244928D01*
X4252460Y1278784D01*
X4235533D01*
X4286316Y1244928D02*
X4337100D01*
X968111Y415039D02*
X951184Y431967D01*
X917328D01*
X900400Y415039D01*
Y398111D01*
X917328Y381183D01*
X951184D01*
X968111Y364256D01*
Y347328D01*
X951184Y330400D01*
X917328D01*
X900400Y347328D01*
X1001967Y431967D02*
Y330400D01*
X1035823Y364256D01*
X1069679Y330400D01*
Y431967D01*
X1103534D02*
Y330400D01*
X1154318D01*
X1171246Y347328D01*
Y415039D01*
X1154318Y431967D01*
X1103534D01*
X5542900Y5106967D02*
Y5005400D01*
X5593684D01*
X5610611Y5022328D01*
Y5090039D01*
X5593684Y5106967D01*
X5542900D01*
X5644467Y5005400D02*
Y5106967D01*
X5712179Y5005400D01*
Y5106967D01*
X5746034Y5005400D02*
Y5106967D01*
X5796818D01*
X5813746Y5090039D01*
Y5056183D01*
X5796818Y5039256D01*
X5746034D01*
X5915313Y5090039D02*
X5898385Y5106967D01*
X5864530D01*
X5847602Y5090039D01*
Y5073111D01*
X5864530Y5056183D01*
X5898385D01*
X5915313Y5039256D01*
Y5022328D01*
X5898385Y5005400D01*
X5864530D01*
X5847602Y5022328D01*
X6050736Y5106967D02*
X6118448Y5005400D01*
Y5106967D02*
X6050736Y5005400D01*
X6152303Y5090039D02*
X6169231Y5106967D01*
X6203087D01*
X6220015Y5090039D01*
Y5073111D01*
X6203087Y5056183D01*
X6186159D01*
X6203087D01*
X6220015Y5039256D01*
Y5022328D01*
X6203087Y5005400D01*
X6169231D01*
X6152303Y5022328D01*
X7625400Y1329467D02*
Y1227900D01*
X7676184D01*
X7693112Y1244828D01*
Y1312540D01*
X7676184Y1329467D01*
X7625400D01*
X7726968Y1227900D02*
Y1329467D01*
X7794679Y1227900D01*
Y1329467D01*
X7828535Y1227900D02*
Y1329467D01*
X7879318D01*
X7896246Y1312540D01*
Y1278684D01*
X7879318Y1261756D01*
X7828535D01*
X7997813Y1312540D02*
X7980885Y1329467D01*
X7947030D01*
X7930102Y1312540D01*
Y1295612D01*
X7947030Y1278684D01*
X7980885D01*
X7997813Y1261756D01*
Y1244828D01*
X7980885Y1227900D01*
X7947030D01*
X7930102Y1244828D01*
X8133236Y1329467D02*
X8200948Y1227900D01*
Y1329467D02*
X8133236Y1227900D01*
X8302515Y1329467D02*
X8234804D01*
Y1278684D01*
X8268659Y1295612D01*
X8285587D01*
X8302515Y1278684D01*
Y1244828D01*
X8285587Y1227900D01*
X8251732D01*
X8234804Y1244828D01*
X2147900Y1479467D02*
Y1377900D01*
X2198683D01*
X2215611Y1394828D01*
Y1462539D01*
X2198683Y1479467D01*
X2147900D01*
X2249467Y1377900D02*
Y1479467D01*
X2317178Y1377900D01*
Y1479467D01*
X2351034Y1377900D02*
Y1479467D01*
X2401818D01*
X2418746Y1462539D01*
Y1428683D01*
X2401818Y1411756D01*
X2351034D01*
X2520313Y1462539D02*
X2503385Y1479467D01*
X2469529D01*
X2452602Y1462539D01*
Y1445611D01*
X2469529Y1428683D01*
X2503385D01*
X2520313Y1411756D01*
Y1394828D01*
X2503385Y1377900D01*
X2469529D01*
X2452602Y1394828D01*
X2655736Y1479467D02*
X2723447Y1377900D01*
Y1479467D02*
X2655736Y1377900D01*
X2825015D02*
X2757303D01*
X2825015Y1445611D01*
Y1462539D01*
X2808087Y1479467D01*
X2774231D01*
X2757303Y1462539D01*
X7962539Y251019D02*
X7877900D01*
Y124060D01*
X7962539D01*
X7877900Y187539D02*
X7920220D01*
X8004859Y251019D02*
X8089498Y124060D01*
Y251019D02*
X8004859Y124060D01*
X8216457Y229859D02*
X8195297Y251019D01*
X8152977D01*
X8131818Y229859D01*
Y145219D01*
X8152977Y124060D01*
X8195297D01*
X8216457Y145219D01*
X8258776Y102900D02*
X8343416D01*
X8385735Y124060D02*
Y251019D01*
X8470375Y124060D01*
Y251019D01*
X8597334D02*
X8512694D01*
Y124060D01*
X8597334D01*
X8512694Y187539D02*
X8555014D01*
X8724292Y229859D02*
X8703132Y251019D01*
X8660813D01*
X8639653Y229859D01*
Y145219D01*
X8660813Y124060D01*
X8703132D01*
X8724292Y145219D01*
Y187539D01*
X8681973D01*
X7995039Y2219859D02*
X7973879Y2241019D01*
X7931560D01*
X7910400Y2219859D01*
Y2198699D01*
X7931560Y2177539D01*
X7973879D01*
X7995039Y2156379D01*
Y2135220D01*
X7973879Y2114060D01*
X7931560D01*
X7910400Y2135220D01*
X8037359Y2114060D02*
Y2241019D01*
X8121998Y2114060D01*
Y2241019D01*
X8248957Y2219859D02*
X8227797Y2241019D01*
X8185477D01*
X8164318Y2219859D01*
Y2198699D01*
X8185477Y2177539D01*
X8227797D01*
X8248957Y2156379D01*
Y2135220D01*
X8227797Y2114060D01*
X8185477D01*
X8164318Y2135220D01*
X8291277Y2092900D02*
X8375916D01*
X8418235Y2114060D02*
Y2241019D01*
X8502875Y2114060D01*
Y2241019D01*
X8629834D02*
X8545194D01*
Y2114060D01*
X8629834D01*
X8545194Y2177539D02*
X8587514D01*
X8756792Y2219859D02*
X8735633Y2241019D01*
X8693313D01*
X8672153Y2219859D01*
Y2135220D01*
X8693313Y2114060D01*
X8735633D01*
X8756792Y2135220D01*
Y2177539D01*
X8714473D01*
X8002539Y4199859D02*
X7981380Y4221018D01*
X7939060D01*
X7917900Y4199859D01*
Y4178699D01*
X7939060Y4157539D01*
X7981380D01*
X8002539Y4136379D01*
Y4115219D01*
X7981380Y4094060D01*
X7939060D01*
X7917900Y4115219D01*
X8044859Y4094060D02*
Y4221018D01*
X8129498Y4094060D01*
Y4221018D01*
X8256457Y4199859D02*
X8235297Y4221018D01*
X8192978D01*
X8171818Y4199859D01*
Y4178699D01*
X8192978Y4157539D01*
X8235297D01*
X8256457Y4136379D01*
Y4115219D01*
X8235297Y4094060D01*
X8192978D01*
X8171818Y4115219D01*
X8298777Y4072900D02*
X8383416D01*
X8425735Y4094060D02*
Y4221018D01*
X8489215D01*
X8510375Y4199859D01*
Y4157539D01*
X8489215Y4136379D01*
X8425735D01*
X8616174Y4221018D02*
X8573854D01*
X8552694Y4199859D01*
Y4115219D01*
X8573854Y4094060D01*
X8616174D01*
X8637334Y4115219D01*
Y4199859D01*
X8616174Y4221018D01*
X8764293Y4199859D02*
X8743133Y4221018D01*
X8700813D01*
X8679653Y4199859D01*
Y4178699D01*
X8700813Y4157539D01*
X8743133D01*
X8764293Y4136379D01*
Y4115219D01*
X8743133Y4094060D01*
X8700813D01*
X8679653Y4115219D01*
X8002539Y6238519D02*
X7917900D01*
Y6111560D01*
X8002539D01*
X7917900Y6175039D02*
X7960220D01*
X8044859Y6238519D02*
X8129498Y6111560D01*
Y6238519D02*
X8044859Y6111560D01*
X8256457Y6217359D02*
X8235297Y6238519D01*
X8192978D01*
X8171818Y6217359D01*
Y6132720D01*
X8192978Y6111560D01*
X8235297D01*
X8256457Y6132720D01*
X8298777Y6090400D02*
X8383416D01*
X8425735Y6111560D02*
Y6238519D01*
X8489215D01*
X8510375Y6217359D01*
Y6175039D01*
X8489215Y6153879D01*
X8425735D01*
X8616174Y6238519D02*
X8573854D01*
X8552694Y6217359D01*
Y6132720D01*
X8573854Y6111560D01*
X8616174D01*
X8637334Y6132720D01*
Y6217359D01*
X8616174Y6238519D01*
X8764293Y6217359D02*
X8743133Y6238519D01*
X8700813D01*
X8679653Y6217359D01*
Y6196199D01*
X8700813Y6175039D01*
X8743133D01*
X8764293Y6153879D01*
Y6132720D01*
X8743133Y6111560D01*
X8700813D01*
X8679653Y6132720D01*
X6896888Y1017900D02*
Y1085611D01*
X6863033Y1051755D02*
X6930744D01*
X6846105Y1187178D02*
Y1119467D01*
X6896888D01*
X6879961Y1153323D01*
Y1170250D01*
X6896888Y1187178D01*
X6930744D01*
X6947672Y1170250D01*
Y1136395D01*
X6930744Y1119467D01*
X6846105Y1221034D02*
X6913816D01*
X6947672Y1254890D01*
X6913816Y1288745D01*
X6846105D01*
X6964600Y1322601D02*
Y1390313D01*
X6846105Y1491880D02*
Y1424169D01*
X6947672D01*
Y1491880D01*
X6896888Y1424169D02*
Y1458024D01*
X6846105Y1525736D02*
X6947672Y1593447D01*
X6846105D02*
X6947672Y1525736D01*
X6846105Y1627303D02*
Y1695014D01*
Y1661159D01*
X6947672D01*
X5862461Y1108111D02*
X5845533Y1091183D01*
Y1057328D01*
X5862461Y1040400D01*
X5930172D01*
X5947100Y1057328D01*
Y1091183D01*
X5930172Y1108111D01*
X5896317D01*
Y1074256D01*
X5947100Y1141967D02*
X5845533D01*
X5947100Y1209679D01*
X5845533D01*
Y1243534D02*
X5947100D01*
Y1294318D01*
X5930172Y1311246D01*
X5862461D01*
X5845533Y1294318D01*
Y1243534D01*
X4782900Y2323684D02*
X4833684D01*
X4808292Y2349075D02*
Y2298292D01*
X4859075Y2349075D02*
X4871771Y2361771D01*
X4897163D01*
X4909859Y2349075D01*
Y2336379D01*
X4897163Y2323684D01*
X4884467D01*
X4897163D01*
X4909859Y2310988D01*
Y2298292D01*
X4897163Y2285596D01*
X4871771D01*
X4859075Y2298292D01*
X4935251Y2285596D02*
Y2298292D01*
X4947947D01*
Y2285596D01*
X4935251D01*
X4998730Y2349075D02*
X5011426Y2361771D01*
X5036818D01*
X5049514Y2349075D01*
Y2336379D01*
X5036818Y2323684D01*
X5024122D01*
X5036818D01*
X5049514Y2310988D01*
Y2298292D01*
X5036818Y2285596D01*
X5011426D01*
X4998730Y2298292D01*
X5074906Y2361771D02*
Y2310988D01*
X5100297Y2285596D01*
X5125689Y2310988D01*
Y2361771D01*
X5151081Y2272900D02*
X5201864D01*
X5227256Y2361771D02*
Y2285596D01*
X5265344D01*
X5278040Y2298292D01*
Y2310988D01*
X5265344Y2323684D01*
X5227256D01*
X5265344D01*
X5278040Y2336379D01*
Y2349075D01*
X5265344Y2361771D01*
X5227256D01*
X5303432Y2285596D02*
Y2336379D01*
X5328823Y2361771D01*
X5354215Y2336379D01*
Y2285596D01*
Y2323684D01*
X5303432D01*
X5379607Y2361771D02*
X5430390D01*
X5404999D01*
Y2285596D01*
X4782900Y2586184D02*
X4833684D01*
X4808292Y2611575D02*
Y2560792D01*
X4859075Y2611575D02*
X4871771Y2624271D01*
X4897163D01*
X4909859Y2611575D01*
Y2598879D01*
X4897163Y2586184D01*
X4884467D01*
X4897163D01*
X4909859Y2573488D01*
Y2560792D01*
X4897163Y2548096D01*
X4871771D01*
X4859075Y2560792D01*
X4935251Y2548096D02*
Y2560792D01*
X4947947D01*
Y2548096D01*
X4935251D01*
X4998730Y2611575D02*
X5011426Y2624271D01*
X5036818D01*
X5049514Y2611575D01*
Y2598879D01*
X5036818Y2586184D01*
X5024122D01*
X5036818D01*
X5049514Y2573488D01*
Y2560792D01*
X5036818Y2548096D01*
X5011426D01*
X4998730Y2560792D01*
X5074906Y2624271D02*
Y2573488D01*
X5100297Y2548096D01*
X5125689Y2573488D01*
Y2624271D01*
X5151081Y2535400D02*
X5201864D01*
X5278040Y2611575D02*
X5265344Y2624271D01*
X5239952D01*
X5227256Y2611575D01*
Y2598879D01*
X5239952Y2586184D01*
X5265344D01*
X5278040Y2573488D01*
Y2560792D01*
X5265344Y2548096D01*
X5239952D01*
X5227256Y2560792D01*
X5303432Y2624271D02*
Y2611575D01*
X5328823Y2586184D01*
X5354215Y2611575D01*
Y2624271D01*
X5328823Y2586184D02*
Y2548096D01*
X5430390Y2611575D02*
X5417695Y2624271D01*
X5392303D01*
X5379607Y2611575D01*
Y2598879D01*
X5392303Y2586184D01*
X5417695D01*
X5430390Y2573488D01*
Y2560792D01*
X5417695Y2548096D01*
X5392303D01*
X5379607Y2560792D01*
X6394389Y1002900D02*
Y1070611D01*
X6360533Y1036756D02*
X6428244D01*
X6360533Y1104467D02*
X6343605Y1121395D01*
Y1155251D01*
X6360533Y1172179D01*
X6377461D01*
X6394389Y1155251D01*
Y1138323D01*
Y1155251D01*
X6411317Y1172179D01*
X6428244D01*
X6445172Y1155251D01*
Y1121395D01*
X6428244Y1104467D01*
X6445172Y1206034D02*
X6428244D01*
Y1222962D01*
X6445172D01*
Y1206034D01*
X6360533Y1290674D02*
X6343605Y1307602D01*
Y1341457D01*
X6360533Y1358385D01*
X6377461D01*
X6394389Y1341457D01*
Y1324529D01*
Y1341457D01*
X6411317Y1358385D01*
X6428244D01*
X6445172Y1341457D01*
Y1307602D01*
X6428244Y1290674D01*
X6343605Y1392241D02*
X6411317D01*
X6445172Y1426097D01*
X6411317Y1459952D01*
X6343605D01*
X6462100Y1493808D02*
Y1561520D01*
X6343605Y1663087D02*
Y1595376D01*
X6445172D01*
Y1663087D01*
X6394389Y1595376D02*
Y1629231D01*
X6343605Y1696943D02*
X6445172Y1764654D01*
X6343605D02*
X6445172Y1696943D01*
X6343605Y1798510D02*
Y1866221D01*
Y1832366D01*
X6445172D01*
X876121Y4033684D02*
X863425Y4020988D01*
Y3995596D01*
X876121Y3982900D01*
X926904D01*
X939600Y3995596D01*
Y4020988D01*
X926904Y4033684D01*
X901512D01*
Y4008292D01*
X939600Y4059075D02*
X863425D01*
X939600Y4109859D01*
X863425D01*
Y4135251D02*
X939600D01*
Y4173339D01*
X926904Y4186034D01*
X876121D01*
X863425Y4173339D01*
Y4135251D01*
X1454600Y4015400D02*
X1378424D01*
Y4053488D01*
X1391120Y4066184D01*
X1416512D01*
X1429208Y4053488D01*
Y4015400D01*
Y4040792D02*
X1454600Y4066184D01*
X1378424Y4091576D02*
X1454600Y4142359D01*
X1378424D02*
X1454600Y4091576D01*
X1125925Y4005400D02*
Y4056183D01*
Y4030792D01*
X1202100D01*
X1125925Y4081575D02*
X1202100Y4132359D01*
X1125925D02*
X1202100Y4081575D01*
X4826121Y1006183D02*
X4813425Y993488D01*
Y968096D01*
X4826121Y955400D01*
X4876904D01*
X4889600Y968096D01*
Y993488D01*
X4876904Y1006183D01*
X4851512D01*
Y980792D01*
X4889600Y1031575D02*
X4813425D01*
X4889600Y1082359D01*
X4813425D01*
Y1107751D02*
X4889600D01*
Y1145838D01*
X4876904Y1158534D01*
X4826121D01*
X4813425Y1145838D01*
Y1107751D01*
X5056316Y895400D02*
Y946184D01*
X5030924Y920792D02*
X5081708D01*
X5018228Y971576D02*
X5069012D01*
X5094404Y996968D01*
X5069012Y1022359D01*
X5018228D01*
X5107100Y1047751D02*
Y1098535D01*
X5018228Y1123926D02*
X5094404D01*
Y1162014D01*
X5081708Y1174710D01*
X5069012D01*
X5056316Y1162014D01*
Y1123926D01*
Y1162014D01*
X5043620Y1174710D01*
X5030924D01*
X5018228Y1162014D01*
Y1123926D01*
X5094404Y1200102D02*
X5043620D01*
X5018228Y1225494D01*
X5043620Y1250885D01*
X5094404D01*
X5056316D01*
Y1200102D01*
X5018228Y1276277D02*
Y1327061D01*
Y1301669D01*
X5094404D01*
X4857900Y4989271D02*
Y4913096D01*
Y4951184D01*
X4908684D01*
Y4989271D01*
Y4913096D01*
X4984859Y4976575D02*
X4972163Y4989271D01*
X4946771D01*
X4934075Y4976575D01*
Y4925792D01*
X4946771Y4913096D01*
X4972163D01*
X4984859Y4925792D01*
X5010251Y4913096D02*
Y4989271D01*
X5048339D01*
X5061034Y4976575D01*
Y4951184D01*
X5048339Y4938488D01*
X5010251D01*
X5086426Y4900400D02*
X5137210D01*
X5162602Y4913096D02*
Y4989271D01*
X5200689D01*
X5213385Y4976575D01*
Y4951184D01*
X5200689Y4938488D01*
X5162602D01*
X5187993D02*
X5213385Y4913096D01*
X5289560Y4989271D02*
X5238777D01*
Y4913096D01*
X5289560D01*
X5238777Y4951184D02*
X5264169D01*
X5365736Y4989271D02*
X5314952D01*
Y4951184D01*
X5340344D01*
X5314952D01*
Y4913096D01*
X4860400Y4700988D02*
X4911183D01*
X4885792Y4726379D02*
Y4675596D01*
X4987359Y4662900D02*
X4936575D01*
X4987359Y4713683D01*
Y4726379D01*
X4974663Y4739075D01*
X4949271D01*
X4936575Y4726379D01*
X5012751Y4662900D02*
Y4675596D01*
X5025447D01*
Y4662900D01*
X5012751D01*
X5127014Y4739075D02*
X5076230D01*
Y4700988D01*
X5101622Y4713683D01*
X5114318D01*
X5127014Y4700988D01*
Y4675596D01*
X5114318Y4662900D01*
X5088926D01*
X5076230Y4675596D01*
X5152405Y4739075D02*
Y4688292D01*
X5177797Y4662900D01*
X5203189Y4688292D01*
Y4739075D01*
X4852900Y5234075D02*
Y5183292D01*
X4878292Y5157900D01*
X4903684Y5183292D01*
Y5234075D01*
X4979859Y5221379D02*
X4967163Y5234075D01*
X4941771D01*
X4929075Y5221379D01*
Y5170596D01*
X4941771Y5157900D01*
X4967163D01*
X4979859Y5170596D01*
X5005251Y5157900D02*
Y5234075D01*
X5030643Y5208684D01*
X5056034Y5234075D01*
Y5157900D01*
X7347100Y6592900D02*
X7245533D01*
X7279389Y6626756D01*
X7245533Y6660611D01*
X7347100D01*
Y6694467D02*
X7279389D01*
X7245533Y6728323D01*
X7279389Y6762179D01*
X7347100D01*
X7296316D01*
Y6694467D01*
X7347100Y6796034D02*
X7245533D01*
X7347100Y6863746D01*
X7245533D01*
Y6897602D02*
X7330172D01*
X7347100Y6914529D01*
Y6948385D01*
X7330172Y6965313D01*
X7245533D01*
X7347100Y6999169D02*
X7279389D01*
X7245533Y7033025D01*
X7279389Y7066880D01*
X7347100D01*
X7296316D01*
Y6999169D01*
X7245533Y7100736D02*
X7347100D01*
Y7168447D01*
X7882100Y6870400D02*
X7780533D01*
X7814388Y6904256D01*
X7780533Y6938112D01*
X7882100D01*
X7797460Y7039679D02*
X7780533Y7022751D01*
Y6988895D01*
X7797460Y6971968D01*
X7865172D01*
X7882100Y6988895D01*
Y7022751D01*
X7865172Y7039679D01*
X7780533Y7073535D02*
X7865172D01*
X7882100Y7090463D01*
Y7124318D01*
X7865172Y7141246D01*
X7780533D01*
X5747100Y6882900D02*
X5645533D01*
X5679388Y6916756D01*
X5645533Y6950611D01*
X5747100D01*
X5662460Y7052179D02*
X5645533Y7035251D01*
Y7001395D01*
X5662460Y6984467D01*
X5730172D01*
X5747100Y7001395D01*
Y7035251D01*
X5730172Y7052179D01*
X5645533Y7086035D02*
X5730172D01*
X5747100Y7102962D01*
Y7136818D01*
X5730172Y7153746D01*
X5645533D01*
X5214600Y6590400D02*
X5113033D01*
X5146889Y6624256D01*
X5113033Y6658111D01*
X5214600D01*
Y6691967D02*
X5146889D01*
X5113033Y6725823D01*
X5146889Y6759679D01*
X5214600D01*
X5163816D01*
Y6691967D01*
X5214600Y6793535D02*
X5113033D01*
X5214600Y6861246D01*
X5113033D01*
Y6895102D02*
X5197672D01*
X5214600Y6912030D01*
Y6945885D01*
X5197672Y6962813D01*
X5113033D01*
X5214600Y6996669D02*
X5146889D01*
X5113033Y7030525D01*
X5146889Y7064380D01*
X5214600D01*
X5163816D01*
Y6996669D01*
X5113033Y7098236D02*
X5214600D01*
Y7165948D01*
X5494600Y6995400D02*
X5426889D01*
X5393033Y7029256D01*
X5426889Y7063111D01*
X5494600D01*
X5443816D01*
Y6995400D01*
X5409960Y7096967D02*
X5393033Y7113895D01*
Y7147751D01*
X5409960Y7164679D01*
X5477672D01*
X5494600Y7147751D01*
Y7113895D01*
X5477672Y7096967D01*
X5409960D01*
X7617100Y7025400D02*
X7549389D01*
X7515533Y7059256D01*
X7549389Y7093111D01*
X7617100D01*
X7566317D01*
Y7025400D01*
X7617100Y7126967D02*
Y7160823D01*
Y7143895D01*
X7515533D01*
X7532461Y7126967D01*
X6419600Y7040400D02*
X6351889D01*
X6318033Y7074256D01*
X6351889Y7108111D01*
X6419600D01*
X6368817D01*
Y7040400D01*
X6419600Y7141967D02*
Y7175823D01*
Y7158895D01*
X6318033D01*
X6334961Y7141967D01*
X6602461Y6965611D02*
X6585533Y6948684D01*
Y6914828D01*
X6602461Y6897900D01*
X6670172D01*
X6687100Y6914828D01*
Y6948684D01*
X6670172Y6965611D01*
X6636316D01*
Y6931756D01*
X6687100Y6999467D02*
X6585533D01*
X6687100Y7067179D01*
X6585533D01*
Y7101035D02*
X6687100D01*
Y7151818D01*
X6670172Y7168746D01*
X6602461D01*
X6585533Y7151818D01*
Y7101035D01*
X6128817Y7000400D02*
Y7068111D01*
X6094961Y7034256D02*
X6162672D01*
X6078033Y7101967D02*
X6145744D01*
X6179600Y7135823D01*
X6145744Y7169679D01*
X6078033D01*
X4034012Y7040400D02*
Y7091183D01*
X4008621Y7065792D02*
X4059404D01*
X3995925Y7116575D02*
X4046708D01*
X4072100Y7141967D01*
X4046708Y7167359D01*
X3995925D01*
X4533621Y7011184D02*
X4520925Y6998488D01*
Y6973096D01*
X4533621Y6960400D01*
X4584404D01*
X4597100Y6973096D01*
Y6998488D01*
X4584404Y7011184D01*
X4559012D01*
Y6985792D01*
X4597100Y7036575D02*
X4520925D01*
X4597100Y7087359D01*
X4520925D01*
Y7112751D02*
X4597100D01*
Y7150839D01*
X4584404Y7163534D01*
X4533621D01*
X4520925Y7150839D01*
Y7112751D01*
X4317100Y7035400D02*
X4266317D01*
X4240925Y7060792D01*
X4266317Y7086183D01*
X4317100D01*
X4279012D01*
Y7035400D01*
X4253621Y7111575D02*
X4240925Y7124271D01*
Y7149663D01*
X4253621Y7162359D01*
X4304404D01*
X4317100Y7149663D01*
Y7124271D01*
X4304404Y7111575D01*
X4253621D01*
X3303605Y6685611D02*
Y6617900D01*
X3354389D01*
X3337461Y6651755D01*
Y6668683D01*
X3354389Y6685611D01*
X3388244D01*
X3405172Y6668683D01*
Y6634827D01*
X3388244Y6617900D01*
X3303605Y6719467D02*
X3371316D01*
X3405172Y6753323D01*
X3371316Y6787178D01*
X3303605D01*
X3422100Y6821034D02*
Y6888745D01*
X3303605Y6922601D02*
Y6956457D01*
Y6939529D01*
X3405172D01*
Y6922601D01*
Y6956457D01*
Y7007241D02*
X3303605D01*
X3405172Y7074952D01*
X3303605D01*
Y7108808D02*
Y7176519D01*
Y7142664D01*
X3405172D01*
X3086316Y6902900D02*
Y6970612D01*
X3052460Y6936756D02*
X3120172D01*
X3035532Y7072179D02*
Y7004468D01*
X3086316D01*
X3069388Y7038323D01*
Y7055251D01*
X3086316Y7072179D01*
X3120172D01*
X3137100Y7055251D01*
Y7021395D01*
X3120172Y7004468D01*
X3035532Y7106035D02*
X3103244D01*
X3137100Y7139890D01*
X3103244Y7173746D01*
X3035532D01*
X2814388Y6497900D02*
Y6565611D01*
X2780532Y6531756D02*
X2848244D01*
X2763605Y6667179D02*
Y6599467D01*
X2814388D01*
X2797460Y6633323D01*
Y6650251D01*
X2814388Y6667179D01*
X2848244D01*
X2865172Y6650251D01*
Y6616395D01*
X2848244Y6599467D01*
X2763605Y6701035D02*
X2831316D01*
X2865172Y6734890D01*
X2831316Y6768746D01*
X2763605D01*
X2882100Y6802602D02*
Y6870313D01*
X2763605Y6971880D02*
Y6904169D01*
X2865172D01*
Y6971880D01*
X2814388Y6904169D02*
Y6938025D01*
X2763605Y7005736D02*
X2865172Y7073448D01*
X2763605D02*
X2865172Y7005736D01*
X2763605Y7107304D02*
Y7175015D01*
Y7141159D01*
X2865172D01*
X2340784Y5342861D02*
X2239217D01*
Y5393644D01*
X2256144Y5410572D01*
X2290000D01*
X2306928Y5393644D01*
Y5342861D01*
Y5376716D02*
X2340784Y5410572D01*
X2239217Y5512139D02*
Y5444428D01*
X2290000D01*
X2273072Y5478284D01*
Y5495212D01*
X2290000Y5512139D01*
X2323856D01*
X2340784Y5495212D01*
Y5461356D01*
X2323856Y5444428D01*
X312289Y1580784D02*
Y1563856D01*
X346144Y1530000D01*
X380000Y1563856D01*
Y1580784D01*
X346144Y1530000D02*
Y1479216D01*
X413856D02*
X447712D01*
X430784D01*
Y1580784D01*
X413856Y1563856D01*
X1783041Y7178284D02*
Y7093644D01*
X1799969Y7076717D01*
X1833825D01*
X1850752Y7093644D01*
Y7178284D01*
X1884608Y7076717D02*
X1918464D01*
X1901536D01*
Y7178284D01*
X1884608Y7161356D01*
X2036959Y7178284D02*
X2003103Y7161356D01*
X1969248Y7127500D01*
Y7093644D01*
X1986176Y7076717D01*
X2020031D01*
X2036959Y7093644D01*
Y7110572D01*
X2020031Y7127500D01*
X1969248D01*
X793041Y6668284D02*
Y6583644D01*
X809969Y6566717D01*
X843825D01*
X860752Y6583644D01*
Y6668284D01*
X894608Y6566717D02*
X928464D01*
X911536D01*
Y6668284D01*
X894608Y6651356D01*
X1046959Y6668284D02*
X979248D01*
Y6617500D01*
X1013103Y6634428D01*
X1030031D01*
X1046959Y6617500D01*
Y6583644D01*
X1030031Y6566717D01*
X996176D01*
X979248Y6583644D01*
X2383041Y3638284D02*
Y3553644D01*
X2399969Y3536717D01*
X2433825D01*
X2450753Y3553644D01*
Y3638284D01*
X2484608Y3536717D02*
X2518464D01*
X2501536D01*
Y3638284D01*
X2484608Y3621356D01*
X2620031Y3536717D02*
Y3638284D01*
X2569248Y3587500D01*
X2636959D01*
X3043441Y2515384D02*
Y2430744D01*
X3060369Y2413816D01*
X3094225D01*
X3111153Y2430744D01*
Y2515384D01*
X3145009Y2413816D02*
X3178864D01*
X3161937D01*
Y2515384D01*
X3145009Y2498456D01*
X3229648D02*
X3246576Y2515384D01*
X3280432D01*
X3297359Y2498456D01*
Y2481528D01*
X3280432Y2464600D01*
X3263504D01*
X3280432D01*
X3297359Y2447672D01*
Y2430744D01*
X3280432Y2413816D01*
X3246576D01*
X3229648Y2430744D01*
X4088041Y1713284D02*
Y1628644D01*
X4104969Y1611717D01*
X4138825D01*
X4155752Y1628644D01*
Y1713284D01*
X4189608Y1611717D02*
X4223464D01*
X4206536D01*
Y1713284D01*
X4189608Y1696356D01*
X4341959Y1611717D02*
X4274248D01*
X4341959Y1679428D01*
Y1696356D01*
X4325031Y1713284D01*
X4291176D01*
X4274248Y1696356D01*
X2899969Y3620783D02*
Y3536144D01*
X2916897Y3519216D01*
X2950753D01*
X2967680Y3536144D01*
Y3620783D01*
X3001536Y3519216D02*
X3035392D01*
X3018464D01*
Y3620783D01*
X3001536Y3603855D01*
X3086176Y3519216D02*
X3120031D01*
X3103104D01*
Y3620783D01*
X3086176Y3603855D01*
X5263041Y4240784D02*
Y4156144D01*
X5279969Y4139217D01*
X5313825D01*
X5330752Y4156144D01*
Y4240784D01*
X5364608Y4139217D02*
X5398464D01*
X5381536D01*
Y4240784D01*
X5364608Y4223856D01*
X5449248D02*
X5466176Y4240784D01*
X5500031D01*
X5516959Y4223856D01*
Y4156144D01*
X5500031Y4139217D01*
X5466176D01*
X5449248Y4156144D01*
Y4223856D01*
X6497861Y3443284D02*
Y3358644D01*
X6514789Y3341716D01*
X6548644D01*
X6565572Y3358644D01*
Y3443284D01*
X6599428Y3358644D02*
X6616356Y3341716D01*
X6650211D01*
X6667139Y3358644D01*
Y3426356D01*
X6650211Y3443284D01*
X6616356D01*
X6599428Y3426356D01*
Y3409428D01*
X6616356Y3392500D01*
X6667139D01*
X7312861Y5505784D02*
Y5421144D01*
X7329789Y5404217D01*
X7363644D01*
X7380572Y5421144D01*
Y5505784D01*
X7414428Y5488856D02*
X7431356Y5505784D01*
X7465212D01*
X7482139Y5488856D01*
Y5471928D01*
X7465212Y5455000D01*
X7482139Y5438072D01*
Y5421144D01*
X7465212Y5404217D01*
X7431356D01*
X7414428Y5421144D01*
Y5438072D01*
X7431356Y5455000D01*
X7414428Y5471928D01*
Y5488856D01*
X7431356Y5455000D02*
X7465212D01*
X5772861Y6443284D02*
Y6358644D01*
X5789789Y6341717D01*
X5823644D01*
X5840572Y6358644D01*
Y6443284D01*
X5874428D02*
X5942139D01*
Y6426356D01*
X5874428Y6358644D01*
Y6341717D01*
X2605361Y5100784D02*
Y5016144D01*
X2622289Y4999217D01*
X2656144D01*
X2673072Y5016144D01*
Y5100784D01*
X2774639D02*
X2740784Y5083856D01*
X2706928Y5050000D01*
Y5016144D01*
X2723856Y4999217D01*
X2757712D01*
X2774639Y5016144D01*
Y5033072D01*
X2757712Y5050000D01*
X2706928D01*
X2995361Y6380784D02*
Y6296144D01*
X3012289Y6279217D01*
X3046145D01*
X3063072Y6296144D01*
Y6380784D01*
X3164640D02*
X3096928D01*
Y6330000D01*
X3130784Y6346928D01*
X3147712D01*
X3164640Y6330000D01*
Y6296144D01*
X3147712Y6279217D01*
X3113856D01*
X3096928Y6296144D01*
X1457861Y6210784D02*
Y6126144D01*
X1474789Y6109217D01*
X1508644D01*
X1525572Y6126144D01*
Y6210784D01*
X1610212Y6109217D02*
Y6210784D01*
X1559428Y6160000D01*
X1627139D01*
X1355361Y4308284D02*
Y4223644D01*
X1372289Y4206717D01*
X1406144D01*
X1423072Y4223644D01*
Y4308284D01*
X1456928Y4291356D02*
X1473856Y4308284D01*
X1507711D01*
X1524639Y4291356D01*
Y4274428D01*
X1507711Y4257500D01*
X1490784D01*
X1507711D01*
X1524639Y4240572D01*
Y4223644D01*
X1507711Y4206717D01*
X1473856D01*
X1456928Y4223644D01*
X1685361Y1270784D02*
Y1186144D01*
X1702289Y1169217D01*
X1736144D01*
X1753072Y1186144D01*
Y1270784D01*
X1854639Y1169217D02*
X1786928D01*
X1854639Y1236928D01*
Y1253856D01*
X1837712Y1270784D01*
X1803856D01*
X1786928Y1253856D01*
X1232289Y3545784D02*
Y3461144D01*
X1249216Y3444217D01*
X1283072D01*
X1300000Y3461144D01*
Y3545784D01*
X1333856Y3444217D02*
X1367712D01*
X1350784D01*
Y3545784D01*
X1333856Y3528856D01*
X412288Y613856D02*
X395361Y630784D01*
X361505D01*
X344577Y613856D01*
Y546144D01*
X361505Y529217D01*
X395361D01*
X412288Y546144D01*
Y580000D01*
X378433D01*
X446144Y529217D02*
Y630784D01*
X513856Y529217D01*
Y630784D01*
X547712D02*
Y529217D01*
X598495D01*
X615423Y546144D01*
Y613856D01*
X598495Y630784D01*
X547712D01*
X6607289Y5511356D02*
X6590361Y5528284D01*
X6556505D01*
X6539577Y5511356D01*
Y5443644D01*
X6556505Y5426717D01*
X6590361D01*
X6607289Y5443644D01*
Y5477500D01*
X6573433D01*
X6641144Y5426717D02*
Y5528284D01*
X6708856Y5426717D01*
Y5528284D01*
X6742712D02*
Y5426717D01*
X6793495D01*
X6810423Y5443644D01*
Y5511356D01*
X6793495Y5528284D01*
X6742712D01*
X3444788Y2773856D02*
X3427861Y2790784D01*
X3394005D01*
X3377077Y2773856D01*
Y2706144D01*
X3394005Y2689217D01*
X3427861D01*
X3444788Y2706144D01*
Y2740000D01*
X3410933D01*
X3478644Y2689217D02*
Y2790784D01*
X3546356Y2689217D01*
Y2790784D01*
X3580212D02*
Y2689217D01*
X3630995D01*
X3647923Y2706144D01*
Y2773856D01*
X3630995Y2790784D01*
X3580212D01*
X332288Y3276356D02*
X315361Y3293284D01*
X281505D01*
X264577Y3276356D01*
Y3208644D01*
X281505Y3191717D01*
X315361D01*
X332288Y3208644D01*
Y3242500D01*
X298433D01*
X366144Y3191717D02*
Y3293284D01*
X433856Y3191717D01*
Y3293284D01*
X467712D02*
Y3191717D01*
X518495D01*
X535423Y3208644D01*
Y3276356D01*
X518495Y3293284D01*
X467712D01*
X1649788Y6491356D02*
X1632861Y6508284D01*
X1599005D01*
X1582077Y6491356D01*
Y6423644D01*
X1599005Y6406716D01*
X1632861D01*
X1649788Y6423644D01*
Y6457500D01*
X1615933D01*
X1683644Y6406716D02*
Y6508284D01*
X1751356Y6406716D01*
Y6508284D01*
X1785212D02*
Y6406716D01*
X1835995D01*
X1852923Y6423644D01*
Y6491356D01*
X1835995Y6508284D01*
X1785212D01*
X6162288Y2401356D02*
X6145361Y2418284D01*
X6111505D01*
X6094577Y2401356D01*
Y2333645D01*
X6111505Y2316717D01*
X6145361D01*
X6162288Y2333645D01*
Y2367500D01*
X6128433D01*
X6196144Y2316717D02*
Y2418284D01*
X6263856Y2316717D01*
Y2418284D01*
X6297712D02*
Y2316717D01*
X6348495D01*
X6365423Y2333645D01*
Y2401356D01*
X6348495Y2418284D01*
X6297712D01*
X3752077Y6785000D02*
X3819789D01*
X3785933Y6818856D02*
Y6751144D01*
X3921356Y6835784D02*
X3853645D01*
Y6785000D01*
X3887500Y6801928D01*
X3904428D01*
X3921356Y6785000D01*
Y6751144D01*
X3904428Y6734217D01*
X3870572D01*
X3853645Y6751144D01*
X3955212Y6835784D02*
Y6768072D01*
X3989067Y6734217D01*
X4022923Y6768072D01*
Y6835784D01*
X2440000Y6993974D02*
Y7061685D01*
X2406144Y7027829D02*
X2473856D01*
X2389216Y7163252D02*
Y7095541D01*
X2440000D01*
X2423072Y7129397D01*
Y7146325D01*
X2440000Y7163252D01*
X2473856D01*
X2490783Y7146325D01*
Y7112469D01*
X2473856Y7095541D01*
X2490783Y7197108D02*
X2473856D01*
Y7214036D01*
X2490783D01*
Y7197108D01*
X2389216Y7349459D02*
Y7281748D01*
X2440000D01*
X2423072Y7315603D01*
Y7332531D01*
X2440000Y7349459D01*
X2473856D01*
X2490783Y7332531D01*
Y7298676D01*
X2473856Y7281748D01*
X2389216Y7383315D02*
X2456928D01*
X2490783Y7417171D01*
X2456928Y7451026D01*
X2389216D01*
X5378974Y2722500D02*
X5446685D01*
X5412830Y2756356D02*
Y2688644D01*
X5480541Y2756356D02*
X5497469Y2773284D01*
X5531325D01*
X5548253Y2756356D01*
Y2739428D01*
X5531325Y2722500D01*
X5514397D01*
X5531325D01*
X5548253Y2705572D01*
Y2688644D01*
X5531325Y2671717D01*
X5497469D01*
X5480541Y2688644D01*
X5582108Y2671717D02*
Y2688644D01*
X5599036D01*
Y2671717D01*
X5582108D01*
X5666748Y2756356D02*
X5683676Y2773284D01*
X5717531D01*
X5734459Y2756356D01*
Y2739428D01*
X5717531Y2722500D01*
X5700604D01*
X5717531D01*
X5734459Y2705572D01*
Y2688644D01*
X5717531Y2671717D01*
X5683676D01*
X5666748Y2688644D01*
X5768315Y2773284D02*
Y2705572D01*
X5802171Y2671717D01*
X5836026Y2705572D01*
Y2773284D01*
X1795839Y1665964D02*
X1863551D01*
X1829695Y1699820D02*
Y1632108D01*
X1897407Y1699820D02*
X1914334Y1716748D01*
X1948190D01*
X1965118Y1699820D01*
Y1682892D01*
X1948190Y1665964D01*
X1931262D01*
X1948190D01*
X1965118Y1649036D01*
Y1632108D01*
X1948190Y1615180D01*
X1914334D01*
X1897407Y1632108D01*
X1998974Y1615180D02*
Y1632108D01*
X2015902D01*
Y1615180D01*
X1998974D01*
X2083613Y1699820D02*
X2100541Y1716748D01*
X2134397D01*
X2151325Y1699820D01*
Y1682892D01*
X2134397Y1665964D01*
X2117469D01*
X2134397D01*
X2151325Y1649036D01*
Y1632108D01*
X2134397Y1615180D01*
X2100541D01*
X2083613Y1632108D01*
X2185181Y1716748D02*
Y1649036D01*
X2219036Y1615180D01*
X2252892Y1649036D01*
Y1716748D01*
X2286748Y1598253D02*
X2354459D01*
X2388315Y1716748D02*
Y1615180D01*
X2439098D01*
X2456026Y1632108D01*
Y1649036D01*
X2439098Y1665964D01*
X2388315D01*
X2439098D01*
X2456026Y1682892D01*
Y1699820D01*
X2439098Y1716748D01*
X2388315D01*
X2489882Y1615180D02*
Y1682892D01*
X2523738Y1716748D01*
X2557594Y1682892D01*
Y1615180D01*
Y1665964D01*
X2489882D01*
X2591449Y1716748D02*
X2659161D01*
X2625305D01*
Y1615180D01*
X5375510Y2069248D02*
Y2001536D01*
X5409366Y1967680D01*
X5443221Y2001536D01*
Y2069248D01*
X5477077Y1950753D02*
X5544789D01*
X5578644Y2069248D02*
Y1967680D01*
X5629428D01*
X5646356Y1984608D01*
Y2001536D01*
X5629428Y2018464D01*
X5578644D01*
X5629428D01*
X5646356Y2035392D01*
Y2052320D01*
X5629428Y2069248D01*
X5578644D01*
X5680212Y1967680D02*
Y2035392D01*
X5714067Y2069248D01*
X5747923Y2035392D01*
Y1967680D01*
Y2018464D01*
X5680212D01*
X5781779Y2069248D02*
X5849490D01*
X5815635D01*
Y1967680D01*
X556654Y4895000D02*
X624365D01*
X590510Y4928856D02*
Y4861144D01*
X658221Y4844216D02*
X692077D01*
X675149D01*
Y4945784D01*
X658221Y4928856D01*
X742861Y4844216D02*
Y4861144D01*
X759788D01*
Y4844216D01*
X742861D01*
X895211Y4945784D02*
X861356Y4928856D01*
X827500Y4895000D01*
Y4861144D01*
X844428Y4844216D01*
X878283D01*
X895211Y4861144D01*
Y4878072D01*
X878283Y4895000D01*
X827500D01*
X996779Y4945784D02*
X929067D01*
Y4895000D01*
X962923Y4911928D01*
X979851D01*
X996779Y4895000D01*
Y4861144D01*
X979851Y4844216D01*
X945995D01*
X929067Y4861144D01*
X1030634Y4945784D02*
Y4878072D01*
X1064490Y4844216D01*
X1098346Y4878072D01*
Y4945784D01*
X3160541Y4450784D02*
X3228252D01*
X3194397D01*
Y4349217D01*
X3262108D02*
X3295964D01*
X3279036D01*
Y4450784D01*
X3262108Y4433856D01*
X3414459Y4450784D02*
X3346748D01*
Y4400000D01*
X3380603Y4416928D01*
X3397531D01*
X3414459Y4400000D01*
Y4366144D01*
X3397531Y4349217D01*
X3363676D01*
X3346748Y4366144D01*
X2908041Y3105784D02*
X2975752D01*
X2941897D01*
Y3004216D01*
X3009608D02*
X3043464D01*
X3026536D01*
Y3105784D01*
X3009608Y3088856D01*
X3145031Y3004216D02*
Y3105784D01*
X3094248Y3055000D01*
X3161959D01*
X4200541Y4705784D02*
X4268253D01*
X4234397D01*
Y4604217D01*
X4302108D02*
X4335964D01*
X4319036D01*
Y4705784D01*
X4302108Y4688856D01*
X4386748D02*
X4403676Y4705784D01*
X4437531D01*
X4454459Y4688856D01*
Y4671928D01*
X4437531Y4655000D01*
X4420604D01*
X4437531D01*
X4454459Y4638072D01*
Y4621144D01*
X4437531Y4604217D01*
X4403676D01*
X4386748Y4621144D01*
X3898041Y2775784D02*
X3965753D01*
X3931897D01*
Y2674216D01*
X3999608D02*
X4033464D01*
X4016536D01*
Y2775784D01*
X3999608Y2758856D01*
X4151959Y2674216D02*
X4084248D01*
X4151959Y2741928D01*
Y2758856D01*
X4135031Y2775784D01*
X4101176D01*
X4084248Y2758856D01*
X7588943Y1991748D02*
Y1924036D01*
X7622798Y1890180D01*
X7656654Y1924036D01*
Y1991748D01*
X7690510Y1873253D02*
X7758221D01*
X7859788Y1974820D02*
X7842861Y1991748D01*
X7809005D01*
X7792077Y1974820D01*
Y1907108D01*
X7809005Y1890180D01*
X7842861D01*
X7859788Y1907108D01*
Y1940964D01*
X7825933D01*
X7893644Y1991748D02*
Y1907108D01*
X7910572Y1890180D01*
X7944428D01*
X7961356Y1907108D01*
Y1991748D01*
X7995212Y1890180D02*
Y1957892D01*
X8029067Y1991748D01*
X8062923Y1957892D01*
Y1890180D01*
Y1940964D01*
X7995212D01*
X8096779Y1890180D02*
Y1991748D01*
X8147562D01*
X8164490Y1974820D01*
Y1940964D01*
X8147562Y1924036D01*
X8096779D01*
X8130634D02*
X8164490Y1890180D01*
X8198346Y1991748D02*
Y1890180D01*
X8249130D01*
X8266057Y1907108D01*
Y1974820D01*
X8249130Y1991748D01*
X8198346D01*
X6308041Y4675784D02*
X6375753D01*
X6341897D01*
Y4574216D01*
X6409608D02*
X6443464D01*
X6426536D01*
Y4675784D01*
X6409608Y4658856D01*
X6494248D02*
X6511176Y4675784D01*
X6545031D01*
X6561959Y4658856D01*
Y4591144D01*
X6545031Y4574216D01*
X6511176D01*
X6494248Y4591144D01*
Y4658856D01*
X6372861Y2978284D02*
X6440572D01*
X6406716D01*
Y2876716D01*
X6474428Y2893644D02*
X6491356Y2876716D01*
X6525211D01*
X6542139Y2893644D01*
Y2961356D01*
X6525211Y2978284D01*
X6491356D01*
X6474428Y2961356D01*
Y2944428D01*
X6491356Y2927500D01*
X6542139D01*
X3163974Y4927500D02*
X3231685D01*
X3197830Y4961356D02*
Y4893644D01*
X3333252Y4876716D02*
X3265541D01*
X3333252Y4944428D01*
Y4961356D01*
X3316325Y4978284D01*
X3282469D01*
X3265541Y4961356D01*
X3367108Y4876716D02*
Y4893644D01*
X3384036D01*
Y4876716D01*
X3367108D01*
X3519459Y4978284D02*
X3451748D01*
Y4927500D01*
X3485603Y4944428D01*
X3502531D01*
X3519459Y4927500D01*
Y4893644D01*
X3502531Y4876716D01*
X3468676D01*
X3451748Y4893644D01*
X3553315Y4978284D02*
Y4910572D01*
X3587171Y4876716D01*
X3621026Y4910572D01*
Y4978284D01*
X474577Y6408284D02*
Y6340572D01*
X508433Y6306717D01*
X542288Y6340572D01*
Y6408284D01*
X643856Y6391356D02*
X626928Y6408284D01*
X593072D01*
X576144Y6391356D01*
Y6323644D01*
X593072Y6306717D01*
X626928D01*
X643856Y6323644D01*
X677712Y6306717D02*
Y6408284D01*
X711567Y6374428D01*
X745423Y6408284D01*
Y6306717D01*
X5300361Y5318284D02*
X5368072D01*
X5334216D01*
Y5216717D01*
X5469639Y5318284D02*
X5435784Y5301356D01*
X5401928Y5267500D01*
Y5233644D01*
X5418856Y5216717D01*
X5452711D01*
X5469639Y5233644D01*
Y5250572D01*
X5452711Y5267500D01*
X5401928D01*
X5267861Y6480784D02*
X5335572D01*
X5301717D01*
Y6379217D01*
X5437139Y6480784D02*
X5369428D01*
Y6430000D01*
X5403284Y6446928D01*
X5420212D01*
X5437139Y6430000D01*
Y6396144D01*
X5420212Y6379217D01*
X5386356D01*
X5369428Y6396144D01*
X4485361Y6710784D02*
X4553072D01*
X4519217D01*
Y6609216D01*
X4637712D02*
Y6710784D01*
X4586928Y6660000D01*
X4654639D01*
X2467861Y6558284D02*
X2535572D01*
X2501717D01*
Y6456717D01*
X2569428Y6541356D02*
X2586356Y6558284D01*
X2620212D01*
X2637140Y6541356D01*
Y6524428D01*
X2620212Y6507500D01*
X2603284D01*
X2620212D01*
X2637140Y6490572D01*
Y6473644D01*
X2620212Y6456717D01*
X2586356D01*
X2569428Y6473644D01*
X2485361Y4885784D02*
X2553072D01*
X2519216D01*
Y4784216D01*
X2654639D02*
X2586928D01*
X2654639Y4851928D01*
Y4868856D01*
X2637712Y4885784D01*
X2603856D01*
X2586928Y4868856D01*
X2139789Y4008284D02*
X2207500D01*
X2173644D01*
Y3906717D01*
X2241356D02*
X2275212D01*
X2258284D01*
Y4008284D01*
X2241356Y3991356D01*
X4424577Y5879217D02*
Y5980784D01*
X4475361D01*
X4492288Y5963856D01*
Y5930000D01*
X4475361Y5913072D01*
X4424577D01*
X4458433D02*
X4492288Y5879217D01*
X4526144D02*
Y5980784D01*
X4593856Y5879217D01*
Y5980784D01*
X4627712Y5963856D02*
X4644639Y5980784D01*
X4678495D01*
X4695423Y5963856D01*
Y5946928D01*
X4678495Y5930000D01*
X4661567D01*
X4678495D01*
X4695423Y5913072D01*
Y5896144D01*
X4678495Y5879217D01*
X4644639D01*
X4627712Y5896144D01*
X3567077Y6094216D02*
Y6195784D01*
X3617861D01*
X3634789Y6178856D01*
Y6145000D01*
X3617861Y6128072D01*
X3567077D01*
X3600933D02*
X3634789Y6094216D01*
X3668644D02*
Y6195784D01*
X3736356Y6094216D01*
Y6195784D01*
X3837923Y6094216D02*
X3770212D01*
X3837923Y6161928D01*
Y6178856D01*
X3820995Y6195784D01*
X3787139D01*
X3770212Y6178856D01*
X2441505Y5579216D02*
Y5680784D01*
X2492288D01*
X2509216Y5663856D01*
Y5630000D01*
X2492288Y5613072D01*
X2441505D01*
X2475361D02*
X2509216Y5579216D01*
X2543072D02*
Y5680784D01*
X2610783Y5579216D01*
Y5680784D01*
X2644639Y5579216D02*
X2678495D01*
X2661567D01*
Y5680784D01*
X2644639Y5663856D01*
X483283Y6487077D02*
X381716D01*
Y6537861D01*
X398644Y6554789D01*
X432500D01*
X449428Y6537861D01*
Y6487077D01*
Y6520933D02*
X483283Y6554789D01*
Y6639428D02*
X381716D01*
X432500Y6588645D01*
Y6656356D01*
X381716Y6757923D02*
Y6690212D01*
X432500D01*
X415572Y6724068D01*
Y6740995D01*
X432500Y6757923D01*
X466355D01*
X483283Y6740995D01*
Y6707140D01*
X466355Y6690212D01*
X2447077Y2751716D02*
Y2853284D01*
X2497861D01*
X2514788Y2836356D01*
Y2802500D01*
X2497861Y2785572D01*
X2447077D01*
X2480933D02*
X2514788Y2751716D01*
X2599428D02*
Y2853284D01*
X2548644Y2802500D01*
X2616356D01*
X2700995Y2751716D02*
Y2853284D01*
X2650212Y2802500D01*
X2717923D01*
X4459577Y1181716D02*
Y1283284D01*
X4510361D01*
X4527288Y1266356D01*
Y1232500D01*
X4510361Y1215572D01*
X4459577D01*
X4493433D02*
X4527288Y1181716D01*
X4611928D02*
Y1283284D01*
X4561144Y1232500D01*
X4628856D01*
X4662712Y1266356D02*
X4679639Y1283284D01*
X4713495D01*
X4730423Y1266356D01*
Y1249428D01*
X4713495Y1232500D01*
X4696567D01*
X4713495D01*
X4730423Y1215572D01*
Y1198644D01*
X4713495Y1181716D01*
X4679639D01*
X4662712Y1198644D01*
X5205784Y1537077D02*
X5104216D01*
Y1587861D01*
X5121144Y1604789D01*
X5155000D01*
X5171928Y1587861D01*
Y1537077D01*
Y1570933D02*
X5205784Y1604789D01*
Y1689428D02*
X5104216D01*
X5155000Y1638644D01*
Y1706356D01*
X5205784Y1807923D02*
Y1740212D01*
X5138072Y1807923D01*
X5121144D01*
X5104216Y1790995D01*
Y1757139D01*
X5121144Y1740212D01*
X3606505Y974216D02*
Y1075784D01*
X3657288D01*
X3674216Y1058856D01*
Y1025000D01*
X3657288Y1008072D01*
X3606505D01*
X3640361D02*
X3674216Y974216D01*
X3758856D02*
Y1075784D01*
X3708072Y1025000D01*
X3775783D01*
X3809639Y974216D02*
X3843495D01*
X3826567D01*
Y1075784D01*
X3809639Y1058856D01*
X3224577Y974216D02*
Y1075784D01*
X3275360D01*
X3292288Y1058856D01*
Y1025000D01*
X3275360Y1008072D01*
X3224577D01*
X3258433D02*
X3292288Y974216D01*
X3376928D02*
Y1075784D01*
X3326144Y1025000D01*
X3393856D01*
X3427711Y1058856D02*
X3444639Y1075784D01*
X3478495D01*
X3495423Y1058856D01*
Y991144D01*
X3478495Y974216D01*
X3444639D01*
X3427711Y991144D01*
Y1058856D01*
X7054577Y4419216D02*
Y4520783D01*
X7105361D01*
X7122289Y4503855D01*
Y4469999D01*
X7105361Y4453072D01*
X7054577D01*
X7088433D02*
X7122289Y4419216D01*
X7156144Y4503855D02*
X7173072Y4520783D01*
X7206928D01*
X7223856Y4503855D01*
Y4486927D01*
X7206928Y4469999D01*
X7190000D01*
X7206928D01*
X7223856Y4453072D01*
Y4436144D01*
X7206928Y4419216D01*
X7173072D01*
X7156144Y4436144D01*
X7257712D02*
X7274640Y4419216D01*
X7308495D01*
X7325423Y4436144D01*
Y4503855D01*
X7308495Y4520783D01*
X7274640D01*
X7257712Y4503855D01*
Y4486927D01*
X7274640Y4469999D01*
X7325423D01*
X7510784Y4484577D02*
X7409216D01*
Y4535360D01*
X7426144Y4552288D01*
X7460000D01*
X7476928Y4535360D01*
Y4484577D01*
Y4518432D02*
X7510784Y4552288D01*
X7426144Y4586144D02*
X7409216Y4603072D01*
Y4636927D01*
X7426144Y4653855D01*
X7443072D01*
X7460000Y4636927D01*
Y4620000D01*
Y4636927D01*
X7476928Y4653855D01*
X7493856D01*
X7510784Y4636927D01*
Y4603072D01*
X7493856Y4586144D01*
X7426144Y4687711D02*
X7409216Y4704639D01*
Y4738495D01*
X7426144Y4755423D01*
X7443072D01*
X7460000Y4738495D01*
X7476928Y4755423D01*
X7493856D01*
X7510784Y4738495D01*
Y4704639D01*
X7493856Y4687711D01*
X7476928D01*
X7460000Y4704639D01*
X7443072Y4687711D01*
X7426144D01*
X7460000Y4704639D02*
Y4738495D01*
X7700783Y4484577D02*
X7599216D01*
Y4535361D01*
X7616144Y4552288D01*
X7650000D01*
X7666928Y4535361D01*
Y4484577D01*
Y4518433D02*
X7700783Y4552288D01*
X7616144Y4586144D02*
X7599216Y4603072D01*
Y4636928D01*
X7616144Y4653856D01*
X7633072D01*
X7650000Y4636928D01*
Y4620000D01*
Y4636928D01*
X7666928Y4653856D01*
X7683855D01*
X7700783Y4636928D01*
Y4603072D01*
X7683855Y4586144D01*
X7599216Y4687711D02*
Y4755423D01*
X7616144D01*
X7683855Y4687711D01*
X7700783D01*
X3570784Y4159577D02*
X3469216D01*
Y4210361D01*
X3486144Y4227288D01*
X3520000D01*
X3536928Y4210361D01*
Y4159577D01*
Y4193433D02*
X3570784Y4227288D01*
X3486144Y4261144D02*
X3469216Y4278072D01*
Y4311928D01*
X3486144Y4328856D01*
X3503072D01*
X3520000Y4311928D01*
Y4295000D01*
Y4311928D01*
X3536928Y4328856D01*
X3553856D01*
X3570784Y4311928D01*
Y4278072D01*
X3553856Y4261144D01*
X3469216Y4430423D02*
X3486144Y4396567D01*
X3520000Y4362712D01*
X3553856D01*
X3570784Y4379639D01*
Y4413495D01*
X3553856Y4430423D01*
X3536928D01*
X3520000Y4413495D01*
Y4362712D01*
X3409577Y3296717D02*
Y3398284D01*
X3460361D01*
X3477288Y3381356D01*
Y3347500D01*
X3460361Y3330572D01*
X3409577D01*
X3443433D02*
X3477288Y3296717D01*
X3511144Y3381356D02*
X3528072Y3398284D01*
X3561928D01*
X3578856Y3381356D01*
Y3364428D01*
X3561928Y3347500D01*
X3545000D01*
X3561928D01*
X3578856Y3330572D01*
Y3313644D01*
X3561928Y3296717D01*
X3528072D01*
X3511144Y3313644D01*
X3680423Y3398284D02*
X3612712D01*
Y3347500D01*
X3646567Y3364428D01*
X3663495D01*
X3680423Y3347500D01*
Y3313644D01*
X3663495Y3296717D01*
X3629639D01*
X3612712Y3313644D01*
X3897077Y4196717D02*
Y4298284D01*
X3947861D01*
X3964788Y4281356D01*
Y4247500D01*
X3947861Y4230572D01*
X3897077D01*
X3930933D02*
X3964788Y4196717D01*
X3998644Y4281356D02*
X4015572Y4298284D01*
X4049428D01*
X4066356Y4281356D01*
Y4264428D01*
X4049428Y4247500D01*
X4032500D01*
X4049428D01*
X4066356Y4230572D01*
Y4213644D01*
X4049428Y4196717D01*
X4015572D01*
X3998644Y4213644D01*
X4150995Y4196717D02*
Y4298284D01*
X4100212Y4247500D01*
X4167923D01*
X3889577Y4354217D02*
Y4455784D01*
X3940361D01*
X3957289Y4438856D01*
Y4405000D01*
X3940361Y4388072D01*
X3889577D01*
X3923433D02*
X3957289Y4354217D01*
X3991144Y4438856D02*
X4008072Y4455784D01*
X4041928D01*
X4058856Y4438856D01*
Y4421928D01*
X4041928Y4405000D01*
X4025000D01*
X4041928D01*
X4058856Y4388072D01*
Y4371144D01*
X4041928Y4354217D01*
X4008072D01*
X3991144Y4371144D01*
X4092712Y4438856D02*
X4109639Y4455784D01*
X4143495D01*
X4160423Y4438856D01*
Y4421928D01*
X4143495Y4405000D01*
X4126567D01*
X4143495D01*
X4160423Y4388072D01*
Y4371144D01*
X4143495Y4354217D01*
X4109639D01*
X4092712Y4371144D01*
X3894577Y3131717D02*
Y3233284D01*
X3945361D01*
X3962288Y3216356D01*
Y3182500D01*
X3945361Y3165572D01*
X3894577D01*
X3928433D02*
X3962288Y3131717D01*
X3996144Y3216356D02*
X4013072Y3233284D01*
X4046928D01*
X4063856Y3216356D01*
Y3199428D01*
X4046928Y3182500D01*
X4030000D01*
X4046928D01*
X4063856Y3165572D01*
Y3148644D01*
X4046928Y3131717D01*
X4013072D01*
X3996144Y3148644D01*
X4165423Y3131717D02*
X4097712D01*
X4165423Y3199428D01*
Y3216356D01*
X4148495Y3233284D01*
X4114639D01*
X4097712Y3216356D01*
X3916505Y3285739D02*
Y3387306D01*
X3967288D01*
X3984216Y3370378D01*
Y3336522D01*
X3967288Y3319595D01*
X3916505D01*
X3950361D02*
X3984216Y3285739D01*
X4018072Y3370378D02*
X4035000Y3387306D01*
X4068856D01*
X4085784Y3370378D01*
Y3353450D01*
X4068856Y3336522D01*
X4051928D01*
X4068856D01*
X4085784Y3319595D01*
Y3302667D01*
X4068856Y3285739D01*
X4035000D01*
X4018072Y3302667D01*
X4119639Y3285739D02*
X4153495D01*
X4136567D01*
Y3387306D01*
X4119639Y3370378D01*
X4372077Y4006716D02*
Y4108284D01*
X4422861D01*
X4439788Y4091356D01*
Y4057500D01*
X4422861Y4040572D01*
X4372077D01*
X4405933D02*
X4439788Y4006716D01*
X4473644Y4091356D02*
X4490572Y4108284D01*
X4524428D01*
X4541356Y4091356D01*
Y4074428D01*
X4524428Y4057500D01*
X4507500D01*
X4524428D01*
X4541356Y4040572D01*
Y4023644D01*
X4524428Y4006716D01*
X4490572D01*
X4473644Y4023644D01*
X4575212Y4091356D02*
X4592139Y4108284D01*
X4625995D01*
X4642923Y4091356D01*
Y4023644D01*
X4625995Y4006716D01*
X4592139D01*
X4575212Y4023644D01*
Y4091356D01*
X4364577Y3481716D02*
Y3583284D01*
X4415360D01*
X4432288Y3566356D01*
Y3532500D01*
X4415360Y3515572D01*
X4364577D01*
X4398433D02*
X4432288Y3481716D01*
X4533856D02*
X4466144D01*
X4533856Y3549428D01*
Y3566356D01*
X4516928Y3583284D01*
X4483072D01*
X4466144Y3566356D01*
X4567711Y3498644D02*
X4584639Y3481716D01*
X4618495D01*
X4635423Y3498644D01*
Y3566356D01*
X4618495Y3583284D01*
X4584639D01*
X4567711Y3566356D01*
Y3549428D01*
X4584639Y3532500D01*
X4635423D01*
X5749577Y4191717D02*
Y4293284D01*
X5800361D01*
X5817288Y4276356D01*
Y4242500D01*
X5800361Y4225572D01*
X5749577D01*
X5783433D02*
X5817288Y4191717D01*
X5918856D02*
X5851144D01*
X5918856Y4259428D01*
Y4276356D01*
X5901928Y4293284D01*
X5868072D01*
X5851144Y4276356D01*
X5952711D02*
X5969639Y4293284D01*
X6003495D01*
X6020423Y4276356D01*
Y4259428D01*
X6003495Y4242500D01*
X6020423Y4225572D01*
Y4208644D01*
X6003495Y4191717D01*
X5969639D01*
X5952711Y4208644D01*
Y4225572D01*
X5969639Y4242500D01*
X5952711Y4259428D01*
Y4276356D01*
X5969639Y4242500D02*
X6003495D01*
X5757077Y4346716D02*
Y4448284D01*
X5807861D01*
X5824788Y4431356D01*
Y4397500D01*
X5807861Y4380572D01*
X5757077D01*
X5790933D02*
X5824788Y4346716D01*
X5926356D02*
X5858644D01*
X5926356Y4414428D01*
Y4431356D01*
X5909428Y4448284D01*
X5875572D01*
X5858644Y4431356D01*
X5960212Y4448284D02*
X6027923D01*
Y4431356D01*
X5960212Y4363644D01*
Y4346716D01*
X5755977Y3134916D02*
Y3236483D01*
X5806760D01*
X5823688Y3219555D01*
Y3185699D01*
X5806760Y3168772D01*
X5755977D01*
X5789832D02*
X5823688Y3134916D01*
X5925255D02*
X5857544D01*
X5925255Y3202627D01*
Y3219555D01*
X5908328Y3236483D01*
X5874472D01*
X5857544Y3219555D01*
X6026823Y3236483D02*
X5992967Y3219555D01*
X5959111Y3185699D01*
Y3151844D01*
X5976039Y3134916D01*
X6009895D01*
X6026823Y3151844D01*
Y3168772D01*
X6009895Y3185699D01*
X5959111D01*
X5744577Y3301717D02*
Y3403284D01*
X5795361D01*
X5812288Y3386356D01*
Y3352500D01*
X5795361Y3335572D01*
X5744577D01*
X5778433D02*
X5812288Y3301717D01*
X5913856D02*
X5846144D01*
X5913856Y3369428D01*
Y3386356D01*
X5896928Y3403284D01*
X5863072D01*
X5846144Y3386356D01*
X6015423Y3403284D02*
X5947711D01*
Y3352500D01*
X5981567Y3369428D01*
X5998495D01*
X6015423Y3352500D01*
Y3318644D01*
X5998495Y3301717D01*
X5964639D01*
X5947711Y3318644D01*
X6234577Y4009217D02*
Y4110784D01*
X6285361D01*
X6302288Y4093856D01*
Y4060000D01*
X6285361Y4043072D01*
X6234577D01*
X6268433D02*
X6302288Y4009217D01*
X6403856D02*
X6336144D01*
X6403856Y4076928D01*
Y4093856D01*
X6386928Y4110784D01*
X6353072D01*
X6336144Y4093856D01*
X6488495Y4009217D02*
Y4110784D01*
X6437712Y4060000D01*
X6505423D01*
X6254577Y3499216D02*
Y3600783D01*
X6305361D01*
X6322288Y3583855D01*
Y3550000D01*
X6305361Y3533072D01*
X6254577D01*
X6288433D02*
X6322288Y3499216D01*
X6423856D02*
X6356144D01*
X6423856Y3566927D01*
Y3583855D01*
X6406928Y3600783D01*
X6373072D01*
X6356144Y3583855D01*
X6457711D02*
X6474639Y3600783D01*
X6508495D01*
X6525423Y3583855D01*
Y3566927D01*
X6508495Y3550000D01*
X6491567D01*
X6508495D01*
X6525423Y3533072D01*
Y3516144D01*
X6508495Y3499216D01*
X6474639D01*
X6457711Y3516144D01*
X7421177Y3019117D02*
Y3120684D01*
X7471961D01*
X7488889Y3103756D01*
Y3069900D01*
X7471961Y3052972D01*
X7421177D01*
X7455033D02*
X7488889Y3019117D01*
X7590456D02*
X7522744D01*
X7590456Y3086828D01*
Y3103756D01*
X7573528Y3120684D01*
X7539672D01*
X7522744Y3103756D01*
X7692023Y3019117D02*
X7624312D01*
X7692023Y3086828D01*
Y3103756D01*
X7675095Y3120684D01*
X7641239D01*
X7624312Y3103756D01*
X7421505Y3206716D02*
Y3308284D01*
X7472288D01*
X7489216Y3291356D01*
Y3257500D01*
X7472288Y3240572D01*
X7421505D01*
X7455361D02*
X7489216Y3206716D01*
X7590783D02*
X7523072D01*
X7590783Y3274428D01*
Y3291356D01*
X7573856Y3308284D01*
X7540000D01*
X7523072Y3291356D01*
X7624639Y3206716D02*
X7658495D01*
X7641567D01*
Y3308284D01*
X7624639Y3291356D01*
X6756777Y3041117D02*
Y3142684D01*
X6807561D01*
X6824489Y3125756D01*
Y3091900D01*
X6807561Y3074973D01*
X6756777D01*
X6790633D02*
X6824489Y3041117D01*
X6926056D02*
X6858344D01*
X6926056Y3108828D01*
Y3125756D01*
X6909128Y3142684D01*
X6875272D01*
X6858344Y3125756D01*
X6959912D02*
X6976839Y3142684D01*
X7010695D01*
X7027623Y3125756D01*
Y3058045D01*
X7010695Y3041117D01*
X6976839D01*
X6959912Y3058045D01*
Y3125756D01*
X6500041Y6106117D02*
Y6207684D01*
X6550825D01*
X6567752Y6190756D01*
Y6156900D01*
X6550825Y6139972D01*
X6500041D01*
X6533897D02*
X6567752Y6106117D01*
X6601608D02*
X6635464D01*
X6618536D01*
Y6207684D01*
X6601608Y6190756D01*
X6686248Y6123045D02*
X6703176Y6106117D01*
X6737031D01*
X6753959Y6123045D01*
Y6190756D01*
X6737031Y6207684D01*
X6703176D01*
X6686248Y6190756D01*
Y6173828D01*
X6703176Y6156900D01*
X6753959D01*
X6505241Y5915217D02*
Y6016784D01*
X6556025D01*
X6572953Y5999856D01*
Y5966000D01*
X6556025Y5949072D01*
X6505241D01*
X6539097D02*
X6572953Y5915217D01*
X6606808D02*
X6640664D01*
X6623736D01*
Y6016784D01*
X6606808Y5999856D01*
X6691448D02*
X6708376Y6016784D01*
X6742231D01*
X6759159Y5999856D01*
Y5982928D01*
X6742231Y5966000D01*
X6759159Y5949072D01*
Y5932144D01*
X6742231Y5915217D01*
X6708376D01*
X6691448Y5932144D01*
Y5949072D01*
X6708376Y5966000D01*
X6691448Y5982928D01*
Y5999856D01*
X6708376Y5966000D02*
X6742231D01*
X6500241Y5732217D02*
Y5833784D01*
X6551025D01*
X6567953Y5816856D01*
Y5783000D01*
X6551025Y5766072D01*
X6500241D01*
X6534097D02*
X6567953Y5732217D01*
X6601808D02*
X6635664D01*
X6618736D01*
Y5833784D01*
X6601808Y5816856D01*
X6686448Y5833784D02*
X6754159D01*
Y5816856D01*
X6686448Y5749144D01*
Y5732217D01*
X1120541Y6356717D02*
Y6458284D01*
X1171325D01*
X1188252Y6441356D01*
Y6407500D01*
X1171325Y6390572D01*
X1120541D01*
X1154397D02*
X1188252Y6356717D01*
X1222108D02*
X1255964D01*
X1239036D01*
Y6458284D01*
X1222108Y6441356D01*
X1374459Y6458284D02*
X1340603Y6441356D01*
X1306748Y6407500D01*
Y6373644D01*
X1323676Y6356717D01*
X1357531D01*
X1374459Y6373644D01*
Y6390572D01*
X1357531Y6407500D01*
X1306748D01*
X301114Y5526716D02*
Y5628284D01*
X351897D01*
X368825Y5611356D01*
Y5577500D01*
X351897Y5560572D01*
X301114D01*
X334969D02*
X368825Y5526716D01*
X402681D02*
X436537D01*
X419609D01*
Y5628284D01*
X402681Y5611356D01*
X555032Y5628284D02*
X487320D01*
Y5577500D01*
X521176Y5594428D01*
X538104D01*
X555032Y5577500D01*
Y5543644D01*
X538104Y5526716D01*
X504248D01*
X487320Y5543644D01*
X303042Y6109216D02*
Y6210784D01*
X353825D01*
X370753Y6193856D01*
Y6160000D01*
X353825Y6143072D01*
X303042D01*
X336897D02*
X370753Y6109216D01*
X404609D02*
X438464D01*
X421537D01*
Y6210784D01*
X404609Y6193856D01*
X540032Y6109216D02*
Y6210784D01*
X489248Y6160000D01*
X556960D01*
X4133041Y5479216D02*
Y5580784D01*
X4183825D01*
X4200753Y5563856D01*
Y5530000D01*
X4183825Y5513072D01*
X4133041D01*
X4166897D02*
X4200753Y5479216D01*
X4234608D02*
X4268464D01*
X4251536D01*
Y5580784D01*
X4234608Y5563856D01*
X4319248D02*
X4336176Y5580784D01*
X4370031D01*
X4386959Y5563856D01*
Y5546928D01*
X4370031Y5530000D01*
X4353104D01*
X4370031D01*
X4386959Y5513072D01*
Y5496144D01*
X4370031Y5479216D01*
X4336176D01*
X4319248Y5496144D01*
X4133041Y6269216D02*
Y6370784D01*
X4183825D01*
X4200753Y6353856D01*
Y6320000D01*
X4183825Y6303072D01*
X4133041D01*
X4166897D02*
X4200753Y6269216D01*
X4234608D02*
X4268464D01*
X4251536D01*
Y6370784D01*
X4234608Y6353856D01*
X4386959Y6269216D02*
X4319248D01*
X4386959Y6336928D01*
Y6353856D01*
X4370031Y6370784D01*
X4336176D01*
X4319248Y6353856D01*
X4033283Y5318749D02*
X3931716D01*
Y5369533D01*
X3948644Y5386460D01*
X3982500D01*
X3999428Y5369533D01*
Y5318749D01*
Y5352605D02*
X4033283Y5386460D01*
Y5420316D02*
Y5454172D01*
Y5437244D01*
X3931716D01*
X3948644Y5420316D01*
X4033283Y5504956D02*
Y5538811D01*
Y5521884D01*
X3931716D01*
X3948644Y5504956D01*
X3270621Y5379217D02*
Y5480784D01*
X3321404D01*
X3338332Y5463856D01*
Y5430000D01*
X3321404Y5413072D01*
X3270621D01*
X3304476D02*
X3338332Y5379217D01*
X3372188D02*
X3406044D01*
X3389116D01*
Y5480784D01*
X3372188Y5463856D01*
X3456827D02*
X3473755Y5480784D01*
X3507611D01*
X3524539Y5463856D01*
Y5396144D01*
X3507611Y5379217D01*
X3473755D01*
X3456827Y5396144D01*
Y5463856D01*
X4033284Y6265361D02*
X3931716D01*
Y6316144D01*
X3948644Y6333072D01*
X3982500D01*
X3999428Y6316144D01*
Y6265361D01*
Y6299217D02*
X4033284Y6333072D01*
X4016356Y6366928D02*
X4033284Y6383856D01*
Y6417712D01*
X4016356Y6434639D01*
X3948644D01*
X3931716Y6417712D01*
Y6383856D01*
X3948644Y6366928D01*
X3965572D01*
X3982500Y6383856D01*
Y6434639D01*
X3337861Y6346717D02*
Y6448284D01*
X3388644D01*
X3405572Y6431356D01*
Y6397500D01*
X3388644Y6380572D01*
X3337861D01*
X3371716D02*
X3405572Y6346717D01*
X3439428Y6431356D02*
X3456356Y6448284D01*
X3490211D01*
X3507139Y6431356D01*
Y6414428D01*
X3490211Y6397500D01*
X3507139Y6380572D01*
Y6363644D01*
X3490211Y6346717D01*
X3456356D01*
X3439428Y6363644D01*
Y6380572D01*
X3456356Y6397500D01*
X3439428Y6414428D01*
Y6431356D01*
X3456356Y6397500D02*
X3490211D01*
X1027861Y944217D02*
Y1045784D01*
X1078644D01*
X1095572Y1028856D01*
Y995000D01*
X1078644Y978072D01*
X1027861D01*
X1061716D02*
X1095572Y944217D01*
X1129428Y1045784D02*
X1197139D01*
Y1028856D01*
X1129428Y961144D01*
Y944217D01*
X1000783Y2042861D02*
X899216D01*
Y2093645D01*
X916144Y2110572D01*
X950000D01*
X966928Y2093645D01*
Y2042861D01*
Y2076717D02*
X1000783Y2110572D01*
X899216Y2212140D02*
X916144Y2178284D01*
X950000Y2144428D01*
X983856D01*
X1000783Y2161356D01*
Y2195212D01*
X983856Y2212140D01*
X966928D01*
X950000Y2195212D01*
Y2144428D01*
X1077861Y5501716D02*
Y5603284D01*
X1128644D01*
X1145572Y5586356D01*
Y5552500D01*
X1128644Y5535572D01*
X1077861D01*
X1111717D02*
X1145572Y5501716D01*
X1230212D02*
Y5603284D01*
X1179428Y5552500D01*
X1247139D01*
X2054561Y5791716D02*
Y5893284D01*
X2105345D01*
X2122272Y5876356D01*
Y5842500D01*
X2105345Y5825572D01*
X2054561D01*
X2088417D02*
X2122272Y5791716D01*
X2156128Y5876356D02*
X2173056Y5893284D01*
X2206912D01*
X2223840Y5876356D01*
Y5859428D01*
X2206912Y5842500D01*
X2189984D01*
X2206912D01*
X2223840Y5825572D01*
Y5808644D01*
X2206912Y5791716D01*
X2173056D01*
X2156128Y5808644D01*
X2139561Y4214216D02*
Y4315784D01*
X2190344D01*
X2207272Y4298856D01*
Y4265000D01*
X2190344Y4248072D01*
X2139561D01*
X2173417D02*
X2207272Y4214216D01*
X2308839D02*
X2241128D01*
X2308839Y4281928D01*
Y4298856D01*
X2291912Y4315784D01*
X2258056D01*
X2241128Y4298856D01*
X2143789Y4406716D02*
Y4508284D01*
X2194572D01*
X2211500Y4491356D01*
Y4457500D01*
X2194572Y4440572D01*
X2143789D01*
X2177644D02*
X2211500Y4406716D01*
X2245356D02*
X2279212D01*
X2262284D01*
Y4508284D01*
X2245356Y4491356D01*
X4449789Y711717D02*
Y813284D01*
X4500572D01*
X4517500Y796356D01*
Y762500D01*
X4500572Y745572D01*
X4449789D01*
X4551356Y711717D02*
X4585212D01*
X4568284D01*
Y813284D01*
X4551356Y796356D01*
X3552289Y7455784D02*
X3518433D01*
X3535361D01*
Y7371144D01*
X3518433Y7354216D01*
X3501505D01*
X3484577Y7371144D01*
X3586144Y7354216D02*
Y7455784D01*
X3636928D01*
X3653856Y7438856D01*
Y7405000D01*
X3636928Y7388072D01*
X3586144D01*
X3687712Y7371144D02*
X3704640Y7354216D01*
X3738495D01*
X3755423Y7371144D01*
Y7438856D01*
X3738495Y7455784D01*
X3704640D01*
X3687712Y7438856D01*
Y7421928D01*
X3704640Y7405000D01*
X3755423D01*
X4229788Y2328284D02*
X4195933D01*
X4212861D01*
Y2243644D01*
X4195933Y2226716D01*
X4179005D01*
X4162077Y2243644D01*
X4263644Y2226716D02*
Y2328284D01*
X4314428D01*
X4331356Y2311356D01*
Y2277500D01*
X4314428Y2260572D01*
X4263644D01*
X4365211Y2311356D02*
X4382139Y2328284D01*
X4415995D01*
X4432923Y2311356D01*
Y2294428D01*
X4415995Y2277500D01*
X4432923Y2260572D01*
Y2243644D01*
X4415995Y2226716D01*
X4382139D01*
X4365211Y2243644D01*
Y2260572D01*
X4382139Y2277500D01*
X4365211Y2294428D01*
Y2311356D01*
X4382139Y2277500D02*
X4415995D01*
X8061089Y7380784D02*
X8027233D01*
X8044161D01*
Y7296144D01*
X8027233Y7279217D01*
X8010305D01*
X7993377Y7296144D01*
X8094944Y7279217D02*
Y7380784D01*
X8145728D01*
X8162656Y7363856D01*
Y7330000D01*
X8145728Y7313072D01*
X8094944D01*
X8196512Y7380784D02*
X8264223D01*
Y7363856D01*
X8196512Y7296144D01*
Y7279217D01*
X6865088Y7380784D02*
X6831233D01*
X6848161D01*
Y7296144D01*
X6831233Y7279217D01*
X6814305D01*
X6797377Y7296144D01*
X6898944Y7279217D02*
Y7380784D01*
X6949728D01*
X6966656Y7363856D01*
Y7330000D01*
X6949728Y7313072D01*
X6898944D01*
X7068223Y7380784D02*
X7034367Y7363856D01*
X7000512Y7330000D01*
Y7296144D01*
X7017439Y7279217D01*
X7051295D01*
X7068223Y7296144D01*
Y7313072D01*
X7051295Y7330000D01*
X7000512D01*
X4813488Y7380784D02*
X4779633D01*
X4796561D01*
Y7296144D01*
X4779633Y7279217D01*
X4762705D01*
X4745777Y7296144D01*
X4847344Y7279217D02*
Y7380784D01*
X4898128D01*
X4915056Y7363856D01*
Y7330000D01*
X4898128Y7313072D01*
X4847344D01*
X5016623Y7380784D02*
X4948912D01*
Y7330000D01*
X4982767Y7346928D01*
X4999695D01*
X5016623Y7330000D01*
Y7296144D01*
X4999695Y7279217D01*
X4965839D01*
X4948912Y7296144D01*
X3674788Y7283284D02*
X3640933D01*
X3657861D01*
Y7198644D01*
X3640933Y7181716D01*
X3624005D01*
X3607077Y7198644D01*
X3708644Y7181716D02*
Y7283284D01*
X3759428D01*
X3776356Y7266356D01*
Y7232500D01*
X3759428Y7215572D01*
X3708644D01*
X3860995Y7181716D02*
Y7283284D01*
X3810212Y7232500D01*
X3877923D01*
X4017288Y5175784D02*
X3983433D01*
X4000361D01*
Y5091144D01*
X3983433Y5074216D01*
X3966505D01*
X3949577Y5091144D01*
X4051144Y5074216D02*
Y5175784D01*
X4101928D01*
X4118856Y5158856D01*
Y5125000D01*
X4101928Y5108072D01*
X4051144D01*
X4152712Y5158856D02*
X4169639Y5175784D01*
X4203495D01*
X4220423Y5158856D01*
Y5141928D01*
X4203495Y5125000D01*
X4186567D01*
X4203495D01*
X4220423Y5108072D01*
Y5091144D01*
X4203495Y5074216D01*
X4169639D01*
X4152712Y5091144D01*
X7358073Y194274D02*
X7324217D01*
X7341145D01*
Y109634D01*
X7324217Y92706D01*
X7307289D01*
X7290361Y109634D01*
X7391929Y177346D02*
X7408856Y194274D01*
X7442712D01*
X7459640Y177346D01*
Y160418D01*
X7442712Y143490D01*
X7459640Y126562D01*
Y109634D01*
X7442712Y92706D01*
X7408856D01*
X7391929Y109634D01*
Y126562D01*
X7408856Y143490D01*
X7391929Y160418D01*
Y177346D01*
X7408856Y143490D02*
X7442712D01*
X2988072Y976333D02*
X2954217D01*
X2971144D01*
Y891693D01*
X2954217Y874766D01*
X2937289D01*
X2920361Y891693D01*
X3021928Y976333D02*
X3089639D01*
Y959405D01*
X3021928Y891693D01*
Y874766D01*
X8633072Y5228284D02*
X8599216D01*
X8616144D01*
Y5143644D01*
X8599216Y5126716D01*
X8582289D01*
X8565361Y5143644D01*
X8734639Y5228284D02*
X8700784Y5211356D01*
X8666928Y5177500D01*
Y5143644D01*
X8683856Y5126716D01*
X8717712D01*
X8734639Y5143644D01*
Y5160572D01*
X8717712Y5177500D01*
X8666928D01*
X8628072Y3263284D02*
X8594216D01*
X8611144D01*
Y3178644D01*
X8594216Y3161717D01*
X8577289D01*
X8560361Y3178644D01*
X8729639Y3263284D02*
X8661928D01*
Y3212500D01*
X8695784Y3229428D01*
X8712712D01*
X8729639Y3212500D01*
Y3178644D01*
X8712712Y3161717D01*
X8678856D01*
X8661928Y3178644D01*
X8628072Y7230784D02*
X8594216D01*
X8611144D01*
Y7146144D01*
X8594216Y7129217D01*
X8577289D01*
X8560361Y7146144D01*
X8712712Y7129217D02*
Y7230784D01*
X8661928Y7180000D01*
X8729639D01*
X8620572Y1265784D02*
X8586717D01*
X8603644D01*
Y1181144D01*
X8586717Y1164217D01*
X8569789D01*
X8552861Y1181144D01*
X8654428Y1248856D02*
X8671356Y1265784D01*
X8705212D01*
X8722140Y1248856D01*
Y1231928D01*
X8705212Y1215000D01*
X8688284D01*
X8705212D01*
X8722140Y1198072D01*
Y1181144D01*
X8705212Y1164217D01*
X8671356D01*
X8654428Y1181144D01*
X1073072Y260784D02*
X1039217D01*
X1056144D01*
Y176144D01*
X1039217Y159216D01*
X1022289D01*
X1005361Y176144D01*
X1174640Y159216D02*
X1106928D01*
X1174640Y226928D01*
Y243856D01*
X1157712Y260784D01*
X1123856D01*
X1106928Y243856D01*
X1636000Y3870784D02*
X1602144D01*
X1619072D01*
Y3786144D01*
X1602144Y3769216D01*
X1585217D01*
X1568289Y3786144D01*
X1669856Y3769216D02*
X1703712D01*
X1686784D01*
Y3870784D01*
X1669856Y3853856D01*
X3327500Y1875784D02*
X3259789D01*
Y1825000D01*
X3293644D01*
X3259789D01*
Y1774216D01*
X3361356D02*
X3395212D01*
X3378284D01*
Y1875784D01*
X3361356Y1858856D01*
X2151716Y2643974D02*
X2253284D01*
Y2694757D01*
X2236356Y2711685D01*
X2168644D01*
X2151716Y2694757D01*
Y2643974D01*
X2253284Y2745541D02*
X2151716D01*
X2253284Y2813252D01*
X2151716D01*
X2253284Y2847108D02*
X2151716D01*
Y2897892D01*
X2168644Y2914820D01*
X2202500D01*
X2219428Y2897892D01*
Y2847108D01*
X2253284Y2948676D02*
Y2982531D01*
Y2965603D01*
X2151716D01*
X2168644Y2948676D01*
Y3033315D02*
X2151716Y3050243D01*
Y3084098D01*
X2168644Y3101026D01*
X2185572D01*
X2202500Y3084098D01*
Y3067171D01*
Y3084098D01*
X2219428Y3101026D01*
X2236356D01*
X2253284Y3084098D01*
Y3050243D01*
X2236356Y3033315D01*
X97979Y5828283D02*
Y5726716D01*
X148763D01*
X165691Y5743644D01*
Y5811356D01*
X148763Y5828283D01*
X97979D01*
X199546Y5726716D02*
Y5828283D01*
X267258Y5726716D01*
Y5828283D01*
X301114Y5726716D02*
Y5828283D01*
X351897D01*
X368825Y5811356D01*
Y5777500D01*
X351897Y5760572D01*
X301114D01*
X402681Y5726716D02*
X436537D01*
X419609D01*
Y5828283D01*
X402681Y5811356D01*
X555032Y5726716D02*
X487320D01*
X555032Y5794428D01*
Y5811356D01*
X538104Y5828283D01*
X504248D01*
X487320Y5811356D01*
X131835Y5425584D02*
Y5324016D01*
X182618D01*
X199546Y5340944D01*
Y5408656D01*
X182618Y5425584D01*
X131835D01*
X233402Y5324016D02*
Y5425584D01*
X301113Y5324016D01*
Y5425584D01*
X334969Y5324016D02*
Y5425584D01*
X385753D01*
X402681Y5408656D01*
Y5374800D01*
X385753Y5357872D01*
X334969D01*
X436537Y5324016D02*
X470392D01*
X453464D01*
Y5425584D01*
X436537Y5408656D01*
X521176Y5324016D02*
X555032D01*
X538104D01*
Y5425584D01*
X521176Y5408656D01*
X4715361Y2060784D02*
Y1959217D01*
X4766144D01*
X4783072Y1976144D01*
Y2043856D01*
X4766144Y2060784D01*
X4715361D01*
X4867712Y1959217D02*
Y2060784D01*
X4816928Y2010000D01*
X4884639D01*
X3805361Y1520784D02*
Y1419217D01*
X3856144D01*
X3873072Y1436144D01*
Y1503856D01*
X3856144Y1520784D01*
X3805361D01*
X3906928Y1503856D02*
X3923856Y1520784D01*
X3957712D01*
X3974639Y1503856D01*
Y1486928D01*
X3957712Y1470000D01*
X3940784D01*
X3957712D01*
X3974639Y1453072D01*
Y1436144D01*
X3957712Y1419217D01*
X3923856D01*
X3906928Y1436144D01*
X7775361Y5720784D02*
Y5619217D01*
X7826144D01*
X7843072Y5636144D01*
Y5703856D01*
X7826144Y5720784D01*
X7775361D01*
X7944639Y5619217D02*
X7876928D01*
X7944639Y5686928D01*
Y5703856D01*
X7927712Y5720784D01*
X7893856D01*
X7876928Y5703856D01*
X5032289Y5715784D02*
Y5614217D01*
X5083072D01*
X5100000Y5631144D01*
Y5698856D01*
X5083072Y5715784D01*
X5032289D01*
X5133856Y5614217D02*
X5167712D01*
X5150784D01*
Y5715784D01*
X5133856Y5698856D01*
X1345852Y5266356D02*
X1328924Y5283284D01*
X1295069D01*
X1278141Y5266356D01*
Y5198644D01*
X1295069Y5181717D01*
X1328924D01*
X1345852Y5198644D01*
X1379708Y5181717D02*
X1413564D01*
X1396636D01*
Y5283284D01*
X1379708Y5266356D01*
X1532059Y5181717D02*
X1464348D01*
X1532059Y5249428D01*
Y5266356D01*
X1515131Y5283284D01*
X1481275D01*
X1464348Y5266356D01*
X2183644Y7104788D02*
X2166716Y7087861D01*
Y7054005D01*
X2183644Y7037077D01*
X2251356D01*
X2268283Y7054005D01*
Y7087861D01*
X2251356Y7104788D01*
X2268283Y7189428D02*
X2166716D01*
X2217500Y7138644D01*
Y7206356D01*
X2183644Y7240212D02*
X2166716Y7257139D01*
Y7290995D01*
X2183644Y7307923D01*
X2200572D01*
X2217500Y7290995D01*
X2234428Y7307923D01*
X2251356D01*
X2268283Y7290995D01*
Y7257139D01*
X2251356Y7240212D01*
X2234428D01*
X2217500Y7257139D01*
X2200572Y7240212D01*
X2183644D01*
X2217500Y7257139D02*
Y7290995D01*
X1232288Y6693856D02*
X1215361Y6710784D01*
X1181505D01*
X1164577Y6693856D01*
Y6626144D01*
X1181505Y6609216D01*
X1215361D01*
X1232288Y6626144D01*
X1316928Y6609216D02*
Y6710784D01*
X1266144Y6660000D01*
X1333856D01*
X1367712Y6710784D02*
X1435423D01*
Y6693856D01*
X1367712Y6626144D01*
Y6609216D01*
X1559788Y6691356D02*
X1542861Y6708284D01*
X1509005D01*
X1492077Y6691356D01*
Y6623644D01*
X1509005Y6606716D01*
X1542861D01*
X1559788Y6623644D01*
X1644428Y6606716D02*
Y6708284D01*
X1593644Y6657500D01*
X1661356D01*
X1762923Y6708284D02*
X1729067Y6691356D01*
X1695211Y6657500D01*
Y6623644D01*
X1712139Y6606716D01*
X1745995D01*
X1762923Y6623644D01*
Y6640572D01*
X1745995Y6657500D01*
X1695211D01*
X396144Y6912288D02*
X379216Y6895361D01*
Y6861505D01*
X396144Y6844577D01*
X463856D01*
X480783Y6861505D01*
Y6895361D01*
X463856Y6912288D01*
X480783Y6996928D02*
X379216D01*
X430000Y6946144D01*
Y7013856D01*
X379216Y7115423D02*
Y7047712D01*
X430000D01*
X413072Y7081567D01*
Y7098495D01*
X430000Y7115423D01*
X463856D01*
X480783Y7098495D01*
Y7064639D01*
X463856Y7047712D01*
X869788Y7358856D02*
X852861Y7375784D01*
X819005D01*
X802077Y7358856D01*
Y7291144D01*
X819005Y7274217D01*
X852861D01*
X869788Y7291144D01*
X954428Y7274217D02*
Y7375784D01*
X903644Y7325000D01*
X971356D01*
X1055995Y7274217D02*
Y7375784D01*
X1005212Y7325000D01*
X1072923D01*
X2512288Y2333856D02*
X2495361Y2350784D01*
X2461505D01*
X2444577Y2333856D01*
Y2266144D01*
X2461505Y2249216D01*
X2495361D01*
X2512288Y2266144D01*
X2596928Y2249216D02*
Y2350784D01*
X2546144Y2300000D01*
X2613856D01*
X2647711Y2333856D02*
X2664639Y2350784D01*
X2698495D01*
X2715423Y2333856D01*
Y2316928D01*
X2698495Y2300000D01*
X2681567D01*
X2698495D01*
X2715423Y2283072D01*
Y2266144D01*
X2698495Y2249216D01*
X2664639D01*
X2647711Y2266144D01*
X3492289Y2503856D02*
X3475361Y2520784D01*
X3441505D01*
X3424577Y2503856D01*
Y2436144D01*
X3441505Y2419216D01*
X3475361D01*
X3492289Y2436144D01*
X3576928Y2419216D02*
Y2520784D01*
X3526145Y2470000D01*
X3593856D01*
X3695423Y2419216D02*
X3627712D01*
X3695423Y2486928D01*
Y2503856D01*
X3678495Y2520784D01*
X3644640D01*
X3627712Y2503856D01*
X6789216Y4503855D02*
X6772288Y4520783D01*
X6738433D01*
X6721505Y4503855D01*
Y4436144D01*
X6738433Y4419216D01*
X6772288D01*
X6789216Y4436144D01*
X6873856Y4419216D02*
Y4520783D01*
X6823072Y4469999D01*
X6890784D01*
X6924639Y4419216D02*
X6958495D01*
X6941567D01*
Y4520783D01*
X6924639Y4503855D01*
X7479788Y3911356D02*
X7462861Y3928284D01*
X7429005D01*
X7412077Y3911356D01*
Y3843644D01*
X7429005Y3826717D01*
X7462861D01*
X7479788Y3843644D01*
X7564428Y3826717D02*
Y3928284D01*
X7513644Y3877500D01*
X7581356D01*
X7615212Y3911356D02*
X7632139Y3928284D01*
X7665995D01*
X7682923Y3911356D01*
Y3843644D01*
X7665995Y3826717D01*
X7632139D01*
X7615212Y3843644D01*
Y3911356D01*
X3026144Y4352288D02*
X3009216Y4335360D01*
Y4301505D01*
X3026144Y4284577D01*
X3093855D01*
X3110783Y4301505D01*
Y4335360D01*
X3093855Y4352288D01*
X3026144Y4386144D02*
X3009216Y4403072D01*
Y4436928D01*
X3026144Y4453855D01*
X3043072D01*
X3060000Y4436928D01*
Y4420000D01*
Y4436928D01*
X3076928Y4453855D01*
X3093855D01*
X3110783Y4436928D01*
Y4403072D01*
X3093855Y4386144D01*
Y4487711D02*
X3110783Y4504639D01*
Y4538495D01*
X3093855Y4555423D01*
X3026144D01*
X3009216Y4538495D01*
Y4504639D01*
X3026144Y4487711D01*
X3043072D01*
X3060000Y4504639D01*
Y4555423D01*
X2866144Y4352288D02*
X2849216Y4335360D01*
Y4301505D01*
X2866144Y4284577D01*
X2933855D01*
X2950783Y4301505D01*
Y4335360D01*
X2933855Y4352288D01*
X2866144Y4386144D02*
X2849216Y4403072D01*
Y4436928D01*
X2866144Y4453855D01*
X2883072D01*
X2900000Y4436928D01*
Y4420000D01*
Y4436928D01*
X2916928Y4453855D01*
X2933855D01*
X2950783Y4436928D01*
Y4403072D01*
X2933855Y4386144D01*
X2866144Y4487711D02*
X2849216Y4504639D01*
Y4538495D01*
X2866144Y4555423D01*
X2883072D01*
X2900000Y4538495D01*
X2916928Y4555423D01*
X2933855D01*
X2950783Y4538495D01*
Y4504639D01*
X2933855Y4487711D01*
X2916928D01*
X2900000Y4504639D01*
X2883072Y4487711D01*
X2866144D01*
X2900000Y4504639D02*
Y4538495D01*
X2689444Y4097011D02*
X2672516Y4080083D01*
Y4046228D01*
X2689444Y4029300D01*
X2757156D01*
X2774083Y4046228D01*
Y4080083D01*
X2757156Y4097011D01*
X2689444Y4130867D02*
X2672516Y4147795D01*
Y4181651D01*
X2689444Y4198578D01*
X2706372D01*
X2723300Y4181651D01*
Y4164723D01*
Y4181651D01*
X2740228Y4198578D01*
X2757156D01*
X2774083Y4181651D01*
Y4147795D01*
X2757156Y4130867D01*
X2672516Y4232434D02*
Y4300146D01*
X2689444D01*
X2757156Y4232434D01*
X2774083D01*
X2521844Y4087011D02*
X2504916Y4070084D01*
Y4036228D01*
X2521844Y4019300D01*
X2589555D01*
X2606483Y4036228D01*
Y4070084D01*
X2589555Y4087011D01*
X2521844Y4120867D02*
X2504916Y4137795D01*
Y4171651D01*
X2521844Y4188579D01*
X2538772D01*
X2555699Y4171651D01*
Y4154723D01*
Y4171651D01*
X2572627Y4188579D01*
X2589555D01*
X2606483Y4171651D01*
Y4137795D01*
X2589555Y4120867D01*
X2504916Y4290146D02*
X2521844Y4256290D01*
X2555699Y4222435D01*
X2589555D01*
X2606483Y4239362D01*
Y4273218D01*
X2589555Y4290146D01*
X2572627D01*
X2555699Y4273218D01*
Y4222435D01*
X3263644Y3382288D02*
X3246716Y3365361D01*
Y3331505D01*
X3263644Y3314577D01*
X3331356D01*
X3348283Y3331505D01*
Y3365361D01*
X3331356Y3382288D01*
X3263644Y3416144D02*
X3246716Y3433072D01*
Y3466928D01*
X3263644Y3483856D01*
X3280572D01*
X3297500Y3466928D01*
Y3450000D01*
Y3466928D01*
X3314428Y3483856D01*
X3331356D01*
X3348283Y3466928D01*
Y3433072D01*
X3331356Y3416144D01*
X3246716Y3585423D02*
Y3517712D01*
X3297500D01*
X3280572Y3551567D01*
Y3568495D01*
X3297500Y3585423D01*
X3331356D01*
X3348283Y3568495D01*
Y3534639D01*
X3331356Y3517712D01*
X3666144Y4227288D02*
X3649216Y4210361D01*
Y4176505D01*
X3666144Y4159577D01*
X3733856D01*
X3750783Y4176505D01*
Y4210361D01*
X3733856Y4227288D01*
X3666144Y4261144D02*
X3649216Y4278072D01*
Y4311928D01*
X3666144Y4328856D01*
X3683072D01*
X3700000Y4311928D01*
Y4295000D01*
Y4311928D01*
X3716928Y4328856D01*
X3733856D01*
X3750783Y4311928D01*
Y4278072D01*
X3733856Y4261144D01*
X3750783Y4413495D02*
X3649216D01*
X3700000Y4362712D01*
Y4430423D01*
X4692188Y4252655D02*
X4675260Y4269583D01*
X4641405D01*
X4624477Y4252655D01*
Y4184944D01*
X4641405Y4168016D01*
X4675260D01*
X4692188Y4184944D01*
X4726044Y4252655D02*
X4742972Y4269583D01*
X4776828D01*
X4793755Y4252655D01*
Y4235727D01*
X4776828Y4218800D01*
X4759900D01*
X4776828D01*
X4793755Y4201872D01*
Y4184944D01*
X4776828Y4168016D01*
X4742972D01*
X4726044Y4184944D01*
X4827611Y4252655D02*
X4844539Y4269583D01*
X4878395D01*
X4895323Y4252655D01*
Y4235727D01*
X4878395Y4218800D01*
X4861467D01*
X4878395D01*
X4895323Y4201872D01*
Y4184944D01*
X4878395Y4168016D01*
X4844539D01*
X4827611Y4184944D01*
X4692288Y4453856D02*
X4675360Y4470784D01*
X4641505D01*
X4624577Y4453856D01*
Y4386144D01*
X4641505Y4369217D01*
X4675360D01*
X4692288Y4386144D01*
X4726144Y4453856D02*
X4743072Y4470784D01*
X4776928D01*
X4793856Y4453856D01*
Y4436928D01*
X4776928Y4420000D01*
X4760000D01*
X4776928D01*
X4793856Y4403072D01*
Y4386144D01*
X4776928Y4369217D01*
X4743072D01*
X4726144Y4386144D01*
X4895423Y4369217D02*
X4827711D01*
X4895423Y4436928D01*
Y4453856D01*
X4878495Y4470784D01*
X4844639D01*
X4827711Y4453856D01*
X3748644Y3269216D02*
X3731716Y3252289D01*
Y3218433D01*
X3748644Y3201505D01*
X3816355D01*
X3833283Y3218433D01*
Y3252289D01*
X3816355Y3269216D01*
X3748644Y3303072D02*
X3731716Y3320000D01*
Y3353856D01*
X3748644Y3370784D01*
X3765572D01*
X3782500Y3353856D01*
Y3336928D01*
Y3353856D01*
X3799428Y3370784D01*
X3816355D01*
X3833283Y3353856D01*
Y3320000D01*
X3816355Y3303072D01*
X3833283Y3404640D02*
Y3438495D01*
Y3421567D01*
X3731716D01*
X3748644Y3404640D01*
X4236144Y4042288D02*
X4219216Y4025360D01*
Y3991504D01*
X4236144Y3974577D01*
X4303856D01*
X4320784Y3991504D01*
Y4025360D01*
X4303856Y4042288D01*
X4236144Y4076144D02*
X4219216Y4093072D01*
Y4126927D01*
X4236144Y4143855D01*
X4253072D01*
X4270000Y4126927D01*
Y4109999D01*
Y4126927D01*
X4286928Y4143855D01*
X4303856D01*
X4320784Y4126927D01*
Y4093072D01*
X4303856Y4076144D01*
X4236144Y4177711D02*
X4219216Y4194639D01*
Y4228494D01*
X4236144Y4245422D01*
X4303856D01*
X4320784Y4228494D01*
Y4194639D01*
X4303856Y4177711D01*
X4236144D01*
X5588644Y4247288D02*
X5571716Y4230361D01*
Y4196505D01*
X5588644Y4179577D01*
X5656356D01*
X5673284Y4196505D01*
Y4230361D01*
X5656356Y4247288D01*
X5673284Y4348856D02*
Y4281144D01*
X5605572Y4348856D01*
X5588644D01*
X5571716Y4331928D01*
Y4298072D01*
X5588644Y4281144D01*
X5656356Y4382712D02*
X5673284Y4399639D01*
Y4433495D01*
X5656356Y4450423D01*
X5588644D01*
X5571716Y4433495D01*
Y4399639D01*
X5588644Y4382712D01*
X5605572D01*
X5622500Y4399639D01*
Y4450423D01*
X5215188Y3310855D02*
X5198260Y3327783D01*
X5164405D01*
X5147477Y3310855D01*
Y3243144D01*
X5164405Y3226216D01*
X5198260D01*
X5215188Y3243144D01*
X5316755Y3226216D02*
X5249044D01*
X5316755Y3293927D01*
Y3310855D01*
X5299828Y3327783D01*
X5265972D01*
X5249044Y3310855D01*
X5350611D02*
X5367539Y3327783D01*
X5401395D01*
X5418323Y3310855D01*
Y3293927D01*
X5401395Y3277000D01*
X5418323Y3260072D01*
Y3243144D01*
X5401395Y3226216D01*
X5367539D01*
X5350611Y3243144D01*
Y3260072D01*
X5367539Y3277000D01*
X5350611Y3293927D01*
Y3310855D01*
X5367539Y3277000D02*
X5401395D01*
X4839988Y3300855D02*
X4823060Y3317783D01*
X4789205D01*
X4772277Y3300855D01*
Y3233144D01*
X4789205Y3216216D01*
X4823060D01*
X4839988Y3233144D01*
X4941556Y3216216D02*
X4873844D01*
X4941556Y3283927D01*
Y3300855D01*
X4924628Y3317783D01*
X4890772D01*
X4873844Y3300855D01*
X4975411Y3317783D02*
X5043123D01*
Y3300855D01*
X4975411Y3233144D01*
Y3216216D01*
X5586144Y3224789D02*
X5569216Y3207861D01*
Y3174005D01*
X5586144Y3157077D01*
X5653855D01*
X5670783Y3174005D01*
Y3207861D01*
X5653855Y3224789D01*
X5670783Y3326356D02*
Y3258644D01*
X5603072Y3326356D01*
X5586144D01*
X5569216Y3309428D01*
Y3275572D01*
X5586144Y3258644D01*
X5569216Y3427923D02*
X5586144Y3394067D01*
X5620000Y3360212D01*
X5653855D01*
X5670783Y3377140D01*
Y3410995D01*
X5653855Y3427923D01*
X5636928D01*
X5620000Y3410995D01*
Y3360212D01*
X6096144Y3412288D02*
X6079216Y3395360D01*
Y3361505D01*
X6096144Y3344577D01*
X6163855D01*
X6180783Y3361505D01*
Y3395360D01*
X6163855Y3412288D01*
X6180783Y3513855D02*
Y3446144D01*
X6113072Y3513855D01*
X6096144D01*
X6079216Y3496927D01*
Y3463072D01*
X6096144Y3446144D01*
X6079216Y3615423D02*
Y3547711D01*
X6130000D01*
X6113072Y3581567D01*
Y3598495D01*
X6130000Y3615423D01*
X6163855D01*
X6180783Y3598495D01*
Y3564639D01*
X6163855Y3547711D01*
X7490088Y2911556D02*
X7473161Y2928484D01*
X7439305D01*
X7422377Y2911556D01*
Y2843845D01*
X7439305Y2826917D01*
X7473161D01*
X7490088Y2843845D01*
X7591656Y2826917D02*
X7523944D01*
X7591656Y2894628D01*
Y2911556D01*
X7574728Y2928484D01*
X7540872D01*
X7523944Y2911556D01*
X7676295Y2826917D02*
Y2928484D01*
X7625512Y2877700D01*
X7693223D01*
X6588644Y4049788D02*
X6571716Y4032861D01*
Y3999005D01*
X6588644Y3982077D01*
X6656356D01*
X6673284Y3999005D01*
Y4032861D01*
X6656356Y4049788D01*
X6673284Y4151356D02*
Y4083644D01*
X6605572Y4151356D01*
X6588644D01*
X6571716Y4134428D01*
Y4100572D01*
X6588644Y4083644D01*
Y4185212D02*
X6571716Y4202139D01*
Y4235995D01*
X6588644Y4252923D01*
X6605572D01*
X6622500Y4235995D01*
Y4219067D01*
Y4235995D01*
X6639428Y4252923D01*
X6656356D01*
X6673284Y4235995D01*
Y4202139D01*
X6656356Y4185212D01*
X6599788Y6413856D02*
X6582861Y6430784D01*
X6549005D01*
X6532077Y6413856D01*
Y6346144D01*
X6549005Y6329216D01*
X6582861D01*
X6599788Y6346144D01*
X6701356Y6329216D02*
X6633644D01*
X6701356Y6396928D01*
Y6413856D01*
X6684428Y6430784D01*
X6650572D01*
X6633644Y6413856D01*
X6802923Y6329216D02*
X6735212D01*
X6802923Y6396928D01*
Y6413856D01*
X6785995Y6430784D01*
X6752139D01*
X6735212Y6413856D01*
X7563644Y6174216D02*
X7546716Y6157288D01*
Y6123433D01*
X7563644Y6106505D01*
X7631356D01*
X7648283Y6123433D01*
Y6157288D01*
X7631356Y6174216D01*
X7648283Y6275783D02*
Y6208072D01*
X7580572Y6275783D01*
X7563644D01*
X7546716Y6258856D01*
Y6225000D01*
X7563644Y6208072D01*
X7648283Y6309639D02*
Y6343495D01*
Y6326567D01*
X7546716D01*
X7563644Y6309639D01*
X5655789Y5301456D02*
X5638861Y5318384D01*
X5605005D01*
X5588077Y5301456D01*
Y5233744D01*
X5605005Y5216816D01*
X5638861D01*
X5655789Y5233744D01*
X5757356Y5216816D02*
X5689644D01*
X5757356Y5284528D01*
Y5301456D01*
X5740428Y5318384D01*
X5706572D01*
X5689644Y5301456D01*
X5791212D02*
X5808140Y5318384D01*
X5841995D01*
X5858923Y5301456D01*
Y5233744D01*
X5841995Y5216816D01*
X5808140D01*
X5791212Y5233744D01*
Y5301456D01*
X2956144Y4930752D02*
X2939216Y4913825D01*
Y4879969D01*
X2956144Y4863041D01*
X3023856D01*
X3040784Y4879969D01*
Y4913825D01*
X3023856Y4930752D01*
X3040784Y4964608D02*
Y4998464D01*
Y4981536D01*
X2939216D01*
X2956144Y4964608D01*
X3023856Y5049248D02*
X3040784Y5066176D01*
Y5100031D01*
X3023856Y5116959D01*
X2956144D01*
X2939216Y5100031D01*
Y5066176D01*
X2956144Y5049248D01*
X2973072D01*
X2990000Y5066176D01*
Y5116959D01*
X4660752Y5521356D02*
X4643825Y5538284D01*
X4609969D01*
X4593041Y5521356D01*
Y5453644D01*
X4609969Y5436717D01*
X4643825D01*
X4660752Y5453644D01*
X4694608Y5436717D02*
X4728464D01*
X4711536D01*
Y5538284D01*
X4694608Y5521356D01*
X4779248D02*
X4796176Y5538284D01*
X4830031D01*
X4846959Y5521356D01*
Y5504428D01*
X4830031Y5487500D01*
X4846959Y5470572D01*
Y5453644D01*
X4830031Y5436717D01*
X4796176D01*
X4779248Y5453644D01*
Y5470572D01*
X4796176Y5487500D01*
X4779248Y5504428D01*
Y5521356D01*
X4796176Y5487500D02*
X4830031D01*
X4846144Y6370752D02*
X4829216Y6353824D01*
Y6319969D01*
X4846144Y6303041D01*
X4913856D01*
X4930784Y6319969D01*
Y6353824D01*
X4913856Y6370752D01*
X4930784Y6404608D02*
Y6438464D01*
Y6421536D01*
X4829216D01*
X4846144Y6404608D01*
X4829216Y6489248D02*
Y6556959D01*
X4846144D01*
X4913856Y6489248D01*
X4930784D01*
X2796144Y6160752D02*
X2779216Y6143825D01*
Y6109969D01*
X2796144Y6093041D01*
X2863856D01*
X2880783Y6109969D01*
Y6143825D01*
X2863856Y6160752D01*
X2880783Y6194608D02*
Y6228464D01*
Y6211536D01*
X2779216D01*
X2796144Y6194608D01*
X2779216Y6346959D02*
X2796144Y6313103D01*
X2830000Y6279248D01*
X2863856D01*
X2880783Y6296176D01*
Y6330031D01*
X2863856Y6346959D01*
X2846928D01*
X2830000Y6330031D01*
Y6279248D01*
X3633253Y5251356D02*
X3616325Y5268284D01*
X3582469D01*
X3565541Y5251356D01*
Y5183644D01*
X3582469Y5166717D01*
X3616325D01*
X3633253Y5183644D01*
X3667108Y5166717D02*
X3700964D01*
X3684036D01*
Y5268284D01*
X3667108Y5251356D01*
X3819459Y5268284D02*
X3751748D01*
Y5217500D01*
X3785604Y5234428D01*
X3802531D01*
X3819459Y5217500D01*
Y5183644D01*
X3802531Y5166717D01*
X3768676D01*
X3751748Y5183644D01*
X3625752Y6676356D02*
X3608825Y6693284D01*
X3574969D01*
X3558041Y6676356D01*
Y6608644D01*
X3574969Y6591717D01*
X3608825D01*
X3625752Y6608644D01*
X3659608Y6591717D02*
X3693464D01*
X3676536D01*
Y6693284D01*
X3659608Y6676356D01*
X3795031Y6591717D02*
Y6693284D01*
X3744248Y6642500D01*
X3811959D01*
X543644Y2045753D02*
X526716Y2028825D01*
Y1994969D01*
X543644Y1978041D01*
X611356D01*
X628283Y1994969D01*
Y2028825D01*
X611356Y2045753D01*
X628283Y2079608D02*
Y2113464D01*
Y2096536D01*
X526716D01*
X543644Y2079608D01*
Y2164248D02*
X526716Y2181176D01*
Y2215031D01*
X543644Y2231959D01*
X560572D01*
X577500Y2215031D01*
Y2198104D01*
Y2215031D01*
X594428Y2231959D01*
X611356D01*
X628283Y2215031D01*
Y2181176D01*
X611356Y2164248D01*
X405181Y6006356D02*
X388253Y6023284D01*
X354397D01*
X337469Y6006356D01*
Y5938644D01*
X354397Y5921716D01*
X388253D01*
X405181Y5938644D01*
X439036Y5921716D02*
X472892D01*
X455964D01*
Y6023284D01*
X439036Y6006356D01*
X523676Y5921716D02*
X557532D01*
X540604D01*
Y6023284D01*
X523676Y6006356D01*
X2110753Y6053856D02*
X2093825Y6070784D01*
X2059969D01*
X2043041Y6053856D01*
Y5986144D01*
X2059969Y5969216D01*
X2093825D01*
X2110753Y5986144D01*
X2144609Y5969216D02*
X2178464D01*
X2161536D01*
Y6070784D01*
X2144609Y6053856D01*
X2229248D02*
X2246176Y6070784D01*
X2280032D01*
X2296959Y6053856D01*
Y5986144D01*
X2280032Y5969216D01*
X2246176D01*
X2229248Y5986144D01*
Y6053856D01*
X2118473Y6256356D02*
X2101545Y6273284D01*
X2067689D01*
X2050761Y6256356D01*
Y6188644D01*
X2067689Y6171716D01*
X2101545D01*
X2118473Y6188644D01*
X2152328D02*
X2169256Y6171716D01*
X2203112D01*
X2220040Y6188644D01*
Y6256356D01*
X2203112Y6273284D01*
X2169256D01*
X2152328Y6256356D01*
Y6239428D01*
X2169256Y6222500D01*
X2220040D01*
X2206072Y4678856D02*
X2189144Y4695784D01*
X2155289D01*
X2138361Y4678856D01*
Y4611144D01*
X2155289Y4594216D01*
X2189144D01*
X2206072Y4611144D01*
X2239928Y4678856D02*
X2256856Y4695784D01*
X2290711D01*
X2307639Y4678856D01*
Y4661928D01*
X2290711Y4645000D01*
X2307639Y4628072D01*
Y4611144D01*
X2290711Y4594216D01*
X2256856D01*
X2239928Y4611144D01*
Y4628072D01*
X2256856Y4645000D01*
X2239928Y4661928D01*
Y4678856D01*
X2256856Y4645000D02*
X2290711D01*
X931972Y4364156D02*
X915044Y4381084D01*
X881188D01*
X864260Y4364156D01*
Y4296445D01*
X881188Y4279517D01*
X915044D01*
X931972Y4296445D01*
X965828Y4381084D02*
X1033539D01*
Y4364156D01*
X965828Y4296445D01*
Y4279517D01*
X931972Y4654156D02*
X915044Y4671084D01*
X881188D01*
X864260Y4654156D01*
Y4586445D01*
X881188Y4569517D01*
X915044D01*
X931972Y4586445D01*
X1033539Y4671084D02*
X999683Y4654156D01*
X965828Y4620300D01*
Y4586445D01*
X982755Y4569517D01*
X1016611D01*
X1033539Y4586445D01*
Y4603373D01*
X1016611Y4620300D01*
X965828D01*
X1763072Y4983856D02*
X1746144Y5000784D01*
X1712289D01*
X1695361Y4983856D01*
Y4916144D01*
X1712289Y4899217D01*
X1746144D01*
X1763072Y4916144D01*
X1864639Y5000784D02*
X1796928D01*
Y4950000D01*
X1830784Y4966928D01*
X1847712D01*
X1864639Y4950000D01*
Y4916144D01*
X1847712Y4899217D01*
X1813856D01*
X1796928Y4916144D01*
X1775572Y4831356D02*
X1758644Y4848284D01*
X1724789D01*
X1707861Y4831356D01*
Y4763644D01*
X1724789Y4746716D01*
X1758644D01*
X1775572Y4763644D01*
X1860212Y4746716D02*
Y4848284D01*
X1809428Y4797500D01*
X1877140D01*
X1673072Y2016356D02*
X1656144Y2033284D01*
X1622289D01*
X1605361Y2016356D01*
Y1948644D01*
X1622289Y1931716D01*
X1656144D01*
X1673072Y1948644D01*
X1706928Y2016356D02*
X1723856Y2033284D01*
X1757711D01*
X1774639Y2016356D01*
Y1999428D01*
X1757711Y1982500D01*
X1740784D01*
X1757711D01*
X1774639Y1965572D01*
Y1948644D01*
X1757711Y1931716D01*
X1723856D01*
X1706928Y1948644D01*
X1103072Y2381356D02*
X1086144Y2398284D01*
X1052289D01*
X1035361Y2381356D01*
Y2313644D01*
X1052289Y2296717D01*
X1086144D01*
X1103072Y2313644D01*
X1204639Y2296717D02*
X1136928D01*
X1204639Y2364428D01*
Y2381356D01*
X1187712Y2398284D01*
X1153856D01*
X1136928Y2381356D01*
X1385000Y2003856D02*
X1368072Y2020784D01*
X1334217D01*
X1317289Y2003856D01*
Y1936144D01*
X1334217Y1919217D01*
X1368072D01*
X1385000Y1936144D01*
X1418856Y1919217D02*
X1452712D01*
X1435784D01*
Y2020784D01*
X1418856Y2003856D01*
D93*
X2278100Y530000D02*
G03*
X2278100Y530000I-38100J0D01*
G01*
X2861290Y745549D02*
G03*
X2861290Y745549I-38100J0D01*
G01*
D94*
X6850000Y3705000D02*
G03*
X6850000Y3705000I-30000J0D01*
G01*
D95*
X638753Y320000D02*
G03*
X638753Y320000I-158753J0D01*
G01*
X6523753Y5315000D02*
G03*
X6523753Y5315000I-158753J0D01*
G01*
X3666253Y3000000D02*
G03*
X3666253Y3000000I-158753J0D01*
G01*
X568753Y2982500D02*
G03*
X568753Y2982500I-158753J0D01*
G01*
X2223753Y6490000D02*
G03*
X2223753Y6490000I-158753J0D01*
G01*
X6388753Y2107500D02*
G03*
X6388753Y2107500I-158753J0D01*
G01*
D96*
X5940000Y3450000D02*
X6020000D01*
X5940000Y3570000D02*
X6020000D01*
X5760000D02*
X5840000D01*
X5760000Y3450000D02*
X5840000D01*
X6020000D02*
Y3570000D01*
X5760000Y3450000D02*
Y3570000D01*
X1079200Y4784040D02*
X1194200D01*
X1079200Y4524960D02*
X1194200D01*
X1079200Y4709580D02*
Y4784040D01*
X1194200Y4709580D02*
Y4784040D01*
Y4524960D02*
Y4609580D01*
X1079200Y4524960D02*
Y4609580D01*
X1632240Y4892800D02*
Y5007800D01*
X1373160Y4892800D02*
Y5007800D01*
X1557780D02*
X1632240D01*
X1557780Y4892800D02*
X1632240D01*
X1373160D02*
X1457780D01*
X1373160Y5007800D02*
X1457780D01*
X2152500Y3162500D02*
Y3242500D01*
X2272500Y3162500D02*
Y3242500D01*
Y3342500D02*
Y3422500D01*
X2152500Y3342500D02*
Y3422500D01*
Y3162500D02*
X2272500D01*
X2152500Y3422500D02*
X2272500D01*
X2442500Y3022500D02*
X2522500D01*
X2442500Y2902500D02*
X2522500D01*
X2622500D02*
X2702500D01*
X2622500Y3022500D02*
X2702500D01*
X2442500Y2902500D02*
Y3022500D01*
X2702500Y2902500D02*
Y3022500D01*
X601200Y6217500D02*
X681200D01*
X601200Y6097500D02*
X681200D01*
X781200D02*
X861200D01*
X781200Y6217500D02*
X861200D01*
X601200Y6097500D02*
Y6217500D01*
X861200Y6097500D02*
Y6217500D01*
X601660Y5910000D02*
Y6025000D01*
X860740Y5910000D02*
Y6025000D01*
X601660Y5910000D02*
X676120D01*
X601660Y6025000D02*
X676120D01*
X776120D02*
X860740D01*
X776120Y5910000D02*
X860740D01*
X601200Y5447500D02*
X681200D01*
X601200Y5327500D02*
X681200D01*
X781200D02*
X861200D01*
X781200Y5447500D02*
X861200D01*
X601200Y5327500D02*
Y5447500D01*
X861200Y5327500D02*
Y5447500D01*
X781201Y5517500D02*
X861200D01*
X781201Y5637500D02*
X861200D01*
X601200D02*
X681201D01*
X601200Y5517500D02*
X681201D01*
X861200D02*
Y5637500D01*
X601200Y5517500D02*
Y5637500D01*
X860740Y5720000D02*
Y5835000D01*
X601660Y5720000D02*
Y5835000D01*
X786281D02*
X860740D01*
X786281Y5720000D02*
X860740D01*
X601660D02*
X686281D01*
X601660Y5835000D02*
X686281D01*
X1634540Y4736700D02*
Y4851700D01*
X1375460Y4736700D02*
Y4851700D01*
X1560080D02*
X1634540D01*
X1560080Y4736700D02*
X1634540D01*
X1375460D02*
X1460080D01*
X1375460Y4851700D02*
X1460080D01*
X1079200Y4220160D02*
X1194200D01*
X1079200Y4479240D02*
X1194200D01*
Y4220160D02*
Y4294620D01*
X1079200Y4220160D02*
Y4294620D01*
Y4394620D02*
Y4479240D01*
X1194200Y4394620D02*
Y4479240D01*
X2007500Y4397500D02*
X2087500D01*
X2007500Y4517500D02*
X2087500D01*
X1827500D02*
X1907500D01*
X1827500Y4397500D02*
X1907500D01*
X2087500D02*
Y4517500D01*
X1827500Y4397500D02*
Y4517500D01*
X1826760Y4587500D02*
Y4702500D01*
X2085840Y4587500D02*
Y4702500D01*
X1826760Y4587500D02*
X1901220D01*
X1826760Y4702500D02*
X1901220D01*
X2001220D02*
X2085840D01*
X2001220Y4587500D02*
X2085840D01*
X1998240Y6165000D02*
Y6280000D01*
X1739160Y6165000D02*
Y6280000D01*
X1923781D02*
X1998240D01*
X1923781Y6165000D02*
X1998240D01*
X1739160D02*
X1823780D01*
X1739160Y6280000D02*
X1823780D01*
X1827500Y4325000D02*
X1907500D01*
X1827500Y4205000D02*
X1907500D01*
X2007500D02*
X2087500D01*
X2007500Y4325000D02*
X2087500D01*
X1827500Y4205000D02*
Y4325000D01*
X2087500Y4205000D02*
Y4325000D01*
X677500Y1974160D02*
X792500D01*
X677500Y2233240D02*
X792500D01*
Y1974160D02*
Y2048620D01*
X677500Y1974160D02*
Y2048620D01*
Y2148620D02*
Y2233240D01*
X792500Y2148620D02*
Y2233240D01*
X1182500Y2170000D02*
Y2250000D01*
X1062500Y2170000D02*
Y2250000D01*
Y1990000D02*
Y2070000D01*
X1182500Y1990000D02*
Y2070000D01*
X1062500Y2250000D02*
X1182500D01*
X1062500Y1990000D02*
X1182500D01*
X890000Y932500D02*
X970000D01*
X890000Y1052500D02*
X970000D01*
X710000D02*
X790000D01*
X710000Y932500D02*
X790000D01*
X970000D02*
Y1052500D01*
X710000Y932500D02*
Y1052500D01*
X2492500Y3714260D02*
Y3798880D01*
X2607500Y3714260D02*
Y3798880D01*
Y3898880D02*
Y3973340D01*
X2492500Y3898880D02*
Y3973340D01*
Y3714260D02*
X2607500D01*
X2492500Y3973340D02*
X2607500D01*
X3597500Y2258720D02*
Y2343340D01*
X3482500Y2258720D02*
Y2343340D01*
Y2084260D02*
Y2158720D01*
X3597500Y2084260D02*
Y2158720D01*
X3482500Y2343340D02*
X3597500D01*
X3482500Y2084260D02*
X3597500D01*
X4935000Y1802500D02*
X5055000D01*
X4935000Y1542500D02*
X5055000D01*
X4935000Y1722500D02*
Y1802500D01*
X5055000Y1722500D02*
Y1802500D01*
Y1542500D02*
Y1622500D01*
X4935000Y1542500D02*
Y1622500D01*
X2762500Y2066660D02*
Y2151280D01*
X2877500Y2066660D02*
Y2151280D01*
Y2251280D02*
Y2325740D01*
X2762500Y2251280D02*
Y2325740D01*
Y2066660D02*
X2877500D01*
X2762500Y2325740D02*
X2877500D01*
X3850000Y1120000D02*
Y1240000D01*
X3590000Y1120000D02*
Y1240000D01*
X3770000D02*
X3850000D01*
X3770000Y1120000D02*
X3850000D01*
X3590000D02*
X3670000D01*
X3590000Y1240000D02*
X3670000D01*
X3230000Y1120000D02*
Y1240000D01*
X3490000Y1120000D02*
Y1240000D01*
X3230000Y1120000D02*
X3310000D01*
X3230000Y1240000D02*
X3310000D01*
X3410000D02*
X3490000D01*
X3410000Y1120000D02*
X3490000D01*
X1431120Y2072500D02*
X1515740D01*
X1431120Y2187500D02*
X1515740D01*
X1256660D02*
X1331120D01*
X1256660Y2072500D02*
X1331120D01*
X1515740D02*
Y2187500D01*
X1256660Y2072500D02*
Y2187500D01*
X1254260Y2367500D02*
X1338880D01*
X1254260Y2252500D02*
X1338880D01*
X1438880D02*
X1513340D01*
X1438880Y2367500D02*
X1513340D01*
X1254260Y2252500D02*
Y2367500D01*
X1513340Y2252500D02*
Y2367500D01*
X4623270Y1907500D02*
Y2107500D01*
X4121370Y1907500D02*
Y2107500D01*
X4453270D02*
X4623270D01*
X4453270Y1907500D02*
X4623270D01*
X4121370D02*
X4291370D01*
X4121370Y2107500D02*
X4291870D01*
X4455000Y1332500D02*
Y1452500D01*
X4715000Y1332500D02*
Y1452500D01*
X4455000Y1332500D02*
X4535000D01*
X4455000Y1452500D02*
X4535000D01*
X4635000D02*
X4715000D01*
X4635000Y1332500D02*
X4715000D01*
X991120Y7112500D02*
X1075740D01*
X991120Y7227500D02*
X1075740D01*
X816660D02*
X891120D01*
X816660Y7112500D02*
X891120D01*
X1075740D02*
Y7227500D01*
X816660Y7112500D02*
Y7227500D01*
X530000Y6760000D02*
X650000D01*
X530000Y6500000D02*
X650000D01*
X530000Y6680000D02*
Y6760000D01*
X650000Y6680000D02*
Y6760000D01*
Y6500000D02*
Y6580000D01*
X530000Y6500000D02*
Y6580000D01*
X532500Y6844260D02*
Y6928880D01*
X647500Y6844260D02*
Y6928880D01*
Y7028880D02*
Y7103340D01*
X532500Y7028880D02*
Y7103340D01*
Y6844260D02*
X647500D01*
X532500Y7103340D02*
X647500D01*
X1515000Y6776760D02*
Y6861380D01*
X1630000Y6776760D02*
Y6861380D01*
Y6961380D02*
Y7035840D01*
X1515000Y6961380D02*
Y7035840D01*
Y6776760D02*
X1630000D01*
X1515000Y7035840D02*
X1630000D01*
X1232500Y6776660D02*
Y6861280D01*
X1347500Y6776660D02*
Y6861280D01*
Y6961280D02*
Y7035740D01*
X1232500Y6961280D02*
Y7035740D01*
Y6776660D02*
X1347500D01*
X1232500Y7035740D02*
X1347500D01*
X2327500Y6908720D02*
Y6993340D01*
X2212500Y6908720D02*
Y6993340D01*
Y6734260D02*
Y6808720D01*
X2327500Y6734260D02*
Y6808720D01*
X2212500Y6993340D02*
X2327500D01*
X2212500Y6734260D02*
X2327500D01*
X2952500Y5176660D02*
Y5261280D01*
X3067500Y5176660D02*
Y5261280D01*
Y5361280D02*
Y5435740D01*
X2952500Y5361280D02*
Y5435740D01*
Y5176660D02*
X3067500D01*
X2952500Y5435740D02*
X3067500D01*
X1587500Y2081760D02*
Y2166380D01*
X1702500Y2081760D02*
Y2166380D01*
Y2266380D02*
Y2340840D01*
X1587500Y2266380D02*
Y2340840D01*
Y2081760D02*
X1702500D01*
X1587500Y2340840D02*
X1702500D01*
X3767500Y3641120D02*
Y3725740D01*
X3652500Y3641120D02*
Y3725740D01*
Y3466660D02*
Y3541120D01*
X3767500Y3466660D02*
Y3541120D01*
X3652500Y3725740D02*
X3767500D01*
X3652500Y3466660D02*
X3767500D01*
X6250000Y3840000D02*
Y3960000D01*
X6510000Y3840000D02*
Y3960000D01*
X6250000Y3840000D02*
X6330000D01*
X6250000Y3960000D02*
X6330000D01*
X6430000D02*
X6510000D01*
X6430000Y3840000D02*
X6510000D01*
X5760000Y3640000D02*
Y3760000D01*
X6020000Y3640000D02*
Y3760000D01*
X5760000Y3640000D02*
X5840000D01*
X5760000Y3760000D02*
X5840000D01*
X5940000D02*
X6020000D01*
X5940000Y3640000D02*
X6020000D01*
X7598720Y3972500D02*
X7683340D01*
X7598720Y4087500D02*
X7683340D01*
X7424260D02*
X7498720D01*
X7424260Y3972500D02*
X7498720D01*
X7683340D02*
Y4087500D01*
X7424260Y3972500D02*
Y4087500D01*
X6250000Y3650000D02*
Y3770000D01*
X6510000Y3650000D02*
Y3770000D01*
X6250000Y3650000D02*
X6330000D01*
X6250000Y3770000D02*
X6330000D01*
X6430000D02*
X6510000D01*
X6430000Y3650000D02*
X6510000D01*
X5760000Y3830000D02*
Y3950000D01*
X6020000Y3830000D02*
Y3950000D01*
X5760000Y3830000D02*
X5840000D01*
X5760000Y3950000D02*
X5840000D01*
X5940000D02*
X6020000D01*
X5940000Y3830000D02*
X6020000D01*
X6760000Y3192500D02*
Y3312500D01*
X7020000Y3192500D02*
Y3312500D01*
X6760000Y3192500D02*
X6840000D01*
X6760000Y3312500D02*
X6840000D01*
X6940000D02*
X7020000D01*
X6940000Y3192500D02*
X7020000D01*
X3262500Y3644260D02*
Y3728880D01*
X3377500Y3644260D02*
Y3728880D01*
Y3828880D02*
Y3903340D01*
X3262500Y3828880D02*
Y3903340D01*
Y3644260D02*
X3377500D01*
X3262500Y3903340D02*
X3377500D01*
X2841600Y3975437D02*
Y4060057D01*
X2956600Y3975437D02*
Y4060057D01*
Y4160057D02*
Y4234517D01*
X2841600Y4160057D02*
Y4234517D01*
Y3975437D02*
X2956600D01*
X2841600Y4234517D02*
X2956600D01*
X2662500Y3714260D02*
Y3798880D01*
X2777500Y3714260D02*
Y3798880D01*
Y3898880D02*
Y3973340D01*
X2662500Y3898880D02*
Y3973340D01*
Y3714260D02*
X2777500D01*
X2662500Y3973340D02*
X2777500D01*
X2994000Y3975437D02*
Y4060057D01*
X3109000Y3975437D02*
Y4060057D01*
Y4160057D02*
Y4234517D01*
X2994000Y4160057D02*
Y4234517D01*
Y3975437D02*
X3109000D01*
X2994000Y4234517D02*
X3109000D01*
X7110000Y3192500D02*
Y3312500D01*
X7370000Y3192500D02*
Y3312500D01*
X7110000Y3192500D02*
X7190000D01*
X7110000Y3312500D02*
X7190000D01*
X7290000D02*
X7370000D01*
X7290000Y3192500D02*
X7370000D01*
X6888720Y4252500D02*
X6973340D01*
X6888720Y4367500D02*
X6973340D01*
X6714260D02*
X6788720D01*
X6714260Y4252500D02*
X6788720D01*
X6973340D02*
Y4367500D01*
X6714260Y4252500D02*
Y4367500D01*
X7110000Y3000000D02*
Y3120000D01*
X7370000Y3000000D02*
Y3120000D01*
X7110000Y3000000D02*
X7190000D01*
X7110000Y3120000D02*
X7190000D01*
X7290000D02*
X7370000D01*
X7290000Y3000000D02*
X7370000D01*
X5144260Y3487500D02*
X5228880D01*
X5144260Y3372500D02*
X5228880D01*
X5328880D02*
X5403340D01*
X5328880Y3487500D02*
X5403340D01*
X5144260Y3372500D02*
Y3487500D01*
X5403340Y3372500D02*
Y3487500D01*
X5677500Y3648720D02*
Y3733340D01*
X5562500Y3648720D02*
Y3733340D01*
Y3474260D02*
Y3548720D01*
X5677500Y3474260D02*
Y3548720D01*
X5562500Y3733340D02*
X5677500D01*
X5562500Y3474260D02*
X5677500D01*
X4380000Y3630000D02*
Y3750000D01*
X4640000Y3630000D02*
Y3750000D01*
X4380000Y3630000D02*
X4460000D01*
X4380000Y3750000D02*
X4460000D01*
X4560000D02*
X4640000D01*
X4560000Y3630000D02*
X4640000D01*
X4380000Y3840000D02*
Y3960000D01*
X4640000Y3840000D02*
Y3960000D01*
X4380000Y3840000D02*
X4460000D01*
X4380000Y3960000D02*
X4460000D01*
X4560000D02*
X4640000D01*
X4560000Y3840000D02*
X4640000D01*
X7590000Y4170000D02*
X7710000D01*
X7590000Y4430000D02*
X7710000D01*
Y4170000D02*
Y4250000D01*
X7590000Y4170000D02*
Y4250000D01*
Y4350000D02*
Y4430000D01*
X7710000Y4350000D02*
Y4430000D01*
X7400000Y4430000D02*
X7520000D01*
X7400000Y4170000D02*
X7520000D01*
X7400000Y4350000D02*
Y4430000D01*
X7520000Y4350000D02*
Y4430000D01*
Y4170000D02*
Y4250000D01*
X7400000Y4170000D02*
Y4250000D01*
X6187400Y3848120D02*
Y3932740D01*
X6072400Y3848120D02*
Y3932740D01*
Y3673660D02*
Y3748120D01*
X6187400Y3673660D02*
Y3748120D01*
X6072400Y3932740D02*
X6187400D01*
X6072400Y3673660D02*
X6187400D01*
X5760000Y4020000D02*
Y4140000D01*
X6020000Y4020000D02*
Y4140000D01*
X5760000Y4020000D02*
X5840000D01*
X5760000Y4140000D02*
X5840000D01*
X5940000D02*
X6020000D01*
X5940000Y4020000D02*
X6020000D01*
X4958720Y3372500D02*
X5043340D01*
X4958720Y3487500D02*
X5043340D01*
X4784260D02*
X4858720D01*
X4784260Y3372500D02*
X4858720D01*
X5043340D02*
Y3487500D01*
X4784260Y3372500D02*
Y3487500D01*
X5118720Y4162500D02*
X5203340D01*
X5118720Y4277500D02*
X5203340D01*
X4944260D02*
X5018720D01*
X4944260Y4162500D02*
X5018720D01*
X5203340D02*
Y4277500D01*
X4944260Y4162500D02*
Y4277500D01*
X5118720Y4352500D02*
X5203340D01*
X5118720Y4467500D02*
X5203340D01*
X4944260D02*
X5018720D01*
X4944260Y4352500D02*
X5018720D01*
X5203340D02*
Y4467500D01*
X4944260Y4352500D02*
Y4467500D01*
X3450000Y3730000D02*
X3570000D01*
X3450000Y3470000D02*
X3570000D01*
X3450000Y3650000D02*
Y3730000D01*
X3570000Y3650000D02*
Y3730000D01*
Y3470000D02*
Y3550000D01*
X3450000Y3470000D02*
Y3550000D01*
Y3850000D02*
X3570000D01*
X3450000Y4110000D02*
X3570000D01*
Y3850000D02*
Y3930000D01*
X3450000Y3850000D02*
Y3930000D01*
Y4030000D02*
Y4110000D01*
X3570000Y4030000D02*
Y4110000D01*
X3642500Y3854260D02*
Y3938880D01*
X3757500Y3854260D02*
Y3938880D01*
Y4038880D02*
Y4113340D01*
X3642500Y4038880D02*
Y4113340D01*
Y3854260D02*
X3757500D01*
X3642500Y4113340D02*
X3757500D01*
X3900000Y4010000D02*
Y4130000D01*
X4160000Y4010000D02*
Y4130000D01*
X3900000Y4010000D02*
X3980000D01*
X3900000Y4130000D02*
X3980000D01*
X4080000D02*
X4160000D01*
X4080000Y4010000D02*
X4160000D01*
X3900000Y3630000D02*
Y3750000D01*
X4160000Y3630000D02*
Y3750000D01*
X3900000Y3630000D02*
X3980000D01*
X3900000Y3750000D02*
X3980000D01*
X4080000D02*
X4160000D01*
X4080000Y3630000D02*
X4160000D01*
X3900000Y3440000D02*
Y3560000D01*
X4160000Y3440000D02*
Y3560000D01*
X3900000Y3440000D02*
X3980000D01*
X3900000Y3560000D02*
X3980000D01*
X4080000D02*
X4160000D01*
X4080000Y3440000D02*
X4160000D01*
X3900000Y3820000D02*
Y3940000D01*
X4160000Y3820000D02*
Y3940000D01*
X3900000Y3820000D02*
X3980000D01*
X3900000Y3940000D02*
X3980000D01*
X4080000D02*
X4160000D01*
X4080000Y3820000D02*
X4160000D01*
X4333800Y3839697D02*
Y3924317D01*
X4218800Y3839697D02*
Y3924317D01*
Y3665237D02*
Y3739697D01*
X4333800Y3665237D02*
Y3739697D01*
X4218800Y3924317D02*
X4333800D01*
X4218800Y3665237D02*
X4333800D01*
X5562500Y3859260D02*
Y3943880D01*
X5677500Y3859260D02*
Y3943880D01*
Y4043880D02*
Y4118340D01*
X5562500Y4043880D02*
Y4118340D01*
Y3859260D02*
X5677500D01*
X5562500Y4118340D02*
X5677500D01*
X7111660Y2927500D02*
X7196280D01*
X7111660Y2812500D02*
X7196280D01*
X7296280D02*
X7370740D01*
X7296280Y2927500D02*
X7370740D01*
X7111660Y2812500D02*
Y2927500D01*
X7370740Y2812500D02*
Y2927500D01*
X7060000Y4250000D02*
Y4370000D01*
X7320000Y4250000D02*
Y4370000D01*
X7060000Y4250000D02*
X7140000D01*
X7060000Y4370000D02*
X7140000D01*
X7240000D02*
X7320000D01*
X7240000Y4250000D02*
X7320000D01*
X6592500Y3676660D02*
Y3761280D01*
X6707500Y3676660D02*
Y3761280D01*
Y3861280D02*
Y3935740D01*
X6592500Y3861280D02*
Y3935740D01*
Y3676660D02*
X6707500D01*
X6592500Y3935740D02*
X6707500D01*
X4491420Y5776520D02*
X4620975D01*
X4491420Y5583480D02*
X4620475D01*
X4820475D02*
X4935000D01*
X4820475Y5776520D02*
X4935000D01*
X4491420Y5583480D02*
Y5776520D01*
X4935000Y5583480D02*
Y5776520D01*
X3827580Y6240000D02*
Y6360000D01*
X3567580Y6240000D02*
Y6360000D01*
X3747580D02*
X3827580D01*
X3747580Y6240000D02*
X3827580D01*
X3567580D02*
X3647580D01*
X3567580Y6360000D02*
X3647580D01*
X3930000Y5960000D02*
X4050000D01*
X3930000Y6220000D02*
X4050000D01*
Y5960000D02*
Y6040000D01*
X3930000Y5960000D02*
Y6040000D01*
Y6140000D02*
Y6220000D01*
X4050000Y6140000D02*
Y6220000D01*
X3568040Y6547500D02*
X3652660D01*
X3568040Y6432500D02*
X3652660D01*
X3752660D02*
X3827120D01*
X3752660Y6547500D02*
X3827120D01*
X3568040Y6432500D02*
Y6547500D01*
X3827120Y6432500D02*
Y6547500D01*
X4390000Y6100000D02*
Y6219999D01*
X4130000Y6100000D02*
Y6219999D01*
X4310000D02*
X4390000D01*
X4310000Y6100000D02*
X4390000D01*
X4130000D02*
X4210000D01*
X4130000Y6219999D02*
X4210000D01*
X4491420Y6226520D02*
X4620975D01*
X4491420Y6033480D02*
X4620475D01*
X4820475D02*
X4935000D01*
X4820475Y6226520D02*
X4935000D01*
X4491420Y6033480D02*
Y6226520D01*
X4935000Y6033480D02*
Y6226520D01*
X1382501Y6192500D02*
Y6312499D01*
X1122501Y6192500D02*
Y6312499D01*
X1302501D02*
X1382501D01*
X1302501Y6192500D02*
X1382501D01*
X1122501D02*
X1202501D01*
X1122501Y6312499D02*
X1202501D01*
X3568040Y5427500D02*
X3652660D01*
X3568040Y5312500D02*
X3652660D01*
X3752660D02*
X3827120D01*
X3752660Y5427500D02*
X3827120D01*
X3568040Y5312500D02*
Y5427500D01*
X3827120Y5312500D02*
Y5427500D01*
X2887500Y5938720D02*
Y6023340D01*
X2772500Y5938720D02*
Y6023340D01*
Y5764260D02*
Y5838720D01*
X2887500Y5764260D02*
Y5838720D01*
X2772500Y6023340D02*
X2887500D01*
X2772500Y5764260D02*
X2887500D01*
X3932500Y5857500D02*
X4052500D01*
X3932500Y5597500D02*
X4052500D01*
X3932500Y5777500D02*
Y5857500D01*
X4052500Y5777500D02*
Y5857500D01*
Y5597500D02*
Y5677500D01*
X3932500Y5597500D02*
Y5677500D01*
X3827580Y5500000D02*
Y5620000D01*
X3567580Y5500000D02*
Y5620000D01*
X3747580D02*
X3827580D01*
X3747580Y5500000D02*
X3827580D01*
X3567580D02*
X3647580D01*
X3567580Y5620000D02*
X3647580D01*
X4390000Y5630000D02*
Y5750000D01*
X4130000Y5630000D02*
Y5750000D01*
X4310000D02*
X4390000D01*
X4310000Y5630000D02*
X4390000D01*
X4130000D02*
X4210000D01*
X4130000Y5750000D02*
X4210000D01*
X2002500Y5782500D02*
Y5902500D01*
X1742500Y5782500D02*
Y5902500D01*
X1922500D02*
X2002500D01*
X1922500Y5782500D02*
X2002500D01*
X1742500D02*
X1822500D01*
X1742500Y5902500D02*
X1822500D01*
X1739160Y6090000D02*
X1823780D01*
X1739160Y5975000D02*
X1823780D01*
X1923781D02*
X1998240D01*
X1923781Y6090000D02*
X1998240D01*
X1739160Y5975000D02*
Y6090000D01*
X1998240Y5975000D02*
Y6090000D01*
X1291760Y5450000D02*
X1376380D01*
X1291760Y5335000D02*
X1376380D01*
X1476380D02*
X1550840D01*
X1476380Y5450000D02*
X1550840D01*
X1291760Y5335000D02*
Y5450000D01*
X1550840Y5335000D02*
Y5450000D01*
X1552101Y5523200D02*
Y5643200D01*
X1292101Y5523200D02*
Y5643200D01*
X1472101D02*
X1552101D01*
X1472101Y5523200D02*
X1552101D01*
X1292101D02*
X1372101D01*
X1292101Y5643200D02*
X1372101D01*
X5606660Y5477500D02*
X5691280D01*
X5606660Y5362500D02*
X5691280D01*
X5791280D02*
X5865740D01*
X5791280Y5477500D02*
X5865740D01*
X5606660Y5362500D02*
Y5477500D01*
X5865740Y5362500D02*
Y5477500D01*
X7662500Y5966220D02*
Y6050840D01*
X7547500Y5966220D02*
Y6050840D01*
Y5791760D02*
Y5866220D01*
X7662500Y5791760D02*
Y5866220D01*
X7547500Y6050840D02*
X7662500D01*
X7547500Y5791760D02*
X7662500D01*
X6190000Y5712500D02*
Y5832500D01*
X6450000Y5712500D02*
Y5832500D01*
X6190000Y5712500D02*
X6270000D01*
X6190000Y5832500D02*
X6270000D01*
X6370000D02*
X6450000D01*
X6370000Y5712500D02*
X6450000D01*
X6195000Y5905000D02*
Y6025000D01*
X6455000Y5905000D02*
Y6025000D01*
X6195000Y5905000D02*
X6275000D01*
X6195000Y6025000D02*
X6275000D01*
X6375000D02*
X6455000D01*
X6375000Y5905000D02*
X6455000D01*
X6192500Y6100000D02*
Y6220000D01*
X6452500Y6100000D02*
Y6220000D01*
X6192500Y6100000D02*
X6272500D01*
X6192500Y6220000D02*
X6272500D01*
X6372500D02*
X6452500D01*
X6372500Y6100000D02*
X6452500D01*
D97*
X1337360Y4359860D02*
X1672640D01*
X1337360Y4695140D02*
X1672640D01*
X3497130Y1387450D02*
X3702870D01*
Y1417946D01*
X3497130Y1552550D02*
X3702870D01*
X3497130Y1522054D02*
Y1552550D01*
Y1387450D02*
Y1417946D01*
X3702870Y1522054D02*
Y1552550D01*
X2579100Y83610D02*
Y609390D01*
X1232900Y83610D02*
X2579100D01*
X1232900D02*
Y609390D01*
X2579100D01*
X1819670Y7025100D02*
X2020330D01*
Y6823674D02*
Y6896326D01*
X1819670Y6694900D02*
X2020330D01*
X3079670Y2034900D02*
X3280330D01*
X3079670Y2163674D02*
Y2236326D01*
Y2365100D02*
X3280330D01*
X2959770Y83610D02*
X4100230D01*
Y271433D01*
X3880184Y799890D02*
X3916516D01*
X2959770Y492921D02*
Y637040D01*
X3143484Y799890D02*
X3179816D01*
X2959770Y83610D02*
Y271433D01*
X4100230Y492921D02*
Y637040D01*
X1982700Y889800D02*
Y1050200D01*
X1737300Y889800D02*
Y1050200D01*
X4484670Y1507400D02*
X4685330D01*
X4484670Y1636174D02*
Y1708826D01*
Y1837600D02*
X4685330D01*
X4244612Y5829670D02*
X4275389D01*
X4244612Y6030330D02*
X4275389D01*
D98*
X3549200Y1393800D02*
Y1546200D01*
%TF.MD5,f23213c775423d1a3dc57b44c29ca983*%
M02*
