%TF.GenerationSoftware,Altium Limited,Altium Designer,25.0.2 (28)*%
G04 Layer_Physical_Order=4*
G04 Layer_Color=16711680*
%FSLAX45Y45*%
%MOMM*%
%TF.SameCoordinates,98363745-2E75-4EC5-B677-F8BA2FE6C772*%
%TF.FilePolarity,Positive*%
%TF.FileFunction,Copper,L4,Bot,Signal*%
%TF.Part,Single*%
G01*
G75*
%TA.AperFunction,Conductor*%
%ADD52C,0.50000*%
%ADD53C,0.40000*%
%ADD54C,0.25400*%
%ADD55C,0.20000*%
%TA.AperFunction,ComponentPad*%
%ADD57C,1.90500*%
%ADD58C,1.16840*%
%ADD59R,1.90500X1.90500*%
%ADD60R,1.57480X1.57480*%
%ADD61C,1.57480*%
%ADD62C,1.95000*%
G04:AMPARAMS|DCode=63|XSize=1.95mm|YSize=1.95mm|CornerRadius=0.4875mm|HoleSize=0mm|Usage=FLASHONLY|Rotation=180.000|XOffset=0mm|YOffset=0mm|HoleType=Round|Shape=RoundedRectangle|*
%AMROUNDEDRECTD63*
21,1,1.95000,0.97500,0,0,180.0*
21,1,0.97500,1.95000,0,0,180.0*
1,1,0.97500,-0.48750,0.48750*
1,1,0.97500,0.48750,0.48750*
1,1,0.97500,0.48750,-0.48750*
1,1,0.97500,-0.48750,-0.48750*
%
%ADD63ROUNDEDRECTD63*%
%ADD64R,1.90500X1.90500*%
%ADD65C,1.20000*%
%ADD66R,1.20000X1.20000*%
%ADD67C,2.47500*%
%ADD68C,2.32500*%
%ADD69C,2.54000*%
%TA.AperFunction,ViaPad*%
%ADD70C,0.50000*%
%TA.AperFunction,Conductor*%
%ADD87C,1.00000*%
G36*
X8226281Y6016219D02*
X8078909Y5868847D01*
X8064930D01*
X8061049Y5872727D01*
X8042525Y5880400D01*
X8022475D01*
X8003951Y5872727D01*
X7989773Y5858549D01*
X7982100Y5840025D01*
Y5819975D01*
X7989773Y5801451D01*
X8003951Y5787273D01*
X8022475Y5779600D01*
X8042525D01*
X8061049Y5787273D01*
X8064930Y5791154D01*
X8095000D01*
X8109866Y5794111D01*
X8122468Y5802531D01*
X8281219Y5961282D01*
X8685000Y5557500D01*
Y4998393D01*
X8672300Y4994990D01*
X8659024Y5017984D01*
X8635984Y5041024D01*
X8607766Y5057316D01*
X8576292Y5065750D01*
X8572700D01*
Y4942000D01*
Y4818250D01*
X8576292D01*
X8607766Y4826683D01*
X8635984Y4842975D01*
X8659024Y4866016D01*
X8672300Y4889009D01*
X8685000Y4885606D01*
Y4490393D01*
X8672300Y4486990D01*
X8659024Y4509984D01*
X8635984Y4533024D01*
X8607766Y4549316D01*
X8576292Y4557750D01*
X8572700D01*
Y4434000D01*
Y4310250D01*
X8576292D01*
X8607766Y4318683D01*
X8635984Y4334975D01*
X8659024Y4358016D01*
X8672300Y4381009D01*
X8685000Y4377606D01*
Y3012394D01*
X8672300Y3008990D01*
X8659024Y3031984D01*
X8635984Y3055024D01*
X8607766Y3071316D01*
X8576292Y3079750D01*
X8572700D01*
Y2956000D01*
Y2832250D01*
X8576292D01*
X8607766Y2840683D01*
X8635984Y2856975D01*
X8659024Y2880016D01*
X8672300Y2903009D01*
X8685000Y2899606D01*
Y2504394D01*
X8672300Y2500990D01*
X8659024Y2523984D01*
X8635984Y2547024D01*
X8607766Y2563316D01*
X8576292Y2571750D01*
X8572700D01*
Y2448000D01*
Y2324250D01*
X8576292D01*
X8607766Y2332683D01*
X8635984Y2348975D01*
X8659024Y2372016D01*
X8672300Y2395009D01*
X8685000Y2391606D01*
Y2280000D01*
X7320000D01*
Y3235000D01*
X6817500D01*
Y3673710D01*
X6998749D01*
X6998750Y3673710D01*
X7016464Y3677234D01*
X7031482Y3687268D01*
X7420424Y4076211D01*
X7595518D01*
X7600982Y4063954D01*
X7595340Y4056750D01*
X7565403D01*
X7550538Y4053793D01*
X7537935Y4045372D01*
X7475463Y3982900D01*
X7469975D01*
X7451450Y3975227D01*
X7437273Y3961049D01*
X7429600Y3942525D01*
Y3922475D01*
X7437273Y3903951D01*
X7451450Y3889773D01*
X7469975Y3882100D01*
X7490025D01*
X7508549Y3889773D01*
X7522727Y3903951D01*
X7530400Y3922475D01*
Y3927963D01*
X7581494Y3979057D01*
X7614503D01*
X7629369Y3982014D01*
X7636704Y3971641D01*
X7061410Y3396347D01*
X6994930D01*
X6991049Y3400227D01*
X6972525Y3407900D01*
X6952475D01*
X6933951Y3400227D01*
X6919773Y3386049D01*
X6912100Y3367525D01*
Y3347475D01*
X6919773Y3328951D01*
X6933951Y3314773D01*
X6952475Y3307100D01*
X6972525D01*
X6991049Y3314773D01*
X6994930Y3318654D01*
X7077500D01*
X7092366Y3321611D01*
X7104969Y3330031D01*
X7867469Y4092531D01*
X7875890Y4105134D01*
X7878847Y4120000D01*
Y4452570D01*
X7882727Y4456451D01*
X7890400Y4474975D01*
Y4495025D01*
X7882727Y4513549D01*
X7868549Y4527727D01*
X7850025Y4535400D01*
X7829975D01*
X7811451Y4527727D01*
X7797273Y4513549D01*
X7789600Y4495025D01*
Y4474975D01*
X7797273Y4456451D01*
X7801154Y4452570D01*
Y4136091D01*
X7741463Y4076400D01*
X7731089Y4083735D01*
X7734047Y4098600D01*
Y4146400D01*
X7731089Y4161266D01*
X7722669Y4173868D01*
X7649069Y4247469D01*
X7636466Y4255889D01*
X7621600Y4258846D01*
X7386091D01*
X7309969Y4334968D01*
X7297366Y4343389D01*
X7282500Y4346346D01*
X6709930D01*
X6706049Y4350227D01*
X6687525Y4357900D01*
X6667475D01*
X6648951Y4350227D01*
X6634773Y4336049D01*
X6627100Y4317525D01*
Y4297475D01*
X6634773Y4278951D01*
X6648951Y4264773D01*
X6667475Y4257100D01*
X6687525D01*
X6706049Y4264773D01*
X6709930Y4268653D01*
X7266409D01*
X7342531Y4192531D01*
X7355134Y4184111D01*
X7370000Y4181153D01*
X7398309D01*
X7399559Y4168453D01*
X7383536Y4165266D01*
X7368518Y4155232D01*
X7368518Y4155231D01*
X6979576Y3766289D01*
X6817500D01*
Y3840000D01*
X6828687Y3843653D01*
X6960000D01*
X6974866Y3846611D01*
X6987468Y3855031D01*
X7039537Y3907100D01*
X7045025D01*
X7063549Y3914773D01*
X7077727Y3928951D01*
X7085400Y3947475D01*
Y3967525D01*
X7077727Y3986049D01*
X7063549Y4000227D01*
X7045025Y4007900D01*
X7024975D01*
X7006451Y4000227D01*
X6992273Y3986049D01*
X6984600Y3967525D01*
Y3962037D01*
X6943909Y3921346D01*
X6779930D01*
X6776049Y3925227D01*
X6757525Y3932900D01*
X6737475D01*
X6718950Y3925227D01*
X6704773Y3911049D01*
X6697100Y3892525D01*
Y3872475D01*
X6704773Y3853951D01*
X6706990Y3851733D01*
X6702130Y3840000D01*
X6610000D01*
Y4489504D01*
X6793059D01*
X6867100Y4415463D01*
Y4409975D01*
X6874773Y4391451D01*
X6888951Y4377273D01*
X6907475Y4369600D01*
X6927525D01*
X6946049Y4377273D01*
X6960227Y4391451D01*
X6967900Y4409975D01*
Y4430025D01*
X6960227Y4448549D01*
X6946049Y4462727D01*
X6927525Y4470400D01*
X6922037D01*
X6836619Y4555819D01*
X6824016Y4564240D01*
X6809150Y4567197D01*
X6610000D01*
Y4757339D01*
X7330134Y6299600D01*
X7337525D01*
X7356049Y6307273D01*
X7370227Y6321451D01*
X7377900Y6339975D01*
Y6360025D01*
X7370227Y6378549D01*
X7366346Y6382430D01*
Y6430000D01*
X7812500D01*
X8226281Y6016219D01*
D02*
G37*
%LPC*%
G36*
X7480025Y5490400D02*
X7459975D01*
X7441451Y5482727D01*
X7434817Y5476093D01*
X7325183D01*
X7318549Y5482727D01*
X7300025Y5490400D01*
X7279975D01*
X7261451Y5482727D01*
X7247273Y5468549D01*
X7239600Y5450025D01*
Y5429975D01*
X7247273Y5411451D01*
X7261451Y5397273D01*
X7279975Y5389600D01*
X7300025D01*
X7318549Y5397273D01*
X7325183Y5403907D01*
X7434817D01*
X7441451Y5397273D01*
X7459975Y5389600D01*
X7480025D01*
X7498549Y5397273D01*
X7512727Y5411451D01*
X7520400Y5429975D01*
Y5450025D01*
X7512727Y5468549D01*
X7498549Y5482727D01*
X7480025Y5490400D01*
D02*
G37*
G36*
X8068292Y5065750D02*
X8064700D01*
Y4954700D01*
X8175750D01*
Y4958292D01*
X8167316Y4989765D01*
X8151024Y5017984D01*
X8127984Y5041024D01*
X8099766Y5057316D01*
X8068292Y5065750D01*
D02*
G37*
G36*
X8547300D02*
X8543708D01*
X8512234Y5057316D01*
X8484016Y5041024D01*
X8460975Y5017984D01*
X8444683Y4989765D01*
X8436250Y4958292D01*
Y4954700D01*
X8547300D01*
Y5065750D01*
D02*
G37*
G36*
X8039300D02*
X8035708D01*
X8004234Y5057316D01*
X7976016Y5041024D01*
X7952975Y5017984D01*
X7936683Y4989765D01*
X7928250Y4958292D01*
Y4954700D01*
X8039300D01*
Y5065750D01*
D02*
G37*
G36*
X8547300Y4929300D02*
X8436250D01*
Y4925708D01*
X8444683Y4894234D01*
X8460975Y4866016D01*
X8484016Y4842975D01*
X8512234Y4826683D01*
X8543708Y4818250D01*
X8547300D01*
Y4929300D01*
D02*
G37*
G36*
X8175750D02*
X8064700D01*
Y4818250D01*
X8068292D01*
X8099766Y4826683D01*
X8127984Y4842975D01*
X8151024Y4866016D01*
X8167316Y4894234D01*
X8175750Y4925708D01*
Y4929300D01*
D02*
G37*
G36*
X8039300D02*
X7928250D01*
Y4925708D01*
X7936683Y4894234D01*
X7952975Y4866016D01*
X7976016Y4842975D01*
X8004234Y4826683D01*
X8035708Y4818250D01*
X8039300D01*
Y4929300D01*
D02*
G37*
G36*
X8324649Y4829650D02*
X8287351D01*
X8251325Y4819996D01*
X8219025Y4801348D01*
X8192652Y4774975D01*
X8174003Y4742675D01*
X8164350Y4706648D01*
Y4669351D01*
X8174003Y4633325D01*
X8192652Y4601025D01*
X8219025Y4574652D01*
X8251325Y4556003D01*
X8287351Y4546350D01*
X8324649D01*
X8360675Y4556003D01*
X8392975Y4574652D01*
X8419348Y4601025D01*
X8437997Y4633325D01*
X8447650Y4669351D01*
Y4706648D01*
X8437997Y4742675D01*
X8419348Y4774975D01*
X8392975Y4801348D01*
X8360675Y4819996D01*
X8324649Y4829650D01*
D02*
G37*
G36*
X8068292Y4557750D02*
X8064700D01*
Y4446700D01*
X8175750D01*
Y4450292D01*
X8167316Y4481765D01*
X8151024Y4509984D01*
X8127984Y4533024D01*
X8099766Y4549316D01*
X8068292Y4557750D01*
D02*
G37*
G36*
X8039300D02*
X8035708D01*
X8004234Y4549316D01*
X7976016Y4533024D01*
X7952975Y4509984D01*
X7936683Y4481765D01*
X7928250Y4450292D01*
Y4446700D01*
X8039300D01*
Y4557750D01*
D02*
G37*
G36*
X8547300D02*
X8543708D01*
X8512234Y4549316D01*
X8484016Y4533024D01*
X8460975Y4509984D01*
X8444683Y4481765D01*
X8436250Y4450292D01*
Y4446700D01*
X8547300D01*
Y4557750D01*
D02*
G37*
G36*
Y4421300D02*
X8436250D01*
Y4417708D01*
X8444683Y4386234D01*
X8460975Y4358016D01*
X8484016Y4334975D01*
X8512234Y4318683D01*
X8543708Y4310250D01*
X8547300D01*
Y4421300D01*
D02*
G37*
G36*
X8175750D02*
X8064700D01*
Y4310250D01*
X8068292D01*
X8099766Y4318683D01*
X8127984Y4334975D01*
X8151024Y4358016D01*
X8167316Y4386234D01*
X8175750Y4417708D01*
Y4421300D01*
D02*
G37*
G36*
X8039300D02*
X7928250D01*
Y4417708D01*
X7936683Y4386234D01*
X7952975Y4358016D01*
X7976016Y4334975D01*
X8004234Y4318683D01*
X8035708Y4310250D01*
X8039300D01*
Y4421300D01*
D02*
G37*
G36*
X8068292Y3079750D02*
X8064700D01*
Y2968700D01*
X8175750D01*
Y2972292D01*
X8167316Y3003766D01*
X8151024Y3031984D01*
X8127984Y3055024D01*
X8099766Y3071316D01*
X8068292Y3079750D01*
D02*
G37*
G36*
X8039300D02*
X8035708D01*
X8004234Y3071316D01*
X7976016Y3055024D01*
X7952975Y3031984D01*
X7936683Y3003766D01*
X7928250Y2972292D01*
Y2968700D01*
X8039300D01*
Y3079750D01*
D02*
G37*
G36*
X8547300D02*
X8543708D01*
X8512234Y3071316D01*
X8484016Y3055024D01*
X8460975Y3031984D01*
X8444683Y3003766D01*
X8436250Y2972292D01*
Y2968700D01*
X8547300D01*
Y3079750D01*
D02*
G37*
G36*
Y2943300D02*
X8436250D01*
Y2939708D01*
X8444683Y2908234D01*
X8460975Y2880016D01*
X8484016Y2856975D01*
X8512234Y2840683D01*
X8543708Y2832250D01*
X8547300D01*
Y2943300D01*
D02*
G37*
G36*
X8175750D02*
X8064700D01*
Y2832250D01*
X8068292D01*
X8099766Y2840683D01*
X8127984Y2856975D01*
X8151024Y2880016D01*
X8167316Y2908234D01*
X8175750Y2939708D01*
Y2943300D01*
D02*
G37*
G36*
X8039300D02*
X7928250D01*
Y2939708D01*
X7936683Y2908234D01*
X7952975Y2880016D01*
X7976016Y2856975D01*
X8004234Y2840683D01*
X8035708Y2832250D01*
X8039300D01*
Y2943300D01*
D02*
G37*
G36*
X8324649Y2843650D02*
X8287351D01*
X8251325Y2833997D01*
X8219025Y2815348D01*
X8192652Y2788975D01*
X8174003Y2756675D01*
X8164350Y2720649D01*
Y2683351D01*
X8174003Y2647325D01*
X8192652Y2615025D01*
X8219025Y2588652D01*
X8251325Y2570003D01*
X8287351Y2560350D01*
X8324649D01*
X8360675Y2570003D01*
X8392975Y2588652D01*
X8419348Y2615025D01*
X8437997Y2647325D01*
X8447650Y2683351D01*
Y2720649D01*
X8437997Y2756675D01*
X8419348Y2788975D01*
X8392975Y2815348D01*
X8360675Y2833997D01*
X8324649Y2843650D01*
D02*
G37*
G36*
X8068292Y2571750D02*
X8064700D01*
Y2460700D01*
X8175750D01*
Y2464292D01*
X8167316Y2495766D01*
X8151024Y2523984D01*
X8127984Y2547024D01*
X8099766Y2563316D01*
X8068292Y2571750D01*
D02*
G37*
G36*
X8547300D02*
X8543708D01*
X8512234Y2563316D01*
X8484016Y2547024D01*
X8460975Y2523984D01*
X8444683Y2495766D01*
X8436250Y2464292D01*
Y2460700D01*
X8547300D01*
Y2571750D01*
D02*
G37*
G36*
X8039300D02*
X8035708D01*
X8004234Y2563316D01*
X7976016Y2547024D01*
X7952975Y2523984D01*
X7936683Y2495766D01*
X7928250Y2464292D01*
Y2460700D01*
X8039300D01*
Y2571750D01*
D02*
G37*
G36*
X8547300Y2435300D02*
X8436250D01*
Y2431708D01*
X8444683Y2400234D01*
X8460975Y2372016D01*
X8484016Y2348975D01*
X8512234Y2332683D01*
X8543708Y2324250D01*
X8547300D01*
Y2435300D01*
D02*
G37*
G36*
X8175750D02*
X8064700D01*
Y2324250D01*
X8068292D01*
X8099766Y2332683D01*
X8127984Y2348975D01*
X8151024Y2372016D01*
X8167316Y2400234D01*
X8175750Y2431708D01*
Y2435300D01*
D02*
G37*
G36*
X8039300D02*
X7928250D01*
Y2431708D01*
X7936683Y2400234D01*
X7952975Y2372016D01*
X7976016Y2348975D01*
X8004234Y2332683D01*
X8035708Y2324250D01*
X8039300D01*
Y2435300D01*
D02*
G37*
%LPD*%
D52*
X2370000Y2590000D02*
X4610000D01*
X1377500Y2852500D02*
X1525000Y2705000D01*
X1200000Y3030000D02*
X1377500Y2852500D01*
X4610000Y2590000D02*
X4612500Y2587500D01*
X2320000Y2640000D02*
X2370000Y2590000D01*
X3247500Y6285000D02*
Y6555000D01*
X3692500Y7000000D01*
X3200000Y6507500D02*
X3247500Y6555000D01*
X2407500Y5335000D02*
Y5432500D01*
X2942500Y5967500D01*
X1991250Y2435000D02*
X2115000D01*
X2320000Y2640000D01*
Y3087500D01*
X1525000Y2705000D02*
X1721250D01*
X902500Y5967500D02*
Y6147340D01*
X781850Y6267990D02*
X902500Y6147340D01*
X781850Y6267990D02*
Y6447830D01*
X2177600Y6667400D02*
X2337500Y6507500D01*
X3200000D01*
X2887500Y6195000D02*
X3200000Y6507500D01*
X1001420Y6667400D02*
X2177600D01*
X781850Y6447830D02*
X1001420Y6667400D01*
X2887500Y6022500D02*
X2942500Y5967500D01*
X2887500Y6022500D02*
Y6195000D01*
X3205000Y7072500D02*
X3277500Y7000000D01*
X3692500D01*
X1721250Y2705000D02*
X1991250Y2435000D01*
X331850Y4207519D02*
X1200000Y3339369D01*
Y3030000D02*
Y3339369D01*
X331850Y4207519D02*
Y4782830D01*
X335000Y6177500D02*
X702500Y6545000D01*
X335000Y4785980D02*
Y6177500D01*
X331850Y4782830D02*
X335000Y4785980D01*
D53*
X5627500Y2952500D02*
X5745916Y2834085D01*
X5876585D01*
X6362500Y3320000D01*
X5205000D02*
X6362500D01*
X1020000Y4502500D02*
X1095000Y4427500D01*
X2227500D01*
X7401250Y4122500D02*
X7637500D01*
X6998750Y3720000D02*
X7401250Y4122500D01*
X6762500Y3720000D02*
X6998750D01*
X6362500Y3320000D02*
X6762500Y3720000D01*
D54*
X4350000Y4553350D02*
G03*
X4208915Y4515000I-0J-278691D01*
G01*
X4417507Y4535000D02*
G03*
X4350000Y4553350I-67507J-115000D01*
G01*
X3690000Y7173350D02*
G03*
X3661250Y7170214I0J-133350D01*
G01*
X1485200Y149800D02*
X2142421D01*
X2160000Y167379D01*
X880200Y754800D02*
X1485200Y149800D01*
X2160000Y167379D02*
Y283000D01*
X880200Y754800D02*
Y1559800D01*
X4222793Y3500293D02*
X4227500Y3505000D01*
X4222793Y2972793D02*
Y3500293D01*
X4197500Y2947500D02*
X4222793Y2972793D01*
X7255844Y2777500D02*
X7262500D01*
X6760000Y2750000D02*
X7228344D01*
X7255844Y2777500D01*
X3173343Y3797500D02*
X3180000D01*
X2405000Y3782500D02*
X3158343D01*
X3173343Y3797500D01*
X1740000Y3542500D02*
X1920000Y3362500D01*
X1725000Y4213343D02*
Y4220000D01*
Y4213343D02*
X1740000Y4198343D01*
Y3542500D02*
Y4198343D01*
X1617500Y3490000D02*
Y4205000D01*
Y3490000D02*
X1927500Y3180000D01*
Y3180000D02*
Y3180000D01*
X2075000Y2807469D02*
Y3390521D01*
X1787500Y3678021D02*
X2075000Y3390521D01*
X1787500Y3678021D02*
Y4362500D01*
X6717500Y5315000D02*
X6842788Y5440288D01*
Y6229712D01*
X6968076Y6355000D01*
X7112500D01*
X7327500Y6350000D02*
Y6455000D01*
X7230000Y6552500D02*
X7327500Y6455000D01*
X6479600Y6552500D02*
X7230000D01*
X6307100Y6380000D02*
X6479600Y6552500D01*
X837500Y5135000D02*
X1457500Y4515000D01*
X4208915D01*
X5127500Y4535000D02*
X5152500Y4510000D01*
X4417507Y4535000D02*
X5127500D01*
X5110000Y3662500D02*
X5195688D01*
X5284205Y3751017D01*
X4927500Y3732500D02*
X5167500D01*
X5307699Y3872699D01*
X5990535Y5845228D02*
Y6271965D01*
X5930000Y6332500D02*
X5990535Y6271965D01*
X5672300Y6827300D02*
X5900000Y7055000D01*
X5910000D01*
X3957960Y7141250D02*
X7746250D01*
X3419192Y7170214D02*
X3661249D01*
X3661250D01*
X3933299Y7165910D02*
X3957960Y7141250D01*
X3400228Y7151250D02*
X3419192Y7170214D01*
X3690000Y7173350D02*
X3925860D01*
X3933299Y7165910D01*
X7746250Y7141250D02*
X7816529Y7211529D01*
X5672300Y6415200D02*
Y6827300D01*
Y6415200D02*
X5732500Y6355000D01*
X3381423Y7196650D02*
X3403523Y7218750D01*
X3944665D01*
X3976765Y7186650D02*
X5560650D01*
X5694000Y7320000D01*
X2516389Y7318329D02*
X2638068Y7196650D01*
X5470000Y6092500D02*
X5732500Y6355000D01*
X5470000Y5415000D02*
Y6092500D01*
X8095000Y5830000D02*
X8538028Y6273029D01*
Y6398028D02*
X8560000Y6420000D01*
X8032500Y5830000D02*
X8095000D01*
X8538028Y6273029D02*
Y6398028D01*
X7621600Y4220000D02*
X7695200Y4146400D01*
Y4098600D02*
Y4146400D01*
X7370000Y4220000D02*
X7621600D01*
X7614503Y4017904D02*
X7695200Y4098600D01*
X7565403Y4017904D02*
X7614503D01*
X7480000Y3932500D02*
X7565403Y4017904D01*
X6677500Y4307500D02*
X7282500D01*
X7370000Y4220000D01*
X6960000Y3882500D02*
X7035000Y3957500D01*
X6747500Y3882500D02*
X6960000D01*
X4888400Y3867500D02*
X4896100Y3875200D01*
X4685000Y3867500D02*
X4888400D01*
X5010637Y3861100D02*
X5153900D01*
X4996537Y3875200D02*
X5010637Y3861100D01*
X4896100Y3875200D02*
X4996537D01*
X4733042Y3972900D02*
X5170400D01*
X4714237Y3927500D02*
X5250000D01*
X4657500Y6602500D02*
X4742500D01*
X5098410Y6311590D02*
X5130000Y6280000D01*
X5033410Y6311590D02*
X5098410D01*
X4742500Y6602500D02*
X5033410Y6311590D01*
X1552500Y5057500D02*
X2051415D01*
X2259765Y4849150D02*
X3402119D01*
X3952969Y5400000D01*
X2051415Y5057500D02*
X2259765Y4849150D01*
X3952969Y5400000D02*
X5140000D01*
X3497553Y4647500D02*
X4054053Y5204000D01*
X4690000D01*
X1441584Y4647500D02*
X3497553D01*
X1047500Y5041584D02*
X1441584Y4647500D01*
X1047500Y5041584D02*
Y6225000D01*
X2070000Y5682500D02*
Y5842500D01*
Y5682500D02*
X2237500Y5515000D01*
X1627500Y2887500D02*
X1692500D01*
X1975000Y2605000D01*
X2152500D01*
X1870000Y2810000D02*
X1876657D01*
X1894067Y2792590D01*
X2060121D01*
X2075000Y2807469D01*
X927500Y6345000D02*
Y6387500D01*
Y6345000D02*
X1047500Y6225000D01*
X5152500Y4315000D02*
X5310000Y4157500D01*
X5152500Y4315000D02*
Y4510000D01*
X5310000Y4157500D02*
X5680850Y4528350D01*
X6809150D01*
X6917500Y4420000D01*
X5022897Y3530600D02*
X5482705D01*
X4647700Y3529800D02*
X5022097D01*
X4595000Y3582500D02*
X4647700Y3529800D01*
X5022097D02*
X5022897Y3530600D01*
X5482705D02*
X5486098Y3527207D01*
X5515293D01*
X5520000Y3522500D01*
X6962500Y3357500D02*
X7077500D01*
X7840000Y4120000D01*
X5307699Y3872699D02*
Y3985199D01*
X5480000Y4157500D01*
X5620000D01*
X1565000Y6167500D02*
X1570000D01*
X1680000Y6277500D01*
X1685000D01*
X272500Y3655000D02*
X610000Y3317500D01*
X227100Y7261426D02*
X268574Y7302900D01*
X242500Y3202500D02*
Y3209157D01*
X227100Y3224556D02*
Y7261426D01*
Y3224556D02*
X242500Y3209157D01*
X272500Y7242621D02*
X287379Y7257500D01*
X272500Y3655000D02*
Y7242621D01*
X879800Y3303900D02*
X914400Y3338500D01*
X976000D01*
X977500Y3340000D01*
X879800Y2219300D02*
Y3303900D01*
X880200Y1559800D02*
X882700Y1562300D01*
Y2216400D01*
X879800Y2219300D02*
X882700Y2216400D01*
X675000Y2437500D02*
Y2807647D01*
X685000Y2817647D01*
Y3192500D01*
X1554879Y872500D02*
X1557379Y870000D01*
X1554879Y872500D02*
Y2384879D01*
X1557379Y870000D02*
X1700000D01*
X1554879Y2384879D02*
X1557500Y2387500D01*
X1554879Y370621D02*
X1642500Y283000D01*
X1652000D01*
X1554879Y370621D02*
Y872500D01*
X2957500Y6155000D02*
X3192500Y5920000D01*
X3875000D01*
X2960000Y5600000D02*
X3112500Y5752500D01*
X3875000D01*
X7816529Y7211529D02*
Y7322529D01*
X7824000Y7330000D01*
X2593750Y7151250D02*
X3400228D01*
X287379Y7257500D02*
X2487500D01*
X2593750Y7151250D01*
X3944665Y7218750D02*
X3976765Y7186650D01*
X367500Y7317500D02*
X1902466D01*
X2638068Y7196650D02*
X3381423D01*
X1919863Y7318329D02*
X2516389D01*
X268574Y7302900D02*
X367500Y7317500D01*
X7840000Y4120000D02*
Y4485000D01*
X3812500Y3970000D02*
X3815400Y3972900D01*
X5170400D02*
X5247500Y4050000D01*
X4640058Y3976000D02*
X4729942D01*
X4733042Y3972900D01*
X4636958D02*
X4640058Y3976000D01*
X3815400Y3972900D02*
X4636958D01*
X3820000Y3755000D02*
X3992500Y3927500D01*
X4711137Y3930600D02*
X4714237Y3927500D01*
X3992500D02*
X4655763D01*
X4658863Y3930600D01*
X4711137D01*
X4350000Y4150000D02*
Y4420000D01*
X4255000Y4055000D02*
X4350000Y4150000D01*
X8266373Y6634373D02*
X8306000Y6674000D01*
X8196944Y6634373D02*
X8266373D01*
X8187571Y6625000D02*
X8196944Y6634373D01*
X6337100Y6625000D02*
X8187571D01*
X6107100Y6395000D02*
X6337100Y6625000D01*
X5736657Y6465000D02*
X5751657Y6480000D01*
X5900000D01*
X5730000Y6465000D02*
X5736657D01*
X6098863Y5736900D02*
X6259400D01*
X5990535Y5845228D02*
X6098863Y5736900D01*
X6259400D02*
X6265600Y5743100D01*
X6495422D01*
X6568522Y5670000D02*
X6737500D01*
X6495422Y5743100D02*
X6568522Y5670000D01*
D55*
X3247900Y3107100D02*
Y3899600D01*
Y3107100D02*
X3250000Y3105000D01*
X1797500Y2305000D02*
X2170000D01*
X2385000Y2520000D01*
X3242042Y3905458D02*
X3247900Y3899600D01*
X3175000Y3472500D02*
Y3682500D01*
X6735000Y6410000D02*
X7202500D01*
X6125000Y5800000D02*
X6735000Y6410000D01*
X6685000Y6490000D02*
X7075000D01*
X6212500Y6017500D02*
X6685000Y6490000D01*
X1195392Y4565000D02*
X1242500D01*
X1020000Y4740392D02*
X1195392Y4565000D01*
X5732500Y6552500D02*
X6269352Y7089352D01*
X8745784D01*
X1065740Y3036760D02*
X1797500Y2305000D01*
X1065740Y3036760D02*
Y3124260D01*
X3185000Y3962500D02*
X3242042Y3905458D01*
X1060000Y3130000D02*
X1065740Y3124260D01*
X7290000Y5440000D02*
X7470000D01*
X8306000Y716000D02*
X8531072D01*
X8745784Y7089352D02*
X8757500Y7077636D01*
Y942428D02*
Y7077636D01*
X8531072Y716000D02*
X8757500Y942428D01*
X5620000Y6092500D02*
X6032500Y5680000D01*
X6400000D01*
X6132500Y6017500D02*
X6212500D01*
X5592500Y6007500D02*
X5790000Y5810000D01*
X5802500D01*
X5807500Y5805000D01*
X6930000Y5610000D02*
X6933750Y5613750D01*
Y6228750D02*
X6937500Y6232500D01*
X6933750Y5613750D02*
Y6228750D01*
D57*
X6437500Y4395000D02*
D03*
X3692500Y7000000D02*
D03*
X4612500Y2333500D02*
D03*
Y2587500D02*
D03*
X2525000Y6827500D02*
D03*
X5185000Y2035000D02*
D03*
X3330000Y7330000D02*
D03*
X3076000D02*
D03*
X3340000Y5170000D02*
D03*
X2240000Y1905000D02*
D03*
X4690000Y4696000D02*
D03*
Y4950000D02*
D03*
X4197500Y2947500D02*
D03*
X3290000Y4170000D02*
D03*
X4350000Y4420000D02*
D03*
X3040000Y3290000D02*
D03*
X6457500Y3157500D02*
D03*
X7412500Y2022500D02*
D03*
X5627500Y2952500D02*
D03*
X837500Y5135000D02*
D03*
X2315000Y4982500D02*
D03*
X5130000Y6280000D02*
D03*
X4580000Y6440000D02*
D03*
X2570000Y6270000D02*
D03*
X927500Y6387500D02*
D03*
X5140000Y5400000D02*
D03*
X1967500Y3955000D02*
D03*
X4032000Y7320000D02*
D03*
X4286000D02*
D03*
X6120000Y7330000D02*
D03*
X6374000D02*
D03*
X7316000D02*
D03*
X7570000D02*
D03*
X5186000Y7320000D02*
D03*
X5440000D02*
D03*
D58*
X1652000Y283000D02*
D03*
Y410000D02*
D03*
X1779000Y283000D02*
D03*
Y410000D02*
D03*
X1906000Y283000D02*
D03*
Y410000D02*
D03*
X2033000Y283000D02*
D03*
Y410000D02*
D03*
X2160000Y283000D02*
D03*
Y410000D02*
D03*
D59*
X4612500Y2841500D02*
D03*
X4690000Y5204000D02*
D03*
D60*
X1410000Y3820000D02*
D03*
D61*
X1156000D02*
D03*
X902000D02*
D03*
D62*
X6395000Y513490D02*
D03*
X5895001D02*
D03*
D63*
X6894999D02*
D03*
D64*
X2822000Y7330000D02*
D03*
X4540000Y7320000D02*
D03*
X6628000Y7330000D02*
D03*
X7824000D02*
D03*
X5694000Y7320000D02*
D03*
D65*
X5057500Y710986D02*
D03*
D66*
X4857500D02*
D03*
D67*
X8052000Y4434000D02*
D03*
Y4942000D02*
D03*
X8560000Y4434000D02*
D03*
Y4942000D02*
D03*
X8052000Y462000D02*
D03*
Y970000D02*
D03*
X8560000Y462000D02*
D03*
Y970000D02*
D03*
X8052000Y2448000D02*
D03*
Y2956000D02*
D03*
X8560000Y2448000D02*
D03*
Y2956000D02*
D03*
X8052000Y6420000D02*
D03*
Y6928000D02*
D03*
X8560000Y6420000D02*
D03*
Y6928000D02*
D03*
D68*
X8306000Y4688000D02*
D03*
Y716000D02*
D03*
Y2702000D02*
D03*
Y6674000D02*
D03*
D69*
X480000Y320000D02*
D03*
X6365000Y5315000D02*
D03*
X3507500Y3000000D02*
D03*
X410000Y2982500D02*
D03*
X2065000Y6490000D02*
D03*
X6230000Y2107500D02*
D03*
D70*
X2265000Y282500D02*
D03*
X8012500Y1255000D02*
D03*
Y255000D02*
D03*
X7762500Y6755000D02*
D03*
Y1755000D02*
D03*
X7512500Y1255000D02*
D03*
X7762500Y755000D02*
D03*
X7512500Y255000D02*
D03*
X7262500Y6755000D02*
D03*
X7012500Y2255000D02*
D03*
Y1255000D02*
D03*
X7262500Y755000D02*
D03*
X7012500Y255000D02*
D03*
X6762500Y6755000D02*
D03*
X6512500Y4255000D02*
D03*
X6762500Y2755000D02*
D03*
X6512500Y2255000D02*
D03*
X6762500Y1755000D02*
D03*
X6512500Y1255000D02*
D03*
X6762500Y755000D02*
D03*
X6262500Y6755000D02*
D03*
X6012500Y5255000D02*
D03*
Y4255000D02*
D03*
Y3255000D02*
D03*
X6262500Y2755000D02*
D03*
X6012500Y2255000D02*
D03*
X6262500Y1755000D02*
D03*
X6012500Y1255000D02*
D03*
X6262500Y755000D02*
D03*
X6012500Y255000D02*
D03*
X5762500Y6755000D02*
D03*
X5512500Y5255000D02*
D03*
Y4255000D02*
D03*
Y3255000D02*
D03*
Y2255000D02*
D03*
Y1255000D02*
D03*
X5762500Y755000D02*
D03*
X5512500Y255000D02*
D03*
X5262500Y6755000D02*
D03*
X5012500Y5255000D02*
D03*
X5262500Y4755000D02*
D03*
X5012500Y3255000D02*
D03*
X5262500Y2755000D02*
D03*
X5012500Y2255000D02*
D03*
X5262500Y1755000D02*
D03*
X5012500Y1255000D02*
D03*
X5262500Y755000D02*
D03*
X5012500Y255000D02*
D03*
X4762500Y6755000D02*
D03*
Y5755000D02*
D03*
X4512500Y3255000D02*
D03*
Y1255000D02*
D03*
Y255000D02*
D03*
X4262500Y6755000D02*
D03*
X4012500Y5255000D02*
D03*
X4262500Y4755000D02*
D03*
X4012500Y3255000D02*
D03*
X4262500Y2755000D02*
D03*
Y1755000D02*
D03*
X4012500Y1255000D02*
D03*
X4262500Y755000D02*
D03*
X4012500Y255000D02*
D03*
X3762500Y6755000D02*
D03*
Y4755000D02*
D03*
X3512500Y3255000D02*
D03*
X3762500Y2755000D02*
D03*
Y1755000D02*
D03*
X3512500Y255000D02*
D03*
X3262500Y6755000D02*
D03*
Y4755000D02*
D03*
Y2755000D02*
D03*
Y1755000D02*
D03*
X3012500Y1255000D02*
D03*
Y255000D02*
D03*
X2762500Y6755000D02*
D03*
Y4755000D02*
D03*
X2512500Y4255000D02*
D03*
X2762500Y2755000D02*
D03*
X2512500Y2255000D02*
D03*
X2762500Y1755000D02*
D03*
Y755000D02*
D03*
X2512500Y255000D02*
D03*
X2262500Y5755000D02*
D03*
Y4755000D02*
D03*
Y1755000D02*
D03*
X2012500Y1255000D02*
D03*
X1762500Y4755000D02*
D03*
X1512500Y4255000D02*
D03*
X1762500Y1755000D02*
D03*
Y755000D02*
D03*
X1012500Y4255000D02*
D03*
Y2255000D02*
D03*
X1262500Y755000D02*
D03*
X1012500Y255000D02*
D03*
X512500Y5255000D02*
D03*
Y4255000D02*
D03*
Y3255000D02*
D03*
Y2255000D02*
D03*
X762500Y1755000D02*
D03*
X3250000Y3105000D02*
D03*
X2385000Y2520000D02*
D03*
X2407500Y3712500D02*
D03*
X2552500Y4005000D02*
D03*
X3180000Y3867500D02*
D03*
Y3797500D02*
D03*
X3175000Y3682500D02*
D03*
X3105000Y3472500D02*
D03*
X3175000D02*
D03*
X3077500Y3037500D02*
D03*
X1617500Y4205000D02*
D03*
X1857500Y4362500D02*
D03*
X1680000Y4165000D02*
D03*
X1550000Y4185000D02*
D03*
X2905000Y3882500D02*
D03*
X2407500Y2962500D02*
D03*
X1927500Y3180000D02*
D03*
X1990000Y3372500D02*
D03*
X1882500Y3125000D02*
D03*
X2150000Y2675000D02*
D03*
X1892500Y2877500D02*
D03*
X1557500Y2885000D02*
D03*
X8409995Y5549997D02*
D03*
X8559995Y5249997D02*
D03*
Y4649997D02*
D03*
X8409995Y4349997D02*
D03*
X8559995Y4049997D02*
D03*
X8409995Y3749997D02*
D03*
X8559995Y3449997D02*
D03*
X8409995Y3149998D02*
D03*
Y2549998D02*
D03*
X8259995Y5849997D02*
D03*
Y5249997D02*
D03*
Y4049997D02*
D03*
X8109995Y3749997D02*
D03*
Y3149998D02*
D03*
X7809995Y6149997D02*
D03*
Y5549997D02*
D03*
X7959995Y4649997D02*
D03*
Y4049997D02*
D03*
X7809995Y3749997D02*
D03*
X7959995Y3449997D02*
D03*
X7809995Y3149998D02*
D03*
Y2549998D02*
D03*
X7659995Y5249997D02*
D03*
X7509995Y4949997D02*
D03*
X7659995Y4649997D02*
D03*
Y3449997D02*
D03*
X7509995Y3149998D02*
D03*
X7659995Y2849998D02*
D03*
X7509995Y2549998D02*
D03*
X7209995Y4949997D02*
D03*
X7359995Y4649997D02*
D03*
X7209995Y3749997D02*
D03*
X6909995Y4949997D02*
D03*
X7059995Y4649997D02*
D03*
Y2849998D02*
D03*
X6717500Y5315000D02*
D03*
X7112500Y6355000D02*
D03*
X7202500Y6410000D02*
D03*
X7075000Y6490000D02*
D03*
X1662500Y6032500D02*
D03*
X1020000Y4740392D02*
D03*
X1242500Y4565000D02*
D03*
X1260000Y4492500D02*
D03*
X1507500Y4355000D02*
D03*
X1727500Y4587500D02*
D03*
X1225000Y4260000D02*
D03*
X5284205Y3751017D02*
D03*
X5110000Y3662500D02*
D03*
X5930000Y6332500D02*
D03*
X5910000Y7055000D02*
D03*
X5732500Y6355000D02*
D03*
X5470000Y5415000D02*
D03*
X8032500Y5830000D02*
D03*
X7262500Y2777500D02*
D03*
X4685000Y3867500D02*
D03*
X4920000Y3817500D02*
D03*
X4657500Y6602500D02*
D03*
X1552500Y5057500D02*
D03*
X2070000Y5842500D02*
D03*
X2237500Y5515000D02*
D03*
X3247500Y6285000D02*
D03*
X2407500Y5335000D02*
D03*
X2405000Y3782500D02*
D03*
X1627500Y2887500D02*
D03*
X2152500Y2605000D02*
D03*
X1020000Y4502500D02*
D03*
X2227500Y4427500D02*
D03*
X5152500Y4510000D02*
D03*
X5310000Y4157500D02*
D03*
X6917500Y4420000D02*
D03*
X7637500Y4122500D02*
D03*
X6762500Y3720000D02*
D03*
X5205000Y3320000D02*
D03*
X2720000Y3997500D02*
D03*
X2022500Y6222500D02*
D03*
X2025000Y6030000D02*
D03*
X902500Y5967500D02*
D03*
X2942500D02*
D03*
X3205000Y7072500D02*
D03*
X1685000Y6277500D02*
D03*
X1565000Y6167500D02*
D03*
X1377500Y2852500D02*
D03*
X1580000Y5387500D02*
D03*
X1660000Y4942500D02*
D03*
Y4790000D02*
D03*
X1787500Y4362500D02*
D03*
X1725000Y4220000D02*
D03*
X1870000Y2810000D02*
D03*
X2320000Y3087500D02*
D03*
X2512500Y3245000D02*
D03*
X1920000Y3362500D02*
D03*
X2697500Y3532500D02*
D03*
X572500Y5777500D02*
D03*
X577500Y5967500D02*
D03*
X977500Y3340000D02*
D03*
X685000Y3192500D02*
D03*
X675000Y2437500D02*
D03*
X3185000Y3962500D02*
D03*
X1557500Y2387500D02*
D03*
X1700000Y870000D02*
D03*
X1060000Y3130000D02*
D03*
X2957500Y6155000D02*
D03*
X3875000Y5920000D02*
D03*
X2960000Y5600000D02*
D03*
X3875000Y5752500D02*
D03*
X610000Y3317500D02*
D03*
X242500Y3202500D02*
D03*
X7290000Y5440000D02*
D03*
X7470000D02*
D03*
X6962500Y3357500D02*
D03*
X7840000Y4485000D02*
D03*
X3812500Y3970000D02*
D03*
X5247500Y4050000D02*
D03*
X3820000Y3755000D02*
D03*
X5250000Y3927500D02*
D03*
X4227500Y3505000D02*
D03*
X4255000Y4055000D02*
D03*
X4927500Y3732500D02*
D03*
X5620000Y4157500D02*
D03*
X4595000Y3582500D02*
D03*
X5520000Y3522500D02*
D03*
X715000Y727500D02*
D03*
X1265000Y1267500D02*
D03*
X1655000Y810000D02*
D03*
X1465000Y2050000D02*
D03*
X1725000Y2127500D02*
D03*
X825000Y2179900D02*
D03*
X687500Y3262500D02*
D03*
X937500Y3280000D02*
D03*
X1130000Y3130000D02*
D03*
X1627500Y2390000D02*
D03*
X1550000Y2635000D02*
D03*
X1860000Y812500D02*
D03*
X2625000Y2410000D02*
D03*
X2820000Y2370000D02*
D03*
X1190000Y6897500D02*
D03*
X1110000Y7165000D02*
D03*
X1290000Y7055000D02*
D03*
X1572500Y7062500D02*
D03*
X2675000Y5327500D02*
D03*
X2900000Y4270000D02*
D03*
X3052500D02*
D03*
X3105000Y5380000D02*
D03*
X1862500Y6860000D02*
D03*
X2920000Y5817500D02*
D03*
X2272500Y6710000D02*
D03*
X3255000Y640000D02*
D03*
X3280000Y1265000D02*
D03*
X3805000Y635000D02*
D03*
Y1262500D02*
D03*
X4665000Y1300000D02*
D03*
X3435000Y2187500D02*
D03*
X3792500Y1472500D02*
D03*
X4635000Y1672500D02*
D03*
X4752500Y3427500D02*
D03*
X4927500Y3597500D02*
D03*
X5440000Y3427500D02*
D03*
X3105000Y3682500D02*
D03*
X3160000Y4030000D02*
D03*
X4910000Y4217500D02*
D03*
X4915000Y4405000D02*
D03*
X3231250Y5493750D02*
D03*
X4870000Y5905000D02*
D03*
X5902500Y5420000D02*
D03*
X6747500Y3882500D02*
D03*
X7035000Y3957500D02*
D03*
X7480000Y3932500D02*
D03*
X6677500Y4307500D02*
D03*
X7070000Y6120000D02*
D03*
X6107100Y6395000D02*
D03*
X5732500Y6552500D02*
D03*
X6125000Y5800000D02*
D03*
X5620000Y6092500D02*
D03*
X6400000Y5680000D02*
D03*
X6132500Y6017500D02*
D03*
X5592500Y6007500D02*
D03*
X5807500Y5805000D02*
D03*
X7327500Y6350000D02*
D03*
X6307100Y6380000D02*
D03*
X5900000Y6480000D02*
D03*
X5730000Y6465000D02*
D03*
X6937500Y6232500D02*
D03*
X6930000Y5610000D02*
D03*
X6737500Y5670000D02*
D03*
X5153900Y3861100D02*
D03*
X702500Y6545000D02*
D03*
D87*
X170000Y190000D02*
X292900Y67100D01*
X6448609D02*
X6894999Y513490D01*
X292900Y67100D02*
X6448609D01*
X142100Y3160913D02*
X170000Y3133013D01*
X142100Y3160913D02*
Y7293381D01*
X170000Y7321282D01*
Y190000D02*
Y3133013D01*
Y7321282D02*
Y7333921D01*
X237129Y7401050D01*
X2750950D01*
X2822000Y7330000D01*
%TF.MD5,f9a7777f4073465299734be9931b737e*%
M02*
