%TF.GenerationSoftware,Altium Limited,Altium Designer,25.0.2 (28)*%
G04 Layer_Color=8421504*
%FSLAX45Y45*%
%MOMM*%
%TF.SameCoordinates,98363745-2E75-4EC5-B677-F8BA2FE6C772*%
%TF.FilePolarity,Positive*%
%TF.FileFunction,Paste,Top*%
%TF.Part,Single*%
G01*
G75*
%TA.AperFunction,SMDPad,CuDef*%
%ADD10R,0.81280X0.88900*%
%ADD11R,0.83820X0.76200*%
%ADD12R,0.76200X0.83820*%
%ADD13R,0.48583X1.35523*%
G04:AMPARAMS|DCode=14|XSize=1.35523mm|YSize=0.48583mm|CornerRadius=0.24292mm|HoleSize=0mm|Usage=FLASHONLY|Rotation=90.000|XOffset=0mm|YOffset=0mm|HoleType=Round|Shape=RoundedRectangle|*
%AMROUNDEDRECTD14*
21,1,1.35523,0.00000,0,0,90.0*
21,1,0.86940,0.48583,0,0,90.0*
1,1,0.48583,0.00000,0.43470*
1,1,0.48583,0.00000,-0.43470*
1,1,0.48583,0.00000,-0.43470*
1,1,0.48583,0.00000,0.43470*
%
%ADD14ROUNDEDRECTD14*%
G04:AMPARAMS|DCode=15|XSize=0.48583mm|YSize=1.35523mm|CornerRadius=0.24292mm|HoleSize=0mm|Usage=FLASHONLY|Rotation=90.000|XOffset=0mm|YOffset=0mm|HoleType=Round|Shape=RoundedRectangle|*
%AMROUNDEDRECTD15*
21,1,0.48583,0.86940,0,0,90.0*
21,1,0.00000,1.35523,0,0,90.0*
1,1,0.48583,0.43470,0.00000*
1,1,0.48583,0.43470,0.00000*
1,1,0.48583,-0.43470,0.00000*
1,1,0.48583,-0.43470,0.00000*
%
%ADD15ROUNDEDRECTD15*%
%ADD16R,0.60000X1.00000*%
%ADD17R,0.88900X0.81280*%
%ADD18R,2.00000X2.00000*%
%ADD19R,1.30000X2.00000*%
%ADD20R,0.80800X0.25480*%
%ADD21R,1.75260X2.48920*%
G04:AMPARAMS|DCode=22|XSize=0.65mm|YSize=1.2mm|CornerRadius=0.04875mm|HoleSize=0mm|Usage=FLASHONLY|Rotation=270.000|XOffset=0mm|YOffset=0mm|HoleType=Round|Shape=RoundedRectangle|*
%AMROUNDEDRECTD22*
21,1,0.65000,1.10250,0,0,270.0*
21,1,0.55250,1.20000,0,0,270.0*
1,1,0.09750,-0.55125,-0.27625*
1,1,0.09750,-0.55125,0.27625*
1,1,0.09750,0.55125,0.27625*
1,1,0.09750,0.55125,-0.27625*
%
%ADD22ROUNDEDRECTD22*%
%ADD23R,2.00000X2.50000*%
%ADD24R,1.10000X1.39700*%
%ADD25R,1.39700X1.10000*%
%ADD26R,0.80640X0.37560*%
%ADD27O,1.40000X0.45000*%
%ADD28R,1.17230X0.50800*%
%ADD29R,0.76200X1.24460*%
%ADD30R,0.81280X1.24460*%
%ADD31R,0.83820X1.24460*%
%ADD32R,1.85420X1.39700*%
%ADD33R,1.85420X1.54940*%
%ADD34R,0.42000X0.60000*%
%ADD35O,0.42000X0.60000*%
%ADD36R,1.15000X0.60000*%
%ADD37R,1.52400X1.52400*%
G04:AMPARAMS|DCode=38|XSize=0.45mm|YSize=1.4mm|CornerRadius=0.0495mm|HoleSize=0mm|Usage=FLASHONLY|Rotation=180.000|XOffset=0mm|YOffset=0mm|HoleType=Round|Shape=RoundedRectangle|*
%AMROUNDEDRECTD38*
21,1,0.45000,1.30100,0,0,180.0*
21,1,0.35100,1.40000,0,0,180.0*
1,1,0.09900,-0.17550,0.65050*
1,1,0.09900,0.17550,0.65050*
1,1,0.09900,0.17550,-0.65050*
1,1,0.09900,-0.17550,-0.65050*
%
%ADD38ROUNDEDRECTD38*%
%ADD39R,0.75000X0.25000*%
%ADD40R,0.75000X0.20000*%
%ADD41R,0.30000X0.60000*%
%ADD42R,1.21000X0.61000*%
%ADD43R,1.10000X1.65000*%
%ADD44R,1.10000X1.30000*%
%ADD45R,0.70000X0.64000*%
%ADD46R,0.70000X0.50000*%
%ADD47R,0.83720X0.61120*%
%ADD48O,2.10000X0.45000*%
G04:AMPARAMS|DCode=49|XSize=1.35543mm|YSize=0.34077mm|CornerRadius=0.17038mm|HoleSize=0mm|Usage=FLASHONLY|Rotation=270.000|XOffset=0mm|YOffset=0mm|HoleType=Round|Shape=RoundedRectangle|*
%AMROUNDEDRECTD49*
21,1,1.35543,0.00000,0,0,270.0*
21,1,1.01467,0.34077,0,0,270.0*
1,1,0.34077,0.00000,-0.50733*
1,1,0.34077,0.00000,0.50733*
1,1,0.34077,0.00000,0.50733*
1,1,0.34077,0.00000,-0.50733*
%
%ADD49ROUNDEDRECTD49*%
%ADD50R,0.34077X1.35543*%
%ADD51O,0.45000X1.40000*%
%ADD132R,2.03309X2.53309*%
D10*
X5971280Y3510000D02*
D03*
X5808720D02*
D03*
X2491220Y2962500D02*
D03*
X2653780D02*
D03*
X649920Y6157500D02*
D03*
X812480D02*
D03*
X649920Y5387500D02*
D03*
X812480D02*
D03*
X812481Y5577500D02*
D03*
X649921D02*
D03*
X2038780Y4457500D02*
D03*
X1876220D02*
D03*
Y4265000D02*
D03*
X2038780D02*
D03*
X921280Y992500D02*
D03*
X758720D02*
D03*
X3801280Y1180000D02*
D03*
X3638720D02*
D03*
X3278720D02*
D03*
X3441280D02*
D03*
X4503720Y1392500D02*
D03*
X4666280D02*
D03*
X6298720Y3900000D02*
D03*
X6461280D02*
D03*
X5808720Y3700000D02*
D03*
X5971280D02*
D03*
X6298720Y3710000D02*
D03*
X6461280D02*
D03*
X5808720Y3890000D02*
D03*
X5971280D02*
D03*
X6808720Y3252500D02*
D03*
X6971280D02*
D03*
X7158720D02*
D03*
X7321280D02*
D03*
X7158720Y3060000D02*
D03*
X7321280D02*
D03*
X4428720Y3690000D02*
D03*
X4591280D02*
D03*
X4428720Y3900000D02*
D03*
X4591280D02*
D03*
X5808720Y4080000D02*
D03*
X5971280D02*
D03*
X3948720Y4070000D02*
D03*
X4111280D02*
D03*
X3948720Y3690000D02*
D03*
X4111280D02*
D03*
X3948720Y3500000D02*
D03*
X4111280D02*
D03*
X3948720Y3880000D02*
D03*
X4111280D02*
D03*
X7108720Y4310000D02*
D03*
X7271280D02*
D03*
X3778860Y6300000D02*
D03*
X3616300D02*
D03*
X4341280Y6160000D02*
D03*
X4178720D02*
D03*
X1333780Y6252500D02*
D03*
X1171220D02*
D03*
X3778860Y5560000D02*
D03*
X3616300D02*
D03*
X4341280Y5690000D02*
D03*
X4178720D02*
D03*
X1953780Y5842500D02*
D03*
X1791220D02*
D03*
X1503381Y5583200D02*
D03*
X1340821D02*
D03*
X6238720Y5772500D02*
D03*
X6401280D02*
D03*
X6243720Y5965000D02*
D03*
X6406280D02*
D03*
X6241220Y6160000D02*
D03*
X6403780D02*
D03*
D11*
X1136700Y4730700D02*
D03*
Y4578300D02*
D03*
Y4273500D02*
D03*
Y4425900D02*
D03*
X735000Y2027500D02*
D03*
Y2179900D02*
D03*
X2550000Y3767600D02*
D03*
Y3920000D02*
D03*
X3540000Y2290000D02*
D03*
Y2137600D02*
D03*
X2820000Y2120000D02*
D03*
Y2272400D02*
D03*
X590000Y6897600D02*
D03*
Y7050000D02*
D03*
X1572500Y6830100D02*
D03*
Y6982500D02*
D03*
X1290000Y6830000D02*
D03*
Y6982400D02*
D03*
X2270000Y6940000D02*
D03*
Y6787600D02*
D03*
X3010000Y5230000D02*
D03*
Y5382400D02*
D03*
X1645000Y2135100D02*
D03*
Y2287500D02*
D03*
X3710000Y3672400D02*
D03*
Y3520000D02*
D03*
X3320000Y3697600D02*
D03*
Y3850000D02*
D03*
X2899100Y4028777D02*
D03*
Y4181177D02*
D03*
X2720000Y3767600D02*
D03*
Y3920000D02*
D03*
X3051500Y4028777D02*
D03*
Y4181177D02*
D03*
X5620000Y3680000D02*
D03*
Y3527600D02*
D03*
X6129900Y3879400D02*
D03*
Y3727000D02*
D03*
X3700000Y3907600D02*
D03*
Y4060000D02*
D03*
X4276300Y3870977D02*
D03*
Y3718577D02*
D03*
X5620000Y3912600D02*
D03*
Y4065000D02*
D03*
X6650000Y3730000D02*
D03*
Y3882400D02*
D03*
X2830000Y5970000D02*
D03*
Y5817600D02*
D03*
X7605000Y5997500D02*
D03*
Y5845100D02*
D03*
D12*
X1578900Y4950300D02*
D03*
X1426500D02*
D03*
X655000Y5967500D02*
D03*
X807400D02*
D03*
Y5777500D02*
D03*
X655000D02*
D03*
X1581200Y4794200D02*
D03*
X1428800D02*
D03*
X1880100Y4645000D02*
D03*
X2032500D02*
D03*
X1944900Y6222500D02*
D03*
X1792500D02*
D03*
X1462400Y2130000D02*
D03*
X1310000D02*
D03*
X1307600Y2310000D02*
D03*
X1460000D02*
D03*
X1022400Y7170000D02*
D03*
X870000D02*
D03*
X7630000Y4030000D02*
D03*
X7477600D02*
D03*
X6920000Y4310000D02*
D03*
X6767600D02*
D03*
X5197600Y3430000D02*
D03*
X5350000D02*
D03*
X4990000D02*
D03*
X4837600D02*
D03*
X5150000Y4220000D02*
D03*
X4997600D02*
D03*
X5150000Y4410000D02*
D03*
X4997600D02*
D03*
X7165000Y2870000D02*
D03*
X7317400D02*
D03*
X3621380Y6490000D02*
D03*
X3773780D02*
D03*
X3621380Y5370000D02*
D03*
X3773780D02*
D03*
X1792500Y6032500D02*
D03*
X1944900D02*
D03*
X1345100Y5392500D02*
D03*
X1497500D02*
D03*
X5660000Y5420000D02*
D03*
X5812400D02*
D03*
D13*
X1064300Y2519952D02*
D03*
D14*
X1144300D02*
D03*
X1224300D02*
D03*
X1304300D02*
D03*
X1384300D02*
D03*
X1464300D02*
D03*
X1544300D02*
D03*
X1624300D02*
D03*
Y3335048D02*
D03*
X1544300D02*
D03*
X1464300D02*
D03*
X1384300D02*
D03*
X1304300D02*
D03*
X1224300D02*
D03*
X1144300D02*
D03*
X1064300D02*
D03*
D15*
X1751848Y2647500D02*
D03*
Y2727500D02*
D03*
Y2807500D02*
D03*
Y2887500D02*
D03*
Y2967500D02*
D03*
Y3047500D02*
D03*
Y3127500D02*
D03*
Y3207500D02*
D03*
X936751D02*
D03*
Y3127500D02*
D03*
Y3047500D02*
D03*
Y2967500D02*
D03*
Y2887500D02*
D03*
Y2807500D02*
D03*
Y2727500D02*
D03*
Y2647500D02*
D03*
D16*
X2417500Y3440000D02*
D03*
X2512500D02*
D03*
X2607500D02*
D03*
Y3165000D02*
D03*
X2512500D02*
D03*
X2417500D02*
D03*
D17*
X2212500Y3211220D02*
D03*
Y3373780D02*
D03*
X1122500Y2201280D02*
D03*
Y2038720D02*
D03*
X4995000Y1753780D02*
D03*
Y1591220D02*
D03*
X590000Y6711280D02*
D03*
Y6548720D02*
D03*
X7650000Y4218720D02*
D03*
Y4381280D02*
D03*
X7460000D02*
D03*
Y4218720D02*
D03*
X3510000Y3681280D02*
D03*
Y3518720D02*
D03*
Y3898720D02*
D03*
Y4061280D02*
D03*
X3990000Y6008720D02*
D03*
Y6171280D02*
D03*
X3992500Y5808780D02*
D03*
Y5646220D02*
D03*
D18*
X1952500Y5590300D02*
D03*
D19*
X1825500Y5234700D02*
D03*
X2079500D02*
D03*
D20*
X1360460Y4627500D02*
D03*
Y4577500D02*
D03*
Y4527500D02*
D03*
Y4477500D02*
D03*
Y4427500D02*
D03*
X1649540D02*
D03*
Y4477500D02*
D03*
Y4527500D02*
D03*
Y4577500D02*
D03*
Y4627500D02*
D03*
D21*
X1505000Y4527500D02*
D03*
D22*
X792500Y6805000D02*
D03*
Y6900000D02*
D03*
Y6995000D02*
D03*
X1087500D02*
D03*
Y6900000D02*
D03*
Y6805000D02*
D03*
D23*
X1124000Y1268500D02*
D03*
Y1776500D02*
D03*
X616000D02*
D03*
D24*
X6395000Y4865000D02*
D03*
X6195000D02*
D03*
X5970000Y4867500D02*
D03*
X5770000D02*
D03*
X2580000Y1237500D02*
D03*
X2380000D02*
D03*
X5972500Y4645000D02*
D03*
X5772500D02*
D03*
X2582500Y1010000D02*
D03*
X2382500D02*
D03*
D25*
X7307500Y1495000D02*
D03*
Y1695000D02*
D03*
X3530460Y1940000D02*
D03*
Y1740000D02*
D03*
X7952500Y1687500D02*
D03*
Y1487500D02*
D03*
X8612500Y1682500D02*
D03*
Y1482500D02*
D03*
X7620000Y1690000D02*
D03*
Y1490000D02*
D03*
X8297500Y1685000D02*
D03*
Y1485000D02*
D03*
D26*
X3488160Y1470000D02*
D03*
X3711840D02*
D03*
D27*
X5396200Y3601100D02*
D03*
Y3666100D02*
D03*
Y3731100D02*
D03*
Y3796100D02*
D03*
Y3861100D02*
D03*
Y3926100D02*
D03*
Y3991100D02*
D03*
Y4056100D02*
D03*
X4806200D02*
D03*
Y3991100D02*
D03*
Y3926100D02*
D03*
Y3861100D02*
D03*
Y3796100D02*
D03*
Y3731100D02*
D03*
Y3666100D02*
D03*
Y3601100D02*
D03*
D28*
X2066245Y6955000D02*
D03*
Y6765000D02*
D03*
X1773755D02*
D03*
Y6860000D02*
D03*
Y6955000D02*
D03*
X3033755Y2105000D02*
D03*
Y2295000D02*
D03*
X3326245D02*
D03*
Y2200000D02*
D03*
Y2105000D02*
D03*
X4438755Y1577500D02*
D03*
Y1767500D02*
D03*
X4731245D02*
D03*
Y1672500D02*
D03*
Y1577500D02*
D03*
D29*
X3480000Y745549D02*
D03*
X3580000D02*
D03*
D30*
X3378000D02*
D03*
X3682000D02*
D03*
D31*
X3255000D02*
D03*
X3805000D02*
D03*
D32*
X3017500Y740164D02*
D03*
X4042500D02*
D03*
D33*
X3017500Y382177D02*
D03*
X4042496D02*
D03*
D34*
X1795000Y875000D02*
D03*
D35*
X1860000D02*
D03*
X1925000D02*
D03*
Y1065000D02*
D03*
X1860000D02*
D03*
X1795000D02*
D03*
D36*
X2795000Y5235000D02*
D03*
Y5330000D02*
D03*
Y5425000D02*
D03*
X2545000D02*
D03*
Y5330000D02*
D03*
Y5235000D02*
D03*
D37*
X4524900Y2007500D02*
D03*
X4220100D02*
D03*
D38*
X7170000Y4085000D02*
D03*
X7105000D02*
D03*
X7040000D02*
D03*
X6975000D02*
D03*
X6910000D02*
D03*
X6845000D02*
D03*
X6780000D02*
D03*
X7170000Y3495000D02*
D03*
X7105000D02*
D03*
X7040000D02*
D03*
X6975000D02*
D03*
X6910000D02*
D03*
X6845000D02*
D03*
X6780000D02*
D03*
D39*
X3090000Y3740000D02*
D03*
X3087500Y3840008D02*
D03*
X2912500D02*
D03*
Y3740008D02*
D03*
D40*
X3087500Y3790008D02*
D03*
X2912500D02*
D03*
D41*
X3000000Y3880000D02*
D03*
Y3700000D02*
D03*
D42*
X8032000Y5915000D02*
D03*
X7818000Y5819000D02*
D03*
Y6011000D02*
D03*
X4983000Y5910000D02*
D03*
X5197000Y6006000D02*
D03*
Y5814000D02*
D03*
D43*
X4560000Y5680000D02*
D03*
X4864800D02*
D03*
X4560000Y6130000D02*
D03*
X4864800D02*
D03*
D44*
X6212500Y6380000D02*
D03*
X6412500D02*
D03*
D45*
X3630000Y6007000D02*
D03*
Y5753000D02*
D03*
X3770000D02*
D03*
Y6007000D02*
D03*
X2480000Y6027000D02*
D03*
Y5773000D02*
D03*
X2620000D02*
D03*
Y6027000D02*
D03*
D46*
X3630000Y5920000D02*
D03*
Y5840000D02*
D03*
X3770000D02*
D03*
Y5920000D02*
D03*
X2480000Y5940000D02*
D03*
Y5860000D02*
D03*
X2620000D02*
D03*
Y5940000D02*
D03*
D47*
X4345690Y5982500D02*
D03*
Y5877500D02*
D03*
X4174310D02*
D03*
Y5982500D02*
D03*
D48*
X1520300Y5841300D02*
D03*
Y5906300D02*
D03*
Y5971300D02*
D03*
Y6036300D02*
D03*
X1095301Y5841300D02*
D03*
Y5906300D02*
D03*
Y5971300D02*
D03*
Y6036300D02*
D03*
D49*
X3425000Y5602461D02*
D03*
X3360000D02*
D03*
X3295000D02*
D03*
X3230000D02*
D03*
X3165000D02*
D03*
X3100000D02*
D03*
X3035000D02*
D03*
Y6157538D02*
D03*
X3100000D02*
D03*
X3165000D02*
D03*
X3230000D02*
D03*
X3295000D02*
D03*
X3360000D02*
D03*
D50*
X3425000D02*
D03*
D51*
X5817500Y5635000D02*
D03*
X5752500D02*
D03*
X5687500D02*
D03*
X5622500D02*
D03*
X5557500D02*
D03*
X5492500D02*
D03*
X5427500D02*
D03*
X5362500D02*
D03*
Y6225000D02*
D03*
X5427500D02*
D03*
X5492500D02*
D03*
X5557500D02*
D03*
X5622500D02*
D03*
X5687500D02*
D03*
X5752500D02*
D03*
X5817500D02*
D03*
X7005000Y6230000D02*
D03*
X7070000D02*
D03*
X7135000D02*
D03*
X7200000D02*
D03*
X7265000D02*
D03*
X7330000D02*
D03*
X7395000D02*
D03*
X7460000D02*
D03*
Y5640000D02*
D03*
X7395000D02*
D03*
X7330000D02*
D03*
X7265000D02*
D03*
X7200000D02*
D03*
X7135000D02*
D03*
X7070000D02*
D03*
X7005000D02*
D03*
D132*
X616000Y1268500D02*
D03*
%TF.MD5,fe40545ea78df520f542e74f320847ae*%
M02*
