%TF.GenerationSoftware,Altium Limited,Altium Designer,25.0.2 (28)*%
G04 Layer_Color=8388736*
%FSLAX45Y45*%
%MOMM*%
%TF.SameCoordinates,98363745-2E75-4EC5-B677-F8BA2FE6C772*%
%TF.FilePolarity,Negative*%
%TF.FileFunction,Soldermask,Top*%
%TF.Part,Single*%
G01*
G75*
%TA.AperFunction,SMDPad,CuDef*%
%ADD13R,0.48583X1.35523*%
G04:AMPARAMS|DCode=14|XSize=1.35523mm|YSize=0.48583mm|CornerRadius=0.24292mm|HoleSize=0mm|Usage=FLASHONLY|Rotation=90.000|XOffset=0mm|YOffset=0mm|HoleType=Round|Shape=RoundedRectangle|*
%AMROUNDEDRECTD14*
21,1,1.35523,0.00000,0,0,90.0*
21,1,0.86940,0.48583,0,0,90.0*
1,1,0.48583,0.00000,0.43470*
1,1,0.48583,0.00000,-0.43470*
1,1,0.48583,0.00000,-0.43470*
1,1,0.48583,0.00000,0.43470*
%
%ADD14ROUNDEDRECTD14*%
G04:AMPARAMS|DCode=15|XSize=0.48583mm|YSize=1.35523mm|CornerRadius=0.24292mm|HoleSize=0mm|Usage=FLASHONLY|Rotation=90.000|XOffset=0mm|YOffset=0mm|HoleType=Round|Shape=RoundedRectangle|*
%AMROUNDEDRECTD15*
21,1,0.48583,0.86940,0,0,90.0*
21,1,0.00000,1.35523,0,0,90.0*
1,1,0.48583,0.43470,0.00000*
1,1,0.48583,0.43470,0.00000*
1,1,0.48583,-0.43470,0.00000*
1,1,0.48583,-0.43470,0.00000*
%
%ADD15ROUNDEDRECTD15*%
%ADD16R,0.60000X1.00000*%
%ADD20R,0.80800X0.25480*%
%ADD21R,1.75260X2.48920*%
%ADD26R,0.80640X0.37560*%
%ADD28R,1.17230X0.50800*%
%ADD29R,0.76200X1.24460*%
%ADD30R,0.81280X1.24460*%
%ADD31R,0.83820X1.24460*%
%ADD32R,1.85420X1.39700*%
%ADD33R,1.85420X1.54940*%
%ADD34R,0.42000X0.60000*%
%ADD35O,0.42000X0.60000*%
%ADD39R,0.75000X0.25000*%
%ADD40R,0.75000X0.20000*%
%ADD41R,0.30000X0.60000*%
%ADD47R,0.83720X0.61120*%
G04:AMPARAMS|DCode=49|XSize=1.35543mm|YSize=0.34077mm|CornerRadius=0.17038mm|HoleSize=0mm|Usage=FLASHONLY|Rotation=270.000|XOffset=0mm|YOffset=0mm|HoleType=Round|Shape=RoundedRectangle|*
%AMROUNDEDRECTD49*
21,1,1.35543,0.00000,0,0,270.0*
21,1,1.01467,0.34077,0,0,270.0*
1,1,0.34077,0.00000,-0.50733*
1,1,0.34077,0.00000,0.50733*
1,1,0.34077,0.00000,0.50733*
1,1,0.34077,0.00000,-0.50733*
%
%ADD49ROUNDEDRECTD49*%
%ADD50R,0.34077X1.35543*%
%TA.AperFunction,ComponentPad*%
%ADD58C,1.16840*%
%TA.AperFunction,SMDPad,CuDef*%
%ADD99R,1.01600X1.09220*%
%ADD100R,1.04140X0.96520*%
%ADD101R,0.96520X1.04140*%
%ADD102R,1.09220X1.01600*%
%ADD103R,2.20320X2.20320*%
%ADD104R,1.50320X2.20320*%
G04:AMPARAMS|DCode=105|XSize=0.8532mm|YSize=1.4032mm|CornerRadius=0.15035mm|HoleSize=0mm|Usage=FLASHONLY|Rotation=270.000|XOffset=0mm|YOffset=0mm|HoleType=Round|Shape=RoundedRectangle|*
%AMROUNDEDRECTD105*
21,1,0.85320,1.10250,0,0,270.0*
21,1,0.55250,1.40320,0,0,270.0*
1,1,0.30070,-0.55125,-0.27625*
1,1,0.30070,-0.55125,0.27625*
1,1,0.30070,0.55125,0.27625*
1,1,0.30070,0.55125,-0.27625*
%
%ADD105ROUNDEDRECTD105*%
%ADD106R,2.20400X2.70400*%
%ADD107R,1.30320X1.60020*%
%ADD108R,1.60020X1.30320*%
%ADD109O,1.50160X0.55160*%
%ADD110R,1.35320X0.80320*%
%ADD111R,1.72720X1.72720*%
G04:AMPARAMS|DCode=112|XSize=0.6532mm|YSize=1.6032mm|CornerRadius=0.1511mm|HoleSize=0mm|Usage=FLASHONLY|Rotation=180.000|XOffset=0mm|YOffset=0mm|HoleType=Round|Shape=RoundedRectangle|*
%AMROUNDEDRECTD112*
21,1,0.65320,1.30100,0,0,180.0*
21,1,0.35100,1.60320,0,0,180.0*
1,1,0.30220,-0.17550,0.65050*
1,1,0.30220,0.17550,0.65050*
1,1,0.30220,0.17550,-0.65050*
1,1,0.30220,-0.17550,-0.65050*
%
%ADD112ROUNDEDRECTD112*%
%ADD113R,1.41320X0.81320*%
%ADD114R,1.30320X1.85320*%
%ADD115R,1.30320X1.50320*%
%ADD116R,0.90320X0.84320*%
%ADD117R,0.90320X0.70320*%
%ADD118O,2.30320X0.65320*%
%ADD119O,0.55160X1.50160*%
%TA.AperFunction,ComponentPad*%
%ADD120C,2.10820*%
%ADD121R,2.10820X2.10820*%
%ADD122R,1.77800X1.77800*%
%ADD123C,1.77800*%
%ADD124C,2.15320*%
G04:AMPARAMS|DCode=125|XSize=2.1532mm|YSize=2.1532mm|CornerRadius=0.5891mm|HoleSize=0mm|Usage=FLASHONLY|Rotation=180.000|XOffset=0mm|YOffset=0mm|HoleType=Round|Shape=RoundedRectangle|*
%AMROUNDEDRECTD125*
21,1,2.15320,0.97500,0,0,180.0*
21,1,0.97500,2.15320,0,0,180.0*
1,1,1.17820,-0.48750,0.48750*
1,1,1.17820,0.48750,0.48750*
1,1,1.17820,0.48750,-0.48750*
1,1,1.17820,-0.48750,-0.48750*
%
%ADD125ROUNDEDRECTD125*%
%ADD126R,2.10820X2.10820*%
%ADD127C,1.40320*%
%ADD128R,1.40320X1.40320*%
%ADD129C,2.67820*%
%ADD130C,2.52820*%
%ADD131C,2.74320*%
D13*
X1064300Y2519952D02*
D03*
D14*
X1144300D02*
D03*
X1224300D02*
D03*
X1304300D02*
D03*
X1384300D02*
D03*
X1464300D02*
D03*
X1544300D02*
D03*
X1624300D02*
D03*
Y3335048D02*
D03*
X1544300D02*
D03*
X1464300D02*
D03*
X1384300D02*
D03*
X1304300D02*
D03*
X1224300D02*
D03*
X1144300D02*
D03*
X1064300D02*
D03*
D15*
X1751848Y2647500D02*
D03*
Y2727500D02*
D03*
Y2807500D02*
D03*
Y2887500D02*
D03*
Y2967500D02*
D03*
Y3047500D02*
D03*
Y3127500D02*
D03*
Y3207500D02*
D03*
X936751D02*
D03*
Y3127500D02*
D03*
Y3047500D02*
D03*
Y2967500D02*
D03*
Y2887500D02*
D03*
Y2807500D02*
D03*
Y2727500D02*
D03*
Y2647500D02*
D03*
D16*
X2417500Y3440000D02*
D03*
X2512500D02*
D03*
X2607500D02*
D03*
Y3165000D02*
D03*
X2512500D02*
D03*
X2417500D02*
D03*
D20*
X1360460Y4627500D02*
D03*
Y4577500D02*
D03*
Y4527500D02*
D03*
Y4477500D02*
D03*
Y4427500D02*
D03*
X1649540D02*
D03*
Y4477500D02*
D03*
Y4527500D02*
D03*
Y4577500D02*
D03*
Y4627500D02*
D03*
D21*
X1505000Y4527500D02*
D03*
D26*
X3488160Y1470000D02*
D03*
X3711840D02*
D03*
D28*
X2066245Y6955000D02*
D03*
Y6765000D02*
D03*
X1773755D02*
D03*
Y6860000D02*
D03*
Y6955000D02*
D03*
X3033755Y2105000D02*
D03*
Y2295000D02*
D03*
X3326245D02*
D03*
Y2200000D02*
D03*
Y2105000D02*
D03*
X4438755Y1577500D02*
D03*
Y1767500D02*
D03*
X4731245D02*
D03*
Y1672500D02*
D03*
Y1577500D02*
D03*
D29*
X3480000Y745549D02*
D03*
X3580000D02*
D03*
D30*
X3378000D02*
D03*
X3682000D02*
D03*
D31*
X3255000D02*
D03*
X3805000D02*
D03*
D32*
X3017500Y740164D02*
D03*
X4042500D02*
D03*
D33*
X3017500Y382177D02*
D03*
X4042496D02*
D03*
D34*
X1795000Y875000D02*
D03*
D35*
X1860000D02*
D03*
X1925000D02*
D03*
Y1065000D02*
D03*
X1860000D02*
D03*
X1795000D02*
D03*
D39*
X3090000Y3740000D02*
D03*
X3087500Y3840008D02*
D03*
X2912500D02*
D03*
Y3740008D02*
D03*
D40*
X3087500Y3790008D02*
D03*
X2912500D02*
D03*
D41*
X3000000Y3880000D02*
D03*
Y3700000D02*
D03*
D47*
X4345690Y5982500D02*
D03*
Y5877500D02*
D03*
X4174310D02*
D03*
Y5982500D02*
D03*
D49*
X3425000Y5602461D02*
D03*
X3360000D02*
D03*
X3295000D02*
D03*
X3230000D02*
D03*
X3165000D02*
D03*
X3100000D02*
D03*
X3035000D02*
D03*
Y6157538D02*
D03*
X3100000D02*
D03*
X3165000D02*
D03*
X3230000D02*
D03*
X3295000D02*
D03*
X3360000D02*
D03*
D50*
X3425000D02*
D03*
D58*
X1652000Y283000D02*
D03*
Y410000D02*
D03*
X1779000Y283000D02*
D03*
Y410000D02*
D03*
X1906000Y283000D02*
D03*
Y410000D02*
D03*
X2033000Y283000D02*
D03*
Y410000D02*
D03*
X2160000Y283000D02*
D03*
Y410000D02*
D03*
D99*
X5971280Y3510000D02*
D03*
X5808720D02*
D03*
X2491220Y2962500D02*
D03*
X2653780D02*
D03*
X649920Y6157500D02*
D03*
X812480D02*
D03*
X649920Y5387500D02*
D03*
X812480D02*
D03*
X812481Y5577500D02*
D03*
X649921D02*
D03*
X2038780Y4457500D02*
D03*
X1876220D02*
D03*
Y4265000D02*
D03*
X2038780D02*
D03*
X921280Y992500D02*
D03*
X758720D02*
D03*
X3801280Y1180000D02*
D03*
X3638720D02*
D03*
X3278720D02*
D03*
X3441280D02*
D03*
X4503720Y1392500D02*
D03*
X4666280D02*
D03*
X6298720Y3900000D02*
D03*
X6461280D02*
D03*
X5808720Y3700000D02*
D03*
X5971280D02*
D03*
X6298720Y3710000D02*
D03*
X6461280D02*
D03*
X5808720Y3890000D02*
D03*
X5971280D02*
D03*
X6808720Y3252500D02*
D03*
X6971280D02*
D03*
X7158720D02*
D03*
X7321280D02*
D03*
X7158720Y3060000D02*
D03*
X7321280D02*
D03*
X4428720Y3690000D02*
D03*
X4591280D02*
D03*
X4428720Y3900000D02*
D03*
X4591280D02*
D03*
X5808720Y4080000D02*
D03*
X5971280D02*
D03*
X3948720Y4070000D02*
D03*
X4111280D02*
D03*
X3948720Y3690000D02*
D03*
X4111280D02*
D03*
X3948720Y3500000D02*
D03*
X4111280D02*
D03*
X3948720Y3880000D02*
D03*
X4111280D02*
D03*
X7108720Y4310000D02*
D03*
X7271280D02*
D03*
X3778860Y6300000D02*
D03*
X3616300D02*
D03*
X4341280Y6160000D02*
D03*
X4178720D02*
D03*
X1333780Y6252500D02*
D03*
X1171220D02*
D03*
X3778860Y5560000D02*
D03*
X3616300D02*
D03*
X4341280Y5690000D02*
D03*
X4178720D02*
D03*
X1953780Y5842500D02*
D03*
X1791220D02*
D03*
X1503381Y5583200D02*
D03*
X1340821D02*
D03*
X6238720Y5772500D02*
D03*
X6401280D02*
D03*
X6243720Y5965000D02*
D03*
X6406280D02*
D03*
X6241220Y6160000D02*
D03*
X6403780D02*
D03*
D100*
X1136700Y4730700D02*
D03*
Y4578300D02*
D03*
Y4273500D02*
D03*
Y4425900D02*
D03*
X735000Y2027500D02*
D03*
Y2179900D02*
D03*
X2550000Y3767600D02*
D03*
Y3920000D02*
D03*
X3540000Y2290000D02*
D03*
Y2137600D02*
D03*
X2820000Y2120000D02*
D03*
Y2272400D02*
D03*
X590000Y6897600D02*
D03*
Y7050000D02*
D03*
X1572500Y6830100D02*
D03*
Y6982500D02*
D03*
X1290000Y6830000D02*
D03*
Y6982400D02*
D03*
X2270000Y6940000D02*
D03*
Y6787600D02*
D03*
X3010000Y5230000D02*
D03*
Y5382400D02*
D03*
X1645000Y2135100D02*
D03*
Y2287500D02*
D03*
X3710000Y3672400D02*
D03*
Y3520000D02*
D03*
X3320000Y3697600D02*
D03*
Y3850000D02*
D03*
X2899100Y4028777D02*
D03*
Y4181177D02*
D03*
X2720000Y3767600D02*
D03*
Y3920000D02*
D03*
X3051500Y4028777D02*
D03*
Y4181177D02*
D03*
X5620000Y3680000D02*
D03*
Y3527600D02*
D03*
X6129900Y3879400D02*
D03*
Y3727000D02*
D03*
X3700000Y3907600D02*
D03*
Y4060000D02*
D03*
X4276300Y3870977D02*
D03*
Y3718577D02*
D03*
X5620000Y3912600D02*
D03*
Y4065000D02*
D03*
X6650000Y3730000D02*
D03*
Y3882400D02*
D03*
X2830000Y5970000D02*
D03*
Y5817600D02*
D03*
X7605000Y5997500D02*
D03*
Y5845100D02*
D03*
D101*
X1578900Y4950300D02*
D03*
X1426500D02*
D03*
X655000Y5967500D02*
D03*
X807400D02*
D03*
Y5777500D02*
D03*
X655000D02*
D03*
X1581200Y4794200D02*
D03*
X1428800D02*
D03*
X1880100Y4645000D02*
D03*
X2032500D02*
D03*
X1944900Y6222500D02*
D03*
X1792500D02*
D03*
X1462400Y2130000D02*
D03*
X1310000D02*
D03*
X1307600Y2310000D02*
D03*
X1460000D02*
D03*
X1022400Y7170000D02*
D03*
X870000D02*
D03*
X7630000Y4030000D02*
D03*
X7477600D02*
D03*
X6920000Y4310000D02*
D03*
X6767600D02*
D03*
X5197600Y3430000D02*
D03*
X5350000D02*
D03*
X4990000D02*
D03*
X4837600D02*
D03*
X5150000Y4220000D02*
D03*
X4997600D02*
D03*
X5150000Y4410000D02*
D03*
X4997600D02*
D03*
X7165000Y2870000D02*
D03*
X7317400D02*
D03*
X3621380Y6490000D02*
D03*
X3773780D02*
D03*
X3621380Y5370000D02*
D03*
X3773780D02*
D03*
X1792500Y6032500D02*
D03*
X1944900D02*
D03*
X1345100Y5392500D02*
D03*
X1497500D02*
D03*
X5660000Y5420000D02*
D03*
X5812400D02*
D03*
D102*
X2212500Y3211220D02*
D03*
Y3373780D02*
D03*
X1122500Y2201280D02*
D03*
Y2038720D02*
D03*
X4995000Y1753780D02*
D03*
Y1591220D02*
D03*
X590000Y6711280D02*
D03*
Y6548720D02*
D03*
X7650000Y4218720D02*
D03*
Y4381280D02*
D03*
X7460000D02*
D03*
Y4218720D02*
D03*
X3510000Y3681280D02*
D03*
Y3518720D02*
D03*
Y3898720D02*
D03*
Y4061280D02*
D03*
X3990000Y6008720D02*
D03*
Y6171280D02*
D03*
X3992500Y5808780D02*
D03*
Y5646220D02*
D03*
D103*
X1952500Y5590300D02*
D03*
D104*
X1825500Y5234700D02*
D03*
X2079500D02*
D03*
D105*
X792500Y6805000D02*
D03*
Y6900000D02*
D03*
Y6995000D02*
D03*
X1087500D02*
D03*
Y6900000D02*
D03*
Y6805000D02*
D03*
D106*
X616000Y1268500D02*
D03*
X1124000D02*
D03*
Y1776500D02*
D03*
X616000D02*
D03*
D107*
X6395000Y4865000D02*
D03*
X6195000D02*
D03*
X5970000Y4867500D02*
D03*
X5770000D02*
D03*
X2580000Y1237500D02*
D03*
X2380000D02*
D03*
X5972500Y4645000D02*
D03*
X5772500D02*
D03*
X2582500Y1010000D02*
D03*
X2382500D02*
D03*
D108*
X7307500Y1495000D02*
D03*
Y1695000D02*
D03*
X3530460Y1940000D02*
D03*
Y1740000D02*
D03*
X7952500Y1687500D02*
D03*
Y1487500D02*
D03*
X8612500Y1682500D02*
D03*
Y1482500D02*
D03*
X7620000Y1690000D02*
D03*
Y1490000D02*
D03*
X8297500Y1685000D02*
D03*
Y1485000D02*
D03*
D109*
X5396200Y3601100D02*
D03*
Y3666100D02*
D03*
Y3731100D02*
D03*
Y3796100D02*
D03*
Y3861100D02*
D03*
Y3926100D02*
D03*
Y3991100D02*
D03*
Y4056100D02*
D03*
X4806200D02*
D03*
Y3991100D02*
D03*
Y3926100D02*
D03*
Y3861100D02*
D03*
Y3796100D02*
D03*
Y3731100D02*
D03*
Y3666100D02*
D03*
Y3601100D02*
D03*
D110*
X2795000Y5235000D02*
D03*
Y5330000D02*
D03*
Y5425000D02*
D03*
X2545000D02*
D03*
Y5330000D02*
D03*
Y5235000D02*
D03*
D111*
X4524900Y2007500D02*
D03*
X4220100D02*
D03*
D112*
X7170000Y4085000D02*
D03*
X7105000D02*
D03*
X7040000D02*
D03*
X6975000D02*
D03*
X6910000D02*
D03*
X6845000D02*
D03*
X6780000D02*
D03*
X7170000Y3495000D02*
D03*
X7105000D02*
D03*
X7040000D02*
D03*
X6975000D02*
D03*
X6910000D02*
D03*
X6845000D02*
D03*
X6780000D02*
D03*
D113*
X8032000Y5915000D02*
D03*
X7818000Y5819000D02*
D03*
Y6011000D02*
D03*
X4983000Y5910000D02*
D03*
X5197000Y6006000D02*
D03*
Y5814000D02*
D03*
D114*
X4560000Y5680000D02*
D03*
X4864800D02*
D03*
X4560000Y6130000D02*
D03*
X4864800D02*
D03*
D115*
X6212500Y6380000D02*
D03*
X6412500D02*
D03*
D116*
X3630000Y6007000D02*
D03*
Y5753000D02*
D03*
X3770000D02*
D03*
Y6007000D02*
D03*
X2480000Y6027000D02*
D03*
Y5773000D02*
D03*
X2620000D02*
D03*
Y6027000D02*
D03*
D117*
X3630000Y5920000D02*
D03*
Y5840000D02*
D03*
X3770000D02*
D03*
Y5920000D02*
D03*
X2480000Y5940000D02*
D03*
Y5860000D02*
D03*
X2620000D02*
D03*
Y5940000D02*
D03*
D118*
X1520300Y5841300D02*
D03*
Y5906300D02*
D03*
Y5971300D02*
D03*
Y6036300D02*
D03*
X1095301Y5841300D02*
D03*
Y5906300D02*
D03*
Y5971300D02*
D03*
Y6036300D02*
D03*
D119*
X5817500Y5635000D02*
D03*
X5752500D02*
D03*
X5687500D02*
D03*
X5622500D02*
D03*
X5557500D02*
D03*
X5492500D02*
D03*
X5427500D02*
D03*
X5362500D02*
D03*
Y6225000D02*
D03*
X5427500D02*
D03*
X5492500D02*
D03*
X5557500D02*
D03*
X5622500D02*
D03*
X5687500D02*
D03*
X5752500D02*
D03*
X5817500D02*
D03*
X7005000Y6230000D02*
D03*
X7070000D02*
D03*
X7135000D02*
D03*
X7200000D02*
D03*
X7265000D02*
D03*
X7330000D02*
D03*
X7395000D02*
D03*
X7460000D02*
D03*
Y5640000D02*
D03*
X7395000D02*
D03*
X7330000D02*
D03*
X7265000D02*
D03*
X7200000D02*
D03*
X7135000D02*
D03*
X7070000D02*
D03*
X7005000D02*
D03*
D120*
X6437500Y4395000D02*
D03*
X3692500Y7000000D02*
D03*
X4612500Y2333500D02*
D03*
Y2587500D02*
D03*
X2525000Y6827500D02*
D03*
X5185000Y2035000D02*
D03*
X3330000Y7330000D02*
D03*
X3076000D02*
D03*
X3340000Y5170000D02*
D03*
X2240000Y1905000D02*
D03*
X4690000Y4696000D02*
D03*
Y4950000D02*
D03*
X4197500Y2947500D02*
D03*
X3290000Y4170000D02*
D03*
X4350000Y4420000D02*
D03*
X3040000Y3290000D02*
D03*
X6457500Y3157500D02*
D03*
X7412500Y2022500D02*
D03*
X5627500Y2952500D02*
D03*
X837500Y5135000D02*
D03*
X2315000Y4982500D02*
D03*
X5130000Y6280000D02*
D03*
X4580000Y6440000D02*
D03*
X2570000Y6270000D02*
D03*
X927500Y6387500D02*
D03*
X5140000Y5400000D02*
D03*
X1967500Y3955000D02*
D03*
X4032000Y7320000D02*
D03*
X4286000D02*
D03*
X6120000Y7330000D02*
D03*
X6374000D02*
D03*
X7316000D02*
D03*
X7570000D02*
D03*
X5186000Y7320000D02*
D03*
X5440000D02*
D03*
D121*
X4612500Y2841500D02*
D03*
X4690000Y5204000D02*
D03*
D122*
X1410000Y3820000D02*
D03*
D123*
X1156000D02*
D03*
X902000D02*
D03*
D124*
X6395000Y513490D02*
D03*
X5895001D02*
D03*
D125*
X6894999D02*
D03*
D126*
X2822000Y7330000D02*
D03*
X4540000Y7320000D02*
D03*
X6628000Y7330000D02*
D03*
X7824000D02*
D03*
X5694000Y7320000D02*
D03*
D127*
X5057500Y710986D02*
D03*
D128*
X4857500D02*
D03*
D129*
X8052000Y4434000D02*
D03*
Y4942000D02*
D03*
X8560000Y4434000D02*
D03*
Y4942000D02*
D03*
X8052000Y462000D02*
D03*
Y970000D02*
D03*
X8560000Y462000D02*
D03*
Y970000D02*
D03*
X8052000Y2448000D02*
D03*
Y2956000D02*
D03*
X8560000Y2448000D02*
D03*
Y2956000D02*
D03*
X8052000Y6420000D02*
D03*
Y6928000D02*
D03*
X8560000Y6420000D02*
D03*
Y6928000D02*
D03*
D130*
X8306000Y4688000D02*
D03*
Y716000D02*
D03*
Y2702000D02*
D03*
Y6674000D02*
D03*
D131*
X480000Y320000D02*
D03*
X6365000Y5315000D02*
D03*
X3507500Y3000000D02*
D03*
X410000Y2982500D02*
D03*
X2065000Y6490000D02*
D03*
X6230000Y2107500D02*
D03*
%TF.MD5,9f5995e9ec4e195ef584acc09c990032*%
M02*
