%TF.GenerationSoftware,Altium Limited,Altium Designer,25.0.2 (28)*%
G04 Layer_Color=16711935*
%FSLAX45Y45*%
%MOMM*%
%TF.SameCoordinates,98363745-2E75-4EC5-B677-F8BA2FE6C772*%
%TF.FilePolarity,Negative*%
%TF.FileFunction,Soldermask,Bot*%
%TF.Part,Single*%
G01*
G75*
%TA.AperFunction,ComponentPad*%
%ADD58C,1.16840*%
%ADD120C,2.10820*%
%ADD121R,2.10820X2.10820*%
%ADD122R,1.77800X1.77800*%
%ADD123C,1.77800*%
%ADD124C,2.15320*%
G04:AMPARAMS|DCode=125|XSize=2.1532mm|YSize=2.1532mm|CornerRadius=0.5891mm|HoleSize=0mm|Usage=FLASHONLY|Rotation=180.000|XOffset=0mm|YOffset=0mm|HoleType=Round|Shape=RoundedRectangle|*
%AMROUNDEDRECTD125*
21,1,2.15320,0.97500,0,0,180.0*
21,1,0.97500,2.15320,0,0,180.0*
1,1,1.17820,-0.48750,0.48750*
1,1,1.17820,0.48750,0.48750*
1,1,1.17820,0.48750,-0.48750*
1,1,1.17820,-0.48750,-0.48750*
%
%ADD125ROUNDEDRECTD125*%
%ADD126R,2.10820X2.10820*%
%ADD127C,1.40320*%
%ADD128R,1.40320X1.40320*%
%ADD129C,2.67820*%
%ADD130C,2.52820*%
%ADD131C,2.74320*%
D58*
X1652000Y283000D02*
D03*
Y410000D02*
D03*
X1779000Y283000D02*
D03*
Y410000D02*
D03*
X1906000Y283000D02*
D03*
Y410000D02*
D03*
X2033000Y283000D02*
D03*
Y410000D02*
D03*
X2160000Y283000D02*
D03*
Y410000D02*
D03*
D120*
X6437500Y4395000D02*
D03*
X3692500Y7000000D02*
D03*
X4612500Y2333500D02*
D03*
Y2587500D02*
D03*
X2525000Y6827500D02*
D03*
X5185000Y2035000D02*
D03*
X3330000Y7330000D02*
D03*
X3076000D02*
D03*
X3340000Y5170000D02*
D03*
X2240000Y1905000D02*
D03*
X4690000Y4696000D02*
D03*
Y4950000D02*
D03*
X4197500Y2947500D02*
D03*
X3290000Y4170000D02*
D03*
X4350000Y4420000D02*
D03*
X3040000Y3290000D02*
D03*
X6457500Y3157500D02*
D03*
X7412500Y2022500D02*
D03*
X5627500Y2952500D02*
D03*
X837500Y5135000D02*
D03*
X2315000Y4982500D02*
D03*
X5130000Y6280000D02*
D03*
X4580000Y6440000D02*
D03*
X2570000Y6270000D02*
D03*
X927500Y6387500D02*
D03*
X5140000Y5400000D02*
D03*
X1967500Y3955000D02*
D03*
X4032000Y7320000D02*
D03*
X4286000D02*
D03*
X6120000Y7330000D02*
D03*
X6374000D02*
D03*
X7316000D02*
D03*
X7570000D02*
D03*
X5186000Y7320000D02*
D03*
X5440000D02*
D03*
D121*
X4612500Y2841500D02*
D03*
X4690000Y5204000D02*
D03*
D122*
X1410000Y3820000D02*
D03*
D123*
X1156000D02*
D03*
X902000D02*
D03*
D124*
X6395000Y513490D02*
D03*
X5895001D02*
D03*
D125*
X6894999D02*
D03*
D126*
X2822000Y7330000D02*
D03*
X4540000Y7320000D02*
D03*
X6628000Y7330000D02*
D03*
X7824000D02*
D03*
X5694000Y7320000D02*
D03*
D127*
X5057500Y710986D02*
D03*
D128*
X4857500D02*
D03*
D129*
X8052000Y4434000D02*
D03*
Y4942000D02*
D03*
X8560000Y4434000D02*
D03*
Y4942000D02*
D03*
X8052000Y462000D02*
D03*
Y970000D02*
D03*
X8560000Y462000D02*
D03*
Y970000D02*
D03*
X8052000Y2448000D02*
D03*
Y2956000D02*
D03*
X8560000Y2448000D02*
D03*
Y2956000D02*
D03*
X8052000Y6420000D02*
D03*
Y6928000D02*
D03*
X8560000Y6420000D02*
D03*
Y6928000D02*
D03*
D130*
X8306000Y4688000D02*
D03*
Y716000D02*
D03*
Y2702000D02*
D03*
Y6674000D02*
D03*
D131*
X480000Y320000D02*
D03*
X6365000Y5315000D02*
D03*
X3507500Y3000000D02*
D03*
X410000Y2982500D02*
D03*
X2065000Y6490000D02*
D03*
X6230000Y2107500D02*
D03*
%TF.MD5,9d4219c81ab67ddecd01b4dc7ae22180*%
M02*
