%TF.GenerationSoftware,Altium Limited,Altium Designer,25.0.2 (28)*%
G04 Layer_Color=0*
%FSLAX45Y45*%
%MOMM*%
%TF.SameCoordinates,98363745-2E75-4EC5-B677-F8BA2FE6C772*%
%TF.FilePolarity,Positive*%
%TF.FileFunction,Plated,1,4,PTH,Drill*%
%TF.Part,Single*%
G01*
G75*
%TA.AperFunction,ComponentDrill*%
%ADD134C,1.06680*%
%ADD135C,0.71120*%
%ADD136C,0.81280*%
%ADD137C,1.06680*%
%ADD138C,1.30000*%
%ADD139C,0.70000*%
%ADD140C,1.65000*%
%ADD141C,1.55000*%
%ADD142C,1.60020*%
%ADD143C,1.60020*%
%TA.AperFunction,ViaDrill,NotFilled*%
%ADD144C,0.30000*%
D134*
X6437500Y4395000D02*
D03*
X3692500Y7000000D02*
D03*
X4612500Y2333500D02*
D03*
Y2587500D02*
D03*
Y2841500D02*
D03*
X2525000Y6827500D02*
D03*
X4690000Y4696000D02*
D03*
Y4950000D02*
D03*
Y5204000D02*
D03*
X4197500Y2947500D02*
D03*
X3290000Y4170000D02*
D03*
X4350000Y4420000D02*
D03*
X3040000Y3290000D02*
D03*
X6457500Y3157500D02*
D03*
X7412500Y2022500D02*
D03*
X5627500Y2952500D02*
D03*
X5130000Y6280000D02*
D03*
X4580000Y6440000D02*
D03*
X2570000Y6270000D02*
D03*
X5140000Y5400000D02*
D03*
D135*
X1652000Y283000D02*
D03*
Y410000D02*
D03*
X1779000Y283000D02*
D03*
Y410000D02*
D03*
X1906000Y283000D02*
D03*
Y410000D02*
D03*
X2033000Y283000D02*
D03*
Y410000D02*
D03*
X2160000Y283000D02*
D03*
Y410000D02*
D03*
D136*
X1410000Y3820000D02*
D03*
X1156000D02*
D03*
X902000D02*
D03*
D137*
X5185000Y2035000D02*
D03*
X3330000Y7330000D02*
D03*
X3076000D02*
D03*
X2822000D02*
D03*
X3340000Y5170000D02*
D03*
X2240000Y1905000D02*
D03*
X837500Y5135000D02*
D03*
X2315000Y4982500D02*
D03*
X927500Y6387500D02*
D03*
X1967500Y3955000D02*
D03*
X4032000Y7320000D02*
D03*
X4286000D02*
D03*
X4540000D02*
D03*
X6120000Y7330000D02*
D03*
X6374000D02*
D03*
X6628000D02*
D03*
X7316000D02*
D03*
X7570000D02*
D03*
X7824000D02*
D03*
X5186000Y7320000D02*
D03*
X5440000D02*
D03*
X5694000D02*
D03*
D138*
X6395000Y513490D02*
D03*
X6894999D02*
D03*
X5895001D02*
D03*
D139*
X5057500Y710986D02*
D03*
X4857500D02*
D03*
D140*
X8052000Y4434000D02*
D03*
Y4942000D02*
D03*
X8560000Y4434000D02*
D03*
Y4942000D02*
D03*
X8052000Y462000D02*
D03*
Y970000D02*
D03*
X8560000Y462000D02*
D03*
Y970000D02*
D03*
X8052000Y2448000D02*
D03*
Y2956000D02*
D03*
X8560000Y2448000D02*
D03*
Y2956000D02*
D03*
X8052000Y6420000D02*
D03*
Y6928000D02*
D03*
X8560000Y6420000D02*
D03*
Y6928000D02*
D03*
D141*
X8306000Y4688000D02*
D03*
Y716000D02*
D03*
Y2702000D02*
D03*
Y6674000D02*
D03*
D142*
X480000Y320000D02*
D03*
X3507500Y3000000D02*
D03*
X2065000Y6490000D02*
D03*
D143*
X6365000Y5315000D02*
D03*
X410000Y2982500D02*
D03*
X6230000Y2107500D02*
D03*
D144*
X2265000Y282500D02*
D03*
X8012500Y1255000D02*
D03*
Y255000D02*
D03*
X7762500Y6755000D02*
D03*
Y1755000D02*
D03*
X7512500Y1255000D02*
D03*
X7762500Y755000D02*
D03*
X7512500Y255000D02*
D03*
X7262500Y6755000D02*
D03*
X7012500Y2255000D02*
D03*
Y1255000D02*
D03*
X7262500Y755000D02*
D03*
X7012500Y255000D02*
D03*
X6762500Y6755000D02*
D03*
X6512500Y4255000D02*
D03*
X6762500Y2755000D02*
D03*
X6512500Y2255000D02*
D03*
X6762500Y1755000D02*
D03*
X6512500Y1255000D02*
D03*
X6762500Y755000D02*
D03*
X6262500Y6755000D02*
D03*
X6012500Y5255000D02*
D03*
Y4255000D02*
D03*
Y3255000D02*
D03*
X6262500Y2755000D02*
D03*
X6012500Y2255000D02*
D03*
X6262500Y1755000D02*
D03*
X6012500Y1255000D02*
D03*
X6262500Y755000D02*
D03*
X6012500Y255000D02*
D03*
X5762500Y6755000D02*
D03*
X5512500Y5255000D02*
D03*
Y4255000D02*
D03*
Y3255000D02*
D03*
Y2255000D02*
D03*
Y1255000D02*
D03*
X5762500Y755000D02*
D03*
X5512500Y255000D02*
D03*
X5262500Y6755000D02*
D03*
X5012500Y5255000D02*
D03*
X5262500Y4755000D02*
D03*
X5012500Y3255000D02*
D03*
X5262500Y2755000D02*
D03*
X5012500Y2255000D02*
D03*
X5262500Y1755000D02*
D03*
X5012500Y1255000D02*
D03*
X5262500Y755000D02*
D03*
X5012500Y255000D02*
D03*
X4762500Y6755000D02*
D03*
Y5755000D02*
D03*
X4512500Y3255000D02*
D03*
Y1255000D02*
D03*
Y255000D02*
D03*
X4262500Y6755000D02*
D03*
X4012500Y5255000D02*
D03*
X4262500Y4755000D02*
D03*
X4012500Y3255000D02*
D03*
X4262500Y2755000D02*
D03*
Y1755000D02*
D03*
X4012500Y1255000D02*
D03*
X4262500Y755000D02*
D03*
X4012500Y255000D02*
D03*
X3762500Y6755000D02*
D03*
Y4755000D02*
D03*
X3512500Y3255000D02*
D03*
X3762500Y2755000D02*
D03*
Y1755000D02*
D03*
X3512500Y255000D02*
D03*
X3262500Y6755000D02*
D03*
Y4755000D02*
D03*
Y2755000D02*
D03*
Y1755000D02*
D03*
X3012500Y1255000D02*
D03*
Y255000D02*
D03*
X2762500Y6755000D02*
D03*
Y4755000D02*
D03*
X2512500Y4255000D02*
D03*
X2762500Y2755000D02*
D03*
X2512500Y2255000D02*
D03*
X2762500Y1755000D02*
D03*
Y755000D02*
D03*
X2512500Y255000D02*
D03*
X2262500Y5755000D02*
D03*
Y4755000D02*
D03*
Y1755000D02*
D03*
X2012500Y1255000D02*
D03*
X1762500Y4755000D02*
D03*
X1512500Y4255000D02*
D03*
X1762500Y1755000D02*
D03*
Y755000D02*
D03*
X1012500Y4255000D02*
D03*
Y2255000D02*
D03*
X1262500Y755000D02*
D03*
X1012500Y255000D02*
D03*
X512500Y5255000D02*
D03*
Y4255000D02*
D03*
Y3255000D02*
D03*
Y2255000D02*
D03*
X762500Y1755000D02*
D03*
X3250000Y3105000D02*
D03*
X2385000Y2520000D02*
D03*
X2407500Y3712500D02*
D03*
X2552500Y4005000D02*
D03*
X3180000Y3867500D02*
D03*
Y3797500D02*
D03*
X3175000Y3682500D02*
D03*
X3105000Y3472500D02*
D03*
X3175000D02*
D03*
X3077500Y3037500D02*
D03*
X1617500Y4205000D02*
D03*
X1857500Y4362500D02*
D03*
X1680000Y4165000D02*
D03*
X1550000Y4185000D02*
D03*
X2905000Y3882500D02*
D03*
X2407500Y2962500D02*
D03*
X1927500Y3180000D02*
D03*
X1990000Y3372500D02*
D03*
X1882500Y3125000D02*
D03*
X2150000Y2675000D02*
D03*
X1892500Y2877500D02*
D03*
X1557500Y2885000D02*
D03*
X8409995Y5549997D02*
D03*
X8559995Y5249997D02*
D03*
Y4649997D02*
D03*
X8409995Y4349997D02*
D03*
X8559995Y4049997D02*
D03*
X8409995Y3749997D02*
D03*
X8559995Y3449997D02*
D03*
X8409995Y3149998D02*
D03*
Y2549998D02*
D03*
X8259995Y5849997D02*
D03*
Y5249997D02*
D03*
Y4049997D02*
D03*
X8109995Y3749997D02*
D03*
Y3149998D02*
D03*
X7809995Y6149997D02*
D03*
Y5549997D02*
D03*
X7959995Y4649997D02*
D03*
Y4049997D02*
D03*
X7809995Y3749997D02*
D03*
X7959995Y3449997D02*
D03*
X7809995Y3149998D02*
D03*
Y2549998D02*
D03*
X7659995Y5249997D02*
D03*
X7509995Y4949997D02*
D03*
X7659995Y4649997D02*
D03*
Y3449997D02*
D03*
X7509995Y3149998D02*
D03*
X7659995Y2849998D02*
D03*
X7509995Y2549998D02*
D03*
X7209995Y4949997D02*
D03*
X7359995Y4649997D02*
D03*
X7209995Y3749997D02*
D03*
X6909995Y4949997D02*
D03*
X7059995Y4649997D02*
D03*
Y2849998D02*
D03*
X6717500Y5315000D02*
D03*
X7112500Y6355000D02*
D03*
X7202500Y6410000D02*
D03*
X7075000Y6490000D02*
D03*
X1662500Y6032500D02*
D03*
X1020000Y4740392D02*
D03*
X1242500Y4565000D02*
D03*
X1260000Y4492500D02*
D03*
X1507500Y4355000D02*
D03*
X1727500Y4587500D02*
D03*
X1225000Y4260000D02*
D03*
X5284205Y3751017D02*
D03*
X5110000Y3662500D02*
D03*
X5930000Y6332500D02*
D03*
X5910000Y7055000D02*
D03*
X5732500Y6355000D02*
D03*
X5470000Y5415000D02*
D03*
X8032500Y5830000D02*
D03*
X7262500Y2777500D02*
D03*
X4685000Y3867500D02*
D03*
X4920000Y3817500D02*
D03*
X4657500Y6602500D02*
D03*
X1552500Y5057500D02*
D03*
X2070000Y5842500D02*
D03*
X2237500Y5515000D02*
D03*
X3247500Y6285000D02*
D03*
X2407500Y5335000D02*
D03*
X2405000Y3782500D02*
D03*
X1627500Y2887500D02*
D03*
X2152500Y2605000D02*
D03*
X1020000Y4502500D02*
D03*
X2227500Y4427500D02*
D03*
X5152500Y4510000D02*
D03*
X5310000Y4157500D02*
D03*
X6917500Y4420000D02*
D03*
X7637500Y4122500D02*
D03*
X6762500Y3720000D02*
D03*
X5205000Y3320000D02*
D03*
X2720000Y3997500D02*
D03*
X2022500Y6222500D02*
D03*
X2025000Y6030000D02*
D03*
X902500Y5967500D02*
D03*
X2942500D02*
D03*
X3205000Y7072500D02*
D03*
X1685000Y6277500D02*
D03*
X1565000Y6167500D02*
D03*
X1377500Y2852500D02*
D03*
X1580000Y5387500D02*
D03*
X1660000Y4942500D02*
D03*
Y4790000D02*
D03*
X1787500Y4362500D02*
D03*
X1725000Y4220000D02*
D03*
X1870000Y2810000D02*
D03*
X2320000Y3087500D02*
D03*
X2512500Y3245000D02*
D03*
X1920000Y3362500D02*
D03*
X2697500Y3532500D02*
D03*
X572500Y5777500D02*
D03*
X577500Y5967500D02*
D03*
X977500Y3340000D02*
D03*
X685000Y3192500D02*
D03*
X675000Y2437500D02*
D03*
X3185000Y3962500D02*
D03*
X1557500Y2387500D02*
D03*
X1700000Y870000D02*
D03*
X1060000Y3130000D02*
D03*
X2957500Y6155000D02*
D03*
X3875000Y5920000D02*
D03*
X2960000Y5600000D02*
D03*
X3875000Y5752500D02*
D03*
X610000Y3317500D02*
D03*
X242500Y3202500D02*
D03*
X7290000Y5440000D02*
D03*
X7470000D02*
D03*
X6962500Y3357500D02*
D03*
X7840000Y4485000D02*
D03*
X3812500Y3970000D02*
D03*
X5247500Y4050000D02*
D03*
X3820000Y3755000D02*
D03*
X5250000Y3927500D02*
D03*
X4227500Y3505000D02*
D03*
X4255000Y4055000D02*
D03*
X4927500Y3732500D02*
D03*
X5620000Y4157500D02*
D03*
X4595000Y3582500D02*
D03*
X5520000Y3522500D02*
D03*
X715000Y727500D02*
D03*
X1265000Y1267500D02*
D03*
X1655000Y810000D02*
D03*
X1465000Y2050000D02*
D03*
X1725000Y2127500D02*
D03*
X825000Y2179900D02*
D03*
X687500Y3262500D02*
D03*
X937500Y3280000D02*
D03*
X1130000Y3130000D02*
D03*
X1627500Y2390000D02*
D03*
X1550000Y2635000D02*
D03*
X1860000Y812500D02*
D03*
X2625000Y2410000D02*
D03*
X2820000Y2370000D02*
D03*
X1190000Y6897500D02*
D03*
X1110000Y7165000D02*
D03*
X1290000Y7055000D02*
D03*
X1572500Y7062500D02*
D03*
X2675000Y5327500D02*
D03*
X2900000Y4270000D02*
D03*
X3052500D02*
D03*
X3105000Y5380000D02*
D03*
X1862500Y6860000D02*
D03*
X2920000Y5817500D02*
D03*
X2272500Y6710000D02*
D03*
X3255000Y640000D02*
D03*
X3280000Y1265000D02*
D03*
X3805000Y635000D02*
D03*
Y1262500D02*
D03*
X4665000Y1300000D02*
D03*
X3435000Y2187500D02*
D03*
X3792500Y1472500D02*
D03*
X4635000Y1672500D02*
D03*
X4752500Y3427500D02*
D03*
X4927500Y3597500D02*
D03*
X5440000Y3427500D02*
D03*
X3105000Y3682500D02*
D03*
X3160000Y4030000D02*
D03*
X4910000Y4217500D02*
D03*
X4915000Y4405000D02*
D03*
X3231250Y5493750D02*
D03*
X4870000Y5905000D02*
D03*
X5902500Y5420000D02*
D03*
X6747500Y3882500D02*
D03*
X7035000Y3957500D02*
D03*
X7480000Y3932500D02*
D03*
X6677500Y4307500D02*
D03*
X7070000Y6120000D02*
D03*
X6107100Y6395000D02*
D03*
X5732500Y6552500D02*
D03*
X6125000Y5800000D02*
D03*
X5620000Y6092500D02*
D03*
X6400000Y5680000D02*
D03*
X6132500Y6017500D02*
D03*
X5592500Y6007500D02*
D03*
X5807500Y5805000D02*
D03*
X7327500Y6350000D02*
D03*
X6307100Y6380000D02*
D03*
X5900000Y6480000D02*
D03*
X5730000Y6465000D02*
D03*
X6937500Y6232500D02*
D03*
X6930000Y5610000D02*
D03*
X6737500Y5670000D02*
D03*
X5153900Y3861100D02*
D03*
X702500Y6545000D02*
D03*
%TF.MD5,439eb36f81c906d46bfe9c8944404be6*%
M02*
