%TF.GenerationSoftware,Altium Limited,Altium Designer,25.0.2 (28)*%
G04 Layer_Physical_Order=3*
G04 Layer_Color=128*
%FSLAX45Y45*%
%MOMM*%
%TF.SameCoordinates,98363745-2E75-4EC5-B677-F8BA2FE6C772*%
%TF.FilePolarity,Negative*%
%TF.FileFunction,Copper,L3,Inr,Plane*%
%TF.Part,Single*%
G01*
G75*
%TA.AperFunction,NonConductor*%
%ADD71C,1.01600*%
%ADD72C,0.30000*%
%TA.AperFunction,ComponentPad*%
%ADD73C,1.46680*%
%ADD74C,1.11120*%
G04:AMPARAMS|DCode=75|XSize=2.2352mm|YSize=2.2352mm|CornerRadius=0mm|HoleSize=0mm|Usage=FLASHONLY|Rotation=0.000|XOffset=0mm|YOffset=0mm|HoleType=Round|Shape=Relief|Width=0.254mm|Gap=0.254mm|Entries=4|*
%AMTHD75*
7,0,0,2.23520,1.72720,0.25400,45*
%
%ADD75THD75*%
%ADD76C,1.21280*%
G04:AMPARAMS|DCode=77|XSize=2.3368mm|YSize=2.3368mm|CornerRadius=0mm|HoleSize=0mm|Usage=FLASHONLY|Rotation=0.000|XOffset=0mm|YOffset=0mm|HoleType=Round|Shape=Relief|Width=0.254mm|Gap=0.254mm|Entries=4|*
%AMTHD77*
7,0,0,2.33680,1.82880,0.25400,45*
%
%ADD77THD77*%
%ADD78C,1.70000*%
G04:AMPARAMS|DCode=79|XSize=2.824mm|YSize=2.824mm|CornerRadius=0mm|HoleSize=0mm|Usage=FLASHONLY|Rotation=0.000|XOffset=0mm|YOffset=0mm|HoleType=Round|Shape=Relief|Width=0.254mm|Gap=0.254mm|Entries=4|*
%AMTHD79*
7,0,0,2.82400,2.31600,0.25400,45*
%
%ADD79THD79*%
%ADD80C,1.10000*%
G04:AMPARAMS|DCode=81|XSize=2.224mm|YSize=2.224mm|CornerRadius=0mm|HoleSize=0mm|Usage=FLASHONLY|Rotation=0.000|XOffset=0mm|YOffset=0mm|HoleType=Round|Shape=Relief|Width=0.254mm|Gap=0.254mm|Entries=4|*
%AMTHD81*
7,0,0,2.22400,1.71600,0.25400,45*
%
%ADD81THD81*%
G04:AMPARAMS|DCode=82|XSize=3.174mm|YSize=3.174mm|CornerRadius=0mm|HoleSize=0mm|Usage=FLASHONLY|Rotation=0.000|XOffset=0mm|YOffset=0mm|HoleType=Round|Shape=Relief|Width=0.254mm|Gap=0.254mm|Entries=4|*
%AMTHD82*
7,0,0,3.17400,2.66600,0.25400,45*
%
%ADD82THD82*%
%ADD83C,1.95000*%
G04:AMPARAMS|DCode=84|XSize=3.1242mm|YSize=3.1242mm|CornerRadius=0mm|HoleSize=0mm|Usage=FLASHONLY|Rotation=0.000|XOffset=0mm|YOffset=0mm|HoleType=Round|Shape=Relief|Width=0.254mm|Gap=0.254mm|Entries=4|*
%AMTHD84*
7,0,0,3.12420,2.61620,0.25400,45*
%
%ADD84THD84*%
G04:AMPARAMS|DCode=85|XSize=2.5908mm|YSize=2.5908mm|CornerRadius=0mm|HoleSize=0mm|Usage=FLASHONLY|Rotation=0.000|XOffset=0mm|YOffset=0mm|HoleType=Round|Shape=Relief|Width=0.254mm|Gap=0.254mm|Entries=4|*
%AMTHD85*
7,0,0,2.59080,2.08280,0.25400,45*
%
%ADD85THD85*%
%TA.AperFunction,ViaPad*%
%ADD86C,0.70000*%
D71*
X0Y0D02*
Y7500000D01*
X8800000D01*
Y0D02*
Y7500000D01*
X0Y0D02*
X8800000D01*
D72*
X7824871Y6423684D02*
X8684871Y5563684D01*
X7432370Y6423684D02*
X7824871D01*
X8684871Y5563684D02*
X8689870D01*
X8692370Y2296184D02*
Y5561183D01*
X8669870Y2296184D02*
X8692370D01*
X8689870Y5563684D02*
X8692370Y5561183D01*
X7004870Y2328683D02*
Y3906184D01*
Y2328683D02*
X7037370Y2296184D01*
X8669870D01*
X6802370Y4751184D02*
Y5793684D01*
X7432370Y6423684D01*
X6797370Y4113684D02*
Y4756184D01*
Y4113684D02*
X7004870Y3906184D01*
D73*
X6437500Y4395000D02*
D03*
X3692500Y7000000D02*
D03*
X4612500Y2333500D02*
D03*
Y2587500D02*
D03*
Y2841500D02*
D03*
X2525000Y6827500D02*
D03*
X5185000Y2035000D02*
D03*
X3330000Y7330000D02*
D03*
X3076000D02*
D03*
X2822000D02*
D03*
X3340000Y5170000D02*
D03*
X2240000Y1905000D02*
D03*
X4690000Y4696000D02*
D03*
Y4950000D02*
D03*
Y5204000D02*
D03*
X4197500Y2947500D02*
D03*
X3290000Y4170000D02*
D03*
X4350000Y4420000D02*
D03*
X3040000Y3290000D02*
D03*
X6457500Y3157500D02*
D03*
X7412500Y2022500D02*
D03*
X5627500Y2952500D02*
D03*
X837500Y5135000D02*
D03*
X2315000Y4982500D02*
D03*
X5130000Y6280000D02*
D03*
X4580000Y6440000D02*
D03*
X2570000Y6270000D02*
D03*
X927500Y6387500D02*
D03*
X5140000Y5400000D02*
D03*
X1967500Y3955000D02*
D03*
X4032000Y7320000D02*
D03*
X4286000D02*
D03*
X6120000Y7330000D02*
D03*
X6374000D02*
D03*
X7316000D02*
D03*
X7570000D02*
D03*
X7824000D02*
D03*
X5186000Y7320000D02*
D03*
X5440000D02*
D03*
X5694000D02*
D03*
D74*
X1652000Y283000D02*
D03*
X1779000D02*
D03*
Y410000D02*
D03*
X1906000Y283000D02*
D03*
X2033000D02*
D03*
X2160000D02*
D03*
Y410000D02*
D03*
D75*
X1652000D02*
D03*
X1906000D02*
D03*
X2033000D02*
D03*
D76*
X1410000Y3820000D02*
D03*
X1156000D02*
D03*
D77*
X902000D02*
D03*
D78*
X6395000Y513490D02*
D03*
X6894999D02*
D03*
D79*
X5895001D02*
D03*
D80*
X5057500Y710986D02*
D03*
D81*
X4857500D02*
D03*
D82*
X8052000Y4434000D02*
D03*
Y4942000D02*
D03*
X8560000Y4434000D02*
D03*
Y4942000D02*
D03*
X8052000Y462000D02*
D03*
Y970000D02*
D03*
X8560000Y462000D02*
D03*
Y970000D02*
D03*
X8052000Y2448000D02*
D03*
Y2956000D02*
D03*
X8560000Y2448000D02*
D03*
Y2956000D02*
D03*
X8052000Y6420000D02*
D03*
Y6928000D02*
D03*
X8560000Y6420000D02*
D03*
Y6928000D02*
D03*
D83*
X8306000Y4688000D02*
D03*
Y716000D02*
D03*
Y2702000D02*
D03*
Y6674000D02*
D03*
D84*
X480000Y320000D02*
D03*
X6365000Y5315000D02*
D03*
X3507500Y3000000D02*
D03*
X410000Y2982500D02*
D03*
X2065000Y6490000D02*
D03*
X6230000Y2107500D02*
D03*
D85*
X4540000Y7320000D02*
D03*
X6628000Y7330000D02*
D03*
D86*
X3250000Y3105000D02*
D03*
X2385000Y2520000D02*
D03*
X3180000Y3797500D02*
D03*
X3175000Y3682500D02*
D03*
Y3472500D02*
D03*
X1617500Y4205000D02*
D03*
X1927500Y3180000D02*
D03*
X6717500Y5315000D02*
D03*
X7112500Y6355000D02*
D03*
X7202500Y6410000D02*
D03*
X7075000Y6490000D02*
D03*
X1020000Y4740392D02*
D03*
X1242500Y4565000D02*
D03*
X5284205Y3751017D02*
D03*
X5110000Y3662500D02*
D03*
X5930000Y6332500D02*
D03*
X5910000Y7055000D02*
D03*
X5732500Y6355000D02*
D03*
X5470000Y5415000D02*
D03*
X8032500Y5830000D02*
D03*
X7262500Y2777500D02*
D03*
X4685000Y3867500D02*
D03*
X4657500Y6602500D02*
D03*
X1552500Y5057500D02*
D03*
X2070000Y5842500D02*
D03*
X2237500Y5515000D02*
D03*
X3247500Y6285000D02*
D03*
X2407500Y5335000D02*
D03*
X2405000Y3782500D02*
D03*
X1627500Y2887500D02*
D03*
X2152500Y2605000D02*
D03*
X1020000Y4502500D02*
D03*
X2227500Y4427500D02*
D03*
X5152500Y4510000D02*
D03*
X5310000Y4157500D02*
D03*
X6917500Y4420000D02*
D03*
X7637500Y4122500D02*
D03*
X6762500Y3720000D02*
D03*
X5205000Y3320000D02*
D03*
X902500Y5967500D02*
D03*
X2942500D02*
D03*
X3205000Y7072500D02*
D03*
X1685000Y6277500D02*
D03*
X1565000Y6167500D02*
D03*
X1377500Y2852500D02*
D03*
X1787500Y4362500D02*
D03*
X1725000Y4220000D02*
D03*
X1870000Y2810000D02*
D03*
X2320000Y3087500D02*
D03*
X1920000Y3362500D02*
D03*
X977500Y3340000D02*
D03*
X685000Y3192500D02*
D03*
X675000Y2437500D02*
D03*
X3185000Y3962500D02*
D03*
X1557500Y2387500D02*
D03*
X1700000Y870000D02*
D03*
X1060000Y3130000D02*
D03*
X2957500Y6155000D02*
D03*
X3875000Y5920000D02*
D03*
X2960000Y5600000D02*
D03*
X3875000Y5752500D02*
D03*
X610000Y3317500D02*
D03*
X242500Y3202500D02*
D03*
X7290000Y5440000D02*
D03*
X7470000D02*
D03*
X6962500Y3357500D02*
D03*
X7840000Y4485000D02*
D03*
X3812500Y3970000D02*
D03*
X5247500Y4050000D02*
D03*
X3820000Y3755000D02*
D03*
X5250000Y3927500D02*
D03*
X4227500Y3505000D02*
D03*
X4255000Y4055000D02*
D03*
X4927500Y3732500D02*
D03*
X5620000Y4157500D02*
D03*
X4595000Y3582500D02*
D03*
X5520000Y3522500D02*
D03*
X7035000Y3957500D02*
D03*
X7480000Y3932500D02*
D03*
X6107100Y6395000D02*
D03*
X5732500Y6552500D02*
D03*
X6125000Y5800000D02*
D03*
X5620000Y6092500D02*
D03*
X6400000Y5680000D02*
D03*
X6132500Y6017500D02*
D03*
X5592500Y6007500D02*
D03*
X5807500Y5805000D02*
D03*
X7327500Y6350000D02*
D03*
X6307100Y6380000D02*
D03*
X5900000Y6480000D02*
D03*
X5730000Y6465000D02*
D03*
X6937500Y6232500D02*
D03*
X6930000Y5610000D02*
D03*
X6737500Y5670000D02*
D03*
X5153900Y3861100D02*
D03*
X702500Y6545000D02*
D03*
%TF.MD5,7dd634ba4fafbb4bc6e929d29de4d346*%
M02*
