%TF.GenerationSoftware,Altium Limited,Altium Designer,25.0.2 (28)*%
G04 Layer_Physical_Order=2*
G04 Layer_Color=32768*
%FSLAX45Y45*%
%MOMM*%
%TF.SameCoordinates,0480068D-3644-45EB-8839-341CBE562275*%
%TF.FilePolarity,Negative*%
%TF.FileFunction,Copper,L2,Inr,Plane*%
%TF.Part,Single*%
G01*
G75*
%TA.AperFunction,NonConductor*%
%ADD72C,1.01600*%
%ADD73C,0.30000*%
%TA.AperFunction,ComponentPad*%
G04:AMPARAMS|DCode=74|XSize=2.3368mm|YSize=2.3368mm|CornerRadius=0mm|HoleSize=0mm|Usage=FLASHONLY|Rotation=0.000|XOffset=0mm|YOffset=0mm|HoleType=Round|Shape=Relief|Width=0.254mm|Gap=0.254mm|Entries=4|*
%AMTHD74*
7,0,0,2.33680,1.82880,0.25400,45*
%
%ADD74THD74*%
%ADD75C,1.21280*%
%ADD76C,1.11120*%
G04:AMPARAMS|DCode=77|XSize=2.2352mm|YSize=2.2352mm|CornerRadius=0mm|HoleSize=0mm|Usage=FLASHONLY|Rotation=0.000|XOffset=0mm|YOffset=0mm|HoleType=Round|Shape=Relief|Width=0.254mm|Gap=0.254mm|Entries=4|*
%AMTHD77*
7,0,0,2.23520,1.72720,0.25400,45*
%
%ADD77THD77*%
%ADD78C,1.95000*%
G04:AMPARAMS|DCode=79|XSize=3.174mm|YSize=3.174mm|CornerRadius=0mm|HoleSize=0mm|Usage=FLASHONLY|Rotation=0.000|XOffset=0mm|YOffset=0mm|HoleType=Round|Shape=Relief|Width=0.254mm|Gap=0.254mm|Entries=4|*
%AMTHD79*
7,0,0,3.17400,2.66600,0.25400,45*
%
%ADD79THD79*%
G04:AMPARAMS|DCode=80|XSize=2.824mm|YSize=2.824mm|CornerRadius=0mm|HoleSize=0mm|Usage=FLASHONLY|Rotation=0.000|XOffset=0mm|YOffset=0mm|HoleType=Round|Shape=Relief|Width=0.254mm|Gap=0.254mm|Entries=4|*
%AMTHD80*
7,0,0,2.82400,2.31600,0.25400,45*
%
%ADD80THD80*%
%ADD81C,1.70000*%
%ADD82C,1.46680*%
G04:AMPARAMS|DCode=83|XSize=2.224mm|YSize=2.224mm|CornerRadius=0mm|HoleSize=0mm|Usage=FLASHONLY|Rotation=0.000|XOffset=0mm|YOffset=0mm|HoleType=Round|Shape=Relief|Width=0.254mm|Gap=0.254mm|Entries=4|*
%AMTHD83*
7,0,0,2.22400,1.71600,0.25400,45*
%
%ADD83THD83*%
%ADD84C,1.10000*%
G04:AMPARAMS|DCode=85|XSize=3.1242mm|YSize=3.1242mm|CornerRadius=0mm|HoleSize=0mm|Usage=FLASHONLY|Rotation=0.000|XOffset=0mm|YOffset=0mm|HoleType=Round|Shape=Relief|Width=0.254mm|Gap=0.254mm|Entries=4|*
%AMTHD85*
7,0,0,3.12420,2.61620,0.25400,45*
%
%ADD85THD85*%
G04:AMPARAMS|DCode=86|XSize=2.5908mm|YSize=2.5908mm|CornerRadius=0mm|HoleSize=0mm|Usage=FLASHONLY|Rotation=0.000|XOffset=0mm|YOffset=0mm|HoleType=Round|Shape=Relief|Width=0.254mm|Gap=0.254mm|Entries=4|*
%AMTHD86*
7,0,0,2.59080,2.08280,0.25400,45*
%
%ADD86THD86*%
%TA.AperFunction,ViaPad*%
%ADD87C,0.70000*%
D72*
X0Y0D02*
Y7500000D01*
X8800000D01*
Y0D02*
Y7500000D01*
X0Y0D02*
X8800000D01*
D73*
X6797500Y4117500D02*
X7005000Y3910000D01*
X6797500Y4117500D02*
Y4760000D01*
X7432500Y6427500D02*
X7825000D01*
X6802500Y5797500D02*
X7432500Y6427500D01*
X6802500Y4755000D02*
Y5797500D01*
X8670000Y2300000D02*
X8692500D01*
Y5565000D01*
X7825000Y6427500D02*
X8685000Y5567500D01*
X8690000D01*
X8692500Y5565000D01*
X7037500Y2300000D02*
X8670000D01*
X7005000Y2332500D02*
X7037500Y2300000D01*
X7005000Y2332500D02*
Y3910000D01*
D74*
X740000Y2716000D02*
D03*
D75*
Y2970000D02*
D03*
Y3224000D02*
D03*
D76*
X2160000Y410000D02*
D03*
Y283000D02*
D03*
X2033000D02*
D03*
X1906000D02*
D03*
X1779000Y410000D02*
D03*
Y283000D02*
D03*
X1652000D02*
D03*
D77*
X2033000Y410000D02*
D03*
X1906000D02*
D03*
X1652000D02*
D03*
D78*
X8306000Y4688000D02*
D03*
Y716000D02*
D03*
Y2702000D02*
D03*
Y6674000D02*
D03*
D79*
X8560000Y4942000D02*
D03*
Y4434000D02*
D03*
X8052000Y4942000D02*
D03*
Y4434000D02*
D03*
Y462000D02*
D03*
Y970000D02*
D03*
X8560000Y462000D02*
D03*
Y970000D02*
D03*
X8052000Y2448000D02*
D03*
Y2956000D02*
D03*
X8560000Y2448000D02*
D03*
Y2956000D02*
D03*
X8052000Y6420000D02*
D03*
Y6928000D02*
D03*
X8560000Y6420000D02*
D03*
Y6928000D02*
D03*
D80*
X5895001Y513490D02*
D03*
D81*
X6894999D02*
D03*
X6395000D02*
D03*
D82*
X2822000Y7330000D02*
D03*
X3076000D02*
D03*
X3330000D02*
D03*
X3707500Y6937500D02*
D03*
X5882500Y4680000D02*
D03*
X4612500Y2333500D02*
D03*
Y2587500D02*
D03*
Y2841500D02*
D03*
X2465000Y6862500D02*
D03*
X5452500Y1762500D02*
D03*
X3340000Y5170000D02*
D03*
X2912500Y1332500D02*
D03*
X4267500Y3227500D02*
D03*
X3475000Y2930000D02*
D03*
X4210000Y4450000D02*
D03*
X3120000Y4390000D02*
D03*
X6302500Y2927500D02*
D03*
X5297500Y4810000D02*
D03*
X795000Y5095000D02*
D03*
X2342500Y5057500D02*
D03*
X5130000Y6280000D02*
D03*
X4580000Y6440000D02*
D03*
X2645000Y6312500D02*
D03*
X5140000Y5400000D02*
D03*
X2495000Y4305000D02*
D03*
X4032000Y7320000D02*
D03*
X4286000D02*
D03*
X6120000Y7330000D02*
D03*
X6374000D02*
D03*
X7316000D02*
D03*
X7570000D02*
D03*
X7824000D02*
D03*
X5186000Y7320000D02*
D03*
X5440000D02*
D03*
X5694000D02*
D03*
D83*
X4857500Y710986D02*
D03*
D84*
X5057500D02*
D03*
D85*
X602500Y392500D02*
D03*
X6492500Y4880000D02*
D03*
X4322500Y5162500D02*
D03*
X575000Y3982500D02*
D03*
X1420000Y6517500D02*
D03*
X7402500Y1675000D02*
D03*
D86*
X7367500Y2687500D02*
D03*
X4540000Y7320000D02*
D03*
X6628000Y7330000D02*
D03*
D87*
X1532500Y6317500D02*
D03*
X1272500Y6320000D02*
D03*
X4042500Y7072500D02*
D03*
X5777500Y5825000D02*
D03*
X1480000Y5080000D02*
D03*
X6920000Y3360000D02*
D03*
X2845000Y3785000D02*
D03*
X7110000Y4385000D02*
D03*
X6920000Y4382500D02*
D03*
X5365000Y4140000D02*
D03*
X7132500Y6335000D02*
D03*
X7530000Y5992500D02*
D03*
X5232500Y4135000D02*
D03*
X4752500Y3850000D02*
D03*
X7072500Y5520000D02*
D03*
X5587500Y5415000D02*
D03*
X5752500Y6342500D02*
D03*
X5117355Y3822211D02*
D03*
X5122500Y3615000D02*
D03*
X1357500Y4797500D02*
D03*
X1278733Y4582500D02*
D03*
X5105000Y4000000D02*
D03*
X2937500Y2742500D02*
D03*
X2385000Y2192500D02*
D03*
X2492500D02*
D03*
X2777500Y3672492D02*
D03*
X2767500Y2667500D02*
D03*
X2610000Y3595000D02*
D03*
X2300000D02*
D03*
X3067500Y3727500D02*
D03*
X550000Y6630000D02*
D03*
X1137500Y4390000D02*
D03*
X1087500Y4012500D02*
D03*
X982500Y3730000D02*
D03*
X1862054Y3627054D02*
D03*
X2055000Y3917500D02*
D03*
X2405000Y3755000D02*
D03*
X1820000Y5075000D02*
D03*
X3655560Y3684900D02*
D03*
X3500000Y5365000D02*
D03*
X3495000Y5477500D02*
D03*
X3502500Y6435000D02*
D03*
Y6300000D02*
D03*
X2955000Y5602500D02*
D03*
X3877500Y5835000D02*
D03*
X3230000Y6282500D02*
D03*
X2847500Y2485000D02*
D03*
X4515000Y3542500D02*
D03*
X3662500Y3920000D02*
D03*
X1150000Y3232500D02*
D03*
X2070000Y2335000D02*
D03*
X1975000Y2222500D02*
D03*
X1150000Y2987500D02*
D03*
X1420000Y3782500D02*
D03*
X1655000Y4015000D02*
D03*
X1605000Y2515000D02*
D03*
X590000Y1475000D02*
D03*
X1605000Y1477500D02*
D03*
X1877500Y1322500D02*
D03*
X2005000Y962500D02*
D03*
X217500Y2665000D02*
D03*
X442500Y2662500D02*
D03*
X217500Y3192500D02*
D03*
X277500Y3355000D02*
D03*
X7202500Y6410000D02*
D03*
X7075000Y6490000D02*
D03*
X5930000Y6332500D02*
D03*
X5910000Y7055000D02*
D03*
X8032500Y5830000D02*
D03*
X2407500Y5335000D02*
D03*
X7637500Y4122500D02*
D03*
X6687500Y3722500D02*
D03*
X902500Y5967500D02*
D03*
X3205000Y7072500D02*
D03*
X2957500Y6155000D02*
D03*
X3875000Y5920000D02*
D03*
X7290000Y5440000D02*
D03*
X7470000D02*
D03*
X7840000Y4485000D02*
D03*
X4090000Y4067500D02*
D03*
X6107100Y6395000D02*
D03*
X5732500Y6552500D02*
D03*
X6125000Y5800000D02*
D03*
X5620000Y6092500D02*
D03*
X6400000Y5680000D02*
D03*
X6132500Y6017500D02*
D03*
X5592500Y6007500D02*
D03*
X7327500Y6350000D02*
D03*
X6307100Y6380000D02*
D03*
X5900000Y6480000D02*
D03*
X5730000Y6465000D02*
D03*
X6937500Y6232500D02*
D03*
X6930000Y5610000D02*
D03*
X6737500Y5670000D02*
D03*
%TF.MD5,f1b1d2a460301f311e4a501d910b5c3b*%
M02*
