%TF.GenerationSoftware,Altium Limited,Altium Designer,25.0.2 (28)*%
G04 Layer_Color=8388736*
%FSLAX45Y45*%
%MOMM*%
%TF.SameCoordinates,0480068D-3644-45EB-8839-341CBE562275*%
%TF.FilePolarity,Negative*%
%TF.FileFunction,Soldermask,Top*%
%TF.Part,Single*%
G01*
G75*
%TA.AperFunction,SMDPad,CuDef*%
%ADD12R,0.30000X0.60000*%
%ADD13R,0.75000X0.25000*%
%ADD14R,0.75000X0.20000*%
%ADD16R,0.34077X1.35543*%
G04:AMPARAMS|DCode=17|XSize=1.35543mm|YSize=0.34077mm|CornerRadius=0.17038mm|HoleSize=0mm|Usage=FLASHONLY|Rotation=270.000|XOffset=0mm|YOffset=0mm|HoleType=Round|Shape=RoundedRectangle|*
%AMROUNDEDRECTD17*
21,1,1.35543,0.00000,0,0,270.0*
21,1,1.01467,0.34077,0,0,270.0*
1,1,0.34077,0.00000,-0.50733*
1,1,0.34077,0.00000,0.50733*
1,1,0.34077,0.00000,0.50733*
1,1,0.34077,0.00000,-0.50733*
%
%ADD17ROUNDEDRECTD17*%
G04:AMPARAMS|DCode=25|XSize=0.48583mm|YSize=1.35523mm|CornerRadius=0.24292mm|HoleSize=0mm|Usage=FLASHONLY|Rotation=90.000|XOffset=0mm|YOffset=0mm|HoleType=Round|Shape=RoundedRectangle|*
%AMROUNDEDRECTD25*
21,1,0.48583,0.86940,0,0,90.0*
21,1,0.00000,1.35523,0,0,90.0*
1,1,0.48583,0.43470,0.00000*
1,1,0.48583,0.43470,0.00000*
1,1,0.48583,-0.43470,0.00000*
1,1,0.48583,-0.43470,0.00000*
%
%ADD25ROUNDEDRECTD25*%
G04:AMPARAMS|DCode=26|XSize=1.35523mm|YSize=0.48583mm|CornerRadius=0.24292mm|HoleSize=0mm|Usage=FLASHONLY|Rotation=90.000|XOffset=0mm|YOffset=0mm|HoleType=Round|Shape=RoundedRectangle|*
%AMROUNDEDRECTD26*
21,1,1.35523,0.00000,0,0,90.0*
21,1,0.86940,0.48583,0,0,90.0*
1,1,0.48583,0.00000,0.43470*
1,1,0.48583,0.00000,-0.43470*
1,1,0.48583,0.00000,-0.43470*
1,1,0.48583,0.00000,0.43470*
%
%ADD26ROUNDEDRECTD26*%
%ADD27R,0.48583X1.35523*%
%ADD28R,1.17230X0.50800*%
%ADD30R,1.95543X0.42077*%
%ADD34R,0.80640X0.37560*%
%ADD35R,1.85420X1.54940*%
%ADD36R,1.85420X1.39700*%
%ADD37R,0.83820X1.24460*%
%ADD38R,0.81280X1.24460*%
%ADD39R,0.76200X1.24460*%
%ADD42R,0.83720X0.61120*%
%ADD43O,0.60000X0.42000*%
%ADD44R,0.60000X0.42000*%
%ADD45R,1.75260X2.48920*%
%ADD46R,0.80800X0.25480*%
%ADD49R,0.60000X1.00000*%
%TA.AperFunction,ComponentPad*%
%ADD60C,1.16840*%
%TA.AperFunction,SMDPad,CuDef*%
%ADD102R,1.09220X1.01600*%
%ADD103R,1.04140X0.96520*%
%ADD104R,1.01600X1.09220*%
%ADD105O,1.50160X0.55160*%
%ADD106R,0.96520X1.04140*%
%ADD107R,1.50320X2.20320*%
%ADD108R,2.20320X2.20320*%
%ADD109R,1.72720X1.72720*%
%ADD110R,1.60020X1.30320*%
%ADD111O,2.30320X0.65320*%
G04:AMPARAMS|DCode=112|XSize=0.8532mm|YSize=1.4032mm|CornerRadius=0.15035mm|HoleSize=0mm|Usage=FLASHONLY|Rotation=270.000|XOffset=0mm|YOffset=0mm|HoleType=Round|Shape=RoundedRectangle|*
%AMROUNDEDRECTD112*
21,1,0.85320,1.10250,0,0,270.0*
21,1,0.55250,1.40320,0,0,270.0*
1,1,0.30070,-0.55125,-0.27625*
1,1,0.30070,-0.55125,0.27625*
1,1,0.30070,0.55125,0.27625*
1,1,0.30070,0.55125,-0.27625*
%
%ADD112ROUNDEDRECTD112*%
%ADD113R,1.30320X1.85320*%
%ADD114R,1.30320X1.50320*%
%ADD115R,1.41320X0.81320*%
%ADD116R,0.90320X0.84320*%
%ADD117R,0.90320X0.70320*%
%ADD118R,1.35320X0.80320*%
G04:AMPARAMS|DCode=119|XSize=0.6532mm|YSize=1.6032mm|CornerRadius=0.1511mm|HoleSize=0mm|Usage=FLASHONLY|Rotation=180.000|XOffset=0mm|YOffset=0mm|HoleType=Round|Shape=RoundedRectangle|*
%AMROUNDEDRECTD119*
21,1,0.65320,1.30100,0,0,180.0*
21,1,0.35100,1.60320,0,0,180.0*
1,1,0.30220,-0.17550,0.65050*
1,1,0.30220,0.17550,0.65050*
1,1,0.30220,0.17550,-0.65050*
1,1,0.30220,-0.17550,-0.65050*
%
%ADD119ROUNDEDRECTD119*%
%ADD120R,2.20400X2.70400*%
%ADD121R,1.30320X1.60020*%
%ADD122O,0.55160X1.50160*%
%TA.AperFunction,ComponentPad*%
%ADD123C,1.77800*%
%ADD124R,1.77800X1.77800*%
%ADD125C,2.52820*%
%ADD126C,2.67820*%
%ADD127C,2.15320*%
G04:AMPARAMS|DCode=128|XSize=2.1532mm|YSize=2.1532mm|CornerRadius=0.5891mm|HoleSize=0mm|Usage=FLASHONLY|Rotation=180.000|XOffset=0mm|YOffset=0mm|HoleType=Round|Shape=RoundedRectangle|*
%AMROUNDEDRECTD128*
21,1,2.15320,0.97500,0,0,180.0*
21,1,0.97500,2.15320,0,0,180.0*
1,1,1.17820,-0.48750,0.48750*
1,1,1.17820,0.48750,0.48750*
1,1,1.17820,0.48750,-0.48750*
1,1,1.17820,-0.48750,-0.48750*
%
%ADD128ROUNDEDRECTD128*%
%ADD129R,2.10820X2.10820*%
%ADD130C,2.10820*%
%ADD131R,1.40320X1.40320*%
%ADD132C,1.40320*%
%ADD133C,2.74320*%
%ADD134R,2.10820X2.10820*%
D12*
X2845000Y3870000D02*
D03*
Y3690000D02*
D03*
D13*
X2932500Y3829992D02*
D03*
Y3729992D02*
D03*
X2757500D02*
D03*
X2755000Y3830000D02*
D03*
D14*
X2932500Y3779992D02*
D03*
X2757500D02*
D03*
D16*
X3425000Y6157538D02*
D03*
D17*
X3360000D02*
D03*
X3295000D02*
D03*
X3230000D02*
D03*
X3165000D02*
D03*
X3100000D02*
D03*
X3035000D02*
D03*
Y5602461D02*
D03*
X3100000D02*
D03*
X3165000D02*
D03*
X3230000D02*
D03*
X3295000D02*
D03*
X3360000D02*
D03*
X3425000D02*
D03*
D25*
X1399300Y2030000D02*
D03*
Y2110000D02*
D03*
Y2190000D02*
D03*
Y1950000D02*
D03*
Y2350000D02*
D03*
Y2430000D02*
D03*
Y2510000D02*
D03*
Y2270000D02*
D03*
X2239300Y1950000D02*
D03*
Y2030000D02*
D03*
Y2110000D02*
D03*
Y2190000D02*
D03*
Y2270000D02*
D03*
Y2350000D02*
D03*
Y2430000D02*
D03*
Y2510000D02*
D03*
D26*
X2019300Y1810000D02*
D03*
X1939300D02*
D03*
X1859300D02*
D03*
X1779300D02*
D03*
X1699300D02*
D03*
X1619300D02*
D03*
X2099300D02*
D03*
X1539299Y2650000D02*
D03*
X1619300D02*
D03*
X1699299D02*
D03*
X1779299D02*
D03*
X1859300D02*
D03*
X1939299D02*
D03*
X2019299D02*
D03*
X2099299D02*
D03*
D27*
X1539300Y1810000D02*
D03*
D28*
X3201245Y1634999D02*
D03*
Y1729999D02*
D03*
Y1824999D02*
D03*
X2908755D02*
D03*
Y1634999D02*
D03*
X1713755Y6990000D02*
D03*
Y6895000D02*
D03*
Y6800000D02*
D03*
X2006245D02*
D03*
Y6990000D02*
D03*
X4438755Y1577500D02*
D03*
Y1767500D02*
D03*
X4731245D02*
D03*
Y1672500D02*
D03*
Y1577500D02*
D03*
D30*
X1710038Y3930000D02*
D03*
Y3865000D02*
D03*
Y3800000D02*
D03*
Y3735000D02*
D03*
Y3670000D02*
D03*
Y3605000D02*
D03*
Y3540000D02*
D03*
X1134962D02*
D03*
Y3605000D02*
D03*
Y3670000D02*
D03*
Y3735000D02*
D03*
Y3800000D02*
D03*
Y3865000D02*
D03*
Y3930000D02*
D03*
D34*
X3636840Y1405000D02*
D03*
X3413160D02*
D03*
D35*
X4042496Y382177D02*
D03*
X3017500D02*
D03*
D36*
X4042500Y740164D02*
D03*
X3017500D02*
D03*
D37*
X3805000Y745549D02*
D03*
X3255000D02*
D03*
D38*
X3682000D02*
D03*
X3378000D02*
D03*
D39*
X3580000D02*
D03*
X3480000D02*
D03*
D42*
X4136810Y5930000D02*
D03*
Y5825000D02*
D03*
X4308190D02*
D03*
Y5930000D02*
D03*
D43*
X1927500Y1032500D02*
D03*
Y967500D02*
D03*
Y902500D02*
D03*
X1737500D02*
D03*
Y967500D02*
D03*
D44*
Y1032500D02*
D03*
D45*
X1505000Y4527500D02*
D03*
D46*
X1649540Y4627500D02*
D03*
Y4577500D02*
D03*
Y4527500D02*
D03*
Y4477500D02*
D03*
Y4427500D02*
D03*
X1360460D02*
D03*
Y4477500D02*
D03*
Y4527500D02*
D03*
Y4577500D02*
D03*
Y4627500D02*
D03*
D49*
X2840000Y2385000D02*
D03*
X2935000D02*
D03*
X3030000D02*
D03*
Y2660000D02*
D03*
X2935000D02*
D03*
X2840000D02*
D03*
D60*
X2160000Y410000D02*
D03*
Y283000D02*
D03*
X2033000Y410000D02*
D03*
Y283000D02*
D03*
X1906000Y410000D02*
D03*
Y283000D02*
D03*
X1779000Y410000D02*
D03*
Y283000D02*
D03*
X1652000Y410000D02*
D03*
Y283000D02*
D03*
D102*
X3342500Y3688780D02*
D03*
Y3526220D02*
D03*
X6700000Y3106220D02*
D03*
Y3268780D02*
D03*
X1600000Y5483720D02*
D03*
Y5646280D02*
D03*
X7287500Y3103720D02*
D03*
Y3266280D02*
D03*
X6582500Y4243780D02*
D03*
Y4081220D02*
D03*
X4995000Y1753780D02*
D03*
Y1591220D02*
D03*
X6145000Y3913720D02*
D03*
Y4076280D02*
D03*
X6140000Y3728780D02*
D03*
Y3566220D02*
D03*
X6892500Y3101220D02*
D03*
Y3263780D02*
D03*
X7097500Y3266280D02*
D03*
Y3103720D02*
D03*
X7650000Y4218720D02*
D03*
Y4381280D02*
D03*
X7460000D02*
D03*
Y4218720D02*
D03*
X3345000Y4083780D02*
D03*
Y3921220D02*
D03*
D103*
X2970000Y3425100D02*
D03*
Y3577500D02*
D03*
X1412500Y5642500D02*
D03*
Y5490100D02*
D03*
X4837500Y2084900D02*
D03*
Y1932500D02*
D03*
X3402500Y1805000D02*
D03*
Y1652600D02*
D03*
X4217500Y1617600D02*
D03*
Y1770000D02*
D03*
X1310000Y6984900D02*
D03*
Y6832500D02*
D03*
X6347500Y3727400D02*
D03*
Y3575000D02*
D03*
X6357500Y4080000D02*
D03*
Y3927600D02*
D03*
X2660000Y2390100D02*
D03*
Y2542500D02*
D03*
X3205000Y2597500D02*
D03*
Y2445100D02*
D03*
X2702750Y1647250D02*
D03*
Y1799650D02*
D03*
X1142500Y4639900D02*
D03*
Y4487500D02*
D03*
X437500Y1740100D02*
D03*
Y1892500D02*
D03*
X592500Y6837500D02*
D03*
Y6989900D02*
D03*
X1492500Y6830000D02*
D03*
Y6982400D02*
D03*
X3010000Y5230000D02*
D03*
Y5382400D02*
D03*
X3545000Y3684900D02*
D03*
Y3532500D02*
D03*
X2405000Y3847500D02*
D03*
Y3999900D02*
D03*
X2790900Y3576223D02*
D03*
Y3423823D02*
D03*
X3158810Y3829900D02*
D03*
Y3677500D02*
D03*
X5455000Y3692500D02*
D03*
Y3540100D02*
D03*
X5964900Y3891900D02*
D03*
Y3739500D02*
D03*
X3535000Y3920100D02*
D03*
Y4072500D02*
D03*
X4111300Y3883477D02*
D03*
Y3731077D02*
D03*
X5455000Y3925100D02*
D03*
Y4077500D02*
D03*
X6575000Y3732500D02*
D03*
Y3884900D02*
D03*
X1952500Y3925000D02*
D03*
Y3772600D02*
D03*
X7605000Y5997500D02*
D03*
Y5845100D02*
D03*
D104*
X641220Y6635000D02*
D03*
X803780D02*
D03*
X4341280Y6160000D02*
D03*
X4178720D02*
D03*
X5806280Y3522500D02*
D03*
X5643720D02*
D03*
X2851220Y2185000D02*
D03*
X3013780D02*
D03*
X823780Y6157500D02*
D03*
X661220D02*
D03*
X812481Y5577500D02*
D03*
X649921D02*
D03*
X2016280Y4457500D02*
D03*
X1853720D02*
D03*
X1876220Y4265000D02*
D03*
X2038780D02*
D03*
X1376280Y1535000D02*
D03*
X1213720D02*
D03*
X706280Y712500D02*
D03*
X543720D02*
D03*
X3276220Y1150000D02*
D03*
X3438780D02*
D03*
X3783780Y1147500D02*
D03*
X3621220D02*
D03*
X4503720Y1392500D02*
D03*
X4666280D02*
D03*
X5643720Y3712500D02*
D03*
X5806280D02*
D03*
X5643720Y3902500D02*
D03*
X5806280D02*
D03*
X4263720Y3702500D02*
D03*
X4426280D02*
D03*
X4263720Y3912500D02*
D03*
X4426280D02*
D03*
X5643720Y4092500D02*
D03*
X5806280D02*
D03*
X3783720Y4082500D02*
D03*
X3946280D02*
D03*
X3783720Y3702500D02*
D03*
X3946280D02*
D03*
X3783720Y3512500D02*
D03*
X3946280D02*
D03*
X3783720Y3892500D02*
D03*
X3946280D02*
D03*
X7108720Y4310000D02*
D03*
X7271280D02*
D03*
X3778860Y6300000D02*
D03*
X3616300D02*
D03*
X806280Y5382500D02*
D03*
X643720D02*
D03*
X4341280Y5647500D02*
D03*
X4178720D02*
D03*
X3778860Y5560000D02*
D03*
X3616300D02*
D03*
X1953780Y5842500D02*
D03*
X1791220D02*
D03*
X6238720Y5772500D02*
D03*
X6401280D02*
D03*
X6243720Y5965000D02*
D03*
X6406280D02*
D03*
X6241220Y6160000D02*
D03*
X6403780D02*
D03*
D105*
X4641200Y3613600D02*
D03*
Y3678600D02*
D03*
Y3743600D02*
D03*
Y3808600D02*
D03*
Y3873600D02*
D03*
Y3938600D02*
D03*
Y4003600D02*
D03*
Y4068600D02*
D03*
X5231200D02*
D03*
Y4003600D02*
D03*
Y3938600D02*
D03*
Y3873600D02*
D03*
Y3808600D02*
D03*
Y3743600D02*
D03*
Y3678600D02*
D03*
Y3613600D02*
D03*
D106*
X3239900Y6407500D02*
D03*
X3087500D02*
D03*
X5160000Y3445000D02*
D03*
X5007600D02*
D03*
X1930000Y7157500D02*
D03*
X1777600D02*
D03*
X2600100Y5062500D02*
D03*
X2752500D02*
D03*
X655000Y5777500D02*
D03*
X807400D02*
D03*
X1582400Y4982500D02*
D03*
X1430000D02*
D03*
X655000Y5967500D02*
D03*
X807400D02*
D03*
X1582500Y4797500D02*
D03*
X1430100D02*
D03*
X2012500Y4645000D02*
D03*
X1860100D02*
D03*
X1944900Y6222500D02*
D03*
X1792500D02*
D03*
X1722600Y1595000D02*
D03*
X1875000D02*
D03*
X1082400Y7180000D02*
D03*
X930000D02*
D03*
X2205000Y1597500D02*
D03*
X2052600D02*
D03*
X7630000Y4030000D02*
D03*
X7477600D02*
D03*
X6920000Y4310000D02*
D03*
X6767600D02*
D03*
X4825000Y3442500D02*
D03*
X4672600D02*
D03*
X5222500Y4215000D02*
D03*
X5070100D02*
D03*
X7074900Y2917500D02*
D03*
X6922500D02*
D03*
X3621380Y6490000D02*
D03*
X3773780D02*
D03*
X3621380Y5370000D02*
D03*
X3773780D02*
D03*
X1792500Y6032500D02*
D03*
X1944900D02*
D03*
X5660000Y5420000D02*
D03*
X5812400D02*
D03*
D107*
X2079500Y5234700D02*
D03*
X1825500D02*
D03*
D108*
X1952500Y5590300D02*
D03*
D109*
X4220100Y2007500D02*
D03*
X4524900D02*
D03*
D110*
X3617960Y1642500D02*
D03*
Y1842500D02*
D03*
X6537500Y5230000D02*
D03*
Y5430000D02*
D03*
X6282500D02*
D03*
Y5230000D02*
D03*
X7780000Y1785000D02*
D03*
Y1585000D02*
D03*
X8365000Y1790000D02*
D03*
Y1590000D02*
D03*
X8635000Y1790000D02*
D03*
Y1590000D02*
D03*
X8085000Y1792500D02*
D03*
Y1592500D02*
D03*
D111*
X1095301Y6036300D02*
D03*
Y5971300D02*
D03*
Y5906300D02*
D03*
Y5841300D02*
D03*
X1520300Y6036300D02*
D03*
Y5971300D02*
D03*
Y5906300D02*
D03*
Y5841300D02*
D03*
D112*
X805000Y6815000D02*
D03*
Y6910000D02*
D03*
Y7005000D02*
D03*
X1100000D02*
D03*
Y6910000D02*
D03*
Y6815000D02*
D03*
D113*
X4864800Y5680000D02*
D03*
X4560000D02*
D03*
Y6130000D02*
D03*
X4864800D02*
D03*
D114*
X6412500Y6380000D02*
D03*
X6212500D02*
D03*
D115*
X7818000Y6011000D02*
D03*
Y5819000D02*
D03*
X8032000Y5915000D02*
D03*
X4983000Y5910000D02*
D03*
X5197000Y6006000D02*
D03*
Y5814000D02*
D03*
D116*
X3770000Y6007000D02*
D03*
Y5753000D02*
D03*
X3630000D02*
D03*
Y6007000D02*
D03*
X2477500Y6012000D02*
D03*
Y5758000D02*
D03*
X2617500D02*
D03*
Y6012000D02*
D03*
D117*
X3770000Y5920000D02*
D03*
Y5840000D02*
D03*
X3630000D02*
D03*
Y5920000D02*
D03*
X2477500Y5925000D02*
D03*
Y5845000D02*
D03*
X2617500D02*
D03*
Y5925000D02*
D03*
D118*
X2545000Y5235000D02*
D03*
Y5330000D02*
D03*
Y5425000D02*
D03*
X2795000D02*
D03*
Y5330000D02*
D03*
Y5235000D02*
D03*
D119*
X6780000Y3495000D02*
D03*
X6845000D02*
D03*
X6910000D02*
D03*
X6975000D02*
D03*
X7040000D02*
D03*
X7105000D02*
D03*
X7170000D02*
D03*
X6780000Y4085000D02*
D03*
X6845000D02*
D03*
X6910000D02*
D03*
X6975000D02*
D03*
X7040000D02*
D03*
X7105000D02*
D03*
X7170000D02*
D03*
D120*
X433500Y1494000D02*
D03*
X941500D02*
D03*
Y986000D02*
D03*
X433500D02*
D03*
D121*
X6082500Y2505000D02*
D03*
X5882500D02*
D03*
X6227500Y6757500D02*
D03*
X6027500D02*
D03*
X6085000Y2262500D02*
D03*
X5885000D02*
D03*
X6660000Y6757500D02*
D03*
X6460000D02*
D03*
D122*
X5817500Y5635000D02*
D03*
X5752500D02*
D03*
X5687500D02*
D03*
X5622500D02*
D03*
X5557500D02*
D03*
X5492500D02*
D03*
X5427500D02*
D03*
X5362500D02*
D03*
Y6225000D02*
D03*
X5427500D02*
D03*
X5492500D02*
D03*
X5557500D02*
D03*
X5622500D02*
D03*
X5687500D02*
D03*
X5752500D02*
D03*
X5817500D02*
D03*
X7005000Y6230000D02*
D03*
X7070000D02*
D03*
X7135000D02*
D03*
X7200000D02*
D03*
X7265000D02*
D03*
X7330000D02*
D03*
X7395000D02*
D03*
X7460000D02*
D03*
Y5640000D02*
D03*
X7395000D02*
D03*
X7330000D02*
D03*
X7265000D02*
D03*
X7200000D02*
D03*
X7135000D02*
D03*
X7070000D02*
D03*
X7005000D02*
D03*
D123*
X740000Y2716000D02*
D03*
Y2970000D02*
D03*
D124*
Y3224000D02*
D03*
D125*
X8306000Y4688000D02*
D03*
Y716000D02*
D03*
Y2702000D02*
D03*
Y6674000D02*
D03*
D126*
X8560000Y4942000D02*
D03*
Y4434000D02*
D03*
X8052000Y4942000D02*
D03*
Y4434000D02*
D03*
Y462000D02*
D03*
Y970000D02*
D03*
X8560000Y462000D02*
D03*
Y970000D02*
D03*
X8052000Y2448000D02*
D03*
Y2956000D02*
D03*
X8560000Y2448000D02*
D03*
Y2956000D02*
D03*
X8052000Y6420000D02*
D03*
Y6928000D02*
D03*
X8560000Y6420000D02*
D03*
Y6928000D02*
D03*
D127*
X5895001Y513490D02*
D03*
X6395000D02*
D03*
D128*
X6894999D02*
D03*
D129*
X2822000Y7330000D02*
D03*
X4540000Y7320000D02*
D03*
X6628000Y7330000D02*
D03*
X7824000D02*
D03*
X5694000Y7320000D02*
D03*
D130*
X3076000Y7330000D02*
D03*
X3330000D02*
D03*
X3707500Y6937500D02*
D03*
X5882500Y4680000D02*
D03*
X4612500Y2333500D02*
D03*
Y2587500D02*
D03*
X2465000Y6862500D02*
D03*
X5452500Y1762500D02*
D03*
X3340000Y5170000D02*
D03*
X2912500Y1332500D02*
D03*
X4267500Y3227500D02*
D03*
X3475000Y2930000D02*
D03*
X4210000Y4450000D02*
D03*
X3120000Y4390000D02*
D03*
X6302500Y2927500D02*
D03*
X7367500Y2687500D02*
D03*
X5297500Y4810000D02*
D03*
X795000Y5095000D02*
D03*
X2342500Y5057500D02*
D03*
X5130000Y6280000D02*
D03*
X4580000Y6440000D02*
D03*
X2645000Y6312500D02*
D03*
X5140000Y5400000D02*
D03*
X2495000Y4305000D02*
D03*
X4032000Y7320000D02*
D03*
X4286000D02*
D03*
X6120000Y7330000D02*
D03*
X6374000D02*
D03*
X7316000D02*
D03*
X7570000D02*
D03*
X5186000Y7320000D02*
D03*
X5440000D02*
D03*
D131*
X4857500Y710986D02*
D03*
D132*
X5057500D02*
D03*
D133*
X602500Y392500D02*
D03*
X6492500Y4880000D02*
D03*
X4322500Y5162500D02*
D03*
X575000Y3982500D02*
D03*
X1420000Y6517500D02*
D03*
X7402500Y1675000D02*
D03*
D134*
X4612500Y2841500D02*
D03*
%TF.MD5,e39a21186a63e47a2eaf1e228c137a5f*%
M02*
