%TF.GenerationSoftware,Altium Limited,Altium Designer,25.0.2 (28)*%
G04 Layer_Color=8421504*
%FSLAX45Y45*%
%MOMM*%
%TF.SameCoordinates,6CA9225A-D19C-4A09-8B82-60FEBDA2364A*%
%TF.FilePolarity,Positive*%
%TF.FileFunction,Paste,Top*%
%TF.Part,Single*%
G01*
G75*
%TA.AperFunction,SMDPad,CuDef*%
%ADD10R,0.88900X0.81280*%
%ADD11R,0.83820X0.76200*%
%ADD12R,0.30000X0.60000*%
%ADD13R,0.75000X0.25000*%
%ADD14R,0.75000X0.20000*%
%ADD15R,0.81280X0.88900*%
%ADD16R,0.34077X1.35543*%
G04:AMPARAMS|DCode=17|XSize=1.35543mm|YSize=0.34077mm|CornerRadius=0.17038mm|HoleSize=0mm|Usage=FLASHONLY|Rotation=270.000|XOffset=0mm|YOffset=0mm|HoleType=Round|Shape=RoundedRectangle|*
%AMROUNDEDRECTD17*
21,1,1.35543,0.00000,0,0,270.0*
21,1,1.01467,0.34077,0,0,270.0*
1,1,0.34077,0.00000,-0.50733*
1,1,0.34077,0.00000,0.50733*
1,1,0.34077,0.00000,0.50733*
1,1,0.34077,0.00000,-0.50733*
%
%ADD17ROUNDEDRECTD17*%
%ADD18O,1.40000X0.45000*%
%ADD19R,0.76200X0.83820*%
%ADD20R,1.30000X2.00000*%
%ADD21R,2.00000X2.00000*%
%ADD22R,1.52400X1.52400*%
%ADD23R,1.39700X1.10000*%
%ADD24O,2.10000X0.45000*%
G04:AMPARAMS|DCode=25|XSize=0.48583mm|YSize=1.35523mm|CornerRadius=0.24292mm|HoleSize=0mm|Usage=FLASHONLY|Rotation=90.000|XOffset=0mm|YOffset=0mm|HoleType=Round|Shape=RoundedRectangle|*
%AMROUNDEDRECTD25*
21,1,0.48583,0.86940,0,0,90.0*
21,1,0.00000,1.35523,0,0,90.0*
1,1,0.48583,0.43470,0.00000*
1,1,0.48583,0.43470,0.00000*
1,1,0.48583,-0.43470,0.00000*
1,1,0.48583,-0.43470,0.00000*
%
%ADD25ROUNDEDRECTD25*%
G04:AMPARAMS|DCode=26|XSize=1.35523mm|YSize=0.48583mm|CornerRadius=0.24292mm|HoleSize=0mm|Usage=FLASHONLY|Rotation=90.000|XOffset=0mm|YOffset=0mm|HoleType=Round|Shape=RoundedRectangle|*
%AMROUNDEDRECTD26*
21,1,1.35523,0.00000,0,0,90.0*
21,1,0.86940,0.48583,0,0,90.0*
1,1,0.48583,0.00000,0.43470*
1,1,0.48583,0.00000,-0.43470*
1,1,0.48583,0.00000,-0.43470*
1,1,0.48583,0.00000,0.43470*
%
%ADD26ROUNDEDRECTD26*%
%ADD27R,0.48583X1.35523*%
%ADD28R,1.17230X0.50800*%
G04:AMPARAMS|DCode=29|XSize=0.65mm|YSize=1.2mm|CornerRadius=0.04875mm|HoleSize=0mm|Usage=FLASHONLY|Rotation=270.000|XOffset=0mm|YOffset=0mm|HoleType=Round|Shape=RoundedRectangle|*
%AMROUNDEDRECTD29*
21,1,0.65000,1.10250,0,0,270.0*
21,1,0.55250,1.20000,0,0,270.0*
1,1,0.09750,-0.55125,-0.27625*
1,1,0.09750,-0.55125,0.27625*
1,1,0.09750,0.55125,0.27625*
1,1,0.09750,0.55125,-0.27625*
%
%ADD29ROUNDEDRECTD29*%
%ADD30R,1.95543X0.42077*%
%ADD31R,1.10000X1.65000*%
%ADD32R,1.10000X1.30000*%
%ADD33R,1.21000X0.61000*%
%ADD34R,0.80640X0.37560*%
%ADD35R,1.85420X1.54940*%
%ADD36R,1.85420X1.39700*%
%ADD37R,0.83820X1.24460*%
%ADD38R,0.81280X1.24460*%
%ADD39R,0.76200X1.24460*%
%ADD40R,0.70000X0.64000*%
%ADD41R,0.70000X0.50000*%
%ADD42R,0.83720X0.61120*%
%ADD43O,0.60000X0.42000*%
%ADD44R,0.60000X0.42000*%
%ADD45R,1.75260X2.48920*%
%ADD46R,0.80800X0.25480*%
%ADD47R,1.15000X0.60000*%
G04:AMPARAMS|DCode=48|XSize=0.45mm|YSize=1.4mm|CornerRadius=0.0495mm|HoleSize=0mm|Usage=FLASHONLY|Rotation=180.000|XOffset=0mm|YOffset=0mm|HoleType=Round|Shape=RoundedRectangle|*
%AMROUNDEDRECTD48*
21,1,0.45000,1.30100,0,0,180.0*
21,1,0.35100,1.40000,0,0,180.0*
1,1,0.09900,-0.17550,0.65050*
1,1,0.09900,0.17550,0.65050*
1,1,0.09900,0.17550,-0.65050*
1,1,0.09900,-0.17550,-0.65050*
%
%ADD48ROUNDEDRECTD48*%
%ADD49R,0.60000X1.00000*%
%ADD50R,2.00000X2.50000*%
%ADD51R,1.10000X1.39700*%
%ADD52O,0.45000X1.40000*%
%ADD135R,2.03309X2.53309*%
D10*
X3342500Y3688780D02*
D03*
Y3526220D02*
D03*
X6700000Y3106220D02*
D03*
Y3268780D02*
D03*
X1600000Y5483720D02*
D03*
Y5646280D02*
D03*
X7287500Y3103720D02*
D03*
Y3266280D02*
D03*
X6582500Y4243780D02*
D03*
Y4081220D02*
D03*
X4995000Y1753780D02*
D03*
Y1591220D02*
D03*
X6145000Y3913720D02*
D03*
Y4076280D02*
D03*
X6140000Y3728780D02*
D03*
Y3566220D02*
D03*
X6892500Y3101220D02*
D03*
Y3263780D02*
D03*
X7097500Y3266280D02*
D03*
Y3103720D02*
D03*
X7650000Y4218720D02*
D03*
Y4381280D02*
D03*
X7460000D02*
D03*
Y4218720D02*
D03*
X3345000Y4083780D02*
D03*
Y3921220D02*
D03*
D11*
X2970000Y3425100D02*
D03*
Y3577500D02*
D03*
X1412500Y5642500D02*
D03*
Y5490100D02*
D03*
X4837500Y2084900D02*
D03*
Y1932500D02*
D03*
X3402500Y1805000D02*
D03*
Y1652600D02*
D03*
X4217500Y1617600D02*
D03*
Y1770000D02*
D03*
X1310000Y6984900D02*
D03*
Y6832500D02*
D03*
X6347500Y3727400D02*
D03*
Y3575000D02*
D03*
X6357500Y4080000D02*
D03*
Y3927600D02*
D03*
X2660000Y2390100D02*
D03*
Y2542500D02*
D03*
X3205000Y2597500D02*
D03*
Y2445100D02*
D03*
X2702750Y1647250D02*
D03*
Y1799650D02*
D03*
X1142500Y4639900D02*
D03*
Y4487500D02*
D03*
X437500Y1740100D02*
D03*
Y1892500D02*
D03*
X592500Y6837500D02*
D03*
Y6989900D02*
D03*
X1492500Y6830000D02*
D03*
Y6982400D02*
D03*
X3010000Y5230000D02*
D03*
Y5382400D02*
D03*
X3545000Y3684900D02*
D03*
Y3532500D02*
D03*
X2405000Y3847500D02*
D03*
Y3999900D02*
D03*
X2790900Y3576223D02*
D03*
Y3423823D02*
D03*
X3158810Y3829900D02*
D03*
Y3677500D02*
D03*
X5455000Y3692500D02*
D03*
Y3540100D02*
D03*
X5964900Y3891900D02*
D03*
Y3739500D02*
D03*
X3535000Y3920100D02*
D03*
Y4072500D02*
D03*
X4111300Y3883477D02*
D03*
Y3731077D02*
D03*
X5455000Y3925100D02*
D03*
Y4077500D02*
D03*
X6575000Y3732500D02*
D03*
Y3884900D02*
D03*
X1952500Y3925000D02*
D03*
Y3772600D02*
D03*
X7605000Y5997500D02*
D03*
Y5845100D02*
D03*
D12*
X2845000Y3870000D02*
D03*
Y3690000D02*
D03*
D13*
X2932500Y3829992D02*
D03*
Y3729992D02*
D03*
X2757500D02*
D03*
X2755000Y3830000D02*
D03*
D14*
X2932500Y3779992D02*
D03*
X2757500D02*
D03*
D15*
X641220Y6635000D02*
D03*
X803780D02*
D03*
X4341280Y6160000D02*
D03*
X4178720D02*
D03*
X5806280Y3522500D02*
D03*
X5643720D02*
D03*
X2851220Y2185000D02*
D03*
X3013780D02*
D03*
X823780Y6157500D02*
D03*
X661220D02*
D03*
X812481Y5577500D02*
D03*
X649921D02*
D03*
X2016280Y4457500D02*
D03*
X1853720D02*
D03*
X1876220Y4265000D02*
D03*
X2038780D02*
D03*
X1376280Y1535000D02*
D03*
X1213720D02*
D03*
X706280Y712500D02*
D03*
X543720D02*
D03*
X3276220Y1150000D02*
D03*
X3438780D02*
D03*
X3783780Y1147500D02*
D03*
X3621220D02*
D03*
X4503720Y1392500D02*
D03*
X4666280D02*
D03*
X5643720Y3712500D02*
D03*
X5806280D02*
D03*
X5643720Y3902500D02*
D03*
X5806280D02*
D03*
X4263720Y3702500D02*
D03*
X4426280D02*
D03*
X4263720Y3912500D02*
D03*
X4426280D02*
D03*
X5643720Y4092500D02*
D03*
X5806280D02*
D03*
X3783720Y4082500D02*
D03*
X3946280D02*
D03*
X3783720Y3702500D02*
D03*
X3946280D02*
D03*
X3783720Y3512500D02*
D03*
X3946280D02*
D03*
X3783720Y3892500D02*
D03*
X3946280D02*
D03*
X7108720Y4310000D02*
D03*
X7271280D02*
D03*
X3778860Y6300000D02*
D03*
X3616300D02*
D03*
X806280Y5382500D02*
D03*
X643720D02*
D03*
X4341280Y5647500D02*
D03*
X4178720D02*
D03*
X3778860Y5560000D02*
D03*
X3616300D02*
D03*
X1953780Y5842500D02*
D03*
X1791220D02*
D03*
X6238720Y5772500D02*
D03*
X6401280D02*
D03*
X6243720Y5965000D02*
D03*
X6406280D02*
D03*
X6241220Y6160000D02*
D03*
X6403780D02*
D03*
D16*
X3425000Y6157538D02*
D03*
D17*
X3360000D02*
D03*
X3295000D02*
D03*
X3230000D02*
D03*
X3165000D02*
D03*
X3100000D02*
D03*
X3035000D02*
D03*
Y5602461D02*
D03*
X3100000D02*
D03*
X3165000D02*
D03*
X3230000D02*
D03*
X3295000D02*
D03*
X3360000D02*
D03*
X3425000D02*
D03*
D18*
X4641200Y3613600D02*
D03*
Y3678600D02*
D03*
Y3743600D02*
D03*
Y3808600D02*
D03*
Y3873600D02*
D03*
Y3938600D02*
D03*
Y4003600D02*
D03*
Y4068600D02*
D03*
X5231200D02*
D03*
Y4003600D02*
D03*
Y3938600D02*
D03*
Y3873600D02*
D03*
Y3808600D02*
D03*
Y3743600D02*
D03*
Y3678600D02*
D03*
Y3613600D02*
D03*
D19*
X3239900Y6407500D02*
D03*
X3087500D02*
D03*
X5160000Y3445000D02*
D03*
X5007600D02*
D03*
X1930000Y7157500D02*
D03*
X1777600D02*
D03*
X2600100Y5062500D02*
D03*
X2752500D02*
D03*
X655000Y5777500D02*
D03*
X807400D02*
D03*
X1582400Y4982500D02*
D03*
X1430000D02*
D03*
X655000Y5967500D02*
D03*
X807400D02*
D03*
X1582500Y4797500D02*
D03*
X1430100D02*
D03*
X2012500Y4645000D02*
D03*
X1860100D02*
D03*
X1944900Y6222500D02*
D03*
X1792500D02*
D03*
X1722600Y1595000D02*
D03*
X1875000D02*
D03*
X1082400Y7180000D02*
D03*
X930000D02*
D03*
X2205000Y1597500D02*
D03*
X2052600D02*
D03*
X7630000Y4030000D02*
D03*
X7477600D02*
D03*
X6920000Y4310000D02*
D03*
X6767600D02*
D03*
X4825000Y3442500D02*
D03*
X4672600D02*
D03*
X5222500Y4215000D02*
D03*
X5070100D02*
D03*
X7074900Y2917500D02*
D03*
X6922500D02*
D03*
X3621380Y6490000D02*
D03*
X3773780D02*
D03*
X3621380Y5370000D02*
D03*
X3773780D02*
D03*
X1792500Y6032500D02*
D03*
X1944900D02*
D03*
X5660000Y5420000D02*
D03*
X5812400D02*
D03*
D20*
X2079500Y5234700D02*
D03*
X1825500D02*
D03*
D21*
X1952500Y5590300D02*
D03*
D22*
X4220100Y2007500D02*
D03*
X4524900D02*
D03*
D23*
X3617960Y1642500D02*
D03*
Y1842500D02*
D03*
X6537500Y5230000D02*
D03*
Y5430000D02*
D03*
X6282500D02*
D03*
Y5230000D02*
D03*
X7780000Y1785000D02*
D03*
Y1585000D02*
D03*
X8365000Y1790000D02*
D03*
Y1590000D02*
D03*
X8635000Y1790000D02*
D03*
Y1590000D02*
D03*
X8085000Y1792500D02*
D03*
Y1592500D02*
D03*
D24*
X1095301Y6036300D02*
D03*
Y5971300D02*
D03*
Y5906300D02*
D03*
Y5841300D02*
D03*
X1520300Y6036300D02*
D03*
Y5971300D02*
D03*
Y5906300D02*
D03*
Y5841300D02*
D03*
D25*
X1399300Y2030000D02*
D03*
Y2110000D02*
D03*
Y2190000D02*
D03*
Y1950000D02*
D03*
Y2350000D02*
D03*
Y2430000D02*
D03*
Y2510000D02*
D03*
Y2270000D02*
D03*
X2239300Y1950000D02*
D03*
Y2030000D02*
D03*
Y2110000D02*
D03*
Y2190000D02*
D03*
Y2270000D02*
D03*
Y2350000D02*
D03*
Y2430000D02*
D03*
Y2510000D02*
D03*
D26*
X2019300Y1810000D02*
D03*
X1939300D02*
D03*
X1859300D02*
D03*
X1779300D02*
D03*
X1699300D02*
D03*
X1619300D02*
D03*
X2099300D02*
D03*
X1539299Y2650000D02*
D03*
X1619300D02*
D03*
X1699299D02*
D03*
X1779299D02*
D03*
X1859300D02*
D03*
X1939299D02*
D03*
X2019299D02*
D03*
X2099299D02*
D03*
D27*
X1539300Y1810000D02*
D03*
D28*
X3201245Y1634999D02*
D03*
Y1729999D02*
D03*
Y1824999D02*
D03*
X2908755D02*
D03*
Y1634999D02*
D03*
X1713755Y6990000D02*
D03*
Y6895000D02*
D03*
Y6800000D02*
D03*
X2006245D02*
D03*
Y6990000D02*
D03*
X4438755Y1577500D02*
D03*
Y1767500D02*
D03*
X4731245D02*
D03*
Y1672500D02*
D03*
Y1577500D02*
D03*
D29*
X805000Y6815000D02*
D03*
Y6910000D02*
D03*
Y7005000D02*
D03*
X1100000D02*
D03*
Y6910000D02*
D03*
Y6815000D02*
D03*
D30*
X1710038Y3930000D02*
D03*
Y3865000D02*
D03*
Y3800000D02*
D03*
Y3735000D02*
D03*
Y3670000D02*
D03*
Y3605000D02*
D03*
Y3540000D02*
D03*
X1134962D02*
D03*
Y3605000D02*
D03*
Y3670000D02*
D03*
Y3735000D02*
D03*
Y3800000D02*
D03*
Y3865000D02*
D03*
Y3930000D02*
D03*
D31*
X4864800Y5680000D02*
D03*
X4560000D02*
D03*
Y6130000D02*
D03*
X4864800D02*
D03*
D32*
X6412500Y6380000D02*
D03*
X6212500D02*
D03*
D33*
X7818000Y6011000D02*
D03*
Y5819000D02*
D03*
X8032000Y5915000D02*
D03*
X4983000Y5910000D02*
D03*
X5197000Y6006000D02*
D03*
Y5814000D02*
D03*
D34*
X3636840Y1405000D02*
D03*
X3413160D02*
D03*
D35*
X4042496Y382177D02*
D03*
X3017500D02*
D03*
D36*
X4042500Y740164D02*
D03*
X3017500D02*
D03*
D37*
X3805000Y745549D02*
D03*
X3255000D02*
D03*
D38*
X3682000D02*
D03*
X3378000D02*
D03*
D39*
X3580000D02*
D03*
X3480000D02*
D03*
D40*
X3770000Y6007000D02*
D03*
Y5753000D02*
D03*
X3630000D02*
D03*
Y6007000D02*
D03*
X2477500Y6012000D02*
D03*
Y5758000D02*
D03*
X2617500D02*
D03*
Y6012000D02*
D03*
D41*
X3770000Y5920000D02*
D03*
Y5840000D02*
D03*
X3630000D02*
D03*
Y5920000D02*
D03*
X2477500Y5925000D02*
D03*
Y5845000D02*
D03*
X2617500D02*
D03*
Y5925000D02*
D03*
D42*
X4136810Y5930000D02*
D03*
Y5825000D02*
D03*
X4308190D02*
D03*
Y5930000D02*
D03*
D43*
X1927500Y1032500D02*
D03*
Y967500D02*
D03*
Y902500D02*
D03*
X1737500D02*
D03*
Y967500D02*
D03*
D44*
Y1032500D02*
D03*
D45*
X1505000Y4527500D02*
D03*
D46*
X1649540Y4627500D02*
D03*
Y4577500D02*
D03*
Y4527500D02*
D03*
Y4477500D02*
D03*
Y4427500D02*
D03*
X1360460D02*
D03*
Y4477500D02*
D03*
Y4527500D02*
D03*
Y4577500D02*
D03*
Y4627500D02*
D03*
D47*
X2545000Y5235000D02*
D03*
Y5330000D02*
D03*
Y5425000D02*
D03*
X2795000D02*
D03*
Y5330000D02*
D03*
Y5235000D02*
D03*
D48*
X6780000Y3495000D02*
D03*
X6845000D02*
D03*
X6910000D02*
D03*
X6975000D02*
D03*
X7040000D02*
D03*
X7105000D02*
D03*
X7170000D02*
D03*
X6780000Y4085000D02*
D03*
X6845000D02*
D03*
X6910000D02*
D03*
X6975000D02*
D03*
X7040000D02*
D03*
X7105000D02*
D03*
X7170000D02*
D03*
D49*
X2840000Y2385000D02*
D03*
X2935000D02*
D03*
X3030000D02*
D03*
Y2660000D02*
D03*
X2935000D02*
D03*
X2840000D02*
D03*
D50*
X433500Y1494000D02*
D03*
X941500D02*
D03*
Y986000D02*
D03*
D51*
X6082500Y2505000D02*
D03*
X5882500D02*
D03*
X6227500Y6757500D02*
D03*
X6027500D02*
D03*
X6085000Y2262500D02*
D03*
X5885000D02*
D03*
X6660000Y6757500D02*
D03*
X6460000D02*
D03*
D52*
X5817500Y5635000D02*
D03*
X5752500D02*
D03*
X5687500D02*
D03*
X5622500D02*
D03*
X5557500D02*
D03*
X5492500D02*
D03*
X5427500D02*
D03*
X5362500D02*
D03*
Y6225000D02*
D03*
X5427500D02*
D03*
X5492500D02*
D03*
X5557500D02*
D03*
X5622500D02*
D03*
X5687500D02*
D03*
X5752500D02*
D03*
X5817500D02*
D03*
X7005000Y6230000D02*
D03*
X7070000D02*
D03*
X7135000D02*
D03*
X7200000D02*
D03*
X7265000D02*
D03*
X7330000D02*
D03*
X7395000D02*
D03*
X7460000D02*
D03*
Y5640000D02*
D03*
X7395000D02*
D03*
X7330000D02*
D03*
X7265000D02*
D03*
X7200000D02*
D03*
X7135000D02*
D03*
X7070000D02*
D03*
X7005000D02*
D03*
D135*
X433500Y986000D02*
D03*
%TF.MD5,fde7a54744834cd361a3d8a22bfc2dfe*%
M02*
