%TF.GenerationSoftware,Altium Limited,Altium Designer,25.0.2 (28)*%
G04 Layer_Color=128*
%FSLAX45Y45*%
%MOMM*%
%TF.SameCoordinates,0480068D-3644-45EB-8839-341CBE562275*%
%TF.FilePolarity,Positive*%
%TF.FileFunction,Drillmap*%
%TF.Part,Single*%
G01*
G75*
%TA.AperFunction,NonConductor*%
%ADD91C,0.12700*%
D91*
X699360Y2716000D02*
X780640D01*
X740000Y2675360D02*
Y2756640D01*
X699360Y2970000D02*
X780640D01*
X740000Y2929360D02*
Y3010640D01*
X699360Y3224000D02*
X780640D01*
X740000Y3183360D02*
Y3264640D01*
X2124440Y410000D02*
X2195560D01*
X2160000Y374440D02*
Y445560D01*
X2124440Y283000D02*
X2195560D01*
X2160000Y247440D02*
Y318560D01*
X1997440Y410000D02*
X2068560D01*
X2033000Y374440D02*
Y445560D01*
X1997440Y283000D02*
X2068560D01*
X2033000Y247440D02*
Y318560D01*
X1870440Y410000D02*
X1941560D01*
X1906000Y374440D02*
Y445560D01*
X1870440Y283000D02*
X1941560D01*
X1906000Y247440D02*
Y318560D01*
X1743440Y410000D02*
X1814560D01*
X1779000Y374440D02*
Y445560D01*
X1743440Y283000D02*
X1814560D01*
X1779000Y247440D02*
Y318560D01*
X1616440Y410000D02*
X1687560D01*
X1652000Y374440D02*
Y445560D01*
X1616440Y283000D02*
X1687560D01*
X1652000Y247440D02*
Y318560D01*
X8228500Y4688000D02*
X8383500D01*
X8306000Y4610500D02*
Y4765500D01*
X8477500Y4942000D02*
X8642500D01*
X8560000Y4859500D02*
Y5024500D01*
X8477500Y4434000D02*
X8642500D01*
X8560000Y4351500D02*
Y4516500D01*
X7969500Y4942000D02*
X8134500D01*
X8052000Y4859500D02*
Y5024500D01*
X7969500Y4434000D02*
X8134500D01*
X8052000Y4351500D02*
Y4516500D01*
X5830002Y513490D02*
X5960001D01*
X5895001Y448490D02*
Y578490D01*
X6830000Y513490D02*
X6959999D01*
X6894999Y448490D02*
Y578490D01*
X6330001Y513490D02*
X6460000D01*
X6395000Y448490D02*
Y578490D01*
X2768660Y7330000D02*
X2875340D01*
X2822000Y7276660D02*
Y7383340D01*
X3022660Y7330000D02*
X3129340D01*
X3076000Y7276660D02*
Y7383340D01*
X3276660Y7330000D02*
X3383340D01*
X3330000Y7276660D02*
Y7383340D01*
X4822500Y710986D02*
X4892500D01*
X4857500Y675986D02*
Y745986D01*
X5022500Y710986D02*
X5092500D01*
X5057500Y675986D02*
Y745986D01*
X3654160Y6937500D02*
X3760840D01*
X3707500Y6884160D02*
Y6990840D01*
X522490Y392500D02*
X682510D01*
X602500Y312490D02*
Y472510D01*
X5829160Y4680000D02*
X5935840D01*
X5882500Y4626660D02*
Y4733340D01*
X4559160Y2333500D02*
X4665840D01*
X4612500Y2280160D02*
Y2386840D01*
X4559160Y2587500D02*
X4665840D01*
X4612500Y2534160D02*
Y2640840D01*
X4559160Y2841500D02*
X4665840D01*
X4612500Y2788160D02*
Y2894840D01*
X2411660Y6862500D02*
X2518340D01*
X2465000Y6809160D02*
Y6915840D01*
X5399160Y1762500D02*
X5505840D01*
X5452500Y1709160D02*
Y1815840D01*
X3286660Y5170000D02*
X3393340D01*
X3340000Y5116660D02*
Y5223340D01*
X2859160Y1332500D02*
X2965840D01*
X2912500Y1279160D02*
Y1385840D01*
X4214160Y3227500D02*
X4320840D01*
X4267500Y3174160D02*
Y3280840D01*
X3421660Y2930000D02*
X3528340D01*
X3475000Y2876660D02*
Y2983340D01*
X4156660Y4450000D02*
X4263340D01*
X4210000Y4396660D02*
Y4503340D01*
X3066660Y4390000D02*
X3173340D01*
X3120000Y4336660D02*
Y4443340D01*
X6249160Y2927500D02*
X6355840D01*
X6302500Y2874160D02*
Y2980840D01*
X7314160Y2687500D02*
X7420840D01*
X7367500Y2634160D02*
Y2740840D01*
X5244160Y4810000D02*
X5350840D01*
X5297500Y4756660D02*
Y4863340D01*
X7969500Y462000D02*
X8134500D01*
X8052000Y379500D02*
Y544500D01*
X7969500Y970000D02*
X8134500D01*
X8052000Y887500D02*
Y1052500D01*
X8477500Y462000D02*
X8642500D01*
X8560000Y379500D02*
Y544500D01*
X8477500Y970000D02*
X8642500D01*
X8560000Y887500D02*
Y1052500D01*
X8228500Y716000D02*
X8383500D01*
X8306000Y638500D02*
Y793500D01*
X7969500Y2448000D02*
X8134500D01*
X8052000Y2365500D02*
Y2530500D01*
X7969500Y2956000D02*
X8134500D01*
X8052000Y2873500D02*
Y3038500D01*
X8477500Y2448000D02*
X8642500D01*
X8560000Y2365500D02*
Y2530500D01*
X8477500Y2956000D02*
X8642500D01*
X8560000Y2873500D02*
Y3038500D01*
X8228500Y2702000D02*
X8383500D01*
X8306000Y2624500D02*
Y2779500D01*
X7969500Y6420000D02*
X8134500D01*
X8052000Y6337500D02*
Y6502500D01*
X7969500Y6928000D02*
X8134500D01*
X8052000Y6845500D02*
Y7010500D01*
X8477500Y6420000D02*
X8642500D01*
X8560000Y6337500D02*
Y6502500D01*
X8477500Y6928000D02*
X8642500D01*
X8560000Y6845500D02*
Y7010500D01*
X8228500Y6674000D02*
X8383500D01*
X8306000Y6596500D02*
Y6751500D01*
X741660Y5095000D02*
X848340D01*
X795000Y5041660D02*
Y5148340D01*
X6412490Y4880000D02*
X6572510D01*
X6492500Y4799990D02*
Y4960010D01*
X4242490Y5162500D02*
X4402510D01*
X4322500Y5082490D02*
Y5242510D01*
X494990Y3982500D02*
X655010D01*
X575000Y3902490D02*
Y4062510D01*
X1339990Y6517500D02*
X1500010D01*
X1420000Y6437490D02*
Y6597510D01*
X7322490Y1675000D02*
X7482510D01*
X7402500Y1594990D02*
Y1755010D01*
X2289160Y5057500D02*
X2395840D01*
X2342500Y5004160D02*
Y5110840D01*
X5076660Y6280000D02*
X5183340D01*
X5130000Y6226660D02*
Y6333340D01*
X4526660Y6440000D02*
X4633340D01*
X4580000Y6386660D02*
Y6493340D01*
X2591660Y6312500D02*
X2698340D01*
X2645000Y6259160D02*
Y6365840D01*
X5086660Y5400000D02*
X5193340D01*
X5140000Y5346660D02*
Y5453340D01*
X2441660Y4305000D02*
X2548340D01*
X2495000Y4251660D02*
Y4358340D01*
X3978660Y7320000D02*
X4085340D01*
X4032000Y7266660D02*
Y7373340D01*
X4232660Y7320000D02*
X4339340D01*
X4286000Y7266660D02*
Y7373340D01*
X4486660Y7320000D02*
X4593340D01*
X4540000Y7266660D02*
Y7373340D01*
X6066660Y7330000D02*
X6173340D01*
X6120000Y7276660D02*
Y7383340D01*
X6320660Y7330000D02*
X6427340D01*
X6374000Y7276660D02*
Y7383340D01*
X6574660Y7330000D02*
X6681340D01*
X6628000Y7276660D02*
Y7383340D01*
X7262660Y7330000D02*
X7369340D01*
X7316000Y7276660D02*
Y7383340D01*
X7516660Y7330000D02*
X7623340D01*
X7570000Y7276660D02*
Y7383340D01*
X7770660Y7330000D02*
X7877340D01*
X7824000Y7276660D02*
Y7383340D01*
X5132660Y7320000D02*
X5239340D01*
X5186000Y7266660D02*
Y7373340D01*
X5386660Y7320000D02*
X5493340D01*
X5440000Y7266660D02*
Y7373340D01*
X5640660Y7320000D02*
X5747340D01*
X5694000Y7266660D02*
Y7373340D01*
X1517500Y6317500D02*
X1547500D01*
X1532500Y6302500D02*
Y6332500D01*
X1257500Y6320000D02*
X1287500D01*
X1272500Y6305000D02*
Y6335000D01*
X2955000Y3352500D02*
X2985000D01*
X2970000Y3337500D02*
Y3367500D01*
X4027500Y7072500D02*
X4057500D01*
X4042500Y7057500D02*
Y7087500D01*
X5762500Y5825000D02*
X5792500D01*
X5777500Y5810000D02*
Y5840000D01*
X1307500Y5640000D02*
X1337500D01*
X1322500Y5625000D02*
Y5655000D01*
X1465000Y5080000D02*
X1495000D01*
X1480000Y5065000D02*
Y5095000D01*
X1647500Y967500D02*
X1677500D01*
X1662500Y952500D02*
Y982500D01*
X4407500Y1395000D02*
X4437500D01*
X4422500Y1380000D02*
Y1410000D01*
X4210000Y1542500D02*
X4240000D01*
X4225000Y1527500D02*
Y1557500D01*
X6832500Y2920000D02*
X6862500D01*
X6847500Y2905000D02*
Y2935000D01*
X2567500Y2542500D02*
X2597500D01*
X2582500Y2527500D02*
Y2557500D01*
X3190000Y2367500D02*
X3220000D01*
X3205000Y2352500D02*
Y2382500D01*
X1080000Y6097500D02*
X1110000D01*
X1095000Y6082500D02*
Y6112500D01*
X767500Y710000D02*
X797500D01*
X782500Y695000D02*
Y725000D01*
X4998203Y3523182D02*
X5028203D01*
X5013203Y3508182D02*
Y3538182D01*
X6905000Y3360000D02*
X6935000D01*
X6920000Y3345000D02*
Y3375000D01*
X1845000Y1912500D02*
X1875000D01*
X1860000Y1897500D02*
Y1927500D01*
X1937500Y3840000D02*
X1967500D01*
X1952500Y3825000D02*
Y3855000D01*
X2830000Y3785000D02*
X2860000D01*
X2845000Y3770000D02*
Y3800000D01*
X8394995Y5549997D02*
X8424995D01*
X8409995Y5534997D02*
Y5564997D01*
X8544995Y5249997D02*
X8574995D01*
X8559995Y5234997D02*
Y5264997D01*
X8544995Y4649997D02*
X8574995D01*
X8559995Y4634997D02*
Y4664997D01*
X8394995Y4349997D02*
X8424995D01*
X8409995Y4334997D02*
Y4364997D01*
X8544995Y4049997D02*
X8574995D01*
X8559995Y4034997D02*
Y4064997D01*
X8394995Y3749997D02*
X8424995D01*
X8409995Y3734997D02*
Y3764997D01*
X8544995Y3449997D02*
X8574995D01*
X8559995Y3434997D02*
Y3464997D01*
X8394995Y3149998D02*
X8424995D01*
X8409995Y3134998D02*
Y3164997D01*
X8394995Y2549998D02*
X8424995D01*
X8409995Y2534998D02*
Y2564998D01*
X8244995Y5849997D02*
X8274995D01*
X8259995Y5834997D02*
Y5864997D01*
X8244995Y5249997D02*
X8274995D01*
X8259995Y5234997D02*
Y5264997D01*
X8244995Y4049997D02*
X8274995D01*
X8259995Y4034997D02*
Y4064997D01*
X8094995Y3749997D02*
X8124995D01*
X8109995Y3734997D02*
Y3764997D01*
X8094995Y3149998D02*
X8124995D01*
X8109995Y3134998D02*
Y3164997D01*
X7794995Y6149997D02*
X7824995D01*
X7809995Y6134997D02*
Y6164997D01*
X7794995Y5549997D02*
X7824995D01*
X7809995Y5534997D02*
Y5564997D01*
X7944995Y4649997D02*
X7974995D01*
X7959995Y4634997D02*
Y4664997D01*
X7944995Y4049997D02*
X7974995D01*
X7959995Y4034997D02*
Y4064997D01*
X7794995Y3749997D02*
X7824995D01*
X7809995Y3734997D02*
Y3764997D01*
X7944995Y3449997D02*
X7974995D01*
X7959995Y3434997D02*
Y3464997D01*
X7794995Y3149998D02*
X7824995D01*
X7809995Y3134998D02*
Y3164997D01*
X7794995Y2549998D02*
X7824995D01*
X7809995Y2534998D02*
Y2564998D01*
X7644995Y5249997D02*
X7674995D01*
X7659995Y5234997D02*
Y5264997D01*
X7494995Y4949997D02*
X7524995D01*
X7509995Y4934997D02*
Y4964997D01*
X7644995Y4649997D02*
X7674995D01*
X7659995Y4634997D02*
Y4664997D01*
X7644995Y3449997D02*
X7674995D01*
X7659995Y3434997D02*
Y3464997D01*
X7494995Y3149998D02*
X7524995D01*
X7509995Y3134998D02*
Y3164997D01*
X7644995Y2849998D02*
X7674995D01*
X7659995Y2834998D02*
Y2864998D01*
X7494995Y2549998D02*
X7524995D01*
X7509995Y2534998D02*
Y2564998D01*
X7194995Y4949997D02*
X7224995D01*
X7209995Y4934997D02*
Y4964997D01*
X7344995Y4649997D02*
X7374995D01*
X7359995Y4634997D02*
Y4664997D01*
X7194995Y3749997D02*
X7224995D01*
X7209995Y3734997D02*
Y3764997D01*
X7344995Y3449997D02*
X7374995D01*
X7359995Y3434997D02*
Y3464997D01*
X7194995Y3149998D02*
X7224995D01*
X7209995Y3134998D02*
Y3164997D01*
X7194995Y2549998D02*
X7224995D01*
X7209995Y2534998D02*
Y2564998D01*
X6894995Y4949997D02*
X6924995D01*
X6909995Y4934997D02*
Y4964997D01*
X7044995Y2849998D02*
X7074995D01*
X7059995Y2834998D02*
Y2864998D01*
X6870000Y3947500D02*
X6900000D01*
X6885000Y3932500D02*
Y3962500D01*
X6655000Y3880000D02*
X6685000D01*
X6670000Y3865000D02*
Y3895000D01*
X7095000Y4385000D02*
X7125000D01*
X7110000Y4370000D02*
Y4400000D01*
X6905000Y4382500D02*
X6935000D01*
X6920000Y4367500D02*
Y4397500D01*
X5350000Y4140000D02*
X5380000D01*
X5365000Y4125000D02*
Y4155000D01*
X7117500Y6335000D02*
X7147500D01*
X7132500Y6320000D02*
Y6350000D01*
X7515000Y5992500D02*
X7545000D01*
X7530000Y5977500D02*
Y6007500D01*
X5217500Y4135000D02*
X5247500D01*
X5232500Y4120000D02*
Y4150000D01*
X4737500Y3850000D02*
X4767500D01*
X4752500Y3835000D02*
Y3865000D01*
X7057500Y5520000D02*
X7087500D01*
X7072500Y5505000D02*
Y5535000D01*
X5870000Y5417500D02*
X5900000D01*
X5885000Y5402500D02*
Y5432500D01*
X5572500Y5415000D02*
X5602500D01*
X5587500Y5400000D02*
Y5430000D01*
X5737500Y6342500D02*
X5767500D01*
X5752500Y6327500D02*
Y6357500D01*
X4725000Y3610000D02*
X4755000D01*
X4740000Y3595000D02*
Y3625000D01*
X5102355Y3822211D02*
X5132354D01*
X5117355Y3807211D02*
Y3837211D01*
X5107500Y3615000D02*
X5137500D01*
X5122500Y3600000D02*
Y3630000D01*
X1342500Y4797500D02*
X1372500D01*
X1357500Y4782500D02*
Y4812500D01*
X1263733Y4582500D02*
X1293732D01*
X1278733Y4567500D02*
Y4597500D01*
X5090000Y4000000D02*
X5120000D01*
X5105000Y3985000D02*
Y4015000D01*
X4515000Y3872500D02*
X4545000D01*
X4530000Y3857500D02*
Y3887500D01*
X2922500Y2742500D02*
X2952500D01*
X2937500Y2727500D02*
Y2757500D01*
X2370000Y2192500D02*
X2400000D01*
X2385000Y2177500D02*
Y2207500D01*
X2477500Y2192500D02*
X2507500D01*
X2492500Y2177500D02*
Y2207500D01*
X2922500Y3685000D02*
X2952500D01*
X2937500Y3670000D02*
Y3700000D01*
X2700000Y3412500D02*
X2730000D01*
X2715000Y3397500D02*
Y3427500D01*
X2762500Y3672492D02*
X2792500D01*
X2777500Y3657492D02*
Y3687492D01*
X2752500Y2667500D02*
X2782500D01*
X2767500Y2652500D02*
Y2682500D01*
X2595000Y3595000D02*
X2625000D01*
X2610000Y3580000D02*
Y3610000D01*
X2285000Y3595000D02*
X2315000D01*
X2300000Y3580000D02*
Y3610000D01*
X3052500Y3727500D02*
X3082500D01*
X3067500Y3712500D02*
Y3742500D01*
X2825000Y5062500D02*
X2855000D01*
X2840000Y5047500D02*
Y5077500D01*
X2985000Y6405000D02*
X3015000D01*
X3000000Y6390000D02*
Y6420000D01*
X1135000Y3057500D02*
X1165000D01*
X1150000Y3042500D02*
Y3072500D01*
X1135000Y3302500D02*
X1165000D01*
X1150000Y3287500D02*
Y3317500D01*
X2920000Y2302500D02*
X2950000D01*
X2935000Y2287500D02*
Y2317500D01*
X2747500Y2180000D02*
X2777500D01*
X2762500Y2165000D02*
Y2195000D01*
X535000Y6630000D02*
X565000D01*
X550000Y6615000D02*
Y6645000D01*
X1122500Y4390000D02*
X1152500D01*
X1137500Y4375000D02*
Y4405000D01*
X1072500Y4012500D02*
X1102500D01*
X1087500Y3997500D02*
Y4027500D01*
X967500Y3730000D02*
X997500D01*
X982500Y3715000D02*
Y3745000D01*
X1847054Y3627054D02*
X1877054D01*
X1862054Y3612054D02*
Y3642054D01*
X2040000Y3917500D02*
X2070000D01*
X2055000Y3902500D02*
Y3932500D01*
X2390000Y3755000D02*
X2420000D01*
X2405000Y3740000D02*
Y3770000D01*
X1805000Y5075000D02*
X1835000D01*
X1820000Y5060000D02*
Y5090000D01*
X4825000Y2165000D02*
X4855000D01*
X4840000Y2150000D02*
Y2180000D01*
X3640560Y3684900D02*
X3670560D01*
X3655560Y3669900D02*
Y3699900D01*
X3485000Y5365000D02*
X3515000D01*
X3500000Y5350000D02*
Y5380000D01*
X3480000Y5477500D02*
X3510000D01*
X3495000Y5462500D02*
Y5492500D01*
X3487500Y6435000D02*
X3517500D01*
X3502500Y6420000D02*
Y6450000D01*
X3487500Y6300000D02*
X3517500D01*
X3502500Y6285000D02*
Y6315000D01*
X2940000Y5602500D02*
X2970000D01*
X2955000Y5587500D02*
Y5617500D01*
X3862500Y5835000D02*
X3892500D01*
X3877500Y5820000D02*
Y5850000D01*
X3215000Y6282500D02*
X3245000D01*
X3230000Y6267500D02*
Y6297500D01*
X2832500Y2485000D02*
X2862500D01*
X2847500Y2470000D02*
Y2500000D01*
X1675568Y7154522D02*
X1705568D01*
X1690568Y7139522D02*
Y7169522D01*
X2597500Y1800000D02*
X2627500D01*
X2612500Y1785000D02*
Y1815000D01*
X3290000Y1737500D02*
X3320000D01*
X3305000Y1722500D02*
Y1752500D01*
X4500000Y3542500D02*
X4530000D01*
X4515000Y3527500D02*
Y3557500D01*
X1860000Y1497500D02*
X1890000D01*
X1875000Y1482500D02*
Y1512500D01*
X2197500Y1497500D02*
X2227500D01*
X2212500Y1482500D02*
Y1512500D01*
X1268643Y3541034D02*
X1298643D01*
X1283643Y3526034D02*
Y3556034D01*
X3647500Y3920000D02*
X3677500D01*
X3662500Y3905000D02*
Y3935000D01*
X822500Y7180000D02*
X852500D01*
X837500Y7165000D02*
Y7195000D01*
X1792500Y6892500D02*
X1822500D01*
X1807500Y6877500D02*
Y6907500D01*
X1295000Y7057500D02*
X1325000D01*
X1310000Y7042500D02*
Y7072500D01*
X200000Y2735000D02*
X230000D01*
X215000Y2720000D02*
Y2750000D01*
X1135000Y3232500D02*
X1165000D01*
X1150000Y3217500D02*
Y3247500D01*
X2650000Y3550000D02*
X2680000D01*
X2665000Y3535000D02*
Y3565000D01*
X2285000Y3525000D02*
X2315000D01*
X2300000Y3510000D02*
Y3540000D01*
X1997500Y2377500D02*
X2027500D01*
X2012500Y2362500D02*
Y2392500D01*
X1890000Y2222500D02*
X1920000D01*
X1905000Y2207500D02*
Y2237500D01*
X2055000Y2335000D02*
X2085000D01*
X2070000Y2320000D02*
Y2350000D01*
X1960000Y2222500D02*
X1990000D01*
X1975000Y2207500D02*
Y2237500D01*
X1135000Y2987500D02*
X1165000D01*
X1150000Y2972500D02*
Y3002500D01*
X1405000Y3782500D02*
X1435000D01*
X1420000Y3767500D02*
Y3797500D01*
X1640000Y4015000D02*
X1670000D01*
X1655000Y4000000D02*
Y4030000D01*
X1590000Y2515000D02*
X1620000D01*
X1605000Y2500000D02*
Y2530000D01*
X1252500Y4477500D02*
X1282500D01*
X1267500Y4462500D02*
Y4492500D01*
X1710000Y4577500D02*
X1740000D01*
X1725000Y4562500D02*
Y4592500D01*
X575000Y1475000D02*
X605000D01*
X590000Y1460000D02*
Y1490000D01*
X1590000Y1477500D02*
X1620000D01*
X1605000Y1462500D02*
Y1492500D01*
X1862500Y1322500D02*
X1892500D01*
X1877500Y1307500D02*
Y1337500D01*
X1990000Y962500D02*
X2020000D01*
X2005000Y947500D02*
Y977500D01*
X202500Y2665000D02*
X232500D01*
X217500Y2650000D02*
Y2680000D01*
X427500Y2662500D02*
X457500D01*
X442500Y2647500D02*
Y2677500D01*
X502500Y1895100D02*
X532500D01*
X517500Y1880100D02*
Y1910100D01*
X202500Y3192500D02*
X232500D01*
X217500Y3177500D02*
Y3207500D01*
X262500Y3355000D02*
X292500D01*
X277500Y3340000D02*
Y3370000D01*
X980000Y6910000D02*
X1010000D01*
X995000Y6895000D02*
Y6925000D01*
X2250000Y282500D02*
X2280000D01*
X2265000Y267500D02*
Y297500D01*
X7187500Y6410000D02*
X7217500D01*
X7202500Y6395000D02*
Y6425000D01*
X7060000Y6490000D02*
X7090000D01*
X7075000Y6475000D02*
Y6505000D01*
X1647500Y6032500D02*
X1677500D01*
X1662500Y6017500D02*
Y6047500D01*
X1492500Y4355000D02*
X1522500D01*
X1507500Y4340000D02*
Y4370000D01*
X5915000Y6332500D02*
X5945000D01*
X5930000Y6317500D02*
Y6347500D01*
X5895000Y7055000D02*
X5925000D01*
X5910000Y7040000D02*
Y7070000D01*
X8017500Y5830000D02*
X8047500D01*
X8032500Y5815000D02*
Y5845000D01*
X2392500Y5335000D02*
X2422500D01*
X2407500Y5320000D02*
Y5350000D01*
X7622500Y4122500D02*
X7652500D01*
X7637500Y4107500D02*
Y4137500D01*
X6672500Y3722500D02*
X6702500D01*
X6687500Y3707500D02*
Y3737500D01*
X2007500Y6222500D02*
X2037500D01*
X2022500Y6207500D02*
Y6237500D01*
X2010000Y6030000D02*
X2040000D01*
X2025000Y6015000D02*
Y6045000D01*
X887500Y5967500D02*
X917500D01*
X902500Y5952500D02*
Y5982500D01*
X3190000Y7072500D02*
X3220000D01*
X3205000Y7057500D02*
Y7087500D01*
X1648500Y4974699D02*
X1678500D01*
X1663500Y4959700D02*
Y4989699D01*
X1646300Y4793300D02*
X1676300D01*
X1661300Y4778300D02*
Y4808300D01*
X1417500Y3710000D02*
X1447500D01*
X1432500Y3695000D02*
Y3725000D01*
X1710000Y4007500D02*
X1740000D01*
X1725000Y3992500D02*
Y4022500D01*
X557500Y5777500D02*
X587500D01*
X572500Y5762500D02*
Y5792500D01*
X562500Y5967500D02*
X592500D01*
X577500Y5952500D02*
Y5982500D01*
X2942500Y6155000D02*
X2972500D01*
X2957500Y6140000D02*
Y6170000D01*
X3860000Y5920000D02*
X3890000D01*
X3875000Y5905000D02*
Y5935000D01*
X7275000Y5440000D02*
X7305000D01*
X7290000Y5425000D02*
Y5455000D01*
X7455000Y5440000D02*
X7485000D01*
X7470000Y5425000D02*
Y5455000D01*
X7825000Y4485000D02*
X7855000D01*
X7840000Y4470000D02*
Y4500000D01*
X4075000Y4067500D02*
X4105000D01*
X4090000Y4052500D02*
Y4082500D01*
X790000Y982500D02*
X820000D01*
X805000Y967500D02*
Y997500D01*
X427500Y2732500D02*
X457500D01*
X442500Y2717500D02*
Y2747500D01*
X1932500Y1320000D02*
X1962500D01*
X1947500Y1305000D02*
Y1335000D01*
X1662500Y2507500D02*
X1692500D01*
X1677500Y2492500D02*
Y2522500D01*
X1477500Y7062400D02*
X1507500D01*
X1492500Y7047400D02*
Y7077400D01*
X2660000Y5327500D02*
X2690000D01*
X2675000Y5312500D02*
Y5342500D01*
X3090000Y5380000D02*
X3120000D01*
X3105000Y5365000D02*
Y5395000D01*
X3240000Y640000D02*
X3270000D01*
X3255000Y625000D02*
Y655000D01*
X3767500Y1062500D02*
X3797500D01*
X3782500Y1047500D02*
Y1077500D01*
X3790000Y635000D02*
X3820000D01*
X3805000Y620000D02*
Y650000D01*
X3257500Y1067500D02*
X3287500D01*
X3272500Y1052500D02*
Y1082500D01*
X3702500Y1407500D02*
X3732500D01*
X3717500Y1392500D02*
Y1422500D01*
X4620000Y1672500D02*
X4650000D01*
X4635000Y1657500D02*
Y1687500D01*
X4572500Y3440000D02*
X4602500D01*
X4587500Y3425000D02*
Y3455000D01*
X2390000Y4072500D02*
X2420000D01*
X2405000Y4057500D02*
Y4087500D01*
X4977500Y4215000D02*
X5007500D01*
X4992500Y4200000D02*
Y4230000D01*
X3216250Y5493750D02*
X3246250D01*
X3231250Y5478750D02*
Y5508750D01*
X4855000Y5905000D02*
X4885000D01*
X4870000Y5890000D02*
Y5920000D01*
X6662500Y4307500D02*
X6692500D01*
X6677500Y4292500D02*
Y4322500D01*
X7055000Y6120000D02*
X7085000D01*
X7070000Y6105000D02*
Y6135000D01*
X6092100Y6395000D02*
X6122100D01*
X6107100Y6380000D02*
Y6410000D01*
X5717500Y6552500D02*
X5747500D01*
X5732500Y6537500D02*
Y6567500D01*
X6110000Y5800000D02*
X6140000D01*
X6125000Y5785000D02*
Y5815000D01*
X5605000Y6092500D02*
X5635000D01*
X5620000Y6077500D02*
Y6107500D01*
X6385000Y5680000D02*
X6415000D01*
X6400000Y5665000D02*
Y5695000D01*
X6117500Y6017500D02*
X6147500D01*
X6132500Y6002500D02*
Y6032500D01*
X5577500Y6007500D02*
X5607500D01*
X5592500Y5992500D02*
Y6022500D01*
X7312500Y6350000D02*
X7342500D01*
X7327500Y6335000D02*
Y6365000D01*
X6292100Y6380000D02*
X6322100D01*
X6307100Y6365000D02*
Y6395000D01*
X5885000Y6480000D02*
X5915000D01*
X5900000Y6465000D02*
Y6495000D01*
X5715000Y6465000D02*
X5745000D01*
X5730000Y6450000D02*
Y6480000D01*
X6922500Y6232500D02*
X6952500D01*
X6937500Y6217500D02*
Y6247500D01*
X6915000Y5610000D02*
X6945000D01*
X6930000Y5595000D02*
Y5625000D01*
X6722500Y5670000D02*
X6752500D01*
X6737500Y5655000D02*
Y5685000D01*
%TF.MD5,d19f34244709cac60facff54be1cad23*%
M02*
