%TF.GenerationSoftware,Altium Limited,Altium Designer,25.0.2 (28)*%
G04 Layer_Color=0*
%FSLAX45Y45*%
%MOMM*%
%TF.SameCoordinates,6CA9225A-D19C-4A09-8B82-60FEBDA2364A*%
%TF.FilePolarity,Positive*%
%TF.FileFunction,Plated,1,4,PTH,Drill*%
%TF.Part,Single*%
G01*
G75*
%TA.AperFunction,ComponentDrill*%
%ADD137C,0.81280*%
%ADD138C,0.71120*%
%ADD139C,1.55000*%
%ADD140C,1.65000*%
%ADD141C,1.30000*%
%ADD142C,1.06680*%
%ADD143C,0.70000*%
%ADD144C,1.06680*%
%ADD145C,1.60020*%
%ADD146C,1.60020*%
%TA.AperFunction,ViaDrill,NotFilled*%
%ADD147C,0.30000*%
D137*
X740000Y2716000D02*
D03*
Y2970000D02*
D03*
Y3224000D02*
D03*
D138*
X2160000Y410000D02*
D03*
Y283000D02*
D03*
X2033000Y410000D02*
D03*
Y283000D02*
D03*
X1906000Y410000D02*
D03*
Y283000D02*
D03*
X1779000Y410000D02*
D03*
Y283000D02*
D03*
X1652000Y410000D02*
D03*
Y283000D02*
D03*
D139*
X8306000Y4688000D02*
D03*
Y716000D02*
D03*
Y2702000D02*
D03*
Y6674000D02*
D03*
D140*
X8560000Y4942000D02*
D03*
Y4434000D02*
D03*
X8052000Y4942000D02*
D03*
Y4434000D02*
D03*
Y462000D02*
D03*
Y970000D02*
D03*
X8560000Y462000D02*
D03*
Y970000D02*
D03*
X8052000Y2448000D02*
D03*
Y2956000D02*
D03*
X8560000Y2448000D02*
D03*
Y2956000D02*
D03*
X8052000Y6420000D02*
D03*
Y6928000D02*
D03*
X8560000Y6420000D02*
D03*
Y6928000D02*
D03*
D141*
X5895001Y513490D02*
D03*
X6894999D02*
D03*
X6395000D02*
D03*
D142*
X2822000Y7330000D02*
D03*
X3076000D02*
D03*
X3330000D02*
D03*
X5452500Y1762500D02*
D03*
X3340000Y5170000D02*
D03*
X2912500Y1332500D02*
D03*
X795000Y5095000D02*
D03*
X2342500Y5057500D02*
D03*
X2495000Y4305000D02*
D03*
X4032000Y7320000D02*
D03*
X4286000D02*
D03*
X4540000D02*
D03*
X6120000Y7330000D02*
D03*
X6374000D02*
D03*
X6628000D02*
D03*
X7316000D02*
D03*
X7570000D02*
D03*
X7824000D02*
D03*
X5186000Y7320000D02*
D03*
X5440000D02*
D03*
X5694000D02*
D03*
D143*
X4857500Y710986D02*
D03*
X5057500D02*
D03*
D144*
X3707500Y6937500D02*
D03*
X5882500Y4680000D02*
D03*
X4612500Y2333500D02*
D03*
Y2587500D02*
D03*
Y2841500D02*
D03*
X2465000Y6862500D02*
D03*
X4267500Y3227500D02*
D03*
X3475000Y2930000D02*
D03*
X4210000Y4450000D02*
D03*
X3120000Y4390000D02*
D03*
X6302500Y2927500D02*
D03*
X7367500Y2687500D02*
D03*
X5297500Y4810000D02*
D03*
X5130000Y6280000D02*
D03*
X4580000Y6440000D02*
D03*
X2645000Y6312500D02*
D03*
X5140000Y5400000D02*
D03*
D145*
X602500Y392500D02*
D03*
X4322500Y5162500D02*
D03*
X1420000Y6517500D02*
D03*
D146*
X6492500Y4880000D02*
D03*
X575000Y3982500D02*
D03*
X7402500Y1675000D02*
D03*
D147*
X1532500Y6317500D02*
D03*
X1272500Y6320000D02*
D03*
X2970000Y3352500D02*
D03*
X4042500Y7072500D02*
D03*
X5777500Y5825000D02*
D03*
X1322500Y5640000D02*
D03*
X1480000Y5080000D02*
D03*
X1662500Y967500D02*
D03*
X4422500Y1395000D02*
D03*
X4225000Y1542500D02*
D03*
X6847500Y2920000D02*
D03*
X2582500Y2542500D02*
D03*
X3205000Y2367500D02*
D03*
X1095000Y6097500D02*
D03*
X782500Y710000D02*
D03*
X5013203Y3523182D02*
D03*
X6920000Y3360000D02*
D03*
X1860000Y1912500D02*
D03*
X1952500Y3840000D02*
D03*
X2845000Y3785000D02*
D03*
X8409995Y5549997D02*
D03*
X8559995Y5249997D02*
D03*
Y4649997D02*
D03*
X8409995Y4349997D02*
D03*
X8559995Y4049997D02*
D03*
X8409995Y3749997D02*
D03*
X8559995Y3449997D02*
D03*
X8409995Y3149998D02*
D03*
Y2549998D02*
D03*
X8259995Y5849997D02*
D03*
Y5249997D02*
D03*
Y4049997D02*
D03*
X8109995Y3749997D02*
D03*
Y3149998D02*
D03*
X7809995Y6149997D02*
D03*
Y5549997D02*
D03*
X7959995Y4649997D02*
D03*
Y4049997D02*
D03*
X7809995Y3749997D02*
D03*
X7959995Y3449997D02*
D03*
X7809995Y3149998D02*
D03*
Y2549998D02*
D03*
X7659995Y5249997D02*
D03*
X7509995Y4949997D02*
D03*
X7659995Y4649997D02*
D03*
Y3449997D02*
D03*
X7509995Y3149998D02*
D03*
X7659995Y2849998D02*
D03*
X7509995Y2549998D02*
D03*
X7209995Y4949997D02*
D03*
X7359995Y4649997D02*
D03*
X7209995Y3749997D02*
D03*
X7359995Y3449997D02*
D03*
X7209995Y3149998D02*
D03*
Y2549998D02*
D03*
X6909995Y4949997D02*
D03*
X7059995Y2849998D02*
D03*
X6885000Y3947500D02*
D03*
X6670000Y3880000D02*
D03*
X7110000Y4385000D02*
D03*
X6920000Y4382500D02*
D03*
X5365000Y4140000D02*
D03*
X7132500Y6335000D02*
D03*
X7530000Y5992500D02*
D03*
X5232500Y4135000D02*
D03*
X4752500Y3850000D02*
D03*
X7072500Y5520000D02*
D03*
X5885000Y5417500D02*
D03*
X5587500Y5415000D02*
D03*
X5752500Y6342500D02*
D03*
X4740000Y3610000D02*
D03*
X5117355Y3822211D02*
D03*
X5122500Y3615000D02*
D03*
X1357500Y4797500D02*
D03*
X1278733Y4582500D02*
D03*
X5105000Y4000000D02*
D03*
X4530000Y3872500D02*
D03*
X2937500Y2742500D02*
D03*
X2385000Y2192500D02*
D03*
X2492500D02*
D03*
X2937500Y3685000D02*
D03*
X2715000Y3412500D02*
D03*
X2777500Y3672492D02*
D03*
X2767500Y2667500D02*
D03*
X2610000Y3595000D02*
D03*
X2300000D02*
D03*
X3067500Y3727500D02*
D03*
X2840000Y5062500D02*
D03*
X3000000Y6405000D02*
D03*
X1150000Y3057500D02*
D03*
Y3302500D02*
D03*
X2935000Y2302500D02*
D03*
X2762500Y2180000D02*
D03*
X550000Y6630000D02*
D03*
X1137500Y4390000D02*
D03*
X1087500Y4012500D02*
D03*
X982500Y3730000D02*
D03*
X1862054Y3627054D02*
D03*
X2055000Y3917500D02*
D03*
X2405000Y3755000D02*
D03*
X1820000Y5075000D02*
D03*
X4840000Y2165000D02*
D03*
X3655560Y3684900D02*
D03*
X3500000Y5365000D02*
D03*
X3495000Y5477500D02*
D03*
X3502500Y6435000D02*
D03*
Y6300000D02*
D03*
X2955000Y5602500D02*
D03*
X3877500Y5835000D02*
D03*
X3230000Y6282500D02*
D03*
X2847500Y2485000D02*
D03*
X1690568Y7154522D02*
D03*
X2612500Y1800000D02*
D03*
X3305000Y1737500D02*
D03*
X4515000Y3542500D02*
D03*
X1875000Y1497500D02*
D03*
X2212500D02*
D03*
X1283643Y3541034D02*
D03*
X3662500Y3920000D02*
D03*
X837500Y7180000D02*
D03*
X1807500Y6892500D02*
D03*
X1310000Y7057500D02*
D03*
X215000Y2735000D02*
D03*
X1150000Y3232500D02*
D03*
X2665000Y3550000D02*
D03*
X2300000Y3525000D02*
D03*
X2012500Y2377500D02*
D03*
X1905000Y2222500D02*
D03*
X2070000Y2335000D02*
D03*
X1975000Y2222500D02*
D03*
X1150000Y2987500D02*
D03*
X1420000Y3782500D02*
D03*
X1655000Y4015000D02*
D03*
X1605000Y2515000D02*
D03*
X1267500Y4477500D02*
D03*
X1725000Y4577500D02*
D03*
X590000Y1475000D02*
D03*
X1605000Y1477500D02*
D03*
X1877500Y1322500D02*
D03*
X2005000Y962500D02*
D03*
X217500Y2665000D02*
D03*
X442500Y2662500D02*
D03*
X517500Y1895100D02*
D03*
X217500Y3192500D02*
D03*
X277500Y3355000D02*
D03*
X995000Y6910000D02*
D03*
X2265000Y282500D02*
D03*
X7202500Y6410000D02*
D03*
X7075000Y6490000D02*
D03*
X1662500Y6032500D02*
D03*
X1507500Y4355000D02*
D03*
X5930000Y6332500D02*
D03*
X5910000Y7055000D02*
D03*
X8032500Y5830000D02*
D03*
X2407500Y5335000D02*
D03*
X7637500Y4122500D02*
D03*
X6687500Y3722500D02*
D03*
X2022500Y6222500D02*
D03*
X2025000Y6030000D02*
D03*
X902500Y5967500D02*
D03*
X3205000Y7072500D02*
D03*
X1663500Y4974699D02*
D03*
X1661300Y4793300D02*
D03*
X1432500Y3710000D02*
D03*
X1725000Y4007500D02*
D03*
X572500Y5777500D02*
D03*
X577500Y5967500D02*
D03*
X2957500Y6155000D02*
D03*
X3875000Y5920000D02*
D03*
X7290000Y5440000D02*
D03*
X7470000D02*
D03*
X7840000Y4485000D02*
D03*
X4090000Y4067500D02*
D03*
X805000Y982500D02*
D03*
X442500Y2732500D02*
D03*
X1947500Y1320000D02*
D03*
X1677500Y2507500D02*
D03*
X1492500Y7062400D02*
D03*
X2675000Y5327500D02*
D03*
X3105000Y5380000D02*
D03*
X3255000Y640000D02*
D03*
X3782500Y1062500D02*
D03*
X3805000Y635000D02*
D03*
X3272500Y1067500D02*
D03*
X3717500Y1407500D02*
D03*
X4635000Y1672500D02*
D03*
X4587500Y3440000D02*
D03*
X2405000Y4072500D02*
D03*
X4992500Y4215000D02*
D03*
X3231250Y5493750D02*
D03*
X4870000Y5905000D02*
D03*
X6677500Y4307500D02*
D03*
X7070000Y6120000D02*
D03*
X6107100Y6395000D02*
D03*
X5732500Y6552500D02*
D03*
X6125000Y5800000D02*
D03*
X5620000Y6092500D02*
D03*
X6400000Y5680000D02*
D03*
X6132500Y6017500D02*
D03*
X5592500Y6007500D02*
D03*
X7327500Y6350000D02*
D03*
X6307100Y6380000D02*
D03*
X5900000Y6480000D02*
D03*
X5730000Y6465000D02*
D03*
X6937500Y6232500D02*
D03*
X6930000Y5610000D02*
D03*
X6737500Y5670000D02*
D03*
%TF.MD5,bb6ceb7511858569d098dcf4fec18f2a*%
M02*
