%TF.GenerationSoftware,Altium Limited,Altium Designer,25.0.2 (28)*%
G04 Layer_Color=2752767*
%FSLAX45Y45*%
%MOMM*%
%TF.SameCoordinates,6CA9225A-D19C-4A09-8B82-60FEBDA2364A*%
%TF.FilePolarity,Positive*%
%TF.FileFunction,Drawing*%
%TF.Part,Single*%
G01*
G75*
%TA.AperFunction,NonConductor*%
%ADD91C,0.12700*%
%ADD149C,0.16933*%
%ADD150C,0.10160*%
D91*
X689200Y2716000D02*
X740000Y2766800D01*
X790800Y2716000D01*
X740000Y2665200D01*
X689200Y2716000D01*
Y2970000D02*
X740000Y3020800D01*
X790800Y2970000D01*
X740000Y2919200D01*
X689200Y2970000D01*
Y3224000D02*
X740000Y3274800D01*
X790800Y3224000D01*
X740000Y3173200D01*
X689200Y3224000D01*
X2160000Y359200D02*
X2109200Y460800D01*
X2210800D01*
X2160000Y359200D01*
Y232200D02*
X2109200Y333800D01*
X2210800D01*
X2160000Y232200D01*
X2033000Y359200D02*
X1982200Y460800D01*
X2083800D01*
X2033000Y359200D01*
Y232200D02*
X1982200Y333800D01*
X2083800D01*
X2033000Y232200D01*
X1906000Y359200D02*
X1855200Y460800D01*
X1956800D01*
X1906000Y359200D01*
Y232200D02*
X1855200Y333800D01*
X1956800D01*
X1906000Y232200D01*
X1779000Y359200D02*
X1728200Y460800D01*
X1829800D01*
X1779000Y359200D01*
Y232200D02*
X1728200Y333800D01*
X1829800D01*
X1779000Y232200D01*
X1652000Y359200D02*
X1601200Y460800D01*
X1702800D01*
X1652000Y359200D01*
Y232200D02*
X1601200Y333800D01*
X1702800D01*
X1652000Y232200D01*
X8509200Y4891200D02*
Y4992800D01*
X8610800D01*
Y4891200D01*
X8509200D01*
Y4383200D02*
Y4484800D01*
X8610800D01*
Y4383200D01*
X8509200D01*
X8001200Y4891200D02*
Y4992800D01*
X8102800D01*
Y4891200D01*
X8001200D01*
Y4383200D02*
Y4484800D01*
X8102800D01*
Y4383200D01*
X8001200D01*
X5895001Y462690D02*
X5920401Y488090D01*
X5945801D01*
X5920401Y513490D01*
X5945801Y538890D01*
X5920401D01*
X5895001Y564290D01*
X5869601Y538890D01*
X5844201D01*
X5869601Y513490D01*
X5844201Y488090D01*
X5869601D01*
X5895001Y462690D01*
X6894999D02*
X6920399Y488090D01*
X6945799D01*
X6920399Y513490D01*
X6945799Y538890D01*
X6920399D01*
X6894999Y564290D01*
X6869599Y538890D01*
X6844199D01*
X6869599Y513490D01*
X6844199Y488090D01*
X6869599D01*
X6894999Y462690D01*
X6395000D02*
X6420400Y488090D01*
X6445800D01*
X6420400Y513490D01*
X6445800Y538890D01*
X6420400D01*
X6395000Y564290D01*
X6369600Y538890D01*
X6344200D01*
X6369600Y513490D01*
X6344200Y488090D01*
X6369600D01*
X6395000Y462690D01*
X2771200Y7279200D02*
X2796600Y7330000D01*
X2771200Y7380800D01*
X2822000Y7355400D01*
X2872800Y7380800D01*
X2847400Y7330000D01*
X2872800Y7279200D01*
X2822000Y7304600D01*
X2771200Y7279200D01*
X3025200D02*
X3050600Y7330000D01*
X3025200Y7380800D01*
X3076000Y7355400D01*
X3126800Y7380800D01*
X3101400Y7330000D01*
X3126800Y7279200D01*
X3076000Y7304600D01*
X3025200Y7279200D01*
X3279200D02*
X3304600Y7330000D01*
X3279200Y7380800D01*
X3330000Y7355400D01*
X3380800Y7380800D01*
X3355400Y7330000D01*
X3380800Y7279200D01*
X3330000Y7304600D01*
X3279200Y7279200D01*
X4832100Y685586D02*
Y660186D01*
X4882900D01*
Y685586D01*
X4908300D01*
Y736386D01*
X4882900D01*
Y761786D01*
X4832100D01*
Y736386D01*
X4806700D01*
Y685586D01*
X4832100D01*
X5032100D02*
Y660186D01*
X5082900D01*
Y685586D01*
X5108300D01*
Y736386D01*
X5082900D01*
Y761786D01*
X5032100D01*
Y736386D01*
X5006700D01*
Y685586D01*
X5032100D01*
X3656700Y6886700D02*
X3682100Y6937500D01*
X3656700Y6988300D01*
X3707500Y6962900D01*
X3758300Y6988300D01*
X3732900Y6937500D01*
X3758300Y6886700D01*
X3707500Y6912100D01*
X3656700Y6886700D01*
X551700Y341700D02*
X577100D01*
X602500Y367100D01*
X627900Y341700D01*
X653300D01*
Y367100D01*
X627900Y392500D01*
X653300Y417900D01*
Y443300D01*
X627900D01*
X602500Y417900D01*
X577100Y443300D01*
X551700D01*
Y417900D01*
X577100Y392500D01*
X551700Y367100D01*
Y341700D01*
X5831700Y4629200D02*
X5857100Y4680000D01*
X5831700Y4730800D01*
X5882500Y4705400D01*
X5933300Y4730800D01*
X5907900Y4680000D01*
X5933300Y4629200D01*
X5882500Y4654600D01*
X5831700Y4629200D01*
X4561700Y2282700D02*
X4587100Y2333500D01*
X4561700Y2384300D01*
X4612500Y2358900D01*
X4663300Y2384300D01*
X4637900Y2333500D01*
X4663300Y2282700D01*
X4612500Y2308100D01*
X4561700Y2282700D01*
Y2536700D02*
X4587100Y2587500D01*
X4561700Y2638300D01*
X4612500Y2612900D01*
X4663300Y2638300D01*
X4637900Y2587500D01*
X4663300Y2536700D01*
X4612500Y2562100D01*
X4561700Y2536700D01*
Y2790700D02*
X4587100Y2841500D01*
X4561700Y2892300D01*
X4612500Y2866900D01*
X4663300Y2892300D01*
X4637900Y2841500D01*
X4663300Y2790700D01*
X4612500Y2816100D01*
X4561700Y2790700D01*
X2414200Y6811700D02*
X2439600Y6862500D01*
X2414200Y6913300D01*
X2465000Y6887900D01*
X2515800Y6913300D01*
X2490400Y6862500D01*
X2515800Y6811700D01*
X2465000Y6837100D01*
X2414200Y6811700D01*
X5401700Y1711700D02*
X5427100Y1762500D01*
X5401700Y1813300D01*
X5452500Y1787900D01*
X5503300Y1813300D01*
X5477900Y1762500D01*
X5503300Y1711700D01*
X5452500Y1737100D01*
X5401700Y1711700D01*
X3289200Y5119200D02*
X3314600Y5170000D01*
X3289200Y5220800D01*
X3340000Y5195400D01*
X3390800Y5220800D01*
X3365400Y5170000D01*
X3390800Y5119200D01*
X3340000Y5144600D01*
X3289200Y5119200D01*
X2861700Y1281700D02*
X2887100Y1332500D01*
X2861700Y1383300D01*
X2912500Y1357900D01*
X2963300Y1383300D01*
X2937900Y1332500D01*
X2963300Y1281700D01*
X2912500Y1307100D01*
X2861700Y1281700D01*
X4216700Y3176700D02*
X4242100Y3227500D01*
X4216700Y3278300D01*
X4267500Y3252900D01*
X4318300Y3278300D01*
X4292900Y3227500D01*
X4318300Y3176700D01*
X4267500Y3202100D01*
X4216700Y3176700D01*
X3424200Y2879200D02*
X3449600Y2930000D01*
X3424200Y2980800D01*
X3475000Y2955400D01*
X3525800Y2980800D01*
X3500400Y2930000D01*
X3525800Y2879200D01*
X3475000Y2904600D01*
X3424200Y2879200D01*
X4159200Y4399200D02*
X4184600Y4450000D01*
X4159200Y4500800D01*
X4210000Y4475400D01*
X4260800Y4500800D01*
X4235400Y4450000D01*
X4260800Y4399200D01*
X4210000Y4424600D01*
X4159200Y4399200D01*
X3069200Y4339200D02*
X3094600Y4390000D01*
X3069200Y4440800D01*
X3120000Y4415400D01*
X3170800Y4440800D01*
X3145400Y4390000D01*
X3170800Y4339200D01*
X3120000Y4364600D01*
X3069200Y4339200D01*
X6251700Y2876700D02*
X6277100Y2927500D01*
X6251700Y2978300D01*
X6302500Y2952900D01*
X6353300Y2978300D01*
X6327900Y2927500D01*
X6353300Y2876700D01*
X6302500Y2902100D01*
X6251700Y2876700D01*
X7316700Y2636700D02*
X7342100Y2687500D01*
X7316700Y2738300D01*
X7367500Y2712900D01*
X7418300Y2738300D01*
X7392900Y2687500D01*
X7418300Y2636700D01*
X7367500Y2662100D01*
X7316700Y2636700D01*
X5246700Y4759200D02*
X5272100Y4810000D01*
X5246700Y4860800D01*
X5297500Y4835400D01*
X5348300Y4860800D01*
X5322900Y4810000D01*
X5348300Y4759200D01*
X5297500Y4784600D01*
X5246700Y4759200D01*
X8001200Y411200D02*
Y512800D01*
X8102800D01*
Y411200D01*
X8001200D01*
Y919200D02*
Y1020800D01*
X8102800D01*
Y919200D01*
X8001200D01*
X8509200Y411200D02*
Y512800D01*
X8610800D01*
Y411200D01*
X8509200D01*
Y919200D02*
Y1020800D01*
X8610800D01*
Y919200D01*
X8509200D01*
X8001200Y2397200D02*
Y2498800D01*
X8102800D01*
Y2397200D01*
X8001200D01*
Y2905200D02*
Y3006800D01*
X8102800D01*
Y2905200D01*
X8001200D01*
X8509200Y2397200D02*
Y2498800D01*
X8610800D01*
Y2397200D01*
X8509200D01*
Y2905200D02*
Y3006800D01*
X8610800D01*
Y2905200D01*
X8509200D01*
X8001200Y6369200D02*
Y6470800D01*
X8102800D01*
Y6369200D01*
X8001200D01*
Y6877200D02*
Y6978800D01*
X8102800D01*
Y6877200D01*
X8001200D01*
X8509200Y6369200D02*
Y6470800D01*
X8610800D01*
Y6369200D01*
X8509200D01*
Y6877200D02*
Y6978800D01*
X8610800D01*
Y6877200D01*
X8509200D01*
X744200Y5044200D02*
X769600Y5095000D01*
X744200Y5145800D01*
X795000Y5120400D01*
X845800Y5145800D01*
X820400Y5095000D01*
X845800Y5044200D01*
X795000Y5069600D01*
X744200Y5044200D01*
X6441700Y4829200D02*
X6467100D01*
X6492500Y4854600D01*
X6517900Y4829200D01*
X6543300D01*
Y4854600D01*
X6517900Y4880000D01*
X6543300Y4905400D01*
Y4930800D01*
X6517900D01*
X6492500Y4905400D01*
X6467100Y4930800D01*
X6441700D01*
Y4905400D01*
X6467100Y4880000D01*
X6441700Y4854600D01*
Y4829200D01*
X4271700Y5111700D02*
X4297100D01*
X4322500Y5137100D01*
X4347900Y5111700D01*
X4373300D01*
Y5137100D01*
X4347900Y5162500D01*
X4373300Y5187900D01*
Y5213300D01*
X4347900D01*
X4322500Y5187900D01*
X4297100Y5213300D01*
X4271700D01*
Y5187900D01*
X4297100Y5162500D01*
X4271700Y5137100D01*
Y5111700D01*
X524200Y3931700D02*
X549600D01*
X575000Y3957100D01*
X600400Y3931700D01*
X625800D01*
Y3957100D01*
X600400Y3982500D01*
X625800Y4007900D01*
Y4033300D01*
X600400D01*
X575000Y4007900D01*
X549600Y4033300D01*
X524200D01*
Y4007900D01*
X549600Y3982500D01*
X524200Y3957100D01*
Y3931700D01*
X1369200Y6466700D02*
X1394600D01*
X1420000Y6492100D01*
X1445400Y6466700D01*
X1470800D01*
Y6492100D01*
X1445400Y6517500D01*
X1470800Y6542900D01*
Y6568300D01*
X1445400D01*
X1420000Y6542900D01*
X1394600Y6568300D01*
X1369200D01*
Y6542900D01*
X1394600Y6517500D01*
X1369200Y6492100D01*
Y6466700D01*
X7351700Y1624200D02*
X7377100D01*
X7402500Y1649600D01*
X7427900Y1624200D01*
X7453300D01*
Y1649600D01*
X7427900Y1675000D01*
X7453300Y1700400D01*
Y1725800D01*
X7427900D01*
X7402500Y1700400D01*
X7377100Y1725800D01*
X7351700D01*
Y1700400D01*
X7377100Y1675000D01*
X7351700Y1649600D01*
Y1624200D01*
X2291700Y5006700D02*
X2317100Y5057500D01*
X2291700Y5108300D01*
X2342500Y5082900D01*
X2393300Y5108300D01*
X2367900Y5057500D01*
X2393300Y5006700D01*
X2342500Y5032100D01*
X2291700Y5006700D01*
X5079200Y6229200D02*
X5104600Y6280000D01*
X5079200Y6330800D01*
X5130000Y6305400D01*
X5180800Y6330800D01*
X5155400Y6280000D01*
X5180800Y6229200D01*
X5130000Y6254600D01*
X5079200Y6229200D01*
X4529200Y6389200D02*
X4554600Y6440000D01*
X4529200Y6490800D01*
X4580000Y6465400D01*
X4630800Y6490800D01*
X4605400Y6440000D01*
X4630800Y6389200D01*
X4580000Y6414600D01*
X4529200Y6389200D01*
X2594200Y6261700D02*
X2619600Y6312500D01*
X2594200Y6363300D01*
X2645000Y6337900D01*
X2695800Y6363300D01*
X2670400Y6312500D01*
X2695800Y6261700D01*
X2645000Y6287100D01*
X2594200Y6261700D01*
X5089200Y5349200D02*
X5114600Y5400000D01*
X5089200Y5450800D01*
X5140000Y5425400D01*
X5190800Y5450800D01*
X5165400Y5400000D01*
X5190800Y5349200D01*
X5140000Y5374600D01*
X5089200Y5349200D01*
X2444200Y4254200D02*
X2469600Y4305000D01*
X2444200Y4355800D01*
X2495000Y4330400D01*
X2545800Y4355800D01*
X2520400Y4305000D01*
X2545800Y4254200D01*
X2495000Y4279600D01*
X2444200Y4254200D01*
X3981200Y7269200D02*
X4006600Y7320000D01*
X3981200Y7370800D01*
X4032000Y7345400D01*
X4082800Y7370800D01*
X4057400Y7320000D01*
X4082800Y7269200D01*
X4032000Y7294600D01*
X3981200Y7269200D01*
X4235200D02*
X4260600Y7320000D01*
X4235200Y7370800D01*
X4286000Y7345400D01*
X4336800Y7370800D01*
X4311400Y7320000D01*
X4336800Y7269200D01*
X4286000Y7294600D01*
X4235200Y7269200D01*
X4489200D02*
X4514600Y7320000D01*
X4489200Y7370800D01*
X4540000Y7345400D01*
X4590800Y7370800D01*
X4565400Y7320000D01*
X4590800Y7269200D01*
X4540000Y7294600D01*
X4489200Y7269200D01*
X6069200Y7279200D02*
X6094600Y7330000D01*
X6069200Y7380800D01*
X6120000Y7355400D01*
X6170800Y7380800D01*
X6145400Y7330000D01*
X6170800Y7279200D01*
X6120000Y7304600D01*
X6069200Y7279200D01*
X6323200D02*
X6348600Y7330000D01*
X6323200Y7380800D01*
X6374000Y7355400D01*
X6424800Y7380800D01*
X6399400Y7330000D01*
X6424800Y7279200D01*
X6374000Y7304600D01*
X6323200Y7279200D01*
X6577200D02*
X6602600Y7330000D01*
X6577200Y7380800D01*
X6628000Y7355400D01*
X6678800Y7380800D01*
X6653400Y7330000D01*
X6678800Y7279200D01*
X6628000Y7304600D01*
X6577200Y7279200D01*
X7265200D02*
X7290600Y7330000D01*
X7265200Y7380800D01*
X7316000Y7355400D01*
X7366800Y7380800D01*
X7341400Y7330000D01*
X7366800Y7279200D01*
X7316000Y7304600D01*
X7265200Y7279200D01*
X7519200D02*
X7544600Y7330000D01*
X7519200Y7380800D01*
X7570000Y7355400D01*
X7620800Y7380800D01*
X7595400Y7330000D01*
X7620800Y7279200D01*
X7570000Y7304600D01*
X7519200Y7279200D01*
X7773200D02*
X7798600Y7330000D01*
X7773200Y7380800D01*
X7824000Y7355400D01*
X7874800Y7380800D01*
X7849400Y7330000D01*
X7874800Y7279200D01*
X7824000Y7304600D01*
X7773200Y7279200D01*
X5135200Y7269200D02*
X5160600Y7320000D01*
X5135200Y7370800D01*
X5186000Y7345400D01*
X5236800Y7370800D01*
X5211400Y7320000D01*
X5236800Y7269200D01*
X5186000Y7294600D01*
X5135200Y7269200D01*
X5389200D02*
X5414600Y7320000D01*
X5389200Y7370800D01*
X5440000Y7345400D01*
X5490800Y7370800D01*
X5465400Y7320000D01*
X5490800Y7269200D01*
X5440000Y7294600D01*
X5389200Y7269200D01*
X5643200D02*
X5668600Y7320000D01*
X5643200Y7370800D01*
X5694000Y7345400D01*
X5744800Y7370800D01*
X5719400Y7320000D01*
X5744800Y7269200D01*
X5694000Y7294600D01*
X5643200Y7269200D01*
X1481700Y6266700D02*
Y6368300D01*
X1583300D01*
Y6266700D01*
X1481700D01*
X1502020Y6287020D02*
Y6347980D01*
X1562980D01*
Y6287020D01*
X1502020D01*
X1221700Y6269200D02*
Y6370800D01*
X1323300D01*
Y6269200D01*
X1221700D01*
X1242020Y6289520D02*
Y6350480D01*
X1302980D01*
Y6289520D01*
X1242020D01*
X2919200Y3301700D02*
Y3403300D01*
X3020800D01*
Y3301700D01*
X2919200D01*
X2939520Y3322020D02*
Y3382980D01*
X3000480D01*
Y3322020D01*
X2939520D01*
X3991700Y7021700D02*
Y7123300D01*
X4093300D01*
Y7021700D01*
X3991700D01*
X4012020Y7042020D02*
Y7102980D01*
X4072980D01*
Y7042020D01*
X4012020D01*
X5726700Y5774200D02*
Y5875800D01*
X5828300D01*
Y5774200D01*
X5726700D01*
X5747020Y5794520D02*
Y5855480D01*
X5807980D01*
Y5794520D01*
X5747020D01*
X1271700Y5589200D02*
Y5690800D01*
X1373300D01*
Y5589200D01*
X1271700D01*
X1292020Y5609520D02*
Y5670480D01*
X1352980D01*
Y5609520D01*
X1292020D01*
X1429200Y5029200D02*
Y5130800D01*
X1530800D01*
Y5029200D01*
X1429200D01*
X1449520Y5049520D02*
Y5110480D01*
X1510480D01*
Y5049520D01*
X1449520D01*
X1611700Y916700D02*
Y1018300D01*
X1713300D01*
Y916700D01*
X1611700D01*
X1632020Y937020D02*
Y997980D01*
X1692980D01*
Y937020D01*
X1632020D01*
X4371700Y1344200D02*
Y1445800D01*
X4473300D01*
Y1344200D01*
X4371700D01*
X4392020Y1364520D02*
Y1425480D01*
X4452980D01*
Y1364520D01*
X4392020D01*
X4174200Y1491700D02*
Y1593300D01*
X4275800D01*
Y1491700D01*
X4174200D01*
X4194520Y1512020D02*
Y1572980D01*
X4255480D01*
Y1512020D01*
X4194520D01*
X6796700Y2869200D02*
Y2970800D01*
X6898300D01*
Y2869200D01*
X6796700D01*
X6817020Y2889520D02*
Y2950480D01*
X6877980D01*
Y2889520D01*
X6817020D01*
X2531700Y2491700D02*
Y2593300D01*
X2633300D01*
Y2491700D01*
X2531700D01*
X2552020Y2512020D02*
Y2572980D01*
X2612980D01*
Y2512020D01*
X2552020D01*
X3154200Y2316700D02*
Y2418300D01*
X3255800D01*
Y2316700D01*
X3154200D01*
X3174520Y2337020D02*
Y2397980D01*
X3235480D01*
Y2337020D01*
X3174520D01*
X1044200Y6046700D02*
Y6148300D01*
X1145800D01*
Y6046700D01*
X1044200D01*
X1064520Y6067020D02*
Y6127980D01*
X1125480D01*
Y6067020D01*
X1064520D01*
X731700Y659200D02*
Y760800D01*
X833300D01*
Y659200D01*
X731700D01*
X752020Y679520D02*
Y740480D01*
X812980D01*
Y679520D01*
X752020D01*
X4962403Y3472382D02*
Y3573982D01*
X5064003D01*
Y3472382D01*
X4962403D01*
X4982723Y3492702D02*
Y3553662D01*
X5043683D01*
Y3492702D01*
X4982723D01*
X6869200Y3309200D02*
Y3410800D01*
X6970800D01*
Y3309200D01*
X6869200D01*
X6889520Y3329520D02*
Y3390480D01*
X6950480D01*
Y3329520D01*
X6889520D01*
X1809200Y1861700D02*
Y1963300D01*
X1910800D01*
Y1861700D01*
X1809200D01*
X1829520Y1882020D02*
Y1942980D01*
X1890480D01*
Y1882020D01*
X1829520D01*
X1901700Y3789200D02*
Y3890800D01*
X2003300D01*
Y3789200D01*
X1901700D01*
X1922020Y3809520D02*
Y3870480D01*
X1982980D01*
Y3809520D01*
X1922020D01*
X2794200Y3734200D02*
Y3835800D01*
X2895800D01*
Y3734200D01*
X2794200D01*
X2814520Y3754520D02*
Y3815480D01*
X2875480D01*
Y3754520D01*
X2814520D01*
X8359195Y5499197D02*
Y5600797D01*
X8460795D01*
Y5499197D01*
X8359195D01*
X8379515Y5519517D02*
Y5580477D01*
X8440475D01*
Y5519517D01*
X8379515D01*
X8509195Y5199197D02*
Y5300797D01*
X8610795D01*
Y5199197D01*
X8509195D01*
X8529515Y5219517D02*
Y5280477D01*
X8590475D01*
Y5219517D01*
X8529515D01*
X8509195Y4599197D02*
Y4700797D01*
X8610795D01*
Y4599197D01*
X8509195D01*
X8529515Y4619517D02*
Y4680477D01*
X8590475D01*
Y4619517D01*
X8529515D01*
X8359195Y4299197D02*
Y4400797D01*
X8460795D01*
Y4299197D01*
X8359195D01*
X8379515Y4319517D02*
Y4380477D01*
X8440475D01*
Y4319517D01*
X8379515D01*
X8509195Y3999197D02*
Y4100797D01*
X8610795D01*
Y3999197D01*
X8509195D01*
X8529515Y4019517D02*
Y4080477D01*
X8590475D01*
Y4019517D01*
X8529515D01*
X8359195Y3699197D02*
Y3800797D01*
X8460795D01*
Y3699197D01*
X8359195D01*
X8379515Y3719517D02*
Y3780477D01*
X8440475D01*
Y3719517D01*
X8379515D01*
X8509195Y3399197D02*
Y3500797D01*
X8610795D01*
Y3399197D01*
X8509195D01*
X8529515Y3419517D02*
Y3480477D01*
X8590475D01*
Y3419517D01*
X8529515D01*
X8359195Y3099198D02*
Y3200798D01*
X8460795D01*
Y3099198D01*
X8359195D01*
X8379515Y3119518D02*
Y3180478D01*
X8440475D01*
Y3119518D01*
X8379515D01*
X8359195Y2499198D02*
Y2600798D01*
X8460795D01*
Y2499198D01*
X8359195D01*
X8379515Y2519518D02*
Y2580478D01*
X8440475D01*
Y2519518D01*
X8379515D01*
X8209195Y5799197D02*
Y5900797D01*
X8310795D01*
Y5799197D01*
X8209195D01*
X8229515Y5819517D02*
Y5880477D01*
X8290475D01*
Y5819517D01*
X8229515D01*
X8209195Y5199197D02*
Y5300797D01*
X8310795D01*
Y5199197D01*
X8209195D01*
X8229515Y5219517D02*
Y5280477D01*
X8290475D01*
Y5219517D01*
X8229515D01*
X8209195Y3999197D02*
Y4100797D01*
X8310795D01*
Y3999197D01*
X8209195D01*
X8229515Y4019517D02*
Y4080477D01*
X8290475D01*
Y4019517D01*
X8229515D01*
X8059195Y3699197D02*
Y3800797D01*
X8160795D01*
Y3699197D01*
X8059195D01*
X8079515Y3719517D02*
Y3780477D01*
X8140475D01*
Y3719517D01*
X8079515D01*
X8059195Y3099198D02*
Y3200798D01*
X8160795D01*
Y3099198D01*
X8059195D01*
X8079515Y3119518D02*
Y3180478D01*
X8140475D01*
Y3119518D01*
X8079515D01*
X7759195Y6099197D02*
Y6200797D01*
X7860795D01*
Y6099197D01*
X7759195D01*
X7779515Y6119517D02*
Y6180477D01*
X7840475D01*
Y6119517D01*
X7779515D01*
X7759195Y5499197D02*
Y5600797D01*
X7860795D01*
Y5499197D01*
X7759195D01*
X7779515Y5519517D02*
Y5580477D01*
X7840475D01*
Y5519517D01*
X7779515D01*
X7909195Y4599197D02*
Y4700797D01*
X8010795D01*
Y4599197D01*
X7909195D01*
X7929515Y4619517D02*
Y4680477D01*
X7990475D01*
Y4619517D01*
X7929515D01*
X7909195Y3999197D02*
Y4100797D01*
X8010795D01*
Y3999197D01*
X7909195D01*
X7929515Y4019517D02*
Y4080477D01*
X7990475D01*
Y4019517D01*
X7929515D01*
X7759195Y3699197D02*
Y3800797D01*
X7860795D01*
Y3699197D01*
X7759195D01*
X7779515Y3719517D02*
Y3780477D01*
X7840475D01*
Y3719517D01*
X7779515D01*
X7909195Y3399197D02*
Y3500797D01*
X8010795D01*
Y3399197D01*
X7909195D01*
X7929515Y3419517D02*
Y3480477D01*
X7990475D01*
Y3419517D01*
X7929515D01*
X7759195Y3099198D02*
Y3200798D01*
X7860795D01*
Y3099198D01*
X7759195D01*
X7779515Y3119518D02*
Y3180478D01*
X7840475D01*
Y3119518D01*
X7779515D01*
X7759195Y2499198D02*
Y2600798D01*
X7860795D01*
Y2499198D01*
X7759195D01*
X7779515Y2519518D02*
Y2580478D01*
X7840475D01*
Y2519518D01*
X7779515D01*
X7609195Y5199197D02*
Y5300797D01*
X7710795D01*
Y5199197D01*
X7609195D01*
X7629515Y5219517D02*
Y5280477D01*
X7690475D01*
Y5219517D01*
X7629515D01*
X7459195Y4899197D02*
Y5000797D01*
X7560795D01*
Y4899197D01*
X7459195D01*
X7479515Y4919517D02*
Y4980477D01*
X7540475D01*
Y4919517D01*
X7479515D01*
X7609195Y4599197D02*
Y4700797D01*
X7710795D01*
Y4599197D01*
X7609195D01*
X7629515Y4619517D02*
Y4680477D01*
X7690475D01*
Y4619517D01*
X7629515D01*
X7609195Y3399197D02*
Y3500797D01*
X7710795D01*
Y3399197D01*
X7609195D01*
X7629515Y3419517D02*
Y3480477D01*
X7690475D01*
Y3419517D01*
X7629515D01*
X7459195Y3099198D02*
Y3200798D01*
X7560795D01*
Y3099198D01*
X7459195D01*
X7479515Y3119518D02*
Y3180478D01*
X7540475D01*
Y3119518D01*
X7479515D01*
X7609195Y2799198D02*
Y2900798D01*
X7710795D01*
Y2799198D01*
X7609195D01*
X7629515Y2819518D02*
Y2880478D01*
X7690475D01*
Y2819518D01*
X7629515D01*
X7459195Y2499198D02*
Y2600798D01*
X7560795D01*
Y2499198D01*
X7459195D01*
X7479515Y2519518D02*
Y2580478D01*
X7540475D01*
Y2519518D01*
X7479515D01*
X7159195Y4899197D02*
Y5000797D01*
X7260795D01*
Y4899197D01*
X7159195D01*
X7179515Y4919517D02*
Y4980477D01*
X7240475D01*
Y4919517D01*
X7179515D01*
X7309195Y4599197D02*
Y4700797D01*
X7410795D01*
Y4599197D01*
X7309195D01*
X7329515Y4619517D02*
Y4680477D01*
X7390475D01*
Y4619517D01*
X7329515D01*
X7159195Y3699197D02*
Y3800797D01*
X7260795D01*
Y3699197D01*
X7159195D01*
X7179515Y3719517D02*
Y3780477D01*
X7240475D01*
Y3719517D01*
X7179515D01*
X7309195Y3399197D02*
Y3500797D01*
X7410795D01*
Y3399197D01*
X7309195D01*
X7329515Y3419517D02*
Y3480477D01*
X7390475D01*
Y3419517D01*
X7329515D01*
X7159195Y3099198D02*
Y3200798D01*
X7260795D01*
Y3099198D01*
X7159195D01*
X7179515Y3119518D02*
Y3180478D01*
X7240475D01*
Y3119518D01*
X7179515D01*
X7159195Y2499198D02*
Y2600798D01*
X7260795D01*
Y2499198D01*
X7159195D01*
X7179515Y2519518D02*
Y2580478D01*
X7240475D01*
Y2519518D01*
X7179515D01*
X6859195Y4899197D02*
Y5000797D01*
X6960795D01*
Y4899197D01*
X6859195D01*
X6879515Y4919517D02*
Y4980477D01*
X6940475D01*
Y4919517D01*
X6879515D01*
X7009195Y2799198D02*
Y2900798D01*
X7110795D01*
Y2799198D01*
X7009195D01*
X7029515Y2819518D02*
Y2880478D01*
X7090475D01*
Y2819518D01*
X7029515D01*
X6834200Y3896700D02*
Y3998300D01*
X6935800D01*
Y3896700D01*
X6834200D01*
X6854520Y3917020D02*
Y3977980D01*
X6915480D01*
Y3917020D01*
X6854520D01*
X6619200Y3829200D02*
Y3930800D01*
X6720800D01*
Y3829200D01*
X6619200D01*
X6639520Y3849520D02*
Y3910480D01*
X6700480D01*
Y3849520D01*
X6639520D01*
X7059200Y4334200D02*
Y4435800D01*
X7160800D01*
Y4334200D01*
X7059200D01*
X7079520Y4354520D02*
Y4415480D01*
X7140480D01*
Y4354520D01*
X7079520D01*
X6869200Y4331700D02*
Y4433300D01*
X6970800D01*
Y4331700D01*
X6869200D01*
X6889520Y4352020D02*
Y4412980D01*
X6950480D01*
Y4352020D01*
X6889520D01*
X5314200Y4089200D02*
Y4190800D01*
X5415800D01*
Y4089200D01*
X5314200D01*
X5334520Y4109520D02*
Y4170480D01*
X5395480D01*
Y4109520D01*
X5334520D01*
X7081700Y6284200D02*
Y6385800D01*
X7183300D01*
Y6284200D01*
X7081700D01*
X7102020Y6304520D02*
Y6365480D01*
X7162980D01*
Y6304520D01*
X7102020D01*
X7479200Y5941700D02*
Y6043300D01*
X7580800D01*
Y5941700D01*
X7479200D01*
X7499520Y5962020D02*
Y6022980D01*
X7560480D01*
Y5962020D01*
X7499520D01*
X5181700Y4084200D02*
Y4185800D01*
X5283300D01*
Y4084200D01*
X5181700D01*
X5202020Y4104520D02*
Y4165480D01*
X5262980D01*
Y4104520D01*
X5202020D01*
X4701700Y3799200D02*
Y3900800D01*
X4803300D01*
Y3799200D01*
X4701700D01*
X4722020Y3819520D02*
Y3880480D01*
X4782980D01*
Y3819520D01*
X4722020D01*
X7021700Y5469200D02*
Y5570800D01*
X7123300D01*
Y5469200D01*
X7021700D01*
X7042020Y5489520D02*
Y5550480D01*
X7102980D01*
Y5489520D01*
X7042020D01*
X5834200Y5366700D02*
Y5468300D01*
X5935800D01*
Y5366700D01*
X5834200D01*
X5854520Y5387020D02*
Y5447980D01*
X5915480D01*
Y5387020D01*
X5854520D01*
X5536700Y5364200D02*
Y5465800D01*
X5638300D01*
Y5364200D01*
X5536700D01*
X5557020Y5384520D02*
Y5445480D01*
X5617980D01*
Y5384520D01*
X5557020D01*
X5701700Y6291700D02*
Y6393300D01*
X5803300D01*
Y6291700D01*
X5701700D01*
X5722020Y6312020D02*
Y6372980D01*
X5782980D01*
Y6312020D01*
X5722020D01*
X4689200Y3559200D02*
Y3660800D01*
X4790800D01*
Y3559200D01*
X4689200D01*
X4709520Y3579520D02*
Y3640480D01*
X4770480D01*
Y3579520D01*
X4709520D01*
X5066555Y3771411D02*
Y3873011D01*
X5168155D01*
Y3771411D01*
X5066555D01*
X5086875Y3791731D02*
Y3852691D01*
X5147835D01*
Y3791731D01*
X5086875D01*
X5071700Y3564200D02*
Y3665800D01*
X5173300D01*
Y3564200D01*
X5071700D01*
X5092020Y3584520D02*
Y3645480D01*
X5152980D01*
Y3584520D01*
X5092020D01*
X1306700Y4746700D02*
Y4848300D01*
X1408300D01*
Y4746700D01*
X1306700D01*
X1327020Y4767020D02*
Y4827980D01*
X1387980D01*
Y4767020D01*
X1327020D01*
X1227933Y4531700D02*
Y4633300D01*
X1329533D01*
Y4531700D01*
X1227933D01*
X1248253Y4552020D02*
Y4612980D01*
X1309213D01*
Y4552020D01*
X1248253D01*
X5054200Y3949200D02*
Y4050800D01*
X5155800D01*
Y3949200D01*
X5054200D01*
X5074520Y3969520D02*
Y4030480D01*
X5135480D01*
Y3969520D01*
X5074520D01*
X4479200Y3821700D02*
Y3923300D01*
X4580800D01*
Y3821700D01*
X4479200D01*
X4499520Y3842020D02*
Y3902980D01*
X4560480D01*
Y3842020D01*
X4499520D01*
X2886700Y2691700D02*
Y2793300D01*
X2988300D01*
Y2691700D01*
X2886700D01*
X2907020Y2712020D02*
Y2772980D01*
X2967980D01*
Y2712020D01*
X2907020D01*
X2334200Y2141700D02*
Y2243300D01*
X2435800D01*
Y2141700D01*
X2334200D01*
X2354520Y2162020D02*
Y2222980D01*
X2415480D01*
Y2162020D01*
X2354520D01*
X2441700Y2141700D02*
Y2243300D01*
X2543300D01*
Y2141700D01*
X2441700D01*
X2462020Y2162020D02*
Y2222980D01*
X2522980D01*
Y2162020D01*
X2462020D01*
X2886700Y3634200D02*
Y3735800D01*
X2988300D01*
Y3634200D01*
X2886700D01*
X2907020Y3654520D02*
Y3715480D01*
X2967980D01*
Y3654520D01*
X2907020D01*
X2664200Y3361700D02*
Y3463300D01*
X2765800D01*
Y3361700D01*
X2664200D01*
X2684520Y3382020D02*
Y3442980D01*
X2745480D01*
Y3382020D01*
X2684520D01*
X2726700Y3621692D02*
Y3723292D01*
X2828300D01*
Y3621692D01*
X2726700D01*
X2747020Y3642012D02*
Y3702972D01*
X2807980D01*
Y3642012D01*
X2747020D01*
X2716700Y2616700D02*
Y2718300D01*
X2818300D01*
Y2616700D01*
X2716700D01*
X2737020Y2637020D02*
Y2697980D01*
X2797980D01*
Y2637020D01*
X2737020D01*
X2559200Y3544200D02*
Y3645800D01*
X2660800D01*
Y3544200D01*
X2559200D01*
X2579520Y3564520D02*
Y3625480D01*
X2640480D01*
Y3564520D01*
X2579520D01*
X2249200Y3544200D02*
Y3645800D01*
X2350800D01*
Y3544200D01*
X2249200D01*
X2269520Y3564520D02*
Y3625480D01*
X2330480D01*
Y3564520D01*
X2269520D01*
X3016700Y3676700D02*
Y3778300D01*
X3118300D01*
Y3676700D01*
X3016700D01*
X3037020Y3697020D02*
Y3757980D01*
X3097980D01*
Y3697020D01*
X3037020D01*
X2789200Y5011700D02*
Y5113300D01*
X2890800D01*
Y5011700D01*
X2789200D01*
X2809520Y5032020D02*
Y5092980D01*
X2870480D01*
Y5032020D01*
X2809520D01*
X2949200Y6354200D02*
Y6455800D01*
X3050800D01*
Y6354200D01*
X2949200D01*
X2969520Y6374520D02*
Y6435480D01*
X3030480D01*
Y6374520D01*
X2969520D01*
X1099200Y3006700D02*
Y3108300D01*
X1200800D01*
Y3006700D01*
X1099200D01*
X1119520Y3027020D02*
Y3087980D01*
X1180480D01*
Y3027020D01*
X1119520D01*
X1099200Y3251700D02*
Y3353300D01*
X1200800D01*
Y3251700D01*
X1099200D01*
X1119520Y3272020D02*
Y3332980D01*
X1180480D01*
Y3272020D01*
X1119520D01*
X2884200Y2251700D02*
Y2353300D01*
X2985800D01*
Y2251700D01*
X2884200D01*
X2904520Y2272020D02*
Y2332980D01*
X2965480D01*
Y2272020D01*
X2904520D01*
X2711700Y2129200D02*
Y2230800D01*
X2813300D01*
Y2129200D01*
X2711700D01*
X2732020Y2149520D02*
Y2210480D01*
X2792980D01*
Y2149520D01*
X2732020D01*
X499200Y6579200D02*
Y6680800D01*
X600800D01*
Y6579200D01*
X499200D01*
X519520Y6599520D02*
Y6660480D01*
X580480D01*
Y6599520D01*
X519520D01*
X1086700Y4339200D02*
Y4440800D01*
X1188300D01*
Y4339200D01*
X1086700D01*
X1107020Y4359520D02*
Y4420480D01*
X1167980D01*
Y4359520D01*
X1107020D01*
X1036700Y3961700D02*
Y4063300D01*
X1138300D01*
Y3961700D01*
X1036700D01*
X1057020Y3982020D02*
Y4042980D01*
X1117980D01*
Y3982020D01*
X1057020D01*
X931700Y3679200D02*
Y3780800D01*
X1033300D01*
Y3679200D01*
X931700D01*
X952020Y3699520D02*
Y3760480D01*
X1012980D01*
Y3699520D01*
X952020D01*
X1811254Y3576254D02*
Y3677854D01*
X1912854D01*
Y3576254D01*
X1811254D01*
X1831574Y3596574D02*
Y3657534D01*
X1892534D01*
Y3596574D01*
X1831574D01*
X2004200Y3866700D02*
Y3968300D01*
X2105800D01*
Y3866700D01*
X2004200D01*
X2024520Y3887020D02*
Y3947980D01*
X2085480D01*
Y3887020D01*
X2024520D01*
X2354200Y3704200D02*
Y3805800D01*
X2455800D01*
Y3704200D01*
X2354200D01*
X2374520Y3724520D02*
Y3785480D01*
X2435480D01*
Y3724520D01*
X2374520D01*
X1769200Y5024200D02*
Y5125800D01*
X1870800D01*
Y5024200D01*
X1769200D01*
X1789520Y5044520D02*
Y5105480D01*
X1850480D01*
Y5044520D01*
X1789520D01*
X4789200Y2114200D02*
Y2215800D01*
X4890800D01*
Y2114200D01*
X4789200D01*
X4809520Y2134520D02*
Y2195480D01*
X4870480D01*
Y2134520D01*
X4809520D01*
X3604760Y3634100D02*
Y3735700D01*
X3706360D01*
Y3634100D01*
X3604760D01*
X3625080Y3654420D02*
Y3715380D01*
X3686040D01*
Y3654420D01*
X3625080D01*
X3449200Y5314200D02*
Y5415800D01*
X3550800D01*
Y5314200D01*
X3449200D01*
X3469520Y5334520D02*
Y5395480D01*
X3530480D01*
Y5334520D01*
X3469520D01*
X3444200Y5426700D02*
Y5528300D01*
X3545800D01*
Y5426700D01*
X3444200D01*
X3464520Y5447020D02*
Y5507980D01*
X3525480D01*
Y5447020D01*
X3464520D01*
X3451700Y6384200D02*
Y6485800D01*
X3553300D01*
Y6384200D01*
X3451700D01*
X3472020Y6404520D02*
Y6465480D01*
X3532980D01*
Y6404520D01*
X3472020D01*
X3451700Y6249200D02*
Y6350800D01*
X3553300D01*
Y6249200D01*
X3451700D01*
X3472020Y6269520D02*
Y6330480D01*
X3532980D01*
Y6269520D01*
X3472020D01*
X2904200Y5551700D02*
Y5653300D01*
X3005800D01*
Y5551700D01*
X2904200D01*
X2924520Y5572020D02*
Y5632980D01*
X2985480D01*
Y5572020D01*
X2924520D01*
X3826700Y5784200D02*
Y5885800D01*
X3928300D01*
Y5784200D01*
X3826700D01*
X3847020Y5804520D02*
Y5865480D01*
X3907980D01*
Y5804520D01*
X3847020D01*
X3179200Y6231700D02*
Y6333300D01*
X3280800D01*
Y6231700D01*
X3179200D01*
X3199520Y6252020D02*
Y6312980D01*
X3260480D01*
Y6252020D01*
X3199520D01*
X2796700Y2434200D02*
Y2535800D01*
X2898300D01*
Y2434200D01*
X2796700D01*
X2817020Y2454520D02*
Y2515480D01*
X2877980D01*
Y2454520D01*
X2817020D01*
X1639768Y7103722D02*
Y7205322D01*
X1741368D01*
Y7103722D01*
X1639768D01*
X1660088Y7124042D02*
Y7185002D01*
X1721048D01*
Y7124042D01*
X1660088D01*
X2561700Y1749200D02*
Y1850800D01*
X2663300D01*
Y1749200D01*
X2561700D01*
X2582020Y1769520D02*
Y1830480D01*
X2642980D01*
Y1769520D01*
X2582020D01*
X3254200Y1686700D02*
Y1788300D01*
X3355800D01*
Y1686700D01*
X3254200D01*
X3274520Y1707020D02*
Y1767980D01*
X3335480D01*
Y1707020D01*
X3274520D01*
X4464200Y3491700D02*
Y3593300D01*
X4565800D01*
Y3491700D01*
X4464200D01*
X4484520Y3512020D02*
Y3572980D01*
X4545480D01*
Y3512020D01*
X4484520D01*
X1824200Y1446700D02*
Y1548300D01*
X1925800D01*
Y1446700D01*
X1824200D01*
X1844520Y1467020D02*
Y1527980D01*
X1905480D01*
Y1467020D01*
X1844520D01*
X2161700Y1446700D02*
Y1548300D01*
X2263300D01*
Y1446700D01*
X2161700D01*
X2182020Y1467020D02*
Y1527980D01*
X2242980D01*
Y1467020D01*
X2182020D01*
X1232843Y3490234D02*
Y3591834D01*
X1334443D01*
Y3490234D01*
X1232843D01*
X1253163Y3510554D02*
Y3571514D01*
X1314123D01*
Y3510554D01*
X1253163D01*
X3611700Y3869200D02*
Y3970800D01*
X3713300D01*
Y3869200D01*
X3611700D01*
X3632020Y3889520D02*
Y3950480D01*
X3692980D01*
Y3889520D01*
X3632020D01*
X786700Y7129200D02*
Y7230800D01*
X888300D01*
Y7129200D01*
X786700D01*
X807020Y7149520D02*
Y7210480D01*
X867980D01*
Y7149520D01*
X807020D01*
X1756700Y6841700D02*
Y6943300D01*
X1858300D01*
Y6841700D01*
X1756700D01*
X1777020Y6862020D02*
Y6922980D01*
X1837980D01*
Y6862020D01*
X1777020D01*
X1259200Y7006700D02*
Y7108300D01*
X1360800D01*
Y7006700D01*
X1259200D01*
X1279520Y7027020D02*
Y7087980D01*
X1340480D01*
Y7027020D01*
X1279520D01*
X164200Y2684200D02*
Y2785800D01*
X265800D01*
Y2684200D01*
X164200D01*
X184520Y2704520D02*
Y2765480D01*
X245480D01*
Y2704520D01*
X184520D01*
X1099200Y3181700D02*
Y3283300D01*
X1200800D01*
Y3181700D01*
X1099200D01*
X1119520Y3202020D02*
Y3262980D01*
X1180480D01*
Y3202020D01*
X1119520D01*
X2614200Y3499200D02*
Y3600800D01*
X2715800D01*
Y3499200D01*
X2614200D01*
X2634520Y3519520D02*
Y3580480D01*
X2695480D01*
Y3519520D01*
X2634520D01*
X2249200Y3474200D02*
Y3575800D01*
X2350800D01*
Y3474200D01*
X2249200D01*
X2269520Y3494520D02*
Y3555480D01*
X2330480D01*
Y3494520D01*
X2269520D01*
X1961700Y2326700D02*
Y2428300D01*
X2063300D01*
Y2326700D01*
X1961700D01*
X1982020Y2347020D02*
Y2407980D01*
X2042980D01*
Y2347020D01*
X1982020D01*
X1854200Y2171700D02*
Y2273300D01*
X1955800D01*
Y2171700D01*
X1854200D01*
X1874520Y2192020D02*
Y2252980D01*
X1935480D01*
Y2192020D01*
X1874520D01*
X2019200Y2284200D02*
Y2385800D01*
X2120800D01*
Y2284200D01*
X2019200D01*
X2039520Y2304520D02*
Y2365480D01*
X2100480D01*
Y2304520D01*
X2039520D01*
X1924200Y2171700D02*
Y2273300D01*
X2025800D01*
Y2171700D01*
X1924200D01*
X1944520Y2192020D02*
Y2252980D01*
X2005480D01*
Y2192020D01*
X1944520D01*
X1099200Y2936700D02*
Y3038300D01*
X1200800D01*
Y2936700D01*
X1099200D01*
X1119520Y2957020D02*
Y3017980D01*
X1180480D01*
Y2957020D01*
X1119520D01*
X1369200Y3731700D02*
Y3833300D01*
X1470800D01*
Y3731700D01*
X1369200D01*
X1389520Y3752020D02*
Y3812980D01*
X1450480D01*
Y3752020D01*
X1389520D01*
X1604200Y3964200D02*
Y4065800D01*
X1705800D01*
Y3964200D01*
X1604200D01*
X1624520Y3984520D02*
Y4045480D01*
X1685480D01*
Y3984520D01*
X1624520D01*
X1554200Y2464200D02*
Y2565800D01*
X1655800D01*
Y2464200D01*
X1554200D01*
X1574520Y2484520D02*
Y2545480D01*
X1635480D01*
Y2484520D01*
X1574520D01*
X1216700Y4426700D02*
Y4528300D01*
X1318300D01*
Y4426700D01*
X1216700D01*
X1237020Y4447020D02*
Y4507980D01*
X1297980D01*
Y4447020D01*
X1237020D01*
X1674200Y4526700D02*
Y4628300D01*
X1775800D01*
Y4526700D01*
X1674200D01*
X1694520Y4547020D02*
Y4607980D01*
X1755480D01*
Y4547020D01*
X1694520D01*
X539200Y1424200D02*
Y1525800D01*
X640800D01*
Y1424200D01*
X539200D01*
X559520Y1444520D02*
Y1505480D01*
X620480D01*
Y1444520D01*
X559520D01*
X1554200Y1426700D02*
Y1528300D01*
X1655800D01*
Y1426700D01*
X1554200D01*
X1574520Y1447020D02*
Y1507980D01*
X1635480D01*
Y1447020D01*
X1574520D01*
X1826700Y1271700D02*
Y1373300D01*
X1928300D01*
Y1271700D01*
X1826700D01*
X1847020Y1292020D02*
Y1352980D01*
X1907980D01*
Y1292020D01*
X1847020D01*
X1954200Y911700D02*
Y1013300D01*
X2055800D01*
Y911700D01*
X1954200D01*
X1974520Y932020D02*
Y992980D01*
X2035480D01*
Y932020D01*
X1974520D01*
X166700Y2614200D02*
Y2715800D01*
X268300D01*
Y2614200D01*
X166700D01*
X187020Y2634520D02*
Y2695480D01*
X247980D01*
Y2634520D01*
X187020D01*
X391700Y2611700D02*
Y2713300D01*
X493300D01*
Y2611700D01*
X391700D01*
X412020Y2632020D02*
Y2692980D01*
X472980D01*
Y2632020D01*
X412020D01*
X166700Y3141700D02*
Y3243300D01*
X268300D01*
Y3141700D01*
X166700D01*
X187020Y3162020D02*
Y3222980D01*
X247980D01*
Y3162020D01*
X187020D01*
X226700Y3304200D02*
Y3405800D01*
X328300D01*
Y3304200D01*
X226700D01*
X247020Y3324520D02*
Y3385480D01*
X307980D01*
Y3324520D01*
X247020D01*
X944200Y6859200D02*
Y6960800D01*
X1045800D01*
Y6859200D01*
X944200D01*
X964520Y6879520D02*
Y6940480D01*
X1025480D01*
Y6879520D01*
X964520D01*
X2214200Y231700D02*
Y333300D01*
X2315800D01*
Y231700D01*
X2214200D01*
X2234520Y252020D02*
Y312980D01*
X2295480D01*
Y252020D01*
X2234520D01*
X7151700Y6359200D02*
Y6460800D01*
X7253300D01*
Y6359200D01*
X7151700D01*
X7172020Y6379520D02*
Y6440480D01*
X7232980D01*
Y6379520D01*
X7172020D01*
X7024200Y6439200D02*
Y6540800D01*
X7125800D01*
Y6439200D01*
X7024200D01*
X7044520Y6459520D02*
Y6520480D01*
X7105480D01*
Y6459520D01*
X7044520D01*
X1611700Y5981700D02*
Y6083300D01*
X1713300D01*
Y5981700D01*
X1611700D01*
X1632020Y6002020D02*
Y6062980D01*
X1692980D01*
Y6002020D01*
X1632020D01*
X1456700Y4304200D02*
Y4405800D01*
X1558300D01*
Y4304200D01*
X1456700D01*
X1477020Y4324520D02*
Y4385480D01*
X1537980D01*
Y4324520D01*
X1477020D01*
X5879200Y6281700D02*
Y6383300D01*
X5980800D01*
Y6281700D01*
X5879200D01*
X5899520Y6302020D02*
Y6362980D01*
X5960480D01*
Y6302020D01*
X5899520D01*
X5859200Y7004200D02*
Y7105800D01*
X5960800D01*
Y7004200D01*
X5859200D01*
X5879520Y7024520D02*
Y7085480D01*
X5940480D01*
Y7024520D01*
X5879520D01*
X7981700Y5779200D02*
Y5880800D01*
X8083300D01*
Y5779200D01*
X7981700D01*
X8002020Y5799520D02*
Y5860480D01*
X8062980D01*
Y5799520D01*
X8002020D01*
X2356700Y5284200D02*
Y5385800D01*
X2458300D01*
Y5284200D01*
X2356700D01*
X2377020Y5304520D02*
Y5365480D01*
X2437980D01*
Y5304520D01*
X2377020D01*
X7586700Y4071700D02*
Y4173300D01*
X7688300D01*
Y4071700D01*
X7586700D01*
X7607020Y4092020D02*
Y4152980D01*
X7667980D01*
Y4092020D01*
X7607020D01*
X6636700Y3671700D02*
Y3773300D01*
X6738300D01*
Y3671700D01*
X6636700D01*
X6657020Y3692020D02*
Y3752980D01*
X6717980D01*
Y3692020D01*
X6657020D01*
X1971700Y6171700D02*
Y6273300D01*
X2073300D01*
Y6171700D01*
X1971700D01*
X1992020Y6192020D02*
Y6252980D01*
X2052980D01*
Y6192020D01*
X1992020D01*
X1974200Y5979200D02*
Y6080800D01*
X2075800D01*
Y5979200D01*
X1974200D01*
X1994520Y5999520D02*
Y6060480D01*
X2055480D01*
Y5999520D01*
X1994520D01*
X851700Y5916700D02*
Y6018300D01*
X953300D01*
Y5916700D01*
X851700D01*
X872020Y5937020D02*
Y5997980D01*
X932980D01*
Y5937020D01*
X872020D01*
X3154200Y7021700D02*
Y7123300D01*
X3255800D01*
Y7021700D01*
X3154200D01*
X3174520Y7042020D02*
Y7102980D01*
X3235480D01*
Y7042020D01*
X3174520D01*
X1612700Y4923899D02*
Y5025499D01*
X1714300D01*
Y4923899D01*
X1612700D01*
X1633020Y4944219D02*
Y5005179D01*
X1693980D01*
Y4944219D01*
X1633020D01*
X1610500Y4742500D02*
Y4844100D01*
X1712100D01*
Y4742500D01*
X1610500D01*
X1630820Y4762820D02*
Y4823780D01*
X1691780D01*
Y4762820D01*
X1630820D01*
X1381700Y3659200D02*
Y3760800D01*
X1483300D01*
Y3659200D01*
X1381700D01*
X1402020Y3679520D02*
Y3740480D01*
X1462980D01*
Y3679520D01*
X1402020D01*
X1674200Y3956700D02*
Y4058300D01*
X1775800D01*
Y3956700D01*
X1674200D01*
X1694520Y3977020D02*
Y4037980D01*
X1755480D01*
Y3977020D01*
X1694520D01*
X521700Y5726700D02*
Y5828300D01*
X623300D01*
Y5726700D01*
X521700D01*
X542020Y5747020D02*
Y5807980D01*
X602980D01*
Y5747020D01*
X542020D01*
X526700Y5916700D02*
Y6018300D01*
X628300D01*
Y5916700D01*
X526700D01*
X547020Y5937020D02*
Y5997980D01*
X607980D01*
Y5937020D01*
X547020D01*
X2906700Y6104200D02*
Y6205800D01*
X3008300D01*
Y6104200D01*
X2906700D01*
X2927020Y6124520D02*
Y6185480D01*
X2987980D01*
Y6124520D01*
X2927020D01*
X3824200Y5869200D02*
Y5970800D01*
X3925800D01*
Y5869200D01*
X3824200D01*
X3844520Y5889520D02*
Y5950480D01*
X3905480D01*
Y5889520D01*
X3844520D01*
X7239200Y5389200D02*
Y5490800D01*
X7340800D01*
Y5389200D01*
X7239200D01*
X7259520Y5409520D02*
Y5470480D01*
X7320480D01*
Y5409520D01*
X7259520D01*
X7419200Y5389200D02*
Y5490800D01*
X7520800D01*
Y5389200D01*
X7419200D01*
X7439520Y5409520D02*
Y5470480D01*
X7500480D01*
Y5409520D01*
X7439520D01*
X7789200Y4434200D02*
Y4535800D01*
X7890800D01*
Y4434200D01*
X7789200D01*
X7809520Y4454520D02*
Y4515480D01*
X7870480D01*
Y4454520D01*
X7809520D01*
X4039200Y4016700D02*
Y4118300D01*
X4140800D01*
Y4016700D01*
X4039200D01*
X4059520Y4037020D02*
Y4097980D01*
X4120480D01*
Y4037020D01*
X4059520D01*
X391700Y2681700D02*
Y2783300D01*
X493300D01*
Y2681700D01*
X391700D01*
X412020Y2702020D02*
Y2762980D01*
X472980D01*
Y2702020D01*
X412020D01*
X1896700Y1269200D02*
Y1370800D01*
X1998300D01*
Y1269200D01*
X1896700D01*
X1917020Y1289520D02*
Y1350480D01*
X1977980D01*
Y1289520D01*
X1917020D01*
X1626700Y2456700D02*
Y2558300D01*
X1728300D01*
Y2456700D01*
X1626700D01*
X1647020Y2477020D02*
Y2537980D01*
X1707980D01*
Y2477020D01*
X1647020D01*
X1441700Y7011600D02*
Y7113200D01*
X1543300D01*
Y7011600D01*
X1441700D01*
X1462020Y7031920D02*
Y7092880D01*
X1522980D01*
Y7031920D01*
X1462020D01*
X2624200Y5276700D02*
Y5378300D01*
X2725800D01*
Y5276700D01*
X2624200D01*
X2644520Y5297020D02*
Y5357980D01*
X2705480D01*
Y5297020D01*
X2644520D01*
X3054200Y5329200D02*
Y5430800D01*
X3155800D01*
Y5329200D01*
X3054200D01*
X3074520Y5349520D02*
Y5410480D01*
X3135480D01*
Y5349520D01*
X3074520D01*
X3204200Y589200D02*
Y690800D01*
X3305800D01*
Y589200D01*
X3204200D01*
X3224520Y609520D02*
Y670480D01*
X3285480D01*
Y609520D01*
X3224520D01*
X3731700Y1011700D02*
Y1113300D01*
X3833300D01*
Y1011700D01*
X3731700D01*
X3752020Y1032020D02*
Y1092980D01*
X3812980D01*
Y1032020D01*
X3752020D01*
X3754200Y584200D02*
Y685800D01*
X3855800D01*
Y584200D01*
X3754200D01*
X3774520Y604520D02*
Y665480D01*
X3835480D01*
Y604520D01*
X3774520D01*
X3221700Y1016700D02*
Y1118300D01*
X3323300D01*
Y1016700D01*
X3221700D01*
X3242020Y1037020D02*
Y1097980D01*
X3302980D01*
Y1037020D01*
X3242020D01*
X3666700Y1356700D02*
Y1458300D01*
X3768300D01*
Y1356700D01*
X3666700D01*
X3687020Y1377020D02*
Y1437980D01*
X3747980D01*
Y1377020D01*
X3687020D01*
X4584200Y1621700D02*
Y1723300D01*
X4685800D01*
Y1621700D01*
X4584200D01*
X4604520Y1642020D02*
Y1702980D01*
X4665480D01*
Y1642020D01*
X4604520D01*
X4536700Y3389200D02*
Y3490800D01*
X4638300D01*
Y3389200D01*
X4536700D01*
X4557020Y3409520D02*
Y3470480D01*
X4617980D01*
Y3409520D01*
X4557020D01*
X2354200Y4021700D02*
Y4123300D01*
X2455800D01*
Y4021700D01*
X2354200D01*
X2374520Y4042020D02*
Y4102980D01*
X2435480D01*
Y4042020D01*
X2374520D01*
X4941700Y4164200D02*
Y4265800D01*
X5043300D01*
Y4164200D01*
X4941700D01*
X4962020Y4184520D02*
Y4245480D01*
X5022980D01*
Y4184520D01*
X4962020D01*
X3180450Y5442950D02*
Y5544550D01*
X3282050D01*
Y5442950D01*
X3180450D01*
X3200770Y5463270D02*
Y5524230D01*
X3261730D01*
Y5463270D01*
X3200770D01*
X4819200Y5854200D02*
Y5955800D01*
X4920800D01*
Y5854200D01*
X4819200D01*
X4839520Y5874520D02*
Y5935480D01*
X4900480D01*
Y5874520D01*
X4839520D01*
X6626700Y4256700D02*
Y4358300D01*
X6728300D01*
Y4256700D01*
X6626700D01*
X6647020Y4277020D02*
Y4337980D01*
X6707980D01*
Y4277020D01*
X6647020D01*
X7019200Y6069200D02*
Y6170800D01*
X7120800D01*
Y6069200D01*
X7019200D01*
X7039520Y6089520D02*
Y6150480D01*
X7100480D01*
Y6089520D01*
X7039520D01*
X6056300Y6344200D02*
Y6445800D01*
X6157900D01*
Y6344200D01*
X6056300D01*
X6076620Y6364520D02*
Y6425480D01*
X6137580D01*
Y6364520D01*
X6076620D01*
X5681700Y6501700D02*
Y6603300D01*
X5783300D01*
Y6501700D01*
X5681700D01*
X5702020Y6522020D02*
Y6582980D01*
X5762980D01*
Y6522020D01*
X5702020D01*
X6074200Y5749200D02*
Y5850800D01*
X6175800D01*
Y5749200D01*
X6074200D01*
X6094520Y5769520D02*
Y5830480D01*
X6155480D01*
Y5769520D01*
X6094520D01*
X5569200Y6041700D02*
Y6143300D01*
X5670800D01*
Y6041700D01*
X5569200D01*
X5589520Y6062020D02*
Y6122980D01*
X5650480D01*
Y6062020D01*
X5589520D01*
X6349200Y5629200D02*
Y5730800D01*
X6450800D01*
Y5629200D01*
X6349200D01*
X6369520Y5649520D02*
Y5710480D01*
X6430480D01*
Y5649520D01*
X6369520D01*
X6081700Y5966700D02*
Y6068300D01*
X6183300D01*
Y5966700D01*
X6081700D01*
X6102020Y5987020D02*
Y6047980D01*
X6162980D01*
Y5987020D01*
X6102020D01*
X5541700Y5956700D02*
Y6058300D01*
X5643300D01*
Y5956700D01*
X5541700D01*
X5562020Y5977020D02*
Y6037980D01*
X5622980D01*
Y5977020D01*
X5562020D01*
X7276700Y6299200D02*
Y6400800D01*
X7378300D01*
Y6299200D01*
X7276700D01*
X7297020Y6319520D02*
Y6380480D01*
X7357980D01*
Y6319520D01*
X7297020D01*
X6256300Y6329200D02*
Y6430800D01*
X6357900D01*
Y6329200D01*
X6256300D01*
X6276620Y6349520D02*
Y6410480D01*
X6337580D01*
Y6349520D01*
X6276620D01*
X5849200Y6429200D02*
Y6530800D01*
X5950800D01*
Y6429200D01*
X5849200D01*
X5869520Y6449520D02*
Y6510480D01*
X5930480D01*
Y6449520D01*
X5869520D01*
X5679200Y6414200D02*
Y6515800D01*
X5780800D01*
Y6414200D01*
X5679200D01*
X5699520Y6434520D02*
Y6495480D01*
X5760480D01*
Y6434520D01*
X5699520D01*
X6886700Y6181700D02*
Y6283300D01*
X6988300D01*
Y6181700D01*
X6886700D01*
X6907020Y6202020D02*
Y6262980D01*
X6967980D01*
Y6202020D01*
X6907020D01*
X6879200Y5559200D02*
Y5660800D01*
X6980800D01*
Y5559200D01*
X6879200D01*
X6899520Y5579520D02*
Y5640480D01*
X6960480D01*
Y5579520D01*
X6899520D01*
X6686700Y5619200D02*
Y5720800D01*
X6788300D01*
Y5619200D01*
X6686700D01*
X6707020Y5639520D02*
Y5700480D01*
X6767980D01*
Y5639520D01*
X6707020D01*
D149*
X8356800Y4688000D02*
G03*
X8356800Y4688000I-50800J0D01*
G01*
Y716000D02*
G03*
X8356800Y716000I-50800J0D01*
G01*
Y2702000D02*
G03*
X8356800Y2702000I-50800J0D01*
G01*
Y6674000D02*
G03*
X8356800Y6674000I-50800J0D01*
G01*
X568300Y1895100D02*
G03*
X568300Y1895100I-50800J0D01*
G01*
X855800Y982500D02*
G03*
X855800Y982500I-50800J0D01*
G01*
D150*
X547980Y1895100D02*
G03*
X547980Y1895100I-30480J0D01*
G01*
X835480Y982500D02*
G03*
X835480Y982500I-30480J0D01*
G01*
%TF.MD5,c141c821c30dd7564fbdf9c5405bf7f7*%
M02*
