%TF.GenerationSoftware,Altium Limited,Altium Designer,25.0.2 (28)*%
G04 Layer_Physical_Order=4*
G04 Layer_Color=16711680*
%FSLAX45Y45*%
%MOMM*%
%TF.SameCoordinates,6CA9225A-D19C-4A09-8B82-60FEBDA2364A*%
%TF.FilePolarity,Positive*%
%TF.FileFunction,Copper,L4,Bot,Signal*%
%TF.Part,Single*%
G01*
G75*
%TA.AperFunction,Conductor*%
%ADD53C,0.15000*%
%ADD54C,0.40000*%
%ADD55C,0.25400*%
%ADD56C,0.20000*%
%ADD57C,0.50000*%
%TA.AperFunction,ComponentPad*%
%ADD58C,1.57480*%
%ADD59R,1.57480X1.57480*%
%ADD60C,1.16840*%
%ADD61C,2.32500*%
%ADD62C,2.47500*%
%ADD63C,1.95000*%
G04:AMPARAMS|DCode=64|XSize=1.95mm|YSize=1.95mm|CornerRadius=0.4875mm|HoleSize=0mm|Usage=FLASHONLY|Rotation=180.000|XOffset=0mm|YOffset=0mm|HoleType=Round|Shape=RoundedRectangle|*
%AMROUNDEDRECTD64*
21,1,1.95000,0.97500,0,0,180.0*
21,1,0.97500,1.95000,0,0,180.0*
1,1,0.97500,-0.48750,0.48750*
1,1,0.97500,0.48750,0.48750*
1,1,0.97500,0.48750,-0.48750*
1,1,0.97500,-0.48750,-0.48750*
%
%ADD64ROUNDEDRECTD64*%
%ADD65R,1.90500X1.90500*%
%ADD66C,1.90500*%
%ADD67R,1.20000X1.20000*%
%ADD68C,1.20000*%
%ADD69C,2.54000*%
%ADD70R,1.90500X1.90500*%
%TA.AperFunction,ViaPad*%
%ADD71C,0.50000*%
%TA.AperFunction,Conductor*%
%ADD88C,1.00000*%
G36*
X7435556Y5966480D02*
X7437288Y5950252D01*
X7053874Y5566837D01*
X7043951Y5562727D01*
X7029773Y5548549D01*
X7025663Y5538626D01*
X6956160Y5469124D01*
X6945759Y5476411D01*
X7252974Y6134352D01*
X7265482Y6136555D01*
X7435556Y5966480D01*
D02*
G37*
G36*
X8226281Y6016219D02*
X8078909Y5868847D01*
X8064930D01*
X8061049Y5872727D01*
X8042525Y5880400D01*
X8022475D01*
X8003951Y5872727D01*
X7989773Y5858549D01*
X7982100Y5840025D01*
Y5819975D01*
X7989773Y5801451D01*
X8003951Y5787273D01*
X8022475Y5779600D01*
X8042525D01*
X8061049Y5787273D01*
X8064930Y5791154D01*
X8095000D01*
X8109866Y5794111D01*
X8122468Y5802531D01*
X8281219Y5961282D01*
X8685000Y5557500D01*
Y4998393D01*
X8672300Y4994990D01*
X8659024Y5017984D01*
X8635984Y5041024D01*
X8607766Y5057316D01*
X8576292Y5065750D01*
X8572700D01*
Y4942000D01*
Y4818250D01*
X8576292D01*
X8607766Y4826683D01*
X8635984Y4842975D01*
X8659024Y4866016D01*
X8672300Y4889009D01*
X8685000Y4885606D01*
Y4490393D01*
X8672300Y4486990D01*
X8659024Y4509984D01*
X8635984Y4533024D01*
X8607766Y4549316D01*
X8576292Y4557750D01*
X8572700D01*
Y4434000D01*
Y4310250D01*
X8576292D01*
X8607766Y4318683D01*
X8635984Y4334975D01*
X8659024Y4358016D01*
X8672300Y4381009D01*
X8685000Y4377606D01*
Y3012394D01*
X8672300Y3008990D01*
X8659024Y3031984D01*
X8635984Y3055024D01*
X8607766Y3071316D01*
X8576292Y3079750D01*
X8572700D01*
Y2956000D01*
Y2832250D01*
X8576292D01*
X8607766Y2840683D01*
X8635984Y2856975D01*
X8659024Y2880016D01*
X8672300Y2903009D01*
X8685000Y2899606D01*
Y2504394D01*
X8672300Y2500990D01*
X8659024Y2523984D01*
X8635984Y2547024D01*
X8607766Y2563316D01*
X8576292Y2571750D01*
X8572700D01*
Y2448000D01*
Y2324250D01*
X8576292D01*
X8607766Y2332683D01*
X8635984Y2348975D01*
X8659024Y2372016D01*
X8672300Y2395009D01*
X8685000Y2391606D01*
Y2280000D01*
X6912500D01*
Y3235000D01*
X6817500D01*
Y3676211D01*
X6834930D01*
X6847500Y3673710D01*
X6847501Y3673710D01*
X7042499D01*
X7042500Y3673710D01*
X7060214Y3677234D01*
X7075232Y3687268D01*
X7464174Y4076211D01*
X7617551D01*
X7627475Y4072100D01*
X7647525D01*
X7666049Y4079773D01*
X7680227Y4093951D01*
X7687900Y4112475D01*
Y4132525D01*
X7680227Y4151049D01*
X7666049Y4165227D01*
X7647525Y4172900D01*
X7627475D01*
X7617551Y4168789D01*
X7445002D01*
X7445000Y4168790D01*
X7427286Y4165266D01*
X7412269Y4155232D01*
X7412268Y4155231D01*
X7023326Y3766289D01*
X6857570D01*
X6845000Y3768790D01*
X6844999Y3768790D01*
X6817500D01*
Y3840000D01*
X6717869D01*
X6713244Y3852700D01*
X6720400Y3869975D01*
Y3890025D01*
X6712727Y3908549D01*
X6698549Y3922727D01*
X6680025Y3930400D01*
X6659975D01*
X6641451Y3922727D01*
X6627273Y3908549D01*
X6622700Y3897510D01*
X6610000Y3900036D01*
Y4348711D01*
X6630841D01*
X6635701Y4336977D01*
X6634773Y4336049D01*
X6627100Y4317525D01*
Y4297475D01*
X6634773Y4278951D01*
X6648951Y4264773D01*
X6667475Y4257100D01*
X6687525D01*
X6706049Y4264773D01*
X6720227Y4278951D01*
X6727900Y4297475D01*
Y4317525D01*
X6720227Y4336049D01*
X6719299Y4336977D01*
X6724159Y4348711D01*
X6882513D01*
X6891451Y4339773D01*
X6909975Y4332100D01*
X6930025D01*
X6942966Y4337460D01*
X7093070D01*
X7099975Y4334600D01*
X7120025D01*
X7138549Y4342273D01*
X7152727Y4356451D01*
X7160400Y4374975D01*
Y4395025D01*
X7152727Y4413549D01*
X7138549Y4427727D01*
X7120025Y4435400D01*
X7099975D01*
X7087033Y4430039D01*
X6936931D01*
X6930025Y4432900D01*
X6929791D01*
X6922508Y4437766D01*
X6904794Y4441290D01*
X6904792Y4441290D01*
X6610000D01*
Y4757339D01*
X6866287Y5306211D01*
X6904999D01*
X6905000Y5306210D01*
X6922714Y5309734D01*
X6937732Y5319768D01*
X7091126Y5473163D01*
X7101049Y5477273D01*
X7115227Y5491451D01*
X7119337Y5501374D01*
X7560818Y5942855D01*
X7560819Y5942855D01*
X7570853Y5957873D01*
X7571897Y5963121D01*
X7572727Y5963951D01*
X7580400Y5982475D01*
Y6002525D01*
X7572727Y6021049D01*
X7558549Y6035227D01*
X7540025Y6042900D01*
X7519975D01*
X7514670Y6040703D01*
X7492261D01*
X7299331Y6233632D01*
X7330134Y6299600D01*
X7337525D01*
X7356049Y6307273D01*
X7370227Y6321451D01*
X7377900Y6339975D01*
Y6360025D01*
X7370227Y6378549D01*
X7366346Y6382430D01*
Y6430000D01*
X7812500D01*
X8226281Y6016219D01*
D02*
G37*
%LPC*%
G36*
X7480025Y5490400D02*
X7459975D01*
X7441451Y5482727D01*
X7432268Y5473545D01*
X7327732D01*
X7318549Y5482727D01*
X7300025Y5490400D01*
X7279975D01*
X7261451Y5482727D01*
X7247273Y5468549D01*
X7239600Y5450025D01*
Y5429975D01*
X7247273Y5411451D01*
X7261451Y5397273D01*
X7279975Y5389600D01*
X7300025D01*
X7318549Y5397273D01*
X7327732Y5406456D01*
X7432268D01*
X7441451Y5397273D01*
X7459975Y5389600D01*
X7480025D01*
X7498549Y5397273D01*
X7512727Y5411451D01*
X7520400Y5429975D01*
Y5450025D01*
X7512727Y5468549D01*
X7498549Y5482727D01*
X7480025Y5490400D01*
D02*
G37*
G36*
X8068292Y5065750D02*
X8064700D01*
Y4954700D01*
X8175750D01*
Y4958292D01*
X8167316Y4989765D01*
X8151024Y5017984D01*
X8127984Y5041024D01*
X8099766Y5057316D01*
X8068292Y5065750D01*
D02*
G37*
G36*
X8547300D02*
X8543708D01*
X8512234Y5057316D01*
X8484016Y5041024D01*
X8460975Y5017984D01*
X8444683Y4989765D01*
X8436250Y4958292D01*
Y4954700D01*
X8547300D01*
Y5065750D01*
D02*
G37*
G36*
X8039300D02*
X8035708D01*
X8004234Y5057316D01*
X7976016Y5041024D01*
X7952975Y5017984D01*
X7936683Y4989765D01*
X7928250Y4958292D01*
Y4954700D01*
X8039300D01*
Y5065750D01*
D02*
G37*
G36*
X8547300Y4929300D02*
X8436250D01*
Y4925708D01*
X8444683Y4894234D01*
X8460975Y4866016D01*
X8484016Y4842975D01*
X8512234Y4826683D01*
X8543708Y4818250D01*
X8547300D01*
Y4929300D01*
D02*
G37*
G36*
X8175750D02*
X8064700D01*
Y4818250D01*
X8068292D01*
X8099766Y4826683D01*
X8127984Y4842975D01*
X8151024Y4866016D01*
X8167316Y4894234D01*
X8175750Y4925708D01*
Y4929300D01*
D02*
G37*
G36*
X8039300D02*
X7928250D01*
Y4925708D01*
X7936683Y4894234D01*
X7952975Y4866016D01*
X7976016Y4842975D01*
X8004234Y4826683D01*
X8035708Y4818250D01*
X8039300D01*
Y4929300D01*
D02*
G37*
G36*
X8324649Y4829650D02*
X8287351D01*
X8251325Y4819996D01*
X8219025Y4801348D01*
X8192652Y4774975D01*
X8174003Y4742675D01*
X8164350Y4706648D01*
Y4669351D01*
X8174003Y4633325D01*
X8192652Y4601025D01*
X8219025Y4574652D01*
X8251325Y4556003D01*
X8287351Y4546350D01*
X8324649D01*
X8360675Y4556003D01*
X8392975Y4574652D01*
X8419348Y4601025D01*
X8437997Y4633325D01*
X8447650Y4669351D01*
Y4706648D01*
X8437997Y4742675D01*
X8419348Y4774975D01*
X8392975Y4801348D01*
X8360675Y4819996D01*
X8324649Y4829650D01*
D02*
G37*
G36*
X8068292Y4557750D02*
X8064700D01*
Y4446700D01*
X8175750D01*
Y4450292D01*
X8167316Y4481765D01*
X8151024Y4509984D01*
X8127984Y4533024D01*
X8099766Y4549316D01*
X8068292Y4557750D01*
D02*
G37*
G36*
X8039300D02*
X8035708D01*
X8004234Y4549316D01*
X7976016Y4533024D01*
X7952975Y4509984D01*
X7936683Y4481765D01*
X7928250Y4450292D01*
Y4446700D01*
X8039300D01*
Y4557750D01*
D02*
G37*
G36*
X8547300D02*
X8543708D01*
X8512234Y4549316D01*
X8484016Y4533024D01*
X8460975Y4509984D01*
X8444683Y4481765D01*
X8436250Y4450292D01*
Y4446700D01*
X8547300D01*
Y4557750D01*
D02*
G37*
G36*
Y4421300D02*
X8436250D01*
Y4417708D01*
X8444683Y4386234D01*
X8460975Y4358016D01*
X8484016Y4334975D01*
X8512234Y4318683D01*
X8543708Y4310250D01*
X8547300D01*
Y4421300D01*
D02*
G37*
G36*
X8175750D02*
X8064700D01*
Y4310250D01*
X8068292D01*
X8099766Y4318683D01*
X8127984Y4334975D01*
X8151024Y4358016D01*
X8167316Y4386234D01*
X8175750Y4417708D01*
Y4421300D01*
D02*
G37*
G36*
X8039300D02*
X7928250D01*
Y4417708D01*
X7936683Y4386234D01*
X7952975Y4358016D01*
X7976016Y4334975D01*
X8004234Y4318683D01*
X8035708Y4310250D01*
X8039300D01*
Y4421300D01*
D02*
G37*
G36*
X6895025Y3997900D02*
X6874975D01*
X6856451Y3990227D01*
X6842273Y3976049D01*
X6834600Y3957525D01*
Y3937475D01*
X6842273Y3918951D01*
X6856451Y3904773D01*
X6874975Y3897100D01*
X6895025D01*
X6913549Y3904773D01*
X6927727Y3918951D01*
X6935400Y3937475D01*
Y3957525D01*
X6927727Y3976049D01*
X6913549Y3990227D01*
X6895025Y3997900D01*
D02*
G37*
G36*
X7850025Y4535400D02*
X7829975D01*
X7811451Y4527727D01*
X7797273Y4513549D01*
X7789600Y4495025D01*
Y4474975D01*
X7797273Y4456451D01*
X7806456Y4447268D01*
Y4133894D01*
X7063606Y3391045D01*
X6960231D01*
X6948549Y3402727D01*
X6930025Y3410400D01*
X6909975D01*
X6891451Y3402727D01*
X6877273Y3388549D01*
X6869600Y3370025D01*
Y3349975D01*
X6877273Y3331451D01*
X6891451Y3317273D01*
X6909975Y3309600D01*
X6930025D01*
X6948549Y3317273D01*
X6955232Y3323956D01*
X7077500D01*
X7090337Y3326509D01*
X7101220Y3333780D01*
X7863720Y4096280D01*
X7870991Y4107163D01*
X7873545Y4120000D01*
Y4447268D01*
X7882727Y4456451D01*
X7890400Y4474975D01*
Y4495025D01*
X7882727Y4513549D01*
X7868549Y4527727D01*
X7850025Y4535400D01*
D02*
G37*
G36*
X8068292Y3079750D02*
X8064700D01*
Y2968700D01*
X8175750D01*
Y2972292D01*
X8167316Y3003766D01*
X8151024Y3031984D01*
X8127984Y3055024D01*
X8099766Y3071316D01*
X8068292Y3079750D01*
D02*
G37*
G36*
X8039300D02*
X8035708D01*
X8004234Y3071316D01*
X7976016Y3055024D01*
X7952975Y3031984D01*
X7936683Y3003766D01*
X7928250Y2972292D01*
Y2968700D01*
X8039300D01*
Y3079750D01*
D02*
G37*
G36*
X8547300D02*
X8543708D01*
X8512234Y3071316D01*
X8484016Y3055024D01*
X8460975Y3031984D01*
X8444683Y3003766D01*
X8436250Y2972292D01*
Y2968700D01*
X8547300D01*
Y3079750D01*
D02*
G37*
G36*
Y2943300D02*
X8436250D01*
Y2939708D01*
X8444683Y2908234D01*
X8460975Y2880016D01*
X8484016Y2856975D01*
X8512234Y2840683D01*
X8543708Y2832250D01*
X8547300D01*
Y2943300D01*
D02*
G37*
G36*
X8175750D02*
X8064700D01*
Y2832250D01*
X8068292D01*
X8099766Y2840683D01*
X8127984Y2856975D01*
X8151024Y2880016D01*
X8167316Y2908234D01*
X8175750Y2939708D01*
Y2943300D01*
D02*
G37*
G36*
X8039300D02*
X7928250D01*
Y2939708D01*
X7936683Y2908234D01*
X7952975Y2880016D01*
X7976016Y2856975D01*
X8004234Y2840683D01*
X8035708Y2832250D01*
X8039300D01*
Y2943300D01*
D02*
G37*
G36*
X7380201Y2782707D02*
Y2700200D01*
X7462707D01*
X7456259Y2724265D01*
X7443719Y2745985D01*
X7425985Y2763719D01*
X7404265Y2776259D01*
X7380201Y2782707D01*
D02*
G37*
G36*
X7354801Y2782707D02*
X7330735Y2776259D01*
X7309015Y2763719D01*
X7291281Y2745985D01*
X7278741Y2724265D01*
X7272293Y2700200D01*
X7354801D01*
Y2782707D01*
D02*
G37*
G36*
X7462707Y2674800D02*
X7380201D01*
Y2592293D01*
X7404265Y2598741D01*
X7425985Y2611281D01*
X7443719Y2629015D01*
X7456259Y2650735D01*
X7462707Y2674800D01*
D02*
G37*
G36*
X7354801D02*
X7272293D01*
X7278741Y2650735D01*
X7291281Y2629015D01*
X7309015Y2611281D01*
X7330735Y2598741D01*
X7354801Y2592293D01*
Y2674800D01*
D02*
G37*
G36*
X8324649Y2843650D02*
X8287351D01*
X8251325Y2833997D01*
X8219025Y2815348D01*
X8192652Y2788975D01*
X8174003Y2756675D01*
X8164350Y2720649D01*
Y2683351D01*
X8174003Y2647325D01*
X8192652Y2615025D01*
X8219025Y2588652D01*
X8251325Y2570003D01*
X8287351Y2560350D01*
X8324649D01*
X8360675Y2570003D01*
X8392975Y2588652D01*
X8419348Y2615025D01*
X8437997Y2647325D01*
X8447650Y2683351D01*
Y2720649D01*
X8437997Y2756675D01*
X8419348Y2788975D01*
X8392975Y2815348D01*
X8360675Y2833997D01*
X8324649Y2843650D01*
D02*
G37*
G36*
X8068292Y2571750D02*
X8064700D01*
Y2460700D01*
X8175750D01*
Y2464292D01*
X8167316Y2495766D01*
X8151024Y2523984D01*
X8127984Y2547024D01*
X8099766Y2563316D01*
X8068292Y2571750D01*
D02*
G37*
G36*
X8547300D02*
X8543708D01*
X8512234Y2563316D01*
X8484016Y2547024D01*
X8460975Y2523984D01*
X8444683Y2495766D01*
X8436250Y2464292D01*
Y2460700D01*
X8547300D01*
Y2571750D01*
D02*
G37*
G36*
X8039300D02*
X8035708D01*
X8004234Y2563316D01*
X7976016Y2547024D01*
X7952975Y2523984D01*
X7936683Y2495766D01*
X7928250Y2464292D01*
Y2460700D01*
X8039300D01*
Y2571750D01*
D02*
G37*
G36*
X8547300Y2435300D02*
X8436250D01*
Y2431708D01*
X8444683Y2400234D01*
X8460975Y2372016D01*
X8484016Y2348975D01*
X8512234Y2332683D01*
X8543708Y2324250D01*
X8547300D01*
Y2435300D01*
D02*
G37*
G36*
X8175750D02*
X8064700D01*
Y2324250D01*
X8068292D01*
X8099766Y2332683D01*
X8127984Y2348975D01*
X8151024Y2372016D01*
X8167316Y2400234D01*
X8175750Y2431708D01*
Y2435300D01*
D02*
G37*
G36*
X8039300D02*
X7928250D01*
Y2431708D01*
X7936683Y2400234D01*
X7952975Y2372016D01*
X7976016Y2348975D01*
X8004234Y2332683D01*
X8035708Y2324250D01*
X8039300D01*
Y2435300D01*
D02*
G37*
%LPD*%
D53*
X1531250Y6318750D02*
X1532500Y6317500D01*
X1272500Y6320000D02*
X1273750Y6318750D01*
X1531250D01*
X1817500Y5077500D02*
X1820000Y5075000D01*
X1480000Y5080000D02*
X1482500Y5077500D01*
X1817500D01*
X2845000Y3785000D02*
X3120000Y4060000D01*
Y4390000D01*
X4185000Y4162500D02*
Y4425000D01*
X4210000Y4450000D01*
X4090000Y4067500D02*
X4185000Y4162500D01*
X367500Y7317500D02*
X2517218D01*
X2648068Y7186650D01*
X6920000Y3360000D02*
X6922500Y3357500D01*
X7077500D01*
X2648068Y7186650D02*
X5560650D01*
X7747500Y7142500D02*
X7816529Y7211529D01*
X2487500Y7257500D02*
X2602500Y7142500D01*
X7747500D01*
X5560650Y7186650D02*
X5694000Y7320000D01*
X7840000Y4120000D02*
Y4485000D01*
X7077500Y3357500D02*
X7840000Y4120000D01*
X7290000Y5440000D02*
X7470000D01*
X4486558Y4000000D02*
X5105000D01*
X5105000Y4000000D01*
X4406558Y3920000D02*
X4486558Y4000000D01*
X2385000Y2192500D02*
X2492500D01*
X2300000Y3595000D02*
X2610000D01*
X2957500Y6155000D02*
X3192500Y5920000D01*
X3875000D01*
X287379Y7257500D02*
X2487500D01*
X3655560Y3684900D02*
X3797960Y3542500D01*
X4515000D01*
X3495000Y5477500D02*
X3497500Y5475000D01*
Y5367500D02*
Y5475000D01*
Y5367500D02*
X3500000Y5365000D01*
X3502500Y6300000D02*
Y6435000D01*
X2955000Y5674246D02*
X3115754Y5835000D01*
X2955000Y5602500D02*
Y5674246D01*
X3115754Y5835000D02*
X3877500D01*
X3662500Y3920000D02*
X4406558D01*
X740000Y3224000D02*
X748500Y3232500D01*
X1150000D01*
X2020836Y2285836D02*
X2070000Y2335000D01*
X1975000Y2222500D02*
X2020836Y2268336D01*
Y2285836D01*
X750803Y2980803D02*
X1143303D01*
X740000Y2970000D02*
X750803Y2980803D01*
X1143303D02*
X1150000Y2987500D01*
X1421250Y3782500D02*
X1653750Y4015000D01*
X1420000Y3782500D02*
X1421250D01*
X1653750Y4015000D02*
X1655000D01*
X1605000Y1595000D02*
Y2515000D01*
Y1595000D02*
X1877500Y1322500D01*
X272793Y3359707D02*
Y3377101D01*
X272500Y3377394D02*
X272793Y3377101D01*
X272500Y3377394D02*
Y7242621D01*
X272793Y3359707D02*
X277500Y3355000D01*
X218750Y2663750D02*
X441250D01*
X217500Y3192500D02*
X219800Y3194800D01*
Y7254126D01*
X268574Y7302900D01*
X272500Y7242621D02*
X287379Y7257500D01*
X7816529Y7211529D02*
Y7322529D01*
X7824000Y7330000D01*
X268574Y7302900D02*
X367500Y7317500D01*
D54*
X2847500Y3597500D02*
Y3599786D01*
X2777500Y3669786D02*
X2847500Y3599786D01*
Y2487706D02*
Y3597500D01*
X2972500D01*
X4654550Y3729550D02*
Y3752050D01*
X4752500Y3850000D01*
X4652499Y3727500D02*
X4654550Y3729550D01*
X2220000Y2962501D02*
Y3731569D01*
Y2962501D02*
X2515000Y2667500D01*
X2055000Y3896569D02*
X2220000Y3731569D01*
X2972500Y3597500D02*
X3065587Y3690587D01*
X5015000Y7072500D02*
X5466250Y6621250D01*
X4042500Y7072500D02*
X5015000D01*
X5230587Y4136913D02*
X5232500Y4135000D01*
X5198087Y4136913D02*
X5230587D01*
X4476700Y4858300D02*
X5198087Y4136913D01*
X1609777Y4858300D02*
X4476700D01*
X1373077Y5095000D02*
X1609777Y4858300D01*
X795000Y5095000D02*
X1373077D01*
X5650000Y5352500D02*
X6905000D01*
X7072500Y5520000D01*
X7528087Y5975587D01*
X6687500Y3722500D02*
X6845000D01*
X7445000Y4122500D02*
X7637500D01*
X7042500Y3720000D02*
X7445000Y4122500D01*
X6847500Y3720000D02*
X7042500D01*
X6845000Y3722500D02*
X6847500Y3720000D01*
X6657500Y3615000D02*
X6685587Y3643087D01*
Y3720587D01*
X6687500Y3722500D01*
X5122500Y3615000D02*
X6657500D01*
X5300000Y4810000D02*
Y5127500D01*
Y3865000D02*
Y4810000D01*
X6917294Y4382500D02*
X6920000D01*
X6904794Y4395000D02*
X6917294Y4382500D01*
X5365000Y4140000D02*
X5620000Y4395000D01*
X6904794D01*
X4889413Y3848087D02*
X5007500Y3730000D01*
X4754413Y3848087D02*
X4889413D01*
X2937500Y2742500D02*
X4170000D01*
X4652499Y3224999D02*
Y3727500D01*
X4170000Y2742500D02*
X4652499Y3224999D01*
X3065587Y3725587D02*
X3067500Y3727500D01*
X3065587Y3690587D02*
Y3725587D01*
X6921250Y4383750D02*
X7108750D01*
X7110000Y4385000D01*
X6920000Y4382500D02*
X6921250Y4383750D01*
X5300000Y5127500D02*
X5587500Y5415000D01*
X5257211Y3822211D02*
X5300000Y3865000D01*
X7132500Y6335000D02*
X7473087Y5994413D01*
X7528087D02*
X7530000Y5992500D01*
X7473087Y5994413D02*
X7528087D01*
Y5975587D02*
Y5990587D01*
X7530000Y5992500D01*
X4752500Y3850000D02*
X4754413Y3848087D01*
X5025143Y3730000D02*
X5117355Y3822211D01*
X5257211D01*
X5587500Y5415000D02*
X5650000Y5352500D01*
X5470000Y5529794D02*
X5584794Y5415000D01*
X5470000Y5529794D02*
Y6060000D01*
X5584794Y5415000D02*
X5587500D01*
X5470000Y6060000D02*
X5749234Y6339234D01*
X5604669Y6482832D02*
X5612168D01*
X5749234Y6339234D02*
Y6341147D01*
X5612168Y6482832D02*
X5752500Y6342500D01*
X5466250Y6621250D02*
X5604669Y6482832D01*
X5007500Y3730000D02*
X5122500Y3615000D01*
X5007500Y3730000D02*
X5025143D01*
X1278733Y4582500D02*
Y4718732D01*
X1357500Y4797500D01*
X1202500Y4506268D02*
X1278733Y4582500D01*
X1137500Y4390000D02*
X1202500Y4455000D01*
Y4506268D01*
X2055000Y3896569D02*
Y3917500D01*
Y3712500D02*
Y3896569D01*
X2515000Y2667500D02*
X2767500D01*
X2220000Y3731569D02*
X2243431Y3755000D01*
X2247431D02*
X2405000D01*
X479018Y6628087D02*
X548087D01*
X462500Y6611568D02*
X479018Y6628087D01*
X462500Y5065000D02*
Y6611568D01*
X548087Y6628087D02*
X550000Y6630000D01*
X462500Y5065000D02*
X1137500Y4390000D01*
X1087500Y4337294D02*
X1137500Y4387294D01*
Y4390000D01*
X1087500Y4012500D02*
Y4337294D01*
X982500Y3730000D02*
Y3907500D01*
X1087500Y4012500D01*
X1085446Y3627054D02*
X1862054D01*
X982500Y3730000D02*
X1085446Y3627054D01*
X1862054D02*
X1864760D01*
X1866713Y3625100D01*
X1974424D02*
X2055000Y3705676D01*
X1866713Y3625100D02*
X1974424D01*
X2669999Y1949423D02*
Y2307499D01*
X2381543Y1660967D02*
X2669999Y1949423D01*
X5887700Y7042700D02*
X5891044D01*
X5903344Y7055000D02*
X5910000D01*
X5891044Y7042700D02*
X5903344Y7055000D01*
X5466250Y6621250D02*
X5887700Y7042700D01*
X2669999Y2307499D02*
X2847500Y2485000D01*
X4491617D01*
X4594117Y2587500D02*
X4612500D01*
X4491617Y2485000D02*
X4594117Y2587500D01*
X1917500Y1050000D02*
X2005000Y962500D01*
X1605000Y1362500D02*
X1917500Y1050000D01*
X2381543Y1514043D01*
Y1660967D01*
X591250Y1476250D02*
X1603750D01*
X590000Y1475000D02*
X591250Y1476250D01*
X1603750D02*
X1605000Y1477500D01*
Y1362500D02*
Y1477500D01*
X2005000Y584823D02*
Y962500D01*
X2160000Y410000D02*
Y429823D01*
X2005000Y584823D02*
X2160000Y429823D01*
D55*
X6107100Y6395000D02*
X6337100Y6625000D01*
X6473884D01*
X7860184D02*
X7874910D01*
X7860184Y6620900D02*
Y6625000D01*
X7819784Y6620900D02*
X7860184D01*
X7819784D02*
Y6824100D01*
X7779384D02*
X7819784D01*
X7779384Y6620900D02*
Y6824100D01*
X7738985Y6620900D02*
X7779384D01*
X7738985D02*
Y6824100D01*
X7698585D02*
X7738985D01*
X7698585Y6620900D02*
Y6824100D01*
X7658185Y6620900D02*
X7698585D01*
X7658185D02*
Y6824100D01*
X7617785D02*
X7658185D01*
X7617785Y6620900D02*
Y6824100D01*
X7577385Y6620900D02*
X7617785D01*
X7577385D02*
Y6824100D01*
X7536985D02*
X7577385D01*
X7536985Y6620900D02*
Y6824100D01*
X7496585Y6620900D02*
X7536985D01*
X7496585D02*
Y6824100D01*
X7456185D02*
X7496585D01*
X7456185Y6620900D02*
Y6824100D01*
X7415785Y6620900D02*
X7456185D01*
X7415785D02*
Y6824100D01*
X7375385D02*
X7415785D01*
X7375385Y6620900D02*
Y6824100D01*
X7334985Y6620900D02*
X7375385D01*
X7334985D02*
Y6824100D01*
X7294585D02*
X7334985D01*
X7294585Y6620900D02*
Y6824100D01*
X7254185Y6620900D02*
X7294585D01*
X7254185D02*
Y6824100D01*
X7213785D02*
X7254185D01*
X7213785Y6620900D02*
Y6824100D01*
X7173385Y6620900D02*
X7213785D01*
X7173385D02*
Y6824100D01*
X7132985D02*
X7173385D01*
X7132985Y6620900D02*
Y6824100D01*
X7092585Y6620900D02*
X7132985D01*
X7092585D02*
Y6824100D01*
X7052185D02*
X7092585D01*
X7052185Y6620900D02*
Y6824100D01*
X7011785Y6620900D02*
X7052185D01*
X7011785D02*
Y6824100D01*
X6971385D02*
X7011785D01*
X6971385Y6620900D02*
Y6824100D01*
X6930985Y6620900D02*
X6971385D01*
X6930985D02*
Y6824100D01*
X6890585D02*
X6930985D01*
X6890585Y6620900D02*
Y6824100D01*
X6850185Y6620900D02*
X6890585D01*
X6850185D02*
Y6824100D01*
X6809785D02*
X6850185D01*
X6809785Y6620900D02*
Y6824100D01*
X6769385Y6620900D02*
X6809785D01*
X6769385D02*
Y6824100D01*
X6728985D02*
X6769385D01*
X6728985Y6620900D02*
Y6824100D01*
X6688585Y6620900D02*
X6728985D01*
X6688585D02*
Y6824100D01*
X6648185D02*
X6688585D01*
X6648185Y6620900D02*
Y6824100D01*
X6607785Y6620900D02*
X6648185D01*
X6607785D02*
Y6824100D01*
X6567385D02*
X6607785D01*
X6567385Y6620900D02*
Y6824100D01*
X6526985Y6620900D02*
X6567385D01*
X6526985D02*
Y6824100D01*
X6486585D02*
X6526985D01*
X6486585Y6625000D02*
Y6824100D01*
X6473884Y6625000D02*
X6486585D01*
X7874910D02*
X8187571D01*
X6500822Y5737700D02*
X6568522Y5670000D01*
X6098063Y5737700D02*
X6500822D01*
X5990535Y5845228D02*
X6098063Y5737700D01*
X5990535Y5845228D02*
Y6271965D01*
X217500Y2665000D02*
X218750Y2663750D01*
X441250D02*
X442500Y2662500D01*
X7327500Y6350000D02*
Y6455000D01*
X7230000Y6552500D02*
X7327500Y6455000D01*
X6479600Y6552500D02*
X7230000D01*
X6307100Y6380000D02*
X6479600Y6552500D01*
X5930000Y6332500D02*
X5990535Y6271965D01*
X8095000Y5830000D02*
X8538028Y6273029D01*
Y6398028D02*
X8560000Y6420000D01*
X8032500Y5830000D02*
X8095000D01*
X8538028Y6273029D02*
Y6398028D01*
X8266373Y6634373D02*
X8306000Y6674000D01*
X8196944Y6634373D02*
X8266373D01*
X8187571Y6625000D02*
X8196944Y6634373D01*
X5736657Y6465000D02*
X5751657Y6480000D01*
X5900000D01*
X5730000Y6465000D02*
X5736657D01*
X6568522Y5670000D02*
X6737500D01*
D56*
X5592500Y6007500D02*
X5593750D01*
X5776250Y5825000D01*
X5777500D01*
X6267500Y7087500D02*
X8745784D01*
X8757500Y7075784D01*
X5732500Y6552500D02*
X6267500Y7087500D01*
X8757500Y942428D02*
Y7075784D01*
X5620000Y6092500D02*
X6032500Y5680000D01*
X6400000D01*
X6735000Y6410000D02*
X7202500D01*
X6125000Y5800000D02*
X6735000Y6410000D01*
X6685000Y6490000D02*
X7075000D01*
X6212500Y6017500D02*
X6685000Y6490000D01*
X8306000Y716000D02*
X8531072D01*
X8757500Y942428D01*
X6132500Y6017500D02*
X6212500D01*
X6930000Y5610000D02*
X6933750Y5613750D01*
Y6228750D02*
X6937500Y6232500D01*
X6933750Y5613750D02*
Y6228750D01*
D57*
X910000Y5960000D02*
X2407500D01*
X902500Y5967500D02*
X910000Y5960000D01*
X3644481Y6962500D02*
X3669481Y6937500D01*
X3205000Y7072500D02*
X3315000Y6962500D01*
X3644481D01*
X3669481Y6937500D02*
X3707500D01*
X3230000Y6479644D02*
X3658750Y6908394D01*
X3230000Y6282500D02*
Y6479644D01*
X3658750Y6908394D02*
Y6937500D01*
X2986005Y6282500D02*
X3230000D01*
X2887500Y6183995D02*
X2986005Y6282500D01*
X2887500Y5989290D02*
Y6183995D01*
X2407500Y5960000D02*
X2858211D01*
X2887500Y5989290D01*
X2407500Y5335000D02*
Y5960000D01*
D58*
X740000Y2716000D02*
D03*
Y2970000D02*
D03*
D59*
Y3224000D02*
D03*
D60*
X2160000Y410000D02*
D03*
Y283000D02*
D03*
X2033000Y410000D02*
D03*
Y283000D02*
D03*
X1906000Y410000D02*
D03*
Y283000D02*
D03*
X1779000Y410000D02*
D03*
Y283000D02*
D03*
X1652000Y410000D02*
D03*
Y283000D02*
D03*
D61*
X8306000Y4688000D02*
D03*
Y716000D02*
D03*
Y2702000D02*
D03*
Y6674000D02*
D03*
D62*
X8560000Y4942000D02*
D03*
Y4434000D02*
D03*
X8052000Y4942000D02*
D03*
Y4434000D02*
D03*
Y462000D02*
D03*
Y970000D02*
D03*
X8560000Y462000D02*
D03*
Y970000D02*
D03*
X8052000Y2448000D02*
D03*
Y2956000D02*
D03*
X8560000Y2448000D02*
D03*
Y2956000D02*
D03*
X8052000Y6420000D02*
D03*
Y6928000D02*
D03*
X8560000Y6420000D02*
D03*
Y6928000D02*
D03*
D63*
X5895001Y513490D02*
D03*
X6395000D02*
D03*
D64*
X6894999D02*
D03*
D65*
X2822000Y7330000D02*
D03*
X4540000Y7320000D02*
D03*
X6628000Y7330000D02*
D03*
X7824000D02*
D03*
X5694000Y7320000D02*
D03*
D66*
X3076000Y7330000D02*
D03*
X3330000D02*
D03*
X3707500Y6937500D02*
D03*
X5882500Y4680000D02*
D03*
X4612500Y2333500D02*
D03*
Y2587500D02*
D03*
X2465000Y6862500D02*
D03*
X5452500Y1762500D02*
D03*
X3340000Y5170000D02*
D03*
X2912500Y1332500D02*
D03*
X4267500Y3227500D02*
D03*
X3475000Y2930000D02*
D03*
X4210000Y4450000D02*
D03*
X3120000Y4390000D02*
D03*
X6302500Y2927500D02*
D03*
X7367500Y2687500D02*
D03*
X5297500Y4810000D02*
D03*
X795000Y5095000D02*
D03*
X2342500Y5057500D02*
D03*
X5130000Y6280000D02*
D03*
X4580000Y6440000D02*
D03*
X2645000Y6312500D02*
D03*
X5140000Y5400000D02*
D03*
X2495000Y4305000D02*
D03*
X4032000Y7320000D02*
D03*
X4286000D02*
D03*
X6120000Y7330000D02*
D03*
X6374000D02*
D03*
X7316000D02*
D03*
X7570000D02*
D03*
X5186000Y7320000D02*
D03*
X5440000D02*
D03*
D67*
X4857500Y710986D02*
D03*
D68*
X5057500D02*
D03*
D69*
X602500Y392500D02*
D03*
X6492500Y4880000D02*
D03*
X4322500Y5162500D02*
D03*
X575000Y3982500D02*
D03*
X1420000Y6517500D02*
D03*
X7402500Y1675000D02*
D03*
D70*
X4612500Y2841500D02*
D03*
D71*
X1532500Y6317500D02*
D03*
X1272500Y6320000D02*
D03*
X2970000Y3352500D02*
D03*
X4042500Y7072500D02*
D03*
X5777500Y5825000D02*
D03*
X1322500Y5640000D02*
D03*
X1480000Y5080000D02*
D03*
X1662500Y967500D02*
D03*
X4422500Y1395000D02*
D03*
X4225000Y1542500D02*
D03*
X6847500Y2920000D02*
D03*
X2582500Y2542500D02*
D03*
X3205000Y2367500D02*
D03*
X1095000Y6097500D02*
D03*
X782500Y710000D02*
D03*
X5013203Y3523182D02*
D03*
X6920000Y3360000D02*
D03*
X1860000Y1912500D02*
D03*
X1952500Y3840000D02*
D03*
X2845000Y3785000D02*
D03*
X8409995Y5549997D02*
D03*
X8559995Y5249997D02*
D03*
Y4649997D02*
D03*
X8409995Y4349997D02*
D03*
X8559995Y4049997D02*
D03*
X8409995Y3749997D02*
D03*
X8559995Y3449997D02*
D03*
X8409995Y3149998D02*
D03*
Y2549998D02*
D03*
X8259995Y5849997D02*
D03*
Y5249997D02*
D03*
Y4049997D02*
D03*
X8109995Y3749997D02*
D03*
Y3149998D02*
D03*
X7809995Y6149997D02*
D03*
Y5549997D02*
D03*
X7959995Y4649997D02*
D03*
Y4049997D02*
D03*
X7809995Y3749997D02*
D03*
X7959995Y3449997D02*
D03*
X7809995Y3149998D02*
D03*
Y2549998D02*
D03*
X7659995Y5249997D02*
D03*
X7509995Y4949997D02*
D03*
X7659995Y4649997D02*
D03*
Y3449997D02*
D03*
X7509995Y3149998D02*
D03*
X7659995Y2849998D02*
D03*
X7509995Y2549998D02*
D03*
X7209995Y4949997D02*
D03*
X7359995Y4649997D02*
D03*
X7209995Y3749997D02*
D03*
X7359995Y3449997D02*
D03*
X7209995Y3149998D02*
D03*
Y2549998D02*
D03*
X6909995Y4949997D02*
D03*
X7059995Y2849998D02*
D03*
X6885000Y3947500D02*
D03*
X6670000Y3880000D02*
D03*
X7110000Y4385000D02*
D03*
X6920000Y4382500D02*
D03*
X5365000Y4140000D02*
D03*
X7132500Y6335000D02*
D03*
X7530000Y5992500D02*
D03*
X5232500Y4135000D02*
D03*
X4752500Y3850000D02*
D03*
X7072500Y5520000D02*
D03*
X5885000Y5417500D02*
D03*
X5587500Y5415000D02*
D03*
X5752500Y6342500D02*
D03*
X4740000Y3610000D02*
D03*
X5117355Y3822211D02*
D03*
X5122500Y3615000D02*
D03*
X1357500Y4797500D02*
D03*
X1278733Y4582500D02*
D03*
X5105000Y4000000D02*
D03*
X4530000Y3872500D02*
D03*
X2937500Y2742500D02*
D03*
X2385000Y2192500D02*
D03*
X2492500D02*
D03*
X2937500Y3685000D02*
D03*
X2715000Y3412500D02*
D03*
X2777500Y3672492D02*
D03*
X2767500Y2667500D02*
D03*
X2610000Y3595000D02*
D03*
X2300000D02*
D03*
X3067500Y3727500D02*
D03*
X2840000Y5062500D02*
D03*
X3000000Y6405000D02*
D03*
X1150000Y3057500D02*
D03*
Y3302500D02*
D03*
X2935000Y2302500D02*
D03*
X2762500Y2180000D02*
D03*
X550000Y6630000D02*
D03*
X1137500Y4390000D02*
D03*
X1087500Y4012500D02*
D03*
X982500Y3730000D02*
D03*
X1862054Y3627054D02*
D03*
X2055000Y3917500D02*
D03*
X2405000Y3755000D02*
D03*
X1820000Y5075000D02*
D03*
X4840000Y2165000D02*
D03*
X3655560Y3684900D02*
D03*
X3500000Y5365000D02*
D03*
X3495000Y5477500D02*
D03*
X3502500Y6435000D02*
D03*
Y6300000D02*
D03*
X2955000Y5602500D02*
D03*
X3877500Y5835000D02*
D03*
X3230000Y6282500D02*
D03*
X2847500Y2485000D02*
D03*
X1690568Y7154522D02*
D03*
X2612500Y1800000D02*
D03*
X3305000Y1737500D02*
D03*
X4515000Y3542500D02*
D03*
X1875000Y1497500D02*
D03*
X2212500D02*
D03*
X1283643Y3541034D02*
D03*
X3662500Y3920000D02*
D03*
X837500Y7180000D02*
D03*
X1807500Y6892500D02*
D03*
X1310000Y7057500D02*
D03*
X215000Y2735000D02*
D03*
X1150000Y3232500D02*
D03*
X2665000Y3550000D02*
D03*
X2300000Y3525000D02*
D03*
X2012500Y2377500D02*
D03*
X1905000Y2222500D02*
D03*
X2070000Y2335000D02*
D03*
X1975000Y2222500D02*
D03*
X1150000Y2987500D02*
D03*
X1420000Y3782500D02*
D03*
X1655000Y4015000D02*
D03*
X1605000Y2515000D02*
D03*
X1267500Y4477500D02*
D03*
X1725000Y4577500D02*
D03*
X590000Y1475000D02*
D03*
X1605000Y1477500D02*
D03*
X1877500Y1322500D02*
D03*
X2005000Y962500D02*
D03*
X217500Y2665000D02*
D03*
X442500Y2662500D02*
D03*
X517500Y1895100D02*
D03*
X217500Y3192500D02*
D03*
X277500Y3355000D02*
D03*
X995000Y6910000D02*
D03*
X2265000Y282500D02*
D03*
X7202500Y6410000D02*
D03*
X7075000Y6490000D02*
D03*
X1662500Y6032500D02*
D03*
X1507500Y4355000D02*
D03*
X5930000Y6332500D02*
D03*
X5910000Y7055000D02*
D03*
X8032500Y5830000D02*
D03*
X2407500Y5335000D02*
D03*
X7637500Y4122500D02*
D03*
X6687500Y3722500D02*
D03*
X2022500Y6222500D02*
D03*
X2025000Y6030000D02*
D03*
X902500Y5967500D02*
D03*
X3205000Y7072500D02*
D03*
X1663500Y4974699D02*
D03*
X1661300Y4793300D02*
D03*
X1432500Y3710000D02*
D03*
X1725000Y4007500D02*
D03*
X572500Y5777500D02*
D03*
X577500Y5967500D02*
D03*
X2957500Y6155000D02*
D03*
X3875000Y5920000D02*
D03*
X7290000Y5440000D02*
D03*
X7470000D02*
D03*
X7840000Y4485000D02*
D03*
X4090000Y4067500D02*
D03*
X805000Y982500D02*
D03*
X442500Y2732500D02*
D03*
X1947500Y1320000D02*
D03*
X1677500Y2507500D02*
D03*
X1492500Y7062400D02*
D03*
X2675000Y5327500D02*
D03*
X3105000Y5380000D02*
D03*
X3255000Y640000D02*
D03*
X3782500Y1062500D02*
D03*
X3805000Y635000D02*
D03*
X3272500Y1067500D02*
D03*
X3717500Y1407500D02*
D03*
X4635000Y1672500D02*
D03*
X4587500Y3440000D02*
D03*
X2405000Y4072500D02*
D03*
X4992500Y4215000D02*
D03*
X3231250Y5493750D02*
D03*
X4870000Y5905000D02*
D03*
X6677500Y4307500D02*
D03*
X7070000Y6120000D02*
D03*
X6107100Y6395000D02*
D03*
X5732500Y6552500D02*
D03*
X6125000Y5800000D02*
D03*
X5620000Y6092500D02*
D03*
X6400000Y5680000D02*
D03*
X6132500Y6017500D02*
D03*
X5592500Y6007500D02*
D03*
X7327500Y6350000D02*
D03*
X6307100Y6380000D02*
D03*
X5900000Y6480000D02*
D03*
X5730000Y6465000D02*
D03*
X6937500Y6232500D02*
D03*
X6930000Y5610000D02*
D03*
X6737500Y5670000D02*
D03*
D88*
X115000Y245000D02*
Y7278921D01*
X237129Y7401050D01*
X115000Y245000D02*
X292900Y67100D01*
X6448609D01*
X6894999Y513490D01*
X237129Y7401050D02*
X2750950D01*
X2822000Y7330000D01*
%TF.MD5,d7e7070c81c64e738407eb2f12321e5e*%
M02*
