M48
;Layer_Color=9474304
;FILE_FORMAT=4:3
METRIC,LZ
;TYPE=PLATED
T01F00S00C0.300
T02F00S00C0.700
T03F00S00C0.711
T04F00S00C0.813
T05F00S00C1.067
T06F00S00C1.300
T07F00S00C1.550
T08F00S00C1.600
T09F00S00C1.650
%
T01
X00701Y00035
X00741
X00781
X00821
X00801Y00075
X00761
X00721
X00701Y00115
X00741
X00781
X00821
Y00195
X00781
X00741
X00701
X00721Y00155
X00761
X00751Y00255
X00781
X00841
X00721
X00681Y00235
X00641
X00621Y00195
X00661
X00681Y00155
X00641
X00621Y00115
X00661
X00681Y00075
X00601
X00561
X00521
X00501Y00115
X00541
X00581
X00561Y00155
X00521
X00541Y00195
X00581
X00561Y00235
X00481
X00484Y002165
X004635Y0016725
X0044225Y001395
X004225Y0015425
X00401Y00155
X0037175Y0014075
X0037825Y0010625
X003805Y000635
X00381Y00035
X00421
X00461
X00501
X00541
X00581
X00621
X00441Y00075
X00421Y00115
X00461
X0032725Y0010675
X00301Y00115
X00321Y00155
X003305Y0017375
X00341Y00195
X00301
X002935Y0023025
X003205Y0023675
X003255Y00064
X00341Y00035
X00261
X002265Y0002825
X00241Y00075
X00281
X00261Y00115
X00221
X0022125Y0014975
X001875
X0018775Y0013225
X0019475Y00132
X002005Y0009625
X0016625Y0009675
X00161Y00075
X00121
X0007825Y00071
X000805Y0009825
X00101Y00115
X00141
X001605Y0014775
X00186Y0019125
X001905Y0022225
X001975
X0020125Y0023775
X00207Y002335
X002385Y0021925
X0024925
X0027625Y00218
X0028475Y002485
X0027675Y0026675
X0025825Y0025425
X0026125Y0018
X00281Y00155
X0016775Y0025075
X001605Y002515
X00121Y00235
X00081
X00061Y00195
X0005175Y0018951
X00059Y001475
X00041Y00075
X00021Y00035
X00101
X00141
X0004425Y0026625
X0002175Y002665
X000215Y002735
X0004425Y0027325
X00061Y00275
X00101
X00115Y0029875
Y0030575
X00121Y00315
X00115Y0032325
Y0033025
X0012836Y003541
X00141Y00355
X0014325Y00371
X00142Y0037825
X001655Y004015
X001725Y0040075
X0019525Y00384
X002055Y0039175
X0018621Y0036271
X0023Y003595
Y003525
X002405Y003755
X002405Y0040725
X00221Y00435
X00181
X0015075Y004355
X00141Y00435
X0012675Y0044775
X0012787Y0045825
X00121Y00475
X0013575Y0047975
X0016613Y0047933
X0016635Y0049747
X00182Y005075
X00148Y00508
X0013225Y00564
X001095Y0060975
X0009025Y0059675
X0005775
X0005725Y0057775
X00061Y00515
X00041Y00475
X00061Y00435
X00101
X0011375Y00439
X0010875Y0040125
X00081Y00395
X0009825Y00373
X00061Y00355
X0002775Y003355
X0002175Y0031925
X00041Y00395
X001725Y0045775
X00241Y00475
X00281
X00284Y0050625
X002675Y0053275
X0024075Y005335
X00221Y00515
X002025Y00603
X0020225Y0062225
X0016625Y0060325
X0015325Y0063175
X0012725Y00632
X00055Y00663
X00281Y00635
Y00395
X002845Y003785
X0027775Y0036725
X002665Y00355
X00261Y003595
X002715Y0034125
X00261Y00275
X00221
X00141
X00161Y00315
X00297Y0033525
X0029375Y003685
X0030675Y0037275
X0036556Y0036849
X0036625Y00392
X00409Y0040675
X00381Y00435
X00341
X00361Y00475
X00401
X00441
X00481
X00461Y00515
X00501
X00481Y00555
X00441
X00401
X0038775Y005835
X003875Y00592
X00401Y00635
X00441
X00481
X00487Y005905
X00461Y00595
X0055925Y0060075
X00562Y0060925
X0057525Y0063425
X00573Y006465
X0057325Y0065525
X0059Y00648
X00593Y0063325
X0061071Y006395
X0063071Y00638
X00681Y00635
X0067375Y00567
X0064Y00568
X006125Y0058
X0061325Y0060175
X0057775Y005825
X005885Y0054175
X0055875Y005415
X00581Y00515
X00601Y00475
X00561
X00541Y00435
X005365Y00414
X0052325Y004135
X005105Y004
X0051174Y0038222
X0051225Y003615
X0050132Y0035232
X00474Y00361
X0047525Y00385
X00453Y0038725
X004515Y0035425
X0045875Y00344
X00441Y00315
X00481
X00521
X00561
X00601
X00641
X00621Y00275
X00661
X0068475Y00292
X0066875Y0037225
X00667Y00388
X0066775Y0043075
X0049925Y004215
X00461Y00435
X00401Y00315
X00361
X0029375Y0027425
X00501Y00275
X00541
X00581
X00321Y00475
X003105Y00538
X0032312Y0054938
X003495Y0054775
X0035Y005365
X002955Y0056025
X0029575Y006155
X003Y006405
X00323Y0062825
X0035025Y0063
Y006435
X007075Y00649
X0072025Y00641
X0071325Y006335
X0073275Y00635
X00707Y00612
X0069375Y0062325
X00693Y00561
X0070725Y00552
X00729Y00544
X00747
X00766Y00525
X00781Y00555
X0080325Y00583
X00826Y00585
X00841Y00555
X00856Y00525
X00826
X00856Y00465
X00841Y00435
X00856Y00405
X00826
X00796
X0076375Y0041225
X00781Y00375
X00811
X00841
X00856Y00345
X00841Y00315
X00811
X00781
X00751
X00721
X00736Y00345
X00766
X00796
X00766Y00285
X00706
X00692Y00336
X006885Y0039475
X00692Y0043825
X00711Y004385
X00736Y00465
X00766
X00796
X00784Y004485
X00751Y00495
X00721
X00691
X00721Y00375
X00753Y0059925
X00781Y00615
X00841Y00635
Y00715
X00801
X00591Y007055
X00501Y00675
X00461
X00421
X00381
X0040425Y0070725
X003205
X00301Y00675
X00261
X00221
X0018075Y0068925
X0016906Y0071545
X00161Y00715
X0014925Y0070624
X00131Y0070575
X00121Y00715
X0008375Y00718
X000995Y00691
X00101Y00675
X00141
X00061
X00041Y00715
X00241
T02
X0048575Y000711
X0050575
T03
X001652Y000283
X001779
X001906
X002033
X00216
Y00041
X002033
X001906
X001779
X001652
T04
X00074Y002716
Y00297
Y003224
T05
X0046125Y0023335
Y0025875
X0054525Y0017625
X0029125Y0013325
X002495Y004305
X0023425Y0050575
X002645Y0063125
X000795Y005095
X00334Y00517
X00312Y00439
X00421Y00445
X0042675Y0032275
X0046125Y0028415
X003475Y00293
X0063025Y0029275
X0058825Y00468
X0052975Y00481
X00514Y0054
X00513Y00628
X00458Y00644
X0073675Y0026875
X007316Y00733
X00757
X007824
X006628
X006374
X00612
X005694Y00732
X00544
X005186
X00454
X004286
X004032
X0037075Y0069375
X00333Y00733
X003076
X002822
X002465Y0068625
T06
X006895Y0005135
X006395
X005895
T07
X008306Y000716
Y002702
Y004688
Y006674
T08
X0074025Y001675
X0006025Y0003925
X000575Y0039825
X00142Y0065175
X0043225Y0051625
X0064925Y00488
T09
X008052Y000462
Y00097
X00856
Y000462
Y002448
X008052
Y002956
X00856
Y004434
Y004942
X008052
Y004434
Y00642
X00856
Y006928
X008052
M30
